<svg viewBox="0 0 330 200.00001525878906" xmlns="http://www.w3.org/2000/svg"><g><g><g><g><g><line x1="51.5625" y1="165.20000000000002" x2="46.5625" y2="165.20000000000002" style="visibility: inherit;" fill="rgb(0, 0, 0)" stroke="rgb(204, 204, 204)" stroke-width="1px"></line><line x1="51.5625" y1="153.4" x2="46.5625" y2="153.4" style="visibility: inherit;" fill="rgb(0, 0, 0)" stroke="rgb(204, 204, 204)" stroke-width="1px"></line><line x1="51.5625" y1="141.6" x2="46.5625" y2="141.6" style="visibility: inherit;" fill="rgb(0, 0, 0)" stroke="rgb(204, 204, 204)" stroke-width="1px"></line><line x1="51.5625" y1="129.8" x2="46.5625" y2="129.8" style="visibility: inherit;" fill="rgb(0, 0, 0)" stroke="rgb(204, 204, 204)" stroke-width="1px"></line><line x1="51.5625" y1="118.00000000000001" x2="46.5625" y2="118.00000000000001" style="visibility: inherit;" fill="rgb(0, 0, 0)" stroke="rgb(204, 204, 204)" stroke-width="1px"></line><line x1="51.5625" y1="106.19999999999997" x2="46.5625" y2="106.19999999999997" style="visibility: inherit;" fill="rgb(0, 0, 0)" stroke="rgb(204, 204, 204)" stroke-width="1px"></line><line x1="51.5625" y1="94.40000000000002" x2="46.5625" y2="94.40000000000002" style="visibility: inherit;" fill="rgb(0, 0, 0)" stroke="rgb(204, 204, 204)" stroke-width="1px"></line><line x1="51.5625" y1="82.6" x2="46.5625" y2="82.6" style="visibility: inherit;" fill="rgb(0, 0, 0)" stroke="rgb(204, 204, 204)" stroke-width="1px"></line><line x1="51.5625" y1="70.79999999999998" x2="46.5625" y2="70.79999999999998" style="visibility: inherit;" fill="rgb(0, 0, 0)" stroke="rgb(204, 204, 204)" stroke-width="1px"></line><line x1="51.5625" y1="59.00000000000001" x2="46.5625" y2="59.00000000000001" style="visibility: inherit;" fill="rgb(0, 0, 0)" stroke="rgb(204, 204, 204)" stroke-width="1px"></line><line x1="51.5625" y1="47.19999999999999" x2="46.5625" y2="47.19999999999999" style="visibility: inherit;" fill="rgb(0, 0, 0)" stroke="rgb(204, 204, 204)" stroke-width="1px"></line><line x1="51.5625" y1="35.39999999999997" x2="46.5625" y2="35.39999999999997" style="visibility: inherit;" fill="rgb(0, 0, 0)" stroke="rgb(204, 204, 204)" stroke-width="1px"></line><line x1="51.5625" y1="23.599999999999955" x2="46.5625" y2="23.599999999999955" style="visibility: inherit;" fill="rgb(0, 0, 0)" stroke="rgb(204, 204, 204)" stroke-width="1px"></line><line x1="51.5625" y1="11.799999999999939" x2="46.5625" y2="11.799999999999939" style="visibility: inherit;" fill="rgb(0, 0, 0)" stroke="rgb(204, 204, 204)" stroke-width="1px"></line></g><g transform="translate(41.5625, 0)"><text x="0" y="165.20000000000002" dx="0em" dy="0.3em" style="text-anchor: end; visibility: inherit; font-family: Roboto, sans-serif; font-size: 12px; font-weight: 200;" fill="rgb(33, 33, 33)" stroke="none" stroke-width="1px">0.3</text><text x="0" y="153.4" dx="0em" dy="0.3em" style="text-anchor: end; visibility: hidden; font-family: Roboto, sans-serif; font-size: 12px; font-weight: 200;" fill="rgb(33, 33, 33)" stroke="none" stroke-width="1px">0.32</text><text x="0" y="141.6" dx="0em" dy="0.3em" style="text-anchor: end; visibility: inherit; font-family: Roboto, sans-serif; font-size: 12px; font-weight: 200;" fill="rgb(33, 33, 33)" stroke="none" stroke-width="1px">0.34</text><text x="0" y="129.8" dx="0em" dy="0.3em" style="text-anchor: end; visibility: hidden; font-family: Roboto, sans-serif; font-size: 12px; font-weight: 200;" fill="rgb(33, 33, 33)" stroke="none" stroke-width="1px">0.36</text><text x="0" y="118.00000000000001" dx="0em" dy="0.3em" style="text-anchor: end; visibility: inherit; font-family: Roboto, sans-serif; font-size: 12px; font-weight: 200;" fill="rgb(33, 33, 33)" stroke="none" stroke-width="1px">0.38</text><text x="0" y="106.19999999999997" dx="0em" dy="0.3em" style="text-anchor: end; visibility: hidden; font-family: Roboto, sans-serif; font-size: 12px; font-weight: 200;" fill="rgb(33, 33, 33)" stroke="none" stroke-width="1px">0.4</text><text x="0" y="94.40000000000002" dx="0em" dy="0.3em" style="text-anchor: end; visibility: inherit; font-family: Roboto, sans-serif; font-size: 12px; font-weight: 200;" fill="rgb(33, 33, 33)" stroke="none" stroke-width="1px">0.42</text><text x="0" y="82.6" dx="0em" dy="0.3em" style="text-anchor: end; visibility: hidden; font-family: Roboto, sans-serif; font-size: 12px; font-weight: 200;" fill="rgb(33, 33, 33)" stroke="none" stroke-width="1px">0.44</text><text x="0" y="70.79999999999998" dx="0em" dy="0.3em" style="text-anchor: end; visibility: inherit; font-family: Roboto, sans-serif; font-size: 12px; font-weight: 200;" fill="rgb(33, 33, 33)" stroke="none" stroke-width="1px">0.46</text><text x="0" y="59.00000000000001" dx="0em" dy="0.3em" style="text-anchor: end; visibility: hidden; font-family: Roboto, sans-serif; font-size: 12px; font-weight: 200;" fill="rgb(33, 33, 33)" stroke="none" stroke-width="1px">0.48</text><text x="0" y="47.19999999999999" dx="0em" dy="0.3em" style="text-anchor: end; visibility: inherit; font-family: Roboto, sans-serif; font-size: 12px; font-weight: 200;" fill="rgb(33, 33, 33)" stroke="none" stroke-width="1px">0.5</text><text x="0" y="35.39999999999997" dx="0em" dy="0.3em" style="text-anchor: end; visibility: hidden; font-family: Roboto, sans-serif; font-size: 12px; font-weight: 200;" fill="rgb(33, 33, 33)" stroke="none" stroke-width="1px">0.52</text><text x="0" y="23.599999999999955" dx="0em" dy="0.3em" style="text-anchor: end; visibility: inherit; font-family: Roboto, sans-serif; font-size: 12px; font-weight: 200;" fill="rgb(33, 33, 33)" stroke="none" stroke-width="1px">0.54</text><text x="0" y="11.799999999999939" dx="0em" dy="0.3em" style="text-anchor: end; visibility: hidden; font-family: Roboto, sans-serif; font-size: 12px; font-weight: 200;" fill="rgb(33, 33, 33)" stroke="none" stroke-width="1px">0.56</text></g><line x1="51.5625" y1="0" x2="51.5625" y2="177" fill="rgb(0, 0, 0)" stroke="rgb(204, 204, 204)" stroke-width="1px"></line></g></g><g transform="translate(51, 0)" clip-path="url(#clip_0)"><clipPath id="clip_0"><rect width="278" height="177"></rect></clipPath><g><g><g><line x1="0" y1="0" x2="0" y2="177" fill="rgb(0, 0, 0)" stroke="rgb(66, 66, 66)" stroke-width="1px" opacity="0.25"></line><line x1="23.203125" y1="0" x2="23.203125" y2="177" fill="rgb(0, 0, 0)" stroke="rgb(66, 66, 66)" stroke-width="1px" opacity="0.25"></line><line x1="46.40625" y1="0" x2="46.40625" y2="177" fill="rgb(0, 0, 0)" stroke="rgb(66, 66, 66)" stroke-width="1px" opacity="0.25"></line><line x1="69.609375" y1="0" x2="69.609375" y2="177" fill="rgb(0, 0, 0)" stroke="rgb(66, 66, 66)" stroke-width="1px" opacity="0.25"></line><line x1="92.8125" y1="0" x2="92.8125" y2="177" fill="rgb(0, 0, 0)" stroke="rgb(66, 66, 66)" stroke-width="1px" opacity="0.25"></line><line x1="116.015625" y1="0" x2="116.015625" y2="177" fill="rgb(0, 0, 0)" stroke="rgb(66, 66, 66)" stroke-width="1px" opacity="0.25"></line><line x1="139.21875" y1="0" x2="139.21875" y2="177" fill="rgb(0, 0, 0)" stroke="rgb(66, 66, 66)" stroke-width="1px" opacity="0.25"></line><line x1="162.421875" y1="0" x2="162.421875" y2="177" fill="rgb(0, 0, 0)" stroke="rgb(66, 66, 66)" stroke-width="1px" opacity="0.25"></line><line x1="185.625" y1="0" x2="185.625" y2="177" fill="rgb(0, 0, 0)" stroke="rgb(66, 66, 66)" stroke-width="1px" opacity="0.25"></line><line x1="208.828125" y1="0" x2="208.828125" y2="177" fill="rgb(0, 0, 0)" stroke="rgb(66, 66, 66)" stroke-width="1px" opacity="0.25"></line><line x1="232.03125" y1="0" x2="232.03125" y2="177" fill="rgb(0, 0, 0)" stroke="rgb(66, 66, 66)" stroke-width="1px" opacity="0.25"></line><line x1="255.234375" y1="0" x2="255.234375" y2="177" fill="rgb(0, 0, 0)" stroke="rgb(66, 66, 66)" stroke-width="1px" opacity="0.25"></line><line x1="278.4375" y1="0" x2="278.4375" y2="177" fill="rgb(0, 0, 0)" stroke="rgb(66, 66, 66)" stroke-width="1px" opacity="0.25"></line></g><g><line x1="0" y1="165.20000000000002" x2="278.4375" y2="165.20000000000002" fill="rgb(0, 0, 0)" stroke="rgb(66, 66, 66)" stroke-width="1px" opacity="0.25"></line><line x1="0" y1="153.4" x2="278.4375" y2="153.4" fill="rgb(0, 0, 0)" stroke="rgb(66, 66, 66)" stroke-width="1px" opacity="0.25"></line><line x1="0" y1="141.6" x2="278.4375" y2="141.6" fill="rgb(0, 0, 0)" stroke="rgb(66, 66, 66)" stroke-width="1px" opacity="0.25"></line><line x1="0" y1="129.8" x2="278.4375" y2="129.8" fill="rgb(0, 0, 0)" stroke="rgb(66, 66, 66)" stroke-width="1px" opacity="0.25"></line><line x1="0" y1="118.00000000000001" x2="278.4375" y2="118.00000000000001" fill="rgb(0, 0, 0)" stroke="rgb(66, 66, 66)" stroke-width="1px" opacity="0.25"></line><line x1="0" y1="106.19999999999997" x2="278.4375" y2="106.19999999999997" fill="rgb(0, 0, 0)" stroke="rgb(66, 66, 66)" stroke-width="1px" opacity="0.25"></line><line x1="0" y1="94.40000000000002" x2="278.4375" y2="94.40000000000002" fill="rgb(0, 0, 0)" stroke="rgb(66, 66, 66)" stroke-width="1px" opacity="0.25"></line><line x1="0" y1="82.6" x2="278.4375" y2="82.6" fill="rgb(0, 0, 0)" stroke="rgb(66, 66, 66)" stroke-width="1px" opacity="0.25"></line><line x1="0" y1="70.79999999999998" x2="278.4375" y2="70.79999999999998" fill="rgb(0, 0, 0)" stroke="rgb(66, 66, 66)" stroke-width="1px" opacity="0.25"></line><line x1="0" y1="59.00000000000001" x2="278.4375" y2="59.00000000000001" fill="rgb(0, 0, 0)" stroke="rgb(66, 66, 66)" stroke-width="1px" opacity="0.25"></line><line x1="0" y1="47.19999999999999" x2="278.4375" y2="47.19999999999999" fill="rgb(0, 0, 0)" stroke="rgb(66, 66, 66)" stroke-width="1px" opacity="0.25"></line><line x1="0" y1="35.39999999999997" x2="278.4375" y2="35.39999999999997" fill="rgb(0, 0, 0)" stroke="rgb(66, 66, 66)" stroke-width="1px" opacity="0.25"></line><line x1="0" y1="23.599999999999955" x2="278.4375" y2="23.599999999999955" fill="rgb(0, 0, 0)" stroke="rgb(66, 66, 66)" stroke-width="1px" opacity="0.25"></line><line x1="0" y1="11.799999999999939" x2="278.4375" y2="11.799999999999939" fill="rgb(0, 0, 0)" stroke="rgb(66, 66, 66)" stroke-width="1px" opacity="0.25"></line></g></g></g><g><g><line x1="0" y1="342.20000000000005" x2="278.4375" y2="342.20000000000005" fill="rgb(0, 0, 0)" stroke="rgb(153, 153, 153)" stroke-width="1.5px"></line></g></g><g><g><line x1="23.203125" y1="0" x2="23.203125" y2="177" fill="rgb(0, 0, 0)" stroke="rgb(153, 153, 153)" stroke-width="1.5px"></line></g></g><g><g><g><g><g><path stroke="rgb(255, 112, 67)" stroke-width="2px" d="M32.461171875,-3.715683939124014L32.925234374999995,2.113427541327159L33.389296875,3.4472719719135645L33.853359375000004,4.928466098930219L34.317421875,8.835422694870232L34.781484375,8.67489923711821L35.245546874999995,12.50825060833702L35.709609375,11.602847497553949L36.173671875000004,19.02148796953573L36.637734375,21.20730191439393L37.101796875000005,23.804623404333945L37.565859374999995,19.829393013513542L38.029921875,16.183232652962204L38.493984375000004,14.949226715631386L38.958046875,13.977396011582806L39.422109375,16.869009419009952L39.886171874999995,16.01468577036881L40.350234375,12.172921387043225L40.814296875000004,17.610057645962677L41.278359375,17.355895071273807L41.742421875,16.943599646359942L42.206484374999995,18.99847993910224L42.670546875,24.40447118636498L43.134609375000004,27.19417137125943L43.598671875,26.06802834383857L44.062734375,32.37703861344626L44.526796875,36.87967244541172L44.990859375,36.72308062768408L45.454921875000004,38.53873344565436L45.918984374999994,39.727809450684035L46.383046875,38.941171910969324L46.847109375,43.40816748942786L47.311171875,47.82124721019434L47.775234375000004,50.648335267970666L48.239296874999994,53.017519707248454L48.703359375,52.32051517165022L49.167421875,53.051161510423576L49.631484375,52.84832301653941L50.095546875000004,57.99136229631201L50.559609375,58.514716920916584L51.023671875,60.898752562411374L51.487734375,67.04243941762365L51.951796875,66.57237663125434L52.415859375000004,68.77314363177523L52.879921875,68.30267324743461L53.343984375,68.39126168654403L53.808046875,68.7143504320131L54.272109375,70.80293575884028L54.736171875,73.62060111213859L55.200234375,76.47434277672805L55.664296875,79.14132917169418L56.128359375,82.06563386729297L56.592421875,86.7183755788458L57.056484375,89.04972789291305L57.520546875,90.51514054754847L57.984609375,89.72116836002107L58.448671875,91.15410918335716L58.91273437500001,93.47399377782264L59.376796875,93.93997536679113L59.840859375,96.02118921775453L60.304921875,99.80577673904813L60.768984375,100.75258042493488L61.233046875,106.36943734921255L61.697109375,109.61539885693233L62.161171875,111.80764638025758L62.625234375,109.52409347553346L63.089296875,111.39790568910644L63.553359375,112.27926035453477L64.017421875,112.9435093136205L64.481484375,114.24251246840305L64.945546875,115.74955495267622L65.409609375,114.22564446738262L65.873671875,116.63745976926145L66.337734375,117.68407733818542L66.801796875,117.3370491722501L67.265859375,119.7897204084074L67.729921875,119.8223324212165L68.193984375,119.06480728660823L68.658046875,120.42539599044338L69.122109375,120.10095255079507L69.586171875,122.54785069213068L70.050234375,124.53485975832096L70.514296875,125.66664502452221L70.97835937500001,124.75469637378875L71.442421875,125.82110172989675L71.90648437499999,125.44488924721763L72.370546875,125.26168732824046L72.834609375,125.64599271290399L73.298671875,125.47656425058203L73.76273437500001,127.18708965576695L74.226796875,129.07932001619682L74.690859375,130.5765757644179L75.15492187500001,131.76950765765133L75.618984375,134.09354700068172L76.083046875,134.0467578329449L76.54710937499999,136.87725326157232L77.011171875,137.03741314147524L77.475234375,137.33746228451835L77.939296875,135.71901663802535L78.40335937500001,134.73537597099855L78.867421875,136.3449298547511L79.331484375,138.8059948284442L79.795546875,138.7420040554018L80.259609375,140.06832359332347L80.723671875,138.8132309687864L81.187734375,141.94828992927663L81.651796875,141.4101217628479L82.115859375,139.48486744119054L82.579921875,140.8558509234625L83.04398437500001,140.47143412693222L83.508046875,140.83232017141233L83.97210937499999,142.8629839904123L84.436171875,142.31011583154583L84.900234375,142.61220757615334L85.364296875,142.96865562234106L85.828359375,143.93631450885718L86.292421875,142.26509714873805L86.756484375,143.81907497486577L87.220546875,142.6827576146049L87.68460937500001,144.57017740080218L88.148671875,142.96910399464053L88.61273437499999,141.261871221035L89.076796875,142.96102300411277L89.540859375,143.97224623826176L90.004921875,144.08055575598007L90.468984375,142.182437385544L90.933046875,143.07794023967102L91.397109375,142.67565302044588L91.86117187500001,141.38041151440518L92.32523437500001,142.91756808006988L92.78929687499999,144.36335430902903L93.25335937499999,143.81227843972033L93.717421875,143.23703026185436L94.181484375,144.38684709409455L94.645546875,142.4604191033914L95.109609375,143.63232830659152L95.573671875,143.12038399693327L96.037734375,143.64482514760698L96.50179687500001,143.84220156791235L96.96585937500001,145.59067542160196L97.42992187499999,145.5095818147514L97.893984375,148.16177390156133L98.358046875,148.26136648090431L98.822109375,149.73828028422324L99.286171875,147.11815102461807L99.750234375,148.836544028946L100.214296875,147.9758955975862L100.678359375,147.30526841723176L101.14242187500001,147.64938433141177L101.606484375,147.5548645476267L102.07054687499999,148.7765594298106L102.534609375,147.93047608548838L102.998671875,147.50509841239204L103.462734375,145.98712710502016L103.92679687500001,145.74916176025545L104.390859375,144.55285973110375L104.854921875,145.96885220670126L105.318984375,144.15963043259927L105.78304687500001,143.8825073486444L106.247109375,144.20401278278786L106.71117187499999,143.31094580318253L107.175234375,144.35307015330622L107.639296875,144.23970400772774L108.103359375,144.56477629932252L108.56742187500001,145.01626337872224L109.031484375,146.89092745922292L109.495546875,148.34792716364427L109.95960937500001,147.04153781641847L110.423671875,147.06616013332788L110.887734375,148.4486277660627L111.35179687499999,146.87187117980855L111.815859375,148.2094055389109L112.279921875,148.80614346256988L112.743984375,151.00391295391674L113.20804687500001,150.489446940082L113.672109375,150.75304096079762L114.136171875,150.2537996340708L114.600234375,147.74208322957708L115.064296875,149.75011258832672L115.528359375,149.18991228577138L115.992421875,149.62560359362686L116.456484375,151.6830907225911L116.920546875,152.19612100514018L117.384609375,154.83938535223277L117.84867187500001,153.74044341069143L118.312734375,152.96843599366287L118.77679687499999,153.9344647937505L119.240859375,152.67976684171737L119.704921875,153.87950002824843L120.168984375,152.02202296035404L120.633046875,151.79419776115404L121.097109375,150.7387090064953L121.561171875,150.33259815129324L122.025234375,151.44658776797382L122.48929687500001,150.27864500394264L122.953359375,151.97513021235193L123.41742187499999,151.6589202344409L123.881484375,152.36526318260317L124.345546875,151.47064892641626L124.809609375,150.52367390675985L125.273671875,149.42699105983786L125.737734375,150.37825821269178L126.201796875,150.49254571106593L126.66585937500001,150.89181788125055L127.12992187500001,150.68490973851482L127.59398437499999,150.04774578098468L128.058046875,149.91564608648423L128.522109375,148.10875633800075L128.986171875,150.43746170032318L129.450234375,151.152070046344L129.914296875,152.47387586437713L130.378359375,148.97824858301155L130.84242187499999,148.55820248847124L131.306484375,149.7756742578258L131.770546875,151.11805133418483L132.234609375,150.56604611154032L132.698671875,151.22807166645057L133.162734375,148.2170706850079L133.626796875,149.470730472383L134.09085937499998,151.22065620136243L134.554921875,148.8193721769081L135.018984375,150.77196206552074L135.48304687499999,151.48516079219843L135.947109375,153.18458793074586L136.411171875,151.91465035953874L136.875234375,152.08910539161155L137.339296875,153.0656212974631L137.803359375,153.6861841460238L138.267421875,155.24020134749247L138.731484375,155.6011957777357L139.195546875,154.21860485071775L139.659609375,153.2323933743936L140.12367187499999,153.95882807226715L140.587734375,153.54193623827354L141.051796875,151.44660874693895L141.515859375,151.29502664169016L141.979921875,151.6016614761389L142.44398437499999,153.56429827271177L142.908046875,153.7556902366129L143.372109375,151.99648891185697L143.836171875,151.759726385131L144.300234375,152.3994476328987L144.764296875,152.92945010161733L145.228359375,151.88078549053873L145.692421875,153.31289100658958L146.15648437500002,151.8573366237754L146.620546875,152.45163249788394L147.08460937499999,153.58159915761163L147.548671875,153.49064451118707L148.01273437499998,152.7520323854121L148.476796875,152.77543304038934L148.940859375,151.67983181303305L149.40492187499999,151.84643161736938L149.868984375,152.5596177808318L150.333046875,150.90673594878928L150.797109375,154.0581663787983L151.261171875,152.68303790872855L151.725234375,152.8990975259444L152.189296875,153.13620667922808L152.653359375,154.1119477576166L153.11742187500002,152.42664749379279L153.581484375,152.2131795146047L154.045546875,151.0577446047643L154.509609375,152.5248021934194L154.973671875,152.3887973189738L155.43773437500002,153.71702800754198L155.90179687499997,152.40227062133084L156.36585937499999,152.21821673596318L156.829921875,151.98408101216927L157.29398437499998,150.8649544806716L157.758046875,149.94405736667844L158.222109375,149.90108418711657L158.68617187499999,151.9261368368445L159.150234375,152.7419536353092L159.614296875,151.17542058714685L160.078359375,151.2277879770558L160.542421875,152.22404609346046L161.006484375,151.59061220607447L161.470546875,153.2244195710536L161.934609375,153.85496245481815L162.39867187500002,156.05724907033073L162.862734375,155.62745239954376L163.326796875,154.141069889854L163.79085937500003,155.35932344984172L164.254921875,154.42203443876943L164.718984375,153.4671575286869L165.183046875,153.82371638466873L165.64710937499999,154.57255814418158L166.111171875,154.32990518878367L166.57523437499998,154.0211899978262L167.039296875,152.33010580381827L167.503359375,153.42040518260964L167.96742187499999,154.78547387841618L168.431484375,155.1171871154601L168.895546875,154.12400190315498L169.359609375,155.04601908697353L169.823671875,154.20796045458616L170.287734375,153.54775585767297L170.751796875,154.48512019070984L171.215859375,153.48398177164498L171.67992187500002,153.30316324655152L172.143984375,154.55103310725633L172.608046875,156.38142463190738L173.07210937500003,155.46581792911937L173.53617187499998,156.78171200943933L174.000234375,155.53095200830347L174.464296875,156.05509101724905L174.92835937499999,155.16881727733866L175.392421875,154.54727188073386L175.856484375,154.54191016068572L176.320546875,152.35323003271677L176.784609375,152.09005631333108L177.24867187499999,152.9823459755675L177.712734375,152.00851567846206L178.176796875,152.1310658311397L178.640859375,151.7968797447279L179.104921875,154.40445620793056L179.568984375,154.390904508036L180.033046875,155.1457666784539L180.497109375,156.14606551319483L180.96117187500002,156.83485927096123L181.425234375,154.86464651266735L181.88929687499999,153.51126326894763L182.353359375,155.00618818917278L182.81742187499998,154.5492864875651L183.281484375,155.36756222623498L183.745546875,156.4273879108838L184.20960937499999,155.95448120159017L184.673671875,156.7585405754039L185.137734375,155.2358112091115L185.601796875,154.75511902877307L186.065859375,154.6989296475823L186.529921875,155.0912491333284L186.993984375,154.93848596797568L187.458046875,154.7336864613251L187.92210937500002,153.3859280487379L188.386171875,154.47717580978403L188.850234375,154.44445875809484L189.314296875,155.48220969133877L189.778359375,156.27790814959974L190.24242187500002,157.23623713663793L190.70648437499997,156.86587170611242L191.17054687499999,158.55252390489358L191.634609375,158.4427163200263L192.09867187499998,158.00812273115073L192.562734375,155.66915022453801L193.026796875,154.6859924547774L193.49085937499999,155.08267747457944L193.954921875,155.36797142531978L194.418984375,154.0045532581792L194.883046875,153.5479942569958L195.347109375,153.3720753154004L195.811171875,153.84979327686227L196.275234375,155.80481723219992L196.739296875,156.3518212324754L197.20335937500002,155.5872338801362L197.667421875,156.84221009639543L198.131484375,153.94746539319434L198.59554687500003,155.8242085348804L199.059609375,156.5374389992272L199.523671875,154.7816288220389L199.987734375,156.6738673532757L200.45179687499999,157.62994222325855L200.915859375,157.54139467432594L201.37992187499998,156.64116687614765L201.843984375,156.11267030691246L202.308046875,155.61892131497092L202.77210937499999,155.27440845665L203.236171875,155.60424792614575L203.700234375,155.40600146037633L204.164296875,154.69770126326947L204.628359375,153.87853332982124L205.092421875,153.41761188589624L205.556484375,155.557586494235L206.020546875,154.5465060572158L206.48460937500002,153.5061072570381L206.948671875,156.0697304852871L207.412734375,154.51114678335796L207.87679687500003,153.10359481649945L208.34085937499998,153.7585865599872L208.804921875,156.80814383831276L209.268984375,157.0270964670776L209.73304687499999,156.66586600380526L210.197109375,158.2541967580085L210.661171875,159.90899015927602L211.125234375,159.99576845405358L211.589296875,162.06396706793777L212.05335937499999,160.841852170474L212.517421875,161.00782130084633L212.981484375,160.93331501533567L213.445546875,161.59671651527267L213.909609375,160.12929151062647L214.373671875,160.15986990694233L214.837734375,160.35457490590838L215.301796875,161.05608670867346L215.76585937500002,161.7927717187124L216.229921875,159.92385676784372L216.69398437499999,161.06341035440315L217.158046875,160.77189634509162L217.62210937499998,161.7767707443292L218.086171875,160.0624980285217L218.550234375,160.89341283748595L219.01429687499999,161.47995797732514L219.478359375,161.9833145267282L219.942421875,160.7764881318671L220.406484375,161.5343950521227L220.870546875,160.65384024482455L221.334609375,159.57811150760787L221.798671875,159.34613970468646L222.262734375,160.19862169936485L222.72679687500002,159.43817360742554L223.190859375,160.03186330506503L223.654921875,160.21063246228667L224.118984375,159.34840289978717L224.583046875,158.80183114136935L225.04710937500002,157.8420547276051L225.51117187499997,159.48754882597726L225.97523437499999,161.1955071322662L226.439296875,160.44913490228728L226.90335937499998,161.0544185317714L227.367421875,157.8044574401223L227.831484375,159.59761356903107L228.29554687499999,160.43475793951444L228.759609375,158.57983732778155L229.223671875,158.30925906918932L229.687734375,157.70189123173793L230.151796875,156.89162567514396L230.615859375,156.36709930352762L231.079921875,156.71366684424035L231.543984375,156.89077472317655L232.00804687500002,157.47341760183966L232.472109375,157.2682322709465L232.936171875,157.04453039127918L233.40023437500003,158.63115314923226L233.864296875,159.3571995593533L234.328359375,158.5499098817192L234.792421875,159.03412773606323L235.25648437499999,159.06395016190834L235.720546875,159.5214246649512L236.18460937499998,157.75264149477795L236.648671875,158.46005769703433L237.112734375,159.59918587446492L237.57679687499999,159.4982760474707L238.040859375,159.27275979569185L238.504921875,159.57103551194638L238.968984375,159.5982257506153L239.433046875,159.8191964025111L239.897109375,158.63282922579148L240.361171875,158.25555903142657L240.825234375,157.8791628708777L241.28929687500002,158.63550038132107L241.753359375,159.4467465978238L242.217421875,160.2968395276105L242.68148437500003,160.23216919927918L243.14554687499998,160.47430569197942L243.609609375,162.36046660899706L244.073671875,160.9262338497602L244.53773437499999,162.175384393188L245.001796875,160.5826955427402L245.465859375,161.75783360627355L245.929921875,163.35298676574584L246.393984375,163.95480712727627L246.85804687499999,164.72666276045967L247.322109375,163.5918658019453L247.786171875,165.4917687822595L248.250234375,162.98112752996815L248.714296875,164.439381716516L249.178359375,162.67328061985944L249.642421875,162.1806015830753L250.106484375,161.62889798952796L250.57054687500002,161.1938414925962L251.034609375,161.46099358510637L251.49867187499999,160.67387062172588L251.962734375,160.2836204885885L252.42679687499998,160.0262413322429L252.890859375,158.90256055410208L253.354921875,158.06353147341758L253.81898437499999,158.7061056403573L254.283046875,158.8399394084444L254.747109375,157.59769443357857L255.211171875,156.4971254511315" style="fill: none;" fill="none"></path></g></g></g></g><g opacity="0.2"><g><g><g><path stroke="rgb(255, 112, 67)" stroke-width="2px" d="M24.108046875,-43.084662842750596L24.572109375,15.761496734619117L25.036171875,-89.75683538913731L25.500234375,-24.86298112869264L25.964296875,2.3319164037704168L26.428359375,-34.17390315532689L26.892421874999997,27.204191398620587L27.356484375,-11.090525078773522L27.820546875,-7.682375597953807L28.284609375,20.89425833225249L28.748671875,-7.419082212448156L29.212734375,10.660877537727332L29.676796875,-4.913627791404735L30.140859374999998,-3.3809557437897095L30.604921875,30.64845712184904L31.068984375000003,12.47509450912474L31.533046875,-56.657336640358L31.997109375,-2.8555646419525513L32.461171875,17.253656697273243L32.925234374999995,48.197276008129116L33.389296875,14.138340663909881L33.853359375000004,16.946440052986134L34.317421875,40.88159174919127L34.781484375,7.3454275846481085L35.245546874999995,44.531653237342816L35.709609375,3.9807090282439948L36.173671875000004,81.9067242860794L36.637734375,39.85008091926573L37.101796875000005,46.07948215007781L37.565859374999995,-14.431048917770422L38.029921875,-15.380234408378637L38.493984375000004,4.224520039558387L38.958046875,5.501213383674605L39.422109375,42.16971428394316L39.886171874999995,8.518238377571075L40.350234375,-21.624018836021435L40.814296875000004,65.55211515426636L41.278359375,15.110173535346968L41.742421875,13.293881726264937L42.206484374999995,37.21904606819152L42.670546875,72.41115928888321L43.134609375000004,52.000875484943386L43.598671875,16.04195148944853L44.062734375,88.60748292207718L44.526796875,77.0496875166893L44.990859375,35.324824762344335L45.454921875000004,54.764084529876705L45.918984374999994,50.361402046680446L46.383046875,31.90197558403013L46.847109375,83.40393067598342L47.311171875,87.35473812818528L47.775234375000004,75.98591120243073L48.239296874999994,74.26006824970244L48.703359375,46.068685960769635L49.167421875,59.606966686248775L49.631484375,51.02777661085127L50.095546875000004,104.16461588144303L50.559609375,63.21445883512496L51.023671875,82.31223196983338L51.487734375,122.23625869750977L51.951796875,62.348653686046596L52.415859375000004,88.55121613740921L52.879921875,64.0739867210388L53.343984375,69.18761761188506L53.808046875,71.61906362771988L54.272109375,89.58225221633911L54.736171875,98.95779312849045L55.200234375,102.13815004825592L55.664296875,103.1274959564209L56.128359375,108.36788536310196L56.592421875,128.5694369792938L57.056484375,110.0212496638298L57.520546875,103.6978301525116L57.984609375,82.57835627794266L58.448671875,104.04580504894257L58.91273437500001,114.34600265026093L59.376796875,98.13255281448363L59.840859375,114.74706174135208L60.304921875,133.85879607200621L60.768984375,109.27195192575454L61.233046875,156.911209833622L61.697109375,138.82388265132906L62.161171875,131.53473169803618L62.625234375,88.9750632762909L63.089296875,128.26003999710085L63.553359375,120.21053136587142L64.017421875,118.9211252450943L64.481484375,125.93244136571884L64.945546875,129.31178928613662L65.409609375,100.51149488687516L65.873671875,138.34230930805208L66.337734375,127.10305423736574L66.801796875,114.2139691233635L67.265859375,141.86265827417375L67.729921875,120.11582733392717L68.193984375,112.24735708236696L68.658046875,132.67024816274645L69.122109375,117.18105734586716L69.586171875,144.56928403377532L70.050234375,142.41746635437013L70.514296875,135.85246891975405L70.97835937500001,116.54733510017397L71.442421875,135.41856409311293L71.90648437499999,122.05903590917589L72.370546875,123.61289591789247L72.834609375,129.10469235181807L73.298671875,123.95172746181487L73.76273437500001,142.58164228200914L74.226796875,146.10921801328658L74.690859375,144.05175269842147L75.15492187500001,142.50580520629882L75.618984375,155.0097441792488L76.083046875,133.62565816640856L76.54710937499999,162.35155732631682L77.011171875,138.47884417772295L77.475234375,140.03789128065108L77.939296875,121.15307034254073L78.40335937500001,125.88264526128769L78.867421875,150.8308628320694L79.331484375,160.9555080652237L79.795546875,138.16608877182009L80.259609375,152.00516821146013L80.723671875,127.5174239397049L81.187734375,170.1637607932091L81.651796875,136.566617500782L82.115859375,122.15760828256607L82.579921875,153.1946832060814L83.04398437500001,137.01168776750566L83.508046875,144.08029050827025L83.97210937499999,161.13893778324126L84.436171875,137.33430744409563L84.900234375,145.3310307979584L85.364296875,146.17668540477752L85.828359375,152.6452380537987L86.292421875,127.22415090799332L86.756484375,157.80486704111098L87.220546875,132.45590687990187L87.68460937500001,161.55694724321367L88.148671875,128.55944962501528L88.61273437499999,125.89678229093552L89.076796875,158.25338364839556L89.540859375,153.07325245141985L90.004921875,145.05534113645555L90.468984375,125.09937645196915L90.933046875,151.1374640583992L91.397109375,139.05506880283357L91.86117187500001,129.72324014902114L92.32523437500001,156.75197483301162L92.78929687499999,157.37542839050292L93.25335937499999,138.8525962948799L93.717421875,138.05979729890825L94.181484375,154.73519743680956L94.645546875,125.12256891727446L95.109609375,154.1795101881027L95.573671875,138.51288558244704L96.037734375,148.3647951602936L96.50179687500001,145.6185892343521L96.96585937500001,161.3269391775131L97.42992187499999,144.77973939180376L97.893984375,172.0315015435219L98.358046875,149.1576996564865L98.822109375,163.0305040001869L99.286171875,123.53698850870134L99.750234375,164.3020805835724L100.214296875,140.2300599336624L100.678359375,141.26962394714357L101.14242187500001,150.74642748832701L101.606484375,146.70418651103972L102.07054687499999,159.7718131661415L102.534609375,140.31572611331939L102.998671875,143.67669941186904L103.462734375,132.32538552284242L103.92679687500001,143.60747368335726L104.390859375,133.78614158630373L104.854921875,158.7127843618393L105.318984375,127.87663460969927L105.78304687500001,141.38839961290358L106.247109375,147.0975616693497L106.71117187499999,135.27334303855895L107.175234375,153.73218924999236L107.639296875,143.21940870285033L108.103359375,147.49042690992354L108.56742187500001,149.07964707612993L109.031484375,163.7629041194916L109.495546875,161.4609244585037L109.95960937500001,135.2840337276459L110.423671875,147.2877609848976L110.887734375,160.89083642959596L111.35179687499999,132.68106193542482L111.815859375,160.24721474647524L112.279921875,154.17678476572038L112.743984375,170.78383834362032L113.20804687500001,145.85925282239916L113.672109375,153.12538714408876L114.136171875,145.76062769889833L114.600234375,125.13663561344148L115.064296875,167.82237679958345L115.528359375,144.1481095671654L115.992421875,153.54682536125182L116.456484375,170.20047487020494L116.920546875,156.81339354515077L117.384609375,178.628764462471L117.84867187500001,143.849965941906L118.312734375,146.02036924362184L118.77679687499999,162.62872399091722L119.240859375,141.38748527765276L119.704921875,164.6770987033844L120.168984375,135.30472935438155L120.633046875,149.74377096891405L121.097109375,141.2393102169037L121.561171875,146.6776004552841L122.025234375,161.4724943161011L122.48929687500001,139.76716012954714L122.953359375,167.2434970855713L123.41742187499999,148.81303043365477L123.881484375,158.72234971523284L124.345546875,143.4191206216812L124.809609375,142.00089873075487L125.273671875,139.5568454384804L125.737734375,158.9396625876427L126.201796875,151.52113319635393L126.66585937500001,154.48526741266252L127.12992187500001,148.82273645401L127.59398437499999,144.3132701635361L128.058046875,148.7267488360405L128.522109375,131.84674860239028L128.986171875,171.3958099603653L129.450234375,157.5835451602936L129.914296875,164.37012822628023L130.378359375,117.51760305166245L130.84242187499999,144.7777876377106L131.306484375,160.73292018175124L131.770546875,163.1994450211525L132.234609375,145.5979991078377L132.698671875,157.18630166053774L133.162734375,121.11806185245514L133.626796875,160.75366855859758L134.09085937499998,166.96998776197435L134.554921875,127.20781595706941L135.018984375,168.34527106285097L135.48304687499999,157.90394933223726L135.947109375,168.47943217754366L136.411171875,140.48521221876143L136.875234375,153.6592006802559L137.339296875,161.85426445007326L137.803359375,159.2712497830391L138.267421875,169.22635616064073L138.731484375,158.85014564991L139.195546875,141.77528650760652L139.659609375,144.35649008750914L140.12367187499999,160.49674035310747L140.587734375,149.78990973234175L141.051796875,132.5886613249779L141.515859375,149.9307876944542L141.979921875,154.36137498617174L142.44398437499999,171.2280294418335L142.908046875,155.47821791172026L143.372109375,136.16367698907854L143.836171875,149.6288636445999L144.300234375,158.15693886280062L144.764296875,157.6994723200798L145.228359375,142.44280399084093L145.692421875,166.20184065103533L146.15648437500002,138.75734717845918L146.620546875,157.80029536485674L147.08460937499999,163.75129909515383L147.548671875,152.67205269336702L148.01273437499998,146.10452325344085L148.476796875,152.98603893518447L148.940859375,141.81942076683043L149.40492187499999,153.34582985639574L149.868984375,158.97829325199126L150.333046875,136.0307994604111L150.797109375,182.42104024887087L151.261171875,140.30688167810442L151.725234375,154.84363408088683L152.189296875,155.2701890587807L152.653359375,162.89361746311187L153.11742187500002,137.25894511938097L153.581484375,150.29196770191194L154.045546875,140.65883041620256L154.509609375,165.72832049131395L154.973671875,151.16475344896318L155.43773437500002,165.6711042046547L155.90179687499997,140.5694541454315L156.36585937499999,150.56173176765444L156.829921875,149.876859498024L157.29398437499998,140.79281569719316L157.758046875,141.65598334074022L158.222109375,149.5143255710602L158.68617187499999,170.15161068439485L159.150234375,160.08430482149123L159.614296875,137.07662315368654L160.078359375,151.69909448623656L160.542421875,161.19036914110183L161.006484375,145.8897072196007L161.470546875,167.9286858558655L161.934609375,159.52984840869902L162.39867187500002,175.8778286099434L162.862734375,151.75928236246108L163.326796875,140.76362730264663L163.79085937500003,166.32360548973085L164.254921875,145.98643333911897L164.718984375,144.87326533794405L165.183046875,157.0327460885048L165.64710937499999,161.31213397979738L166.111171875,152.14602859020235L166.57523437499998,151.24275327920913L167.039296875,137.1103480577469L167.503359375,163.23309959173204L167.96742187499999,167.0710921406746L168.431484375,158.1026062488556L168.895546875,145.18533499240877L169.359609375,163.34417374134065L169.823671875,146.6654327630997L170.287734375,147.60591448545458L170.751796875,162.9213991880417L171.215859375,144.47373600006105L171.67992187500002,151.67579652071L172.143984375,165.78186185359957L172.608046875,172.8549483537674L173.07210937500003,147.22535760402678L173.53617187499998,168.6247587323189L174.000234375,144.27411199808122L174.464296875,160.77234209775926L174.92835937499999,147.192353618145L175.392421875,148.95336331129076L175.856484375,154.4936546802521L176.320546875,132.65510888099672L176.784609375,149.72149283885955L177.24867187499999,161.01295293569567L177.712734375,143.24404300451278L178.176796875,153.23401720523833L178.640859375,148.78920496702196L179.104921875,177.87264437675475L179.568984375,154.2689392089844L180.033046875,161.9395262122154L180.497109375,165.14875502586366L180.96117187500002,163.03400309085848L181.425234375,137.1327316880226L181.88929687499999,141.33081407547L182.353359375,168.46051247119905L182.81742187499998,150.43717117309572L183.281484375,162.73204387426375L183.745546875,165.9658190727234L184.20960937499999,151.6983208179474L184.673671875,163.9950749397278L185.137734375,141.5312469124794L185.601796875,150.4288894057274L186.065859375,154.19322521686553L186.529921875,158.62212450504302L186.993984375,153.5636174798012L187.458046875,152.8904909014702L187.92210937500002,141.25610233545302L188.386171875,164.29840565919875L188.850234375,154.15000529289247L189.314296875,164.82196809053423L189.778359375,163.4391942739487L190.24242187500002,165.8611980199814L190.70648437499997,153.53258283138274L191.17054687499999,173.73239369392397L191.634609375,157.454448056221L192.09867187499998,154.09678043127062L192.562734375,134.6183976650238L193.026796875,145.83757252693178L193.49085937499999,158.65284265279772L193.954921875,157.9356169819832L194.418984375,141.7337897539139L194.883046875,149.4389632463455L195.347109375,151.78880484104158L195.811171875,158.1492549300194L196.275234375,173.40003283023836L196.739296875,161.27485723495485L197.20335937500002,148.70594770908355L197.667421875,168.13699604272844L198.131484375,127.89476306438446L198.59554687500003,172.7148968100548L199.059609375,162.95651317834856L199.523671875,138.97933722734453L199.987734375,173.70401413440706L200.45179687499999,166.23461605310442L200.915859375,156.7444667339325L201.37992187499998,148.53911669254305L201.843984375,151.35620118379595L202.308046875,151.17518038749694L202.77210937499999,152.17379273176192L203.236171875,158.5728031516075L203.700234375,153.62178326845168L204.164296875,148.32299948930742L204.628359375,146.50602192878725L205.092421875,149.26931889057158L205.556484375,174.81735796928407L206.020546875,145.4467821240425L206.48460937500002,144.142518055439L206.948671875,179.14233953952788L207.412734375,140.48389346599578L207.87679687500003,140.43562711477279L208.34085937499998,159.65351225137712L208.804921875,184.25415934324266L209.268984375,158.99767012596132L209.73304687499999,153.4147918343544L210.197109375,172.54917354583742L210.661171875,174.8021307706833L211.125234375,160.77677310705187L211.589296875,180.67775459289552L212.05335937499999,149.84281809329985L212.517421875,162.5015434741974L212.981484375,160.26275844573973L213.445546875,167.56733001470568L213.909609375,146.92246646881102L214.373671875,160.43507547378542L214.837734375,162.10691989660265L215.301796875,167.36969293355943L215.76585937500002,168.42293680906297L216.229921875,143.10362221002578L216.69398437499999,171.31939263343813L217.158046875,158.14827026128768L217.62210937499998,170.8206403374672L218.086171875,144.63404358625414L218.550234375,168.37164611816408L219.01429687499999,166.758864235878L219.478359375,166.51352347135546L219.942421875,149.9150505781174L220.406484375,168.35555733442308L220.870546875,152.72884697914125L221.334609375,149.8965528726578L221.798671875,157.25839347839357L222.262734375,167.8709596514702L222.72679687500002,152.5941407799721L223.190859375,165.37507058382036L223.654921875,161.8195548772812L224.118984375,151.58833683729173L224.583046875,153.88268531560897L225.04710937500002,149.20406700372695L225.51117187499997,174.29699571132662L225.97523437499999,176.56713188886644L226.439296875,153.7317848324776L226.90335937499998,166.5019711971283L227.367421875,128.55480761528017L227.831484375,175.73601872920992L228.29554687499999,167.96905727386476L228.759609375,141.88555182218553L229.223671875,155.87405474185942L229.687734375,152.23558069467546L230.151796875,149.5992356657982L230.615859375,151.64636195898058L231.079921875,159.83277471065523L231.543984375,158.48474563360216L232.00804687500002,162.7172035098076L232.472109375,155.4215642929077L232.936171875,155.03121347427367L233.40023437500003,172.91075797080995L233.864296875,165.8916172504425L234.328359375,151.2843027830124L234.792421875,163.39208842515947L235.25648437499999,159.33235199451445L235.720546875,163.63869519233705L236.18460937499998,141.8335929632187L236.648671875,164.8268035173416L237.112734375,169.8513394713402L237.57679687499999,158.59008760452272L238.040859375,157.24311352968218L238.504921875,162.2555169582367L238.968984375,159.84293789863588L239.433046875,161.80793226957323L239.897109375,147.95552463531493L240.361171875,154.86012728214266L240.825234375,154.49159742593767L241.28929687500002,165.4425379753113L241.753359375,166.7479625463486L242.217421875,167.94767589569094L242.68148437500003,159.65013624429704L243.14554687499998,162.65353412628176L243.609609375,179.33591486215593L244.073671875,148.01813901662825L244.53773437499999,173.41773928403856L245.001796875,146.24849588871004L245.465859375,172.3340761780739L245.929921875,177.70936520099642L246.393984375,169.37119038105013L246.85804687499999,171.67336345911028L247.322109375,153.37869317531587L247.786171875,182.5908956050873L248.250234375,140.385356259346L248.714296875,177.5636693954468L249.178359375,146.77837074995043L249.642421875,157.746490252018L250.106484375,156.66356564760207L250.57054687500002,157.27833302021028L251.034609375,163.86536241769792L251.49867187499999,153.58976395130156L251.962734375,156.77136929035188L252.42679687499998,157.70982892513277L252.890859375,148.78943355083467L253.354921875,150.51226974725722L253.81898437499999,164.48927314281465L254.283046875,160.04444332122804L254.747109375,146.4174896597862L255.211171875,146.592004609108" style="fill: none;" fill="none"></path></g></g></g></g></g></g><g transform="translate(51, 177)" clip-path="url(#clip_1)"><clipPath id="clip_1"><rect width="278" height="23"></rect></clipPath><g><g><line x1="0" y1="0" x2="0" y2="5" style="visibility: inherit;" fill="rgb(0, 0, 0)" stroke="rgb(204, 204, 204)" stroke-width="1px"></line><line x1="23.203125" y1="0" x2="23.203125" y2="5" style="visibility: inherit;" fill="rgb(0, 0, 0)" stroke="rgb(204, 204, 204)" stroke-width="1px"></line><line x1="46.40625" y1="0" x2="46.40625" y2="5" style="visibility: inherit;" fill="rgb(0, 0, 0)" stroke="rgb(204, 204, 204)" stroke-width="1px"></line><line x1="69.609375" y1="0" x2="69.609375" y2="5" style="visibility: inherit;" fill="rgb(0, 0, 0)" stroke="rgb(204, 204, 204)" stroke-width="1px"></line><line x1="92.8125" y1="0" x2="92.8125" y2="5" style="visibility: inherit;" fill="rgb(0, 0, 0)" stroke="rgb(204, 204, 204)" stroke-width="1px"></line><line x1="116.015625" y1="0" x2="116.015625" y2="5" style="visibility: inherit;" fill="rgb(0, 0, 0)" stroke="rgb(204, 204, 204)" stroke-width="1px"></line><line x1="139.21875" y1="0" x2="139.21875" y2="5" style="visibility: inherit;" fill="rgb(0, 0, 0)" stroke="rgb(204, 204, 204)" stroke-width="1px"></line><line x1="162.421875" y1="0" x2="162.421875" y2="5" style="visibility: inherit;" fill="rgb(0, 0, 0)" stroke="rgb(204, 204, 204)" stroke-width="1px"></line><line x1="185.625" y1="0" x2="185.625" y2="5" style="visibility: inherit;" fill="rgb(0, 0, 0)" stroke="rgb(204, 204, 204)" stroke-width="1px"></line><line x1="208.828125" y1="0" x2="208.828125" y2="5" style="visibility: inherit;" fill="rgb(0, 0, 0)" stroke="rgb(204, 204, 204)" stroke-width="1px"></line><line x1="232.03125" y1="0" x2="232.03125" y2="5" style="visibility: inherit;" fill="rgb(0, 0, 0)" stroke="rgb(204, 204, 204)" stroke-width="1px"></line><line x1="255.234375" y1="0" x2="255.234375" y2="5" style="visibility: inherit;" fill="rgb(0, 0, 0)" stroke="rgb(204, 204, 204)" stroke-width="1px"></line><line x1="278.4375" y1="0" x2="278.4375" y2="5" style="visibility: inherit;" fill="rgb(0, 0, 0)" stroke="rgb(204, 204, 204)" stroke-width="1px"></line></g><g transform="translate(0, 8)"><text x="0" y="0" dx="0em" dy="0.95em" style="text-anchor: middle; visibility: hidden; font-family: Roboto, sans-serif; font-size: 12px; font-weight: 200;" fill="rgb(33, 33, 33)" stroke="none" stroke-width="1px">-1k</text><text x="23.203125" y="0" dx="0em" dy="0.95em" style="text-anchor: middle; visibility: inherit; font-family: Roboto, sans-serif; font-size: 12px; font-weight: 200;" fill="rgb(33, 33, 33)" stroke="none" stroke-width="1px">0</text><text x="46.40625" y="0" dx="0em" dy="0.95em" style="text-anchor: middle; visibility: inherit; font-family: Roboto, sans-serif; font-size: 12px; font-weight: 200;" fill="rgb(33, 33, 33)" stroke="none" stroke-width="1px">1k</text><text x="69.609375" y="0" dx="0em" dy="0.95em" style="text-anchor: middle; visibility: inherit; font-family: Roboto, sans-serif; font-size: 12px; font-weight: 200;" fill="rgb(33, 33, 33)" stroke="none" stroke-width="1px">2k</text><text x="92.8125" y="0" dx="0em" dy="0.95em" style="text-anchor: middle; visibility: inherit; font-family: Roboto, sans-serif; font-size: 12px; font-weight: 200;" fill="rgb(33, 33, 33)" stroke="none" stroke-width="1px">3k</text><text x="116.015625" y="0" dx="0em" dy="0.95em" style="text-anchor: middle; visibility: inherit; font-family: Roboto, sans-serif; font-size: 12px; font-weight: 200;" fill="rgb(33, 33, 33)" stroke="none" stroke-width="1px">4k</text><text x="139.21875" y="0" dx="0em" dy="0.95em" style="text-anchor: middle; visibility: inherit; font-family: Roboto, sans-serif; font-size: 12px; font-weight: 200;" fill="rgb(33, 33, 33)" stroke="none" stroke-width="1px">5k</text><text x="162.421875" y="0" dx="0em" dy="0.95em" style="text-anchor: middle; visibility: inherit; font-family: Roboto, sans-serif; font-size: 12px; font-weight: 200;" fill="rgb(33, 33, 33)" stroke="none" stroke-width="1px">6k</text><text x="185.625" y="0" dx="0em" dy="0.95em" style="text-anchor: middle; visibility: inherit; font-family: Roboto, sans-serif; font-size: 12px; font-weight: 200;" fill="rgb(33, 33, 33)" stroke="none" stroke-width="1px">7k</text><text x="208.828125" y="0" dx="0em" dy="0.95em" style="text-anchor: middle; visibility: inherit; font-family: Roboto, sans-serif; font-size: 12px; font-weight: 200;" fill="rgb(33, 33, 33)" stroke="none" stroke-width="1px">8k</text><text x="232.03125" y="0" dx="0em" dy="0.95em" style="text-anchor: middle; visibility: inherit; font-family: Roboto, sans-serif; font-size: 12px; font-weight: 200;" fill="rgb(33, 33, 33)" stroke="none" stroke-width="1px">9k</text><text x="255.234375" y="0" dx="0em" dy="0.95em" style="text-anchor: middle; visibility: inherit; font-family: Roboto, sans-serif; font-size: 12px; font-weight: 200;" fill="rgb(33, 33, 33)" stroke="none" stroke-width="1px">10k</text><text x="278.4375" y="0" dx="0em" dy="0.95em" style="text-anchor: middle; visibility: hidden; font-family: Roboto, sans-serif; font-size: 12px; font-weight: 200;" fill="rgb(33, 33, 33)" stroke="none" stroke-width="1px">11k</text></g><line x1="0" y1="0" x2="278.4375" y2="0" fill="rgb(0, 0, 0)" stroke="rgb(204, 204, 204)" stroke-width="1px"></line></g></g></g></g></svg>