<svg viewBox="0 0 330 200.00001525878906" xmlns="http://www.w3.org/2000/svg"><g><g><g><g><g><line x1="51.5625" y1="177" x2="46.5625" y2="177" style="visibility: inherit;" fill="rgb(0, 0, 0)" stroke="rgb(204, 204, 204)" stroke-width="1px"></line><line x1="51.5625" y1="163.3846153846154" x2="46.5625" y2="163.3846153846154" style="visibility: inherit;" fill="rgb(0, 0, 0)" stroke="rgb(204, 204, 204)" stroke-width="1px"></line><line x1="51.5625" y1="149.76923076923075" x2="46.5625" y2="149.76923076923075" style="visibility: inherit;" fill="rgb(0, 0, 0)" stroke="rgb(204, 204, 204)" stroke-width="1px"></line><line x1="51.5625" y1="136.15384615384613" x2="46.5625" y2="136.15384615384613" style="visibility: inherit;" fill="rgb(0, 0, 0)" stroke="rgb(204, 204, 204)" stroke-width="1px"></line><line x1="51.5625" y1="122.53846153846149" x2="46.5625" y2="122.53846153846149" style="visibility: inherit;" fill="rgb(0, 0, 0)" stroke="rgb(204, 204, 204)" stroke-width="1px"></line><line x1="51.5625" y1="108.92307692307685" x2="46.5625" y2="108.92307692307685" style="visibility: inherit;" fill="rgb(0, 0, 0)" stroke="rgb(204, 204, 204)" stroke-width="1px"></line><line x1="51.5625" y1="95.30769230769225" x2="46.5625" y2="95.30769230769225" style="visibility: inherit;" fill="rgb(0, 0, 0)" stroke="rgb(204, 204, 204)" stroke-width="1px"></line><line x1="51.5625" y1="81.69230769230762" x2="46.5625" y2="81.69230769230762" style="visibility: inherit;" fill="rgb(0, 0, 0)" stroke="rgb(204, 204, 204)" stroke-width="1px"></line><line x1="51.5625" y1="68.076923076923" x2="46.5625" y2="68.076923076923" style="visibility: inherit;" fill="rgb(0, 0, 0)" stroke="rgb(204, 204, 204)" stroke-width="1px"></line><line x1="51.5625" y1="54.46153846153837" x2="46.5625" y2="54.46153846153837" style="visibility: inherit;" fill="rgb(0, 0, 0)" stroke="rgb(204, 204, 204)" stroke-width="1px"></line><line x1="51.5625" y1="40.846153846153875" x2="46.5625" y2="40.846153846153875" style="visibility: inherit;" fill="rgb(0, 0, 0)" stroke="rgb(204, 204, 204)" stroke-width="1px"></line><line x1="51.5625" y1="27.23076923076925" x2="46.5625" y2="27.23076923076925" style="visibility: inherit;" fill="rgb(0, 0, 0)" stroke="rgb(204, 204, 204)" stroke-width="1px"></line><line x1="51.5625" y1="13.615384615384626" x2="46.5625" y2="13.615384615384626" style="visibility: inherit;" fill="rgb(0, 0, 0)" stroke="rgb(204, 204, 204)" stroke-width="1px"></line><line x1="51.5625" y1="0" x2="46.5625" y2="0" style="visibility: inherit;" fill="rgb(0, 0, 0)" stroke="rgb(204, 204, 204)" stroke-width="1px"></line></g><g transform="translate(41.5625, 0)"><text x="0" y="177" dx="0em" dy="0.3em" style="text-anchor: end; visibility: hidden; font-family: Roboto, sans-serif; font-size: 12px; font-weight: 200;" fill="rgb(33, 33, 33)" stroke="none" stroke-width="1px">0.59</text><text x="0" y="163.3846153846154" dx="0em" dy="0.3em" style="text-anchor: end; visibility: inherit; font-family: Roboto, sans-serif; font-size: 12px; font-weight: 200;" fill="rgb(33, 33, 33)" stroke="none" stroke-width="1px">0.6</text><text x="0" y="149.76923076923075" dx="0em" dy="0.3em" style="text-anchor: end; visibility: hidden; font-family: Roboto, sans-serif; font-size: 12px; font-weight: 200;" fill="rgb(33, 33, 33)" stroke="none" stroke-width="1px">0.61</text><text x="0" y="136.15384615384613" dx="0em" dy="0.3em" style="text-anchor: end; visibility: inherit; font-family: Roboto, sans-serif; font-size: 12px; font-weight: 200;" fill="rgb(33, 33, 33)" stroke="none" stroke-width="1px">0.62</text><text x="0" y="122.53846153846149" dx="0em" dy="0.3em" style="text-anchor: end; visibility: hidden; font-family: Roboto, sans-serif; font-size: 12px; font-weight: 200;" fill="rgb(33, 33, 33)" stroke="none" stroke-width="1px">0.63</text><text x="0" y="108.92307692307685" dx="0em" dy="0.3em" style="text-anchor: end; visibility: inherit; font-family: Roboto, sans-serif; font-size: 12px; font-weight: 200;" fill="rgb(33, 33, 33)" stroke="none" stroke-width="1px">0.64</text><text x="0" y="95.30769230769225" dx="0em" dy="0.3em" style="text-anchor: end; visibility: hidden; font-family: Roboto, sans-serif; font-size: 12px; font-weight: 200;" fill="rgb(33, 33, 33)" stroke="none" stroke-width="1px">0.65</text><text x="0" y="81.69230769230762" dx="0em" dy="0.3em" style="text-anchor: end; visibility: inherit; font-family: Roboto, sans-serif; font-size: 12px; font-weight: 200;" fill="rgb(33, 33, 33)" stroke="none" stroke-width="1px">0.66</text><text x="0" y="68.076923076923" dx="0em" dy="0.3em" style="text-anchor: end; visibility: hidden; font-family: Roboto, sans-serif; font-size: 12px; font-weight: 200;" fill="rgb(33, 33, 33)" stroke="none" stroke-width="1px">0.67</text><text x="0" y="54.46153846153837" dx="0em" dy="0.3em" style="text-anchor: end; visibility: inherit; font-family: Roboto, sans-serif; font-size: 12px; font-weight: 200;" fill="rgb(33, 33, 33)" stroke="none" stroke-width="1px">0.68</text><text x="0" y="40.846153846153875" dx="0em" dy="0.3em" style="text-anchor: end; visibility: hidden; font-family: Roboto, sans-serif; font-size: 12px; font-weight: 200;" fill="rgb(33, 33, 33)" stroke="none" stroke-width="1px">0.69</text><text x="0" y="27.23076923076925" dx="0em" dy="0.3em" style="text-anchor: end; visibility: inherit; font-family: Roboto, sans-serif; font-size: 12px; font-weight: 200;" fill="rgb(33, 33, 33)" stroke="none" stroke-width="1px">0.7</text><text x="0" y="13.615384615384626" dx="0em" dy="0.3em" style="text-anchor: end; visibility: hidden; font-family: Roboto, sans-serif; font-size: 12px; font-weight: 200;" fill="rgb(33, 33, 33)" stroke="none" stroke-width="1px">0.71</text><text x="0" y="0" dx="0em" dy="0.3em" style="text-anchor: end; visibility: hidden; font-family: Roboto, sans-serif; font-size: 12px; font-weight: 200;" fill="rgb(33, 33, 33)" stroke="none" stroke-width="1px">0.72</text></g><line x1="51.5625" y1="0" x2="51.5625" y2="177" fill="rgb(0, 0, 0)" stroke="rgb(204, 204, 204)" stroke-width="1px"></line></g></g><g transform="translate(51, 0)" clip-path="url(#clip_0)"><clipPath id="clip_0"><rect width="278" height="177"></rect></clipPath><g><g><g><line x1="0" y1="0" x2="0" y2="177" fill="rgb(0, 0, 0)" stroke="rgb(66, 66, 66)" stroke-width="1px" opacity="0.25"></line><line x1="23.203125" y1="0" x2="23.203125" y2="177" fill="rgb(0, 0, 0)" stroke="rgb(66, 66, 66)" stroke-width="1px" opacity="0.25"></line><line x1="46.40625" y1="0" x2="46.40625" y2="177" fill="rgb(0, 0, 0)" stroke="rgb(66, 66, 66)" stroke-width="1px" opacity="0.25"></line><line x1="69.609375" y1="0" x2="69.609375" y2="177" fill="rgb(0, 0, 0)" stroke="rgb(66, 66, 66)" stroke-width="1px" opacity="0.25"></line><line x1="92.8125" y1="0" x2="92.8125" y2="177" fill="rgb(0, 0, 0)" stroke="rgb(66, 66, 66)" stroke-width="1px" opacity="0.25"></line><line x1="116.015625" y1="0" x2="116.015625" y2="177" fill="rgb(0, 0, 0)" stroke="rgb(66, 66, 66)" stroke-width="1px" opacity="0.25"></line><line x1="139.21875" y1="0" x2="139.21875" y2="177" fill="rgb(0, 0, 0)" stroke="rgb(66, 66, 66)" stroke-width="1px" opacity="0.25"></line><line x1="162.421875" y1="0" x2="162.421875" y2="177" fill="rgb(0, 0, 0)" stroke="rgb(66, 66, 66)" stroke-width="1px" opacity="0.25"></line><line x1="185.625" y1="0" x2="185.625" y2="177" fill="rgb(0, 0, 0)" stroke="rgb(66, 66, 66)" stroke-width="1px" opacity="0.25"></line><line x1="208.828125" y1="0" x2="208.828125" y2="177" fill="rgb(0, 0, 0)" stroke="rgb(66, 66, 66)" stroke-width="1px" opacity="0.25"></line><line x1="232.03125" y1="0" x2="232.03125" y2="177" fill="rgb(0, 0, 0)" stroke="rgb(66, 66, 66)" stroke-width="1px" opacity="0.25"></line><line x1="255.234375" y1="0" x2="255.234375" y2="177" fill="rgb(0, 0, 0)" stroke="rgb(66, 66, 66)" stroke-width="1px" opacity="0.25"></line><line x1="278.4375" y1="0" x2="278.4375" y2="177" fill="rgb(0, 0, 0)" stroke="rgb(66, 66, 66)" stroke-width="1px" opacity="0.25"></line></g><g><line x1="0" y1="177" x2="278.4375" y2="177" fill="rgb(0, 0, 0)" stroke="rgb(66, 66, 66)" stroke-width="1px" opacity="0.25"></line><line x1="0" y1="163.3846153846154" x2="278.4375" y2="163.3846153846154" fill="rgb(0, 0, 0)" stroke="rgb(66, 66, 66)" stroke-width="1px" opacity="0.25"></line><line x1="0" y1="149.76923076923075" x2="278.4375" y2="149.76923076923075" fill="rgb(0, 0, 0)" stroke="rgb(66, 66, 66)" stroke-width="1px" opacity="0.25"></line><line x1="0" y1="136.15384615384613" x2="278.4375" y2="136.15384615384613" fill="rgb(0, 0, 0)" stroke="rgb(66, 66, 66)" stroke-width="1px" opacity="0.25"></line><line x1="0" y1="122.53846153846149" x2="278.4375" y2="122.53846153846149" fill="rgb(0, 0, 0)" stroke="rgb(66, 66, 66)" stroke-width="1px" opacity="0.25"></line><line x1="0" y1="108.92307692307685" x2="278.4375" y2="108.92307692307685" fill="rgb(0, 0, 0)" stroke="rgb(66, 66, 66)" stroke-width="1px" opacity="0.25"></line><line x1="0" y1="95.30769230769225" x2="278.4375" y2="95.30769230769225" fill="rgb(0, 0, 0)" stroke="rgb(66, 66, 66)" stroke-width="1px" opacity="0.25"></line><line x1="0" y1="81.69230769230762" x2="278.4375" y2="81.69230769230762" fill="rgb(0, 0, 0)" stroke="rgb(66, 66, 66)" stroke-width="1px" opacity="0.25"></line><line x1="0" y1="68.076923076923" x2="278.4375" y2="68.076923076923" fill="rgb(0, 0, 0)" stroke="rgb(66, 66, 66)" stroke-width="1px" opacity="0.25"></line><line x1="0" y1="54.46153846153837" x2="278.4375" y2="54.46153846153837" fill="rgb(0, 0, 0)" stroke="rgb(66, 66, 66)" stroke-width="1px" opacity="0.25"></line><line x1="0" y1="40.846153846153875" x2="278.4375" y2="40.846153846153875" fill="rgb(0, 0, 0)" stroke="rgb(66, 66, 66)" stroke-width="1px" opacity="0.25"></line><line x1="0" y1="27.23076923076925" x2="278.4375" y2="27.23076923076925" fill="rgb(0, 0, 0)" stroke="rgb(66, 66, 66)" stroke-width="1px" opacity="0.25"></line><line x1="0" y1="13.615384615384626" x2="278.4375" y2="13.615384615384626" fill="rgb(0, 0, 0)" stroke="rgb(66, 66, 66)" stroke-width="1px" opacity="0.25"></line><line x1="0" y1="0" x2="278.4375" y2="0" fill="rgb(0, 0, 0)" stroke="rgb(66, 66, 66)" stroke-width="1px" opacity="0.25"></line></g></g></g><g><g><line x1="0" y1="980.3076923076923" x2="278.4375" y2="980.3076923076923" fill="rgb(0, 0, 0)" stroke="rgb(153, 153, 153)" stroke-width="1.5px"></line></g></g><g><g><line x1="23.203125" y1="0" x2="23.203125" y2="177" fill="rgb(0, 0, 0)" stroke="rgb(153, 153, 153)" stroke-width="1.5px"></line></g></g><g><g><g><g><g><path stroke="rgb(255, 112, 67)" stroke-width="2px" d="M23.643984375,-44.81491585086453L24.108046875,43.39412128423205L24.572109375,88.4284738382089L25.036171875,111.27846060638421L25.500234375,132.14678181619365L25.964296875,147.53423585690726L26.428359375,160.37025946509624L26.892421874999997,165.35642799202034L27.356484375,170.02080326499194L27.820546875,172.13446655399926L28.284609375,172.85778582691236L28.748671875,178.50590869757127L29.212734375,178.4386771934814L29.676796875,176.86189967132776L30.140859374999998,177.31303476979377L30.604921875,176.67332809514434L31.068984375000003,175.49469409697562L31.533046875,177.26072812825225L31.997109375,175.73693633749104L32.461171875,173.1451438925603L32.925234374999995,174.9204379915927L33.389296875,174.29155981506884L33.853359375000004,172.1886824457998L34.317421875,171.8987204342215L34.781484375,171.78307633554792L35.245546874999995,171.05667690831874L35.709609375,169.70732921709208L36.173671875000004,170.344644616146L36.637734375,169.30437917209997L37.101796875000005,165.15819615342303L37.565859374999995,162.01498641055423L38.029921875,160.75126019193112L38.493984375000004,161.26154368393378L38.958046875,157.70459154759786L39.422109375,156.59183321747253L39.886171874999995,157.95692864813893L40.350234375,156.60134496085522L40.814296875000004,154.9682200083528L41.278359375,154.96707280990185L41.742421875,152.13790447126092L42.206484374999995,151.16367349489863L42.670546875,148.21013533434152L43.134609375000004,148.11543241962707L43.598671875,144.37787256415294L44.062734375,141.18789076107967L44.526796875,137.1019947677372L44.990859375,136.63454563417326L45.454921875000004,135.8008436858815L45.918984374999994,135.03690091356884L46.383046875,134.30868648306517L46.847109375,132.473443538261L47.311171875,129.83659599871797L47.775234375000004,129.4683072436208L48.239296874999994,129.8540565062733L48.703359375,128.17617159979986L49.167421875,127.79657402028175L49.631484375,125.08003212477327L50.095546875000004,125.33864139790181L50.559609375,124.74999281219513L51.023671875,121.48550370350024L51.487734375,119.99501514618174L51.951796875,118.71947484379757L52.415859375000004,116.90086036657075L52.879921875,115.8673264860518L53.343984375,114.53911762617483L53.808046875,114.5169128428241L54.272109375,115.66585216947793L54.736171875,115.25099327227615L55.200234375,114.83434146478855L55.664296875,113.2201817358662L56.128359375,111.4247886322252L56.592421875,108.50063411178797L57.056484375,108.1633442900328L57.520546875,107.52478921691659L57.984609375,106.71836588911036L58.448671875,104.30098165799664L58.91273437500001,102.93045144002247L59.376796875,100.76166292232249L59.840859375,98.76651476735718L60.304921875,96.90430050423214L60.768984375,96.06517712986418L61.233046875,93.79661734864332L61.697109375,92.15927188063705L62.161171875,90.44455640121761L62.625234375,89.41968647455082L63.089296875,88.0758757941711L63.553359375,87.88296159579728L64.017421875,87.40746656005014L64.481484375,86.30983151509709L64.945546875,85.5951230853743L65.409609375,84.66696253434326L65.873671875,82.704114960862L66.337734375,80.71056467483734L66.801796875,79.25661409715818L67.265859375,77.75974500469808L67.729921875,77.89269243943674L68.193984375,74.57680674423442L68.658046875,73.33659057942346L69.122109375,71.43655748528904L69.586171875,71.24446559491776L70.050234375,71.45032057590566L70.514296875,71.31787390603101L70.97835937500001,71.1660073377915L71.442421875,70.78818343081814L71.90648437499999,72.22144563675215L72.370546875,73.14651364854723L72.834609375,73.24243026274189L73.298671875,71.7428528990588L73.76273437500001,69.71716862674019L74.226796875,68.721070312777L74.690859375,69.65284138925443L75.15492187500001,68.2029824964741L75.618984375,68.04386606632454L76.083046875,66.53548997770646L76.54710937499999,64.44163114111892L77.011171875,63.089743421424636L77.475234375,61.95642343328806L77.939296875,60.1539466641068L78.40335937500001,59.27821606670717L78.867421875,59.60845355269466L79.331484375,58.09258474771241L79.795546875,58.50915912450828L80.259609375,60.13708006681627L80.723671875,61.32420664960257L81.187734375,62.65821334654515L81.651796875,62.75935907129028L82.115859375,61.148969769299036L82.579921875,61.268839953506856L83.04398437500001,62.10504866683105L83.508046875,60.83856315662328L83.97210937499999,60.38119167756883L84.436171875,57.946686565663L84.900234375,57.71362033009965L85.364296875,57.634656753949365L85.828359375,58.864042779716364L86.292421875,58.78302770354917L86.756484375,59.08286281754917L87.220546875,58.07726491202334L87.68460937500001,58.209050951276645L88.148671875,57.53204849467663L88.61273437499999,56.31059328872533L89.076796875,56.195195217435675L89.540859375,55.34855030589437L90.004921875,52.88175903027588L90.468984375,53.96516791301936L90.933046875,53.62848647310182L91.397109375,53.734919608945134L91.86117187500001,54.49234198318234L92.32523437500001,54.69350099489609L92.78929687499999,55.28868120747559L93.25335937499999,54.48981414664687L93.717421875,54.03875570068272L94.181484375,53.2658002692156L94.645546875,53.018386519272994L95.109609375,52.573100550924636L95.573671875,52.54693391568339L96.037734375,52.79007228692577L96.50179687500001,53.524776694338726L96.96585937500001,53.053968885473594L97.42992187499999,52.251374321368715L97.893984375,49.712779808896215L98.358046875,51.30528351712404L98.822109375,50.84483216640337L99.286171875,51.89165274704256L99.750234375,50.10859064098035L100.214296875,48.960983452141924L100.678359375,47.28818886351922L101.14242187500001,46.87237742768663L101.606484375,45.12792647340497L102.07054687499999,46.484302026869166L102.534609375,46.33990771895181L102.998671875,47.22086408863993L103.462734375,47.30782283219426L103.92679687500001,47.802722309445066L104.390859375,45.960197214034636L104.854921875,44.70535747991159L105.318984375,43.64748217896912L105.78304687500001,43.88304286855432L106.247109375,45.166345433523226L106.71117187499999,45.90210043650248L107.175234375,45.727638834250484L107.639296875,46.42186410388268L108.103359375,45.75105920141698L108.56742187500001,44.5209150509137L109.031484375,44.58345815705239L109.495546875,45.578585308413274L109.95960937500001,45.63618713866854L110.423671875,45.444234004869465L110.887734375,45.06346220944184L111.35179687499999,46.5098890410297L111.815859375,45.28927651076487L112.279921875,46.49475268426072L112.743984375,46.63736137815225L113.20804687500001,45.96661806439009L113.672109375,44.51477599486068L114.136171875,44.529703174528315L114.600234375,43.015275315449564L115.064296875,43.07572357485145L115.528359375,44.24477742355295L115.992421875,43.8292230391438L116.456484375,41.199329091822946L116.920546875,40.0379836837024L117.384609375,40.831373865438074L117.84867187500001,40.767928975023395L118.312734375,40.818503722581646L118.77679687499999,41.97470297885908L119.240859375,42.71051651636517L119.704921875,44.531116783514385L120.168984375,42.328848429703484L120.633046875,42.11889412809658L121.097109375,43.0232665113001L121.561171875,44.002593541496424L122.025234375,44.81375718288507L122.48929687500001,45.25431185295794L122.953359375,45.84640846623777L123.41742187499999,44.187317320982345L123.881484375,44.08186085456777L124.345546875,43.24495886326282L124.809609375,42.270683530552716L125.273671875,42.43810126736227L125.737734375,42.82174606523324L126.201796875,41.74071208430917L126.66585937500001,43.024041694914786L127.12992187500001,42.3536978624594L127.59398437499999,42.848377908284455L128.058046875,41.17389573484388L128.522109375,42.566608398593736L128.986171875,43.05127779907175L129.450234375,44.01012024019641L129.914296875,44.536062038105214L130.378359375,42.744457867709315L130.84242187499999,42.96138795091371L131.306484375,41.96839226461292L131.770546875,42.73231562329012L132.234609375,43.49318553067206L132.698671875,41.39303852986902L133.162734375,41.31086352077544L133.626796875,39.846900020567944L134.09085937499998,40.57386223506248L134.554921875,41.138712732893296L135.018984375,41.066745810031065L135.48304687499999,42.248655463200436L135.947109375,40.35310917570526L136.411171875,39.51682076396375L136.875234375,38.27531374511913L137.339296875,36.43575972127397L137.803359375,36.83933876443355L138.267421875,37.034319511985025L138.731484375,37.33769279914448L139.195546875,39.24655838052165L139.659609375,38.756409657538924L140.12367187499999,40.06106100653762L140.587734375,39.29497642077488L141.051796875,38.49866914646792L141.515859375,36.051245239139234L141.979921875,36.28496960134848L142.44398437499999,36.07186798543405L142.908046875,35.31723285072871L143.372109375,36.10977308516381L143.836171875,37.17958512077585L144.300234375,36.79208615940876L144.764296875,34.5253187256026L145.228359375,35.465219746282486L145.692421875,34.653186572509355L146.15648437500002,35.584342278512615L146.620546875,36.12386548018067L147.08460937499999,34.42072065617613L147.548671875,33.35902184107914L148.01273437499998,35.29242981225352L148.476796875,34.71795197845738L148.940859375,33.461949685978475L149.40492187499999,33.19025450052983L149.868984375,34.13583625256673L150.333046875,33.318592946136484L150.797109375,33.0249494739626L151.261171875,33.751447272992884L151.725234375,34.08870535894486L152.189296875,34.98603345851864L152.653359375,34.761836584286144L153.11742187500002,34.0799116597533L153.581484375,33.03891144700324L154.045546875,31.760133730858715L154.509609375,30.77473928726902L154.973671875,31.650817331371638L155.43773437500002,31.611305603871344L155.90179687499997,30.91920905686545L156.36585937499999,28.870015981038616L156.829921875,27.605165658716054L157.29398437499998,27.950320133672925L157.758046875,26.887752050509096L158.222109375,26.85963983764219L158.68617187499999,26.158220389661416L159.150234375,26.016463913090337L159.614296875,25.544067784115004L160.078359375,24.80884611777619L160.542421875,25.86528264438074L161.006484375,28.275046193426338L161.470546875,25.92049517056564L161.934609375,26.350479365089225L162.39867187500002,26.13371172013739L162.862734375,27.33198660796686L163.326796875,28.629436235530044L163.79085937500003,28.54814001173258L164.254921875,30.00897097353038L164.718984375,30.179447208641115L165.183046875,28.459354198830155L165.64710937499999,29.591073494631907L166.111171875,30.751145349962755L166.57523437499998,28.740053458715952L167.039296875,26.915600995479032L167.503359375,25.395341033891153L167.96742187499999,26.337440182865972L168.431484375,27.273397755484364L168.895546875,26.934871248157144L169.359609375,27.14858490178919L169.823671875,28.499952620737403L170.287734375,28.2095267926828L170.751796875,27.768622747870108L171.215859375,27.937338985861718L171.67992187500002,29.027080566988246L172.143984375,27.576327582985975L172.608046875,27.868280324817537L173.07210937500003,28.235142164637306L173.53617187499998,27.777385360350262L174.000234375,27.521398486716244L174.464296875,27.92038404342966L174.92835937499999,27.698367710411468L175.392421875,26.935571368485814L175.856484375,29.552485704010714L176.320546875,26.81277830563711L176.784609375,27.11282733205329L177.24867187499999,27.165167691572634L177.712734375,28.276446631511913L178.176796875,29.888807345983473L178.640859375,28.3155571463643L179.104921875,27.54915625195004L179.568984375,28.585825413757036L180.033046875,27.99839904770133L180.497109375,27.847211340695708L180.96117187500002,27.1521860013918L181.425234375,26.150700984482864L181.88929687499999,24.192698599405166L182.353359375,25.857646794016052L182.81742187499998,25.108223185743338L183.281484375,25.39557122465298L183.745546875,25.810365364133403L184.20960937499999,25.177840980245186L184.673671875,24.863319607463836L185.137734375,23.36380847471518L185.601796875,23.84541579551996L186.065859375,23.729384770354937L186.529921875,22.763425810155717L186.993984375,22.117666407220195L187.458046875,22.734608380334212L187.92210937500002,22.530984949266134L188.386171875,21.627936428707688L188.850234375,21.20793762232128L189.314296875,20.104730175684317L189.778359375,20.407118382437L190.24242187500002,19.71563686299639L190.70648437499997,21.10641002502908L191.17054687499999,21.559891196862466L191.634609375,23.401496334677717L192.09867187499998,22.93815116488996L192.562734375,23.659617745820906L193.026796875,25.24163266314515L193.49085937499999,26.21241190787567L193.954921875,26.123456170811167L194.418984375,26.852793704901853L194.883046875,28.18953595083398L195.347109375,26.408862945514542L195.811171875,24.759358334679398L196.275234375,26.27266601043072L196.739296875,26.705023661340242L197.20335937500002,27.023533437534375L197.667421875,26.19925867551756L198.131484375,27.5951461421374L198.59554687500003,29.843082018655043L199.059609375,26.875430840953015L199.523671875,25.03421475175358L199.987734375,24.922690397420748L200.45179687499999,24.578142274133246L200.915859375,24.530436128830935L201.37992187499998,24.394011171225934L201.843984375,25.067982611083163L202.308046875,24.1772571899318L202.77210937499999,23.208913961316682L203.236171875,24.57383120727903L203.700234375,23.309229692638418L204.164296875,23.974793150608317L204.628359375,24.036276635500055L205.092421875,23.680826371952175L205.556484375,23.670815861585528L206.020546875,25.099563417483886L206.48460937500002,25.94755349178336L206.948671875,25.567219545096073L207.412734375,25.61325719210615L207.87679687500003,25.504418182343436L208.34085937499998,23.99614423125613L208.804921875,23.949505462732596L209.268984375,24.8807214197054L209.73304687499999,24.021041297373465L210.197109375,22.33873693564386L210.661171875,21.610112157311566L211.125234375,20.81438352481709L211.589296875,21.59892782587989L212.05335937499999,18.590387368144608L212.517421875,18.550720397640468L212.981484375,18.084433144247516L213.445546875,17.367580492925836L213.909609375,18.989312591590608L214.373671875,17.396725733351026L214.837734375,16.25478917203458L215.301796875,17.32844836616572L215.76585937500002,19.00828832962376L216.229921875,19.03146313624933L216.69398437499999,20.068173977250478L217.158046875,21.878529227881874L217.62210937499998,20.491005203523557L218.086171875,20.060963990929803L218.550234375,18.118861753736056L219.01429687499999,16.58000625557105L219.478359375,16.3045415571262L219.942421875,18.194755735640893L220.406484375,19.647617206279214L220.870546875,20.106605557910424L221.334609375,20.053238019213293L221.798671875,20.049890635787165L222.262734375,20.66564490375091L222.72679687500002,20.063590012401274L223.190859375,19.101801037192132L223.654921875,18.61572394775857L224.118984375,18.399391146415194L224.583046875,16.888933442753892L225.04710937500002,17.058625485488278L225.51117187499997,16.584417316857554L225.97523437499999,15.488393369275624L226.439296875,14.578272822622397L226.90335937499998,14.484267351302602L227.367421875,12.549578085625393L227.831484375,12.364299355751946L228.29554687499999,11.133132420444912L228.759609375,11.555492734361458L229.223671875,12.598750830671026L229.687734375,13.297345497934785L230.151796875,13.659562793383623L230.615859375,14.317664940388761L231.079921875,14.738437859141758L231.543984375,14.041209768080513L232.00804687500002,13.496027120308794L232.472109375,13.702354006719322L232.936171875,15.211394287469718L233.40023437500003,17.38706798543343L233.864296875,17.88773744940816L234.328359375,16.66341033898014L234.792421875,17.753396651737063L235.25648437499999,18.160966284506497L235.720546875,18.710180721142756L236.18460937499998,16.72094981342326L236.648671875,16.576388640202143L237.112734375,16.273806953358886L237.57679687499999,16.02410105955606L238.040859375,15.208954055398312L238.504921875,15.449161832431042L238.968984375,16.523658054862153L239.433046875,14.44912516094066L239.897109375,15.601072349377738L240.361171875,14.970044859806059L240.825234375,15.868743618034678L241.28929687500002,16.647642899211355L241.753359375,17.703076187867097L242.217421875,16.948050110611337L242.68148437500003,17.01541951513866L243.14554687499998,17.090286393680696L243.609609375,17.225844073502493L244.073671875,16.711079111468763L244.53773437499999,14.803492616692541L245.001796875,14.668161780377849L245.465859375,15.099728918967076L245.929921875,14.337626969332941L246.393984375,13.372386859589046L246.85804687499999,13.264789933942675L247.322109375,13.263803709569617L247.786171875,15.254825208093079L248.250234375,14.771745901078187L248.714296875,13.620181675370874L249.178359375,13.67533596912341L249.642421875,13.53927821329309L250.106484375,14.520894163854164L250.57054687500002,14.986429681371861L251.034609375,15.288687825424324L251.49867187499999,13.402461551902128L251.962734375,13.263169212245494L252.42679687499998,10.553748610410295L252.890859375,10.55768946017058L253.354921875,9.282248927309832L253.81898437499999,9.452764366522086L254.283046875,9.331594955089697L254.747109375,8.585994726771393L255.211171875,8.239797817922954" style="fill: none;" fill="none"></path></g></g></g></g><g opacity="0.2"><g><g><g><path stroke="rgb(255, 112, 67)" stroke-width="2px" d="M29.212734375,177.9720173615675L29.676796875,165.5927025538224L30.140859374999998,180.62088445516727L30.604921875,171.87613342358512L31.068984375000003,166.47914787439194L31.533046875,191.0079493155846L31.997109375,163.69012779455915L32.461171875,152.3713336724501L32.925234374999995,189.3246527084937L33.389296875,169.13328997905433L33.853359375000004,154.77243755413932L34.317421875,169.4764091601738L34.781484375,170.80952618672293L35.245546874999995,164.89924148412845L35.709609375,158.1987601243532L36.173671875000004,175.810317828105L36.637734375,160.33887268946717L37.101796875000005,129.266217140051L37.565859374999995,134.69744968414304L38.029921875,149.72920236220722L38.493984375000004,165.7263632187476L38.958046875,126.49334670947144L39.422109375,146.8026262246645L39.886171874999995,169.99368486037616L40.350234375,144.6237220397362L40.814296875000004,140.51148572334873L41.278359375,154.95690063329837L41.742421875,127.01411203237676L42.206484374999995,142.50057066403897L42.670546875,121.91471826113185L43.134609375000004,147.27137182309073L43.598671875,111.03342544115505L44.062734375,112.70357509759754L44.526796875,100.58890353716335L44.990859375,132.4542715182671L45.454921875000004,128.340493275569L45.918984374999994,128.19685066663297L46.383046875,127.7851563416994L46.847109375,116.02520898672246L47.311171875,106.19413029230556L47.775234375000004,126.16491640531095L48.239296874999994,133.31523447770334L48.703359375,113.11656788679265L49.167421875,124.38861729548523L49.631484375,100.68539566260114L50.095546875000004,127.66147762078502L50.559609375,119.46167580897988L51.023671875,92.15261892172002L51.487734375,106.60014383609474L51.951796875,107.25465097794162L52.415859375000004,100.55262769185575L52.879921875,106.57539186110859L53.343984375,102.59665390161365L53.808046875,114.31724155866178L54.272109375,125.99830720974843L54.736171875,111.51986261514514L55.200234375,111.08682478391202L55.664296875,98.70093650084272L56.128359375,95.2744516225961L56.592421875,82.19526457786556L57.056484375,105.12898382773761L57.520546875,101.77991988108704L57.984609375,99.46297271435074L58.448671875,82.55104378553533L58.91273437500001,90.5990064327533L59.376796875,81.24730451290421L59.840859375,80.81410437363841L60.304921875,80.14766759138837L60.768984375,88.51440321482143L61.233046875,73.38283109664913L61.697109375,77.42527495897728L62.161171875,75.01410797926091L62.625234375,80.19692807931163L63.089296875,75.98284347240738L63.553359375,86.14689709590027L64.017421875,83.12837345783524L64.481484375,76.43186864486103L64.945546875,79.16318821907039L65.409609375,76.31403301312369L65.873671875,65.03946782992432L66.337734375,62.76950883865352L66.801796875,66.17164751199573L67.265859375,64.28846856263965L67.729921875,79.089175756161L68.193984375,44.734814093663104L68.658046875,62.17497451488784L69.122109375,54.336713845913195L69.586171875,69.51567990963272L70.050234375,73.30297554456267L70.514296875,70.12587695855358L70.97835937500001,69.79923204275273L71.442421875,67.38782160098732L71.90648437499999,85.12062340516307L72.370546875,81.47201998417191L72.834609375,74.10566992026105L73.298671875,58.24679550757771L73.76273437500001,51.48617902168857L74.226796875,59.75626021165111L74.690859375,78.03871816855207L75.15492187500001,55.154340560619616L75.618984375,66.61182689666744L76.083046875,52.96017942061787L76.54710937499999,45.5969943633446L77.011171875,50.922807840200534L77.475234375,51.75658420416022L77.939296875,43.93171394788299L78.40335937500001,51.39666614165669L78.867421875,62.58058228859531L79.331484375,44.44980118824882L79.795546875,62.25831968967727L80.259609375,74.78833750578069L80.723671875,72.00832552176252L81.187734375,74.66425301478455L81.651796875,63.6696691879859L82.115859375,46.65548619857197L82.579921875,62.34767026167645L83.04398437500001,69.63091861284691L83.508046875,49.44020511553833L83.97210937499999,56.264852120326076L84.436171875,36.03615854336662L84.900234375,55.61602575962356L85.364296875,56.9239850411048L85.828359375,69.92851039079517L86.292421875,58.05389241071845L86.756484375,61.781377535599894L87.220546875,49.02688771027782L87.68460937500001,59.39512483890236L88.148671875,51.43902853819037L88.61273437499999,45.31749993104198L89.076796875,55.15661287307735L89.540859375,47.7287480647747L90.004921875,30.680642696527293L90.468984375,63.71584582328792L90.933046875,50.598354082841105L91.397109375,54.692817669648356L91.86117187500001,61.3091423144707L92.32523437500001,56.503931852487376L92.78929687499999,60.64530246074379L93.25335937499999,47.30001139640804L93.717421875,49.979230092121966L94.181484375,46.30920201081493L94.645546875,50.79166294978211L95.109609375,48.56552712733925L95.573671875,52.3114342139317L96.037734375,54.978317499160724L96.50179687500001,60.137116010372424L96.96585937500001,48.816698807936405L97.42992187499999,45.02802355472854L97.893984375,26.86543007997363L98.358046875,65.63781639245838L98.822109375,46.70077013969417L99.286171875,61.3130377072554L99.750234375,34.06103209348822L100.214296875,38.6325189883892L100.678359375,32.2330378752488L101.14242187500001,43.13007457439712L101.606484375,29.427868146162723L102.07054687499999,58.69168182519763L102.534609375,45.040358965213436L102.998671875,55.149471319638735L103.462734375,48.09045151563788L103.92679687500001,52.256817560929484L104.390859375,29.377471502010607L104.854921875,33.41179996270397L105.318984375,34.12660453869743L105.78304687500001,46.003089061150135L106.247109375,56.716068451221126L106.71117187499999,52.52389542873085L107.175234375,44.157484421363215L107.639296875,52.66989150414096L108.103359375,39.71381510221038L108.56742187500001,33.44961773432213L109.031484375,45.14634611056397L109.495546875,54.534729645802386L109.95960937500001,46.15460360967193L110.423671875,43.716655804560695L110.887734375,41.63651605752795L111.35179687499999,59.52773050161505L111.815859375,34.30376375638519L112.279921875,57.34403822972221L112.743984375,47.920839621470485L113.20804687500001,39.929928247745174L113.672109375,31.448197383146976L114.136171875,44.66404779140762L114.600234375,29.38542459561271L115.064296875,43.61975790904114L115.528359375,54.76626205444332L115.992421875,40.08923358183636L116.456484375,17.530283579459525L116.920546875,29.58587501599235L117.384609375,47.971885497753405L117.84867187500001,40.196924961530215L118.312734375,41.2736764504359L118.77679687499999,52.380496281843875L119.240859375,49.3328383519099L119.704921875,60.91651918337891L120.168984375,22.50843325028049L120.633046875,40.22930541405307L121.097109375,51.162617958508974L121.561171875,52.81653681168186L122.025234375,52.114229954205996L122.48929687500001,49.219303883039004L122.953359375,51.17527798505927L123.41742187499999,29.25549701543952L123.881484375,43.1327526569366L124.345546875,35.712840942236056L124.809609375,33.50220553691567L125.273671875,43.94486089853137L125.737734375,46.27454924583431L126.201796875,32.01140625660232L126.66585937500001,54.57400818971484L127.12992187500001,36.32060337066646L127.59398437499999,47.30049832050613L128.058046875,26.103556174498294L128.522109375,55.10102237187896L128.986171875,47.4133024032299L129.450234375,52.639702210059504L129.914296875,49.269538219158434L130.378359375,26.620020334537166L130.84242187499999,44.913758699710506L131.306484375,33.031431088080744L131.770546875,49.60762585126434L132.234609375,50.34101469700149L132.698671875,22.49171552291279L133.162734375,40.571288438943675L133.626796875,26.671228518852775L134.09085937499998,47.11652216544514L134.554921875,46.22236721332253L135.018984375,40.419043504274775L135.48304687499999,52.88584234164307L135.947109375,23.293192588365965L136.411171875,31.99022505833549L136.875234375,27.1017505755791L137.339296875,19.879773506751395L137.803359375,40.47155015285195L138.267421875,38.789146239940905L138.731484375,40.06805238356953L139.195546875,56.42634861285866L139.659609375,34.345071150706325L140.12367187499999,51.80292314749493L140.587734375,32.40021514892574L141.051796875,31.331903677720256L141.515859375,14.024430073224552L141.979921875,38.38848886123066L142.44398437499999,34.15395344220672L142.908046875,28.525516638388968L143.372109375,43.242635195071834L143.836171875,46.80789344127358L144.300234375,33.30459550710822L144.764296875,14.124411821365317L145.228359375,43.92432893239532L145.692421875,27.344888008557806L146.15648437500002,43.964743632536624L146.620546875,40.97957429519062L147.08460937499999,19.092417240142783L147.548671875,23.803732505211418L148.01273437499998,52.6931015528165L148.476796875,29.547651474292415L148.940859375,22.15792905367333L149.40492187499999,30.744997831491283L149.868984375,42.64607202089745L150.333046875,25.963403188265257L150.797109375,30.382158224399227L151.261171875,40.289927464265055L151.725234375,37.12402813251198L152.189296875,43.061986354681125L152.653359375,32.744064716192355L153.11742187500002,27.942587338961058L153.581484375,23.669909532253527L154.045546875,20.25113428555999L154.509609375,21.90618929496174L154.973671875,39.53551972829376L155.43773437500002,31.25570005636944L155.90179687499997,24.69034013381367L156.36585937499999,10.427278298598026L156.829921875,16.221512757814818L157.29398437499998,31.056710408284072L157.758046875,17.32463930203361L158.222109375,26.60662992183975L158.68617187499999,19.84544535783618L159.150234375,24.74065562394946L159.614296875,21.29250262333793L160.078359375,18.19185112072868L160.542421875,35.37321138381954L161.006484375,49.96291813483601L161.470546875,4.729535964819065L161.934609375,30.220337115801268L162.39867187500002,24.18280291557308L162.862734375,38.11646059843207L163.326796875,40.30648288360005L163.79085937500003,27.81647399755622L164.254921875,43.15644962971023L164.718984375,31.713733324637747L165.183046875,12.978517110531113L165.64710937499999,39.77654715684741L166.111171875,41.19179204794074L166.57523437499998,10.640226437495267L167.039296875,10.495528826346732L167.503359375,11.713001379599906L167.96742187499999,34.81633252363934L168.431484375,35.69701590904819L168.895546875,23.88813268221337L169.359609375,29.072007784476614L169.823671875,40.66226209126983L170.287734375,25.595694340192328L170.751796875,23.8004863445575L171.215859375,29.45578512778645L171.67992187500002,38.83475479712849L172.143984375,14.519550726963883L172.608046875,30.49585500130283L173.07210937500003,31.536898723015373L173.53617187499998,23.65757412176861L174.000234375,25.217516624010496L174.464296875,31.511254053849406L174.92835937499999,25.700220713248587L175.392421875,20.070404291152915L175.856484375,53.104714723733714L176.320546875,2.15541172027584L176.784609375,29.813268569799533L177.24867187499999,27.636230927247233L177.712734375,38.277957090964655L178.176796875,44.40005377622748L178.640859375,14.156305349790104L179.104921875,20.65154820222118L179.568984375,37.915847870019725L180.033046875,22.711561753199614L180.497109375,26.486521977644657L180.96117187500002,20.896957947657622L181.425234375,17.137335832302355L181.88929687499999,6.570677133706857L182.353359375,40.842180545513415L182.81742187499998,18.363410711288413L183.281484375,27.981703574840807L183.745546875,29.543512619458685L184.20960937499999,19.48512152525092L184.673671875,22.03262725243198L185.137734375,9.86820827997645L185.601796875,28.179881682762687L186.065859375,22.685105543870158L186.529921875,14.069795168363102L186.993984375,16.305831780800425L187.458046875,28.28708613835845L187.92210937500002,20.698374069653998L188.386171875,13.500499743681644L188.850234375,17.427948364844656L189.314296875,10.175863155951834L189.778359375,23.128612243212157L190.24242187500002,13.492303188030503L190.70648437499997,33.62336848332328L191.17054687499999,25.641221743363566L191.634609375,39.97594257501452L192.09867187499998,18.768044636799697L192.562734375,30.152816974199705L193.026796875,39.47976691906265L193.49085937499999,34.94942511045013L193.954921875,25.322854537230228L194.418984375,33.41683151171753L194.883046875,40.2202161642221L195.347109375,10.38280589763931L195.811171875,9.913816837164035L196.275234375,39.892435092192386L196.739296875,30.59624251952534L197.20335937500002,29.890121423281126L197.667421875,18.780785817366336L198.131484375,40.158133341715846L198.59554687500003,50.07450490731456L199.059609375,0.16657024163462908L199.523671875,8.463269948959312L199.987734375,23.91897120842563L200.45179687499999,21.47720916454605L200.915859375,24.10108082111061L201.37992187499998,23.16618655278129L201.843984375,31.133725569798354L202.308046875,16.160728399570125L202.77210937499999,14.493824903781553L203.236171875,36.85808642093948L203.700234375,11.927816060873141L204.164296875,29.96486427233765L204.628359375,24.58962799952576L205.092421875,20.48177400002109L205.556484375,23.58072126828704L206.020546875,37.95829142056976L206.48460937500002,33.579464160479L206.948671875,22.144214024910514L207.412734375,26.027596015196536L207.87679687500003,24.524867094480047L208.34085937499998,10.421678671470023L208.804921875,23.52975654602047L209.268984375,33.2616650324601L209.73304687499999,16.283920196386447L210.197109375,7.197997680077159L210.661171875,15.05248915232142L211.125234375,13.652825832366904L211.589296875,28.65982653544495L212.05335937499999,-8.486476751474271L212.517421875,18.19371766310467L212.981484375,13.887847863710814L213.445546875,10.91590663102954L213.909609375,33.58490147957431L214.373671875,3.0634440091939803L214.837734375,5.977360120186412L215.301796875,26.99138111334576L215.76585937500002,34.12684800074646L216.229921875,19.240036395879855L216.69398437499999,29.398571546261095L217.158046875,38.17172648356507L217.62210937499998,8.003288984298667L218.086171875,16.19059307758621L218.550234375,0.6399416189926913L219.01429687499999,2.7303067720853003L219.478359375,13.825359271122819L219.942421875,35.20668334227337L220.406484375,32.723370442023615L220.870546875,24.237500722591662L221.334609375,19.572930170939483L221.798671875,20.019764184951743L222.262734375,26.207433315423778L222.72679687500002,14.645095990254289L223.190859375,10.44570026030903L223.654921875,14.241030142857438L224.118984375,16.452395934324954L224.583046875,3.294814109802207L225.04710937500002,18.585853870098376L225.51117187499997,12.316543799180216L225.97523437499999,5.624177841039768L226.439296875,6.387187902743954L226.90335937499998,13.638218109424253L227.367421875,-4.862625305469253L227.831484375,10.69679078688984L228.29554687499999,0.05263000268199236L228.759609375,15.356735559610177L229.223671875,21.98807369745692L229.687734375,19.58469750330994L230.151796875,16.919518452424235L230.615859375,20.240584263434744L231.079921875,18.525394127919082L231.543984375,7.766156948529728L232.00804687500002,8.589383290364152L232.472109375,15.559295984414865L232.936171875,28.792756814223026L233.40023437500003,36.96813126710742L233.864296875,22.39376262518073L234.328359375,5.644466345126767L234.792421875,27.56327346655036L235.25648437499999,21.829092979431113L235.720546875,23.65311065086948L236.18460937499998,-1.1821283560532971L236.648671875,15.275338081213107L237.112734375,13.55057177176838L237.57679687499999,13.77674801533035L238.040859375,7.872631017978329L238.504921875,17.611031825725817L238.968984375,26.194124056742705L239.433046875,-4.221670884352518L239.897109375,25.968597045311515L240.361171875,9.290797453660197L240.825234375,23.957032442092856L241.28929687500002,23.65773642980132L241.753359375,27.20197578576892L242.217421875,10.152815415308988L242.68148437500003,17.62174415588375L243.14554687499998,17.7640883005582L243.609609375,18.445863191898006L244.073671875,12.078194453166043L244.53773437499999,-2.3647858362931653L245.001796875,13.45018425354587L245.465859375,18.983833166269115L245.929921875,7.478709422624998L246.393984375,4.6852258718930395L246.85804687499999,12.296417603125906L247.322109375,13.25492769021251L247.786171875,33.174018694804225L248.250234375,10.424032137944108L248.714296875,3.2561036440042033L249.178359375,14.171724612896226L249.642421875,12.314758410820566L250.106484375,23.355437718904906L250.57054687500002,19.176249339030303L251.034609375,18.009011121896556L251.49867187499999,-3.5735749097971086L251.962734375,12.009538155335612L252.42679687499998,-13.831036806106606L252.890859375,10.593157108013413L253.354921875,-2.1967158684364034L253.81898437499999,10.987403319432145L254.283046875,8.241070252198405L254.747109375,1.8755926719078349L255.211171875,5.1240256382868505" style="fill: none;" fill="none"></path></g></g></g></g></g></g><g transform="translate(51, 177)" clip-path="url(#clip_1)"><clipPath id="clip_1"><rect width="278" height="23"></rect></clipPath><g><g><line x1="0" y1="0" x2="0" y2="5" style="visibility: inherit;" fill="rgb(0, 0, 0)" stroke="rgb(204, 204, 204)" stroke-width="1px"></line><line x1="23.203125" y1="0" x2="23.203125" y2="5" style="visibility: inherit;" fill="rgb(0, 0, 0)" stroke="rgb(204, 204, 204)" stroke-width="1px"></line><line x1="46.40625" y1="0" x2="46.40625" y2="5" style="visibility: inherit;" fill="rgb(0, 0, 0)" stroke="rgb(204, 204, 204)" stroke-width="1px"></line><line x1="69.609375" y1="0" x2="69.609375" y2="5" style="visibility: inherit;" fill="rgb(0, 0, 0)" stroke="rgb(204, 204, 204)" stroke-width="1px"></line><line x1="92.8125" y1="0" x2="92.8125" y2="5" style="visibility: inherit;" fill="rgb(0, 0, 0)" stroke="rgb(204, 204, 204)" stroke-width="1px"></line><line x1="116.015625" y1="0" x2="116.015625" y2="5" style="visibility: inherit;" fill="rgb(0, 0, 0)" stroke="rgb(204, 204, 204)" stroke-width="1px"></line><line x1="139.21875" y1="0" x2="139.21875" y2="5" style="visibility: inherit;" fill="rgb(0, 0, 0)" stroke="rgb(204, 204, 204)" stroke-width="1px"></line><line x1="162.421875" y1="0" x2="162.421875" y2="5" style="visibility: inherit;" fill="rgb(0, 0, 0)" stroke="rgb(204, 204, 204)" stroke-width="1px"></line><line x1="185.625" y1="0" x2="185.625" y2="5" style="visibility: inherit;" fill="rgb(0, 0, 0)" stroke="rgb(204, 204, 204)" stroke-width="1px"></line><line x1="208.828125" y1="0" x2="208.828125" y2="5" style="visibility: inherit;" fill="rgb(0, 0, 0)" stroke="rgb(204, 204, 204)" stroke-width="1px"></line><line x1="232.03125" y1="0" x2="232.03125" y2="5" style="visibility: inherit;" fill="rgb(0, 0, 0)" stroke="rgb(204, 204, 204)" stroke-width="1px"></line><line x1="255.234375" y1="0" x2="255.234375" y2="5" style="visibility: inherit;" fill="rgb(0, 0, 0)" stroke="rgb(204, 204, 204)" stroke-width="1px"></line><line x1="278.4375" y1="0" x2="278.4375" y2="5" style="visibility: inherit;" fill="rgb(0, 0, 0)" stroke="rgb(204, 204, 204)" stroke-width="1px"></line></g><g transform="translate(0, 8)"><text x="0" y="0" dx="0em" dy="0.95em" style="text-anchor: middle; visibility: hidden; font-family: Roboto, sans-serif; font-size: 12px; font-weight: 200;" fill="rgb(33, 33, 33)" stroke="none" stroke-width="1px">-1k</text><text x="23.203125" y="0" dx="0em" dy="0.95em" style="text-anchor: middle; visibility: inherit; font-family: Roboto, sans-serif; font-size: 12px; font-weight: 200;" fill="rgb(33, 33, 33)" stroke="none" stroke-width="1px">0</text><text x="46.40625" y="0" dx="0em" dy="0.95em" style="text-anchor: middle; visibility: inherit; font-family: Roboto, sans-serif; font-size: 12px; font-weight: 200;" fill="rgb(33, 33, 33)" stroke="none" stroke-width="1px">1k</text><text x="69.609375" y="0" dx="0em" dy="0.95em" style="text-anchor: middle; visibility: inherit; font-family: Roboto, sans-serif; font-size: 12px; font-weight: 200;" fill="rgb(33, 33, 33)" stroke="none" stroke-width="1px">2k</text><text x="92.8125" y="0" dx="0em" dy="0.95em" style="text-anchor: middle; visibility: inherit; font-family: Roboto, sans-serif; font-size: 12px; font-weight: 200;" fill="rgb(33, 33, 33)" stroke="none" stroke-width="1px">3k</text><text x="116.015625" y="0" dx="0em" dy="0.95em" style="text-anchor: middle; visibility: inherit; font-family: Roboto, sans-serif; font-size: 12px; font-weight: 200;" fill="rgb(33, 33, 33)" stroke="none" stroke-width="1px">4k</text><text x="139.21875" y="0" dx="0em" dy="0.95em" style="text-anchor: middle; visibility: inherit; font-family: Roboto, sans-serif; font-size: 12px; font-weight: 200;" fill="rgb(33, 33, 33)" stroke="none" stroke-width="1px">5k</text><text x="162.421875" y="0" dx="0em" dy="0.95em" style="text-anchor: middle; visibility: inherit; font-family: Roboto, sans-serif; font-size: 12px; font-weight: 200;" fill="rgb(33, 33, 33)" stroke="none" stroke-width="1px">6k</text><text x="185.625" y="0" dx="0em" dy="0.95em" style="text-anchor: middle; visibility: inherit; font-family: Roboto, sans-serif; font-size: 12px; font-weight: 200;" fill="rgb(33, 33, 33)" stroke="none" stroke-width="1px">7k</text><text x="208.828125" y="0" dx="0em" dy="0.95em" style="text-anchor: middle; visibility: inherit; font-family: Roboto, sans-serif; font-size: 12px; font-weight: 200;" fill="rgb(33, 33, 33)" stroke="none" stroke-width="1px">8k</text><text x="232.03125" y="0" dx="0em" dy="0.95em" style="text-anchor: middle; visibility: inherit; font-family: Roboto, sans-serif; font-size: 12px; font-weight: 200;" fill="rgb(33, 33, 33)" stroke="none" stroke-width="1px">9k</text><text x="255.234375" y="0" dx="0em" dy="0.95em" style="text-anchor: middle; visibility: inherit; font-family: Roboto, sans-serif; font-size: 12px; font-weight: 200;" fill="rgb(33, 33, 33)" stroke="none" stroke-width="1px">10k</text><text x="278.4375" y="0" dx="0em" dy="0.95em" style="text-anchor: middle; visibility: hidden; font-family: Roboto, sans-serif; font-size: 12px; font-weight: 200;" fill="rgb(33, 33, 33)" stroke="none" stroke-width="1px">11k</text></g><line x1="0" y1="0" x2="278.4375" y2="0" fill="rgb(0, 0, 0)" stroke="rgb(204, 204, 204)" stroke-width="1px"></line></g></g></g></g></svg>