<svg viewBox="0 0 330 200.00001525878906" xmlns="http://www.w3.org/2000/svg"><g><g><g><g><g><line x1="51.5625" y1="165.20000000000002" x2="46.5625" y2="165.20000000000002" style="visibility: inherit;" fill="rgb(0, 0, 0)" stroke="rgb(204, 204, 204)" stroke-width="1px"></line><line x1="51.5625" y1="153.4" x2="46.5625" y2="153.4" style="visibility: inherit;" fill="rgb(0, 0, 0)" stroke="rgb(204, 204, 204)" stroke-width="1px"></line><line x1="51.5625" y1="141.6" x2="46.5625" y2="141.6" style="visibility: inherit;" fill="rgb(0, 0, 0)" stroke="rgb(204, 204, 204)" stroke-width="1px"></line><line x1="51.5625" y1="129.8" x2="46.5625" y2="129.8" style="visibility: inherit;" fill="rgb(0, 0, 0)" stroke="rgb(204, 204, 204)" stroke-width="1px"></line><line x1="51.5625" y1="118.00000000000001" x2="46.5625" y2="118.00000000000001" style="visibility: inherit;" fill="rgb(0, 0, 0)" stroke="rgb(204, 204, 204)" stroke-width="1px"></line><line x1="51.5625" y1="106.19999999999997" x2="46.5625" y2="106.19999999999997" style="visibility: inherit;" fill="rgb(0, 0, 0)" stroke="rgb(204, 204, 204)" stroke-width="1px"></line><line x1="51.5625" y1="94.40000000000002" x2="46.5625" y2="94.40000000000002" style="visibility: inherit;" fill="rgb(0, 0, 0)" stroke="rgb(204, 204, 204)" stroke-width="1px"></line><line x1="51.5625" y1="82.6" x2="46.5625" y2="82.6" style="visibility: inherit;" fill="rgb(0, 0, 0)" stroke="rgb(204, 204, 204)" stroke-width="1px"></line><line x1="51.5625" y1="70.79999999999998" x2="46.5625" y2="70.79999999999998" style="visibility: inherit;" fill="rgb(0, 0, 0)" stroke="rgb(204, 204, 204)" stroke-width="1px"></line><line x1="51.5625" y1="59.00000000000001" x2="46.5625" y2="59.00000000000001" style="visibility: inherit;" fill="rgb(0, 0, 0)" stroke="rgb(204, 204, 204)" stroke-width="1px"></line><line x1="51.5625" y1="47.19999999999999" x2="46.5625" y2="47.19999999999999" style="visibility: inherit;" fill="rgb(0, 0, 0)" stroke="rgb(204, 204, 204)" stroke-width="1px"></line><line x1="51.5625" y1="35.39999999999997" x2="46.5625" y2="35.39999999999997" style="visibility: inherit;" fill="rgb(0, 0, 0)" stroke="rgb(204, 204, 204)" stroke-width="1px"></line><line x1="51.5625" y1="23.599999999999955" x2="46.5625" y2="23.599999999999955" style="visibility: inherit;" fill="rgb(0, 0, 0)" stroke="rgb(204, 204, 204)" stroke-width="1px"></line><line x1="51.5625" y1="11.799999999999939" x2="46.5625" y2="11.799999999999939" style="visibility: inherit;" fill="rgb(0, 0, 0)" stroke="rgb(204, 204, 204)" stroke-width="1px"></line></g><g transform="translate(41.5625, 0)"><text x="0" y="165.20000000000002" dx="0em" dy="0.3em" style="text-anchor: end; visibility: inherit; font-family: Roboto, sans-serif; font-size: 12px; font-weight: 200;" fill="rgb(33, 33, 33)" stroke="none" stroke-width="1px">0.3</text><text x="0" y="153.4" dx="0em" dy="0.3em" style="text-anchor: end; visibility: hidden; font-family: Roboto, sans-serif; font-size: 12px; font-weight: 200;" fill="rgb(33, 33, 33)" stroke="none" stroke-width="1px">0.32</text><text x="0" y="141.6" dx="0em" dy="0.3em" style="text-anchor: end; visibility: inherit; font-family: Roboto, sans-serif; font-size: 12px; font-weight: 200;" fill="rgb(33, 33, 33)" stroke="none" stroke-width="1px">0.34</text><text x="0" y="129.8" dx="0em" dy="0.3em" style="text-anchor: end; visibility: hidden; font-family: Roboto, sans-serif; font-size: 12px; font-weight: 200;" fill="rgb(33, 33, 33)" stroke="none" stroke-width="1px">0.36</text><text x="0" y="118.00000000000001" dx="0em" dy="0.3em" style="text-anchor: end; visibility: inherit; font-family: Roboto, sans-serif; font-size: 12px; font-weight: 200;" fill="rgb(33, 33, 33)" stroke="none" stroke-width="1px">0.38</text><text x="0" y="106.19999999999997" dx="0em" dy="0.3em" style="text-anchor: end; visibility: hidden; font-family: Roboto, sans-serif; font-size: 12px; font-weight: 200;" fill="rgb(33, 33, 33)" stroke="none" stroke-width="1px">0.4</text><text x="0" y="94.40000000000002" dx="0em" dy="0.3em" style="text-anchor: end; visibility: inherit; font-family: Roboto, sans-serif; font-size: 12px; font-weight: 200;" fill="rgb(33, 33, 33)" stroke="none" stroke-width="1px">0.42</text><text x="0" y="82.6" dx="0em" dy="0.3em" style="text-anchor: end; visibility: hidden; font-family: Roboto, sans-serif; font-size: 12px; font-weight: 200;" fill="rgb(33, 33, 33)" stroke="none" stroke-width="1px">0.44</text><text x="0" y="70.79999999999998" dx="0em" dy="0.3em" style="text-anchor: end; visibility: inherit; font-family: Roboto, sans-serif; font-size: 12px; font-weight: 200;" fill="rgb(33, 33, 33)" stroke="none" stroke-width="1px">0.46</text><text x="0" y="59.00000000000001" dx="0em" dy="0.3em" style="text-anchor: end; visibility: hidden; font-family: Roboto, sans-serif; font-size: 12px; font-weight: 200;" fill="rgb(33, 33, 33)" stroke="none" stroke-width="1px">0.48</text><text x="0" y="47.19999999999999" dx="0em" dy="0.3em" style="text-anchor: end; visibility: inherit; font-family: Roboto, sans-serif; font-size: 12px; font-weight: 200;" fill="rgb(33, 33, 33)" stroke="none" stroke-width="1px">0.5</text><text x="0" y="35.39999999999997" dx="0em" dy="0.3em" style="text-anchor: end; visibility: hidden; font-family: Roboto, sans-serif; font-size: 12px; font-weight: 200;" fill="rgb(33, 33, 33)" stroke="none" stroke-width="1px">0.52</text><text x="0" y="23.599999999999955" dx="0em" dy="0.3em" style="text-anchor: end; visibility: inherit; font-family: Roboto, sans-serif; font-size: 12px; font-weight: 200;" fill="rgb(33, 33, 33)" stroke="none" stroke-width="1px">0.54</text><text x="0" y="11.799999999999939" dx="0em" dy="0.3em" style="text-anchor: end; visibility: hidden; font-family: Roboto, sans-serif; font-size: 12px; font-weight: 200;" fill="rgb(33, 33, 33)" stroke="none" stroke-width="1px">0.56</text></g><line x1="51.5625" y1="0" x2="51.5625" y2="177" fill="rgb(0, 0, 0)" stroke="rgb(204, 204, 204)" stroke-width="1px"></line></g></g><g transform="translate(51, 0)" clip-path="url(#clip_0)"><clipPath id="clip_0"><rect width="278" height="177"></rect></clipPath><g><g><g><line x1="0" y1="0" x2="0" y2="177" fill="rgb(0, 0, 0)" stroke="rgb(66, 66, 66)" stroke-width="1px" opacity="0.25"></line><line x1="23.203125" y1="0" x2="23.203125" y2="177" fill="rgb(0, 0, 0)" stroke="rgb(66, 66, 66)" stroke-width="1px" opacity="0.25"></line><line x1="46.40625" y1="0" x2="46.40625" y2="177" fill="rgb(0, 0, 0)" stroke="rgb(66, 66, 66)" stroke-width="1px" opacity="0.25"></line><line x1="69.609375" y1="0" x2="69.609375" y2="177" fill="rgb(0, 0, 0)" stroke="rgb(66, 66, 66)" stroke-width="1px" opacity="0.25"></line><line x1="92.8125" y1="0" x2="92.8125" y2="177" fill="rgb(0, 0, 0)" stroke="rgb(66, 66, 66)" stroke-width="1px" opacity="0.25"></line><line x1="116.015625" y1="0" x2="116.015625" y2="177" fill="rgb(0, 0, 0)" stroke="rgb(66, 66, 66)" stroke-width="1px" opacity="0.25"></line><line x1="139.21875" y1="0" x2="139.21875" y2="177" fill="rgb(0, 0, 0)" stroke="rgb(66, 66, 66)" stroke-width="1px" opacity="0.25"></line><line x1="162.421875" y1="0" x2="162.421875" y2="177" fill="rgb(0, 0, 0)" stroke="rgb(66, 66, 66)" stroke-width="1px" opacity="0.25"></line><line x1="185.625" y1="0" x2="185.625" y2="177" fill="rgb(0, 0, 0)" stroke="rgb(66, 66, 66)" stroke-width="1px" opacity="0.25"></line><line x1="208.828125" y1="0" x2="208.828125" y2="177" fill="rgb(0, 0, 0)" stroke="rgb(66, 66, 66)" stroke-width="1px" opacity="0.25"></line><line x1="232.03125" y1="0" x2="232.03125" y2="177" fill="rgb(0, 0, 0)" stroke="rgb(66, 66, 66)" stroke-width="1px" opacity="0.25"></line><line x1="255.234375" y1="0" x2="255.234375" y2="177" fill="rgb(0, 0, 0)" stroke="rgb(66, 66, 66)" stroke-width="1px" opacity="0.25"></line><line x1="278.4375" y1="0" x2="278.4375" y2="177" fill="rgb(0, 0, 0)" stroke="rgb(66, 66, 66)" stroke-width="1px" opacity="0.25"></line></g><g><line x1="0" y1="165.20000000000002" x2="278.4375" y2="165.20000000000002" fill="rgb(0, 0, 0)" stroke="rgb(66, 66, 66)" stroke-width="1px" opacity="0.25"></line><line x1="0" y1="153.4" x2="278.4375" y2="153.4" fill="rgb(0, 0, 0)" stroke="rgb(66, 66, 66)" stroke-width="1px" opacity="0.25"></line><line x1="0" y1="141.6" x2="278.4375" y2="141.6" fill="rgb(0, 0, 0)" stroke="rgb(66, 66, 66)" stroke-width="1px" opacity="0.25"></line><line x1="0" y1="129.8" x2="278.4375" y2="129.8" fill="rgb(0, 0, 0)" stroke="rgb(66, 66, 66)" stroke-width="1px" opacity="0.25"></line><line x1="0" y1="118.00000000000001" x2="278.4375" y2="118.00000000000001" fill="rgb(0, 0, 0)" stroke="rgb(66, 66, 66)" stroke-width="1px" opacity="0.25"></line><line x1="0" y1="106.19999999999997" x2="278.4375" y2="106.19999999999997" fill="rgb(0, 0, 0)" stroke="rgb(66, 66, 66)" stroke-width="1px" opacity="0.25"></line><line x1="0" y1="94.40000000000002" x2="278.4375" y2="94.40000000000002" fill="rgb(0, 0, 0)" stroke="rgb(66, 66, 66)" stroke-width="1px" opacity="0.25"></line><line x1="0" y1="82.6" x2="278.4375" y2="82.6" fill="rgb(0, 0, 0)" stroke="rgb(66, 66, 66)" stroke-width="1px" opacity="0.25"></line><line x1="0" y1="70.79999999999998" x2="278.4375" y2="70.79999999999998" fill="rgb(0, 0, 0)" stroke="rgb(66, 66, 66)" stroke-width="1px" opacity="0.25"></line><line x1="0" y1="59.00000000000001" x2="278.4375" y2="59.00000000000001" fill="rgb(0, 0, 0)" stroke="rgb(66, 66, 66)" stroke-width="1px" opacity="0.25"></line><line x1="0" y1="47.19999999999999" x2="278.4375" y2="47.19999999999999" fill="rgb(0, 0, 0)" stroke="rgb(66, 66, 66)" stroke-width="1px" opacity="0.25"></line><line x1="0" y1="35.39999999999997" x2="278.4375" y2="35.39999999999997" fill="rgb(0, 0, 0)" stroke="rgb(66, 66, 66)" stroke-width="1px" opacity="0.25"></line><line x1="0" y1="23.599999999999955" x2="278.4375" y2="23.599999999999955" fill="rgb(0, 0, 0)" stroke="rgb(66, 66, 66)" stroke-width="1px" opacity="0.25"></line><line x1="0" y1="11.799999999999939" x2="278.4375" y2="11.799999999999939" fill="rgb(0, 0, 0)" stroke="rgb(66, 66, 66)" stroke-width="1px" opacity="0.25"></line></g></g></g><g><g><line x1="0" y1="342.20000000000005" x2="278.4375" y2="342.20000000000005" fill="rgb(0, 0, 0)" stroke="rgb(153, 153, 153)" stroke-width="1.5px"></line></g></g><g><g><line x1="23.203125" y1="0" x2="23.203125" y2="177" fill="rgb(0, 0, 0)" stroke="rgb(153, 153, 153)" stroke-width="1.5px"></line></g></g><g><g><g><g><g><path stroke="rgb(255, 112, 67)" stroke-width="2px" d="M23.643984375,196.36214111133916L24.108046875,127.87591549510717L24.572109375,79.26563163335389L25.036171875,63.06002366710812L25.500234375,40.444735423592455L25.964296875,28.96167081454009L26.428359375,14.249990870272335L26.892421874999997,16.327751724793433L27.356484375,4.623903471865735L27.820546875,0.20653769639371145L28.284609375,-9.836270925561156L32.461171875,-1.2041194775386512L32.925234374999995,1.9610801533289437L33.389296875,1.5376886672999777L33.853359375000004,3.2958837156371046L34.317421875,3.9305678784884046L34.781484375,1.838044958968823L35.245546874999995,1.9174715987912214L35.709609375,4.799218575928485L36.173671875000004,12.300017093624614L36.637734375,11.634450774786943L37.101796875000005,10.589752659412008L37.565859374999995,14.422350174255262L38.029921875,13.902966214755637L38.493984375000004,14.257267616449141L38.958046875,20.699014780132433L39.422109375,21.716893462330134L39.886171874999995,21.61971124021216L40.350234375,18.421393261330586L40.814296875000004,20.87182104912506L41.278359375,22.25695340355827L41.742421875,28.14125838899131L42.206484374999995,28.42026956765255L42.670546875,31.382101525270706L43.134609375000004,37.24074178354382L43.598671875,41.97913891922932L44.062734375,44.600226597542324L44.526796875,49.4893986781305L44.990859375,47.46275929924852L45.454921875000004,50.6126068523924L45.918984374999994,52.04626944779797L46.383046875,51.993918601729604L46.847109375,51.09883025515767L47.311171875,54.326927564760766L47.775234375000004,55.579635587512925L48.239296874999994,53.865203378395776L48.703359375,55.32073476038321L49.167421875,57.39441306337577L49.631484375,56.857472231502L50.095546875000004,60.018849546003445L50.559609375,59.0320581250336L51.023671875,60.41570153448673L51.487734375,59.15455910545066L51.951796875,63.107838922804646L52.415859375000004,63.70261508123162L52.879921875,67.11150849463492L53.343984375,67.43948869197853L53.808046875,67.58329905546822L54.272109375,69.83990862731221L54.736171875,73.85821137581017L55.200234375,76.40509958560527L55.664296875,81.99273554192997L56.128359375,85.54081539098841L56.592421875,87.9523976371299L57.056484375,88.48362595693634L57.520546875,89.83825850436412L57.984609375,89.88747228133954L58.448671875,90.10411660172196L58.91273437500001,91.81168746471296L59.376796875,94.04141316240563L59.840859375,93.04317768813648L60.304921875,92.8586454158793L60.768984375,93.98785211386779L61.233046875,94.57533004799215L61.697109375,97.39157705796407L62.161171875,97.96486098390382L62.625234375,95.64702500922269L63.089296875,100.6587282507756L63.553359375,99.53534163773168L64.017421875,104.11226300520275L64.481484375,105.34239799905856L64.945546875,104.11609901223432L65.409609375,107.32302885545488L65.873671875,108.87638975651463L66.337734375,114.1982192204541L66.801796875,112.05296424398155L67.265859375,114.11531462121066L67.729921875,114.26424655514951L68.193984375,115.72322689889404L68.658046875,116.03732982291649L69.122109375,120.05753819535374L69.586171875,118.29676670522474L70.050234375,118.09126845986607L70.514296875,119.14536511961288L70.97835937500001,121.56643280411903L71.442421875,123.59668360269612L71.90648437499999,125.88021219686426L72.370546875,125.82167186902272L72.834609375,126.8733276646029L73.298671875,128.07968989288526L73.76273437500001,128.7314859902858L74.226796875,129.3383242314737L74.690859375,129.12428553187132L75.15492187500001,131.43708545511385L75.618984375,133.07432302947L76.083046875,136.66031515611502L76.54710937499999,137.95426744734206L77.011171875,138.27699159878554L77.475234375,138.38479869392089L77.939296875,137.93135648235696L78.40335937500001,137.60962501896216L78.867421875,138.10450351817366L79.331484375,138.01659783932908L79.795546875,137.71985293352003L80.259609375,138.09737615203946L80.723671875,139.04706935442968L81.187734375,137.7298547590119L81.651796875,138.2032146278675L82.115859375,140.35880941751591L82.579921875,139.95340813113262L83.04398437500001,141.38075674319845L83.508046875,141.77256499093184L83.97210937499999,141.3731527432085L84.436171875,141.90963955674832L84.900234375,141.25584209085775L85.364296875,140.52686642526527L85.828359375,141.44564908500547L86.292421875,142.70952320462257L86.756484375,145.08604361818425L87.220546875,145.48746840924105L87.68460937500001,145.75237796341872L88.148671875,141.97547442999672L88.61273437499999,142.25888490521567L89.076796875,141.86905239891178L89.540859375,142.0461756252992L90.004921875,142.1764139456461L90.468984375,143.28601820469422L90.933046875,143.31556141876248L91.397109375,143.39341639245356L91.86117187500001,141.47925853363006L92.32523437500001,141.8222251637941L92.78929687499999,141.27730504647116L93.25335937499999,141.0735175654345L93.717421875,142.14161411506103L94.181484375,143.8231123767909L94.645546875,145.15721413923782L95.109609375,145.37580584139477L95.573671875,146.59049775710795L96.037734375,145.38375222223613L96.50179687500001,146.47803332966188L96.96585937500001,146.49359420034037L97.42992187499999,145.64387567238487L97.893984375,146.05763333267063L98.358046875,144.2069408673976L98.822109375,143.52142705108216L99.286171875,143.85143814672637L99.750234375,144.91027755463097L100.214296875,144.12315804882425L100.678359375,143.72983746329015L101.14242187500001,143.14112324985737L101.606484375,143.5150024017624L102.07054687499999,144.21934653882374L102.534609375,144.65983918573212L102.998671875,144.78125227881105L103.462734375,146.90728213664457L103.92679687500001,148.741304262497L104.390859375,149.5561514132674L104.854921875,148.90945665195304L105.318984375,149.9439936849546L105.78304687500001,149.97844996946827L106.247109375,146.60806314106856L106.71117187499999,147.7953217033767L107.175234375,150.7492312870017L107.639296875,152.46665804100573L108.103359375,152.87781735184896L108.56742187500001,154.24099937552197L109.031484375,151.99229730584526L109.495546875,153.49806678866457L109.95960937500001,152.37874107742593L110.423671875,152.40008763065143L110.887734375,151.42833419018038L111.35179687499999,149.34450200609317L111.815859375,148.82609359735036L112.279921875,147.87838347828145L112.743984375,148.56481568486234L113.20804687500001,148.5455081755079L113.672109375,145.93887640946585L114.136171875,144.8517153615436L114.600234375,146.95420217392876L115.064296875,147.10129608532466L115.528359375,146.99882832121912L115.992421875,144.9569966520806L116.456484375,144.57217411432197L116.920546875,144.40868153892515L117.384609375,144.41618572046974L117.84867187500001,146.4679909401237L118.312734375,145.66172465652724L118.77679687499999,146.40712909515938L119.240859375,147.7871321689346L119.704921875,147.73451710323516L120.168984375,148.53504596412043L120.633046875,149.61287053004398L121.097109375,148.54649637658096L121.561171875,148.6250119327317L122.025234375,147.9958841739107L122.48929687500001,148.12348084612444L122.953359375,148.26279741912117L123.41742187499999,149.44961302760024L123.881484375,150.67149430599036L124.345546875,147.87224039607673L124.809609375,147.56861169908174L125.273671875,147.65892952598125L125.737734375,148.93732482247887L126.201796875,149.43176240494654L126.66585937500001,148.2961835643444L127.12992187500001,151.11992173155247L127.59398437499999,149.04502719238914L128.058046875,149.67584097145306L128.522109375,149.25182381770077L128.986171875,150.26948770556865L129.450234375,150.63656074531482L129.914296875,149.96883987956465L130.378359375,150.53105565644438L130.84242187499999,149.46795033992646L131.306484375,147.87920395474L131.770546875,146.7625957733844L132.234609375,147.10076117692958L132.698671875,148.8792611150247L133.162734375,147.03132334364017L133.626796875,148.15193983746056L134.09085937499998,147.8764040139216L134.554921875,149.60072906736076L135.018984375,150.08080090931608L135.48304687499999,150.20588981495783L135.947109375,150.74495447445088L136.411171875,148.75902670234686L136.875234375,149.31572375664615L137.339296875,149.78227011653544L137.803359375,151.56020640516488L138.267421875,152.8852150379248L138.731484375,152.86491336393001L139.195546875,151.83225371331542L139.659609375,153.1450280966546L140.12367187499999,153.8314564617459L140.587734375,154.7162384335999L141.051796875,154.27633105738116L141.515859375,154.06374391159218L141.979921875,156.28337511159054L142.44398437499999,154.22652902188966L142.908046875,156.02018390998236L143.372109375,156.04297433827816L143.836171875,155.49892414809258L144.300234375,155.28165593148145L144.764296875,156.97234771729438L145.228359375,155.542058308847L145.692421875,155.33719142788092L146.15648437500002,153.46586797219496L146.620546875,154.36067900403174L147.08460937499999,155.03635795245054L147.548671875,155.2575223278656L148.01273437499998,156.508291421383L148.476796875,156.07737004105675L148.940859375,154.43148934374184L149.40492187499999,154.45640754994693L149.868984375,152.802627078565L150.333046875,152.52009569991108L150.797109375,150.50410091449407L151.261171875,151.2665871951247L151.725234375,148.89316018103895L152.189296875,151.0747884733621L152.653359375,151.89211184112534L153.11742187500002,149.2919564348006L153.581484375,150.74643094374647L154.045546875,150.97336333245556L154.509609375,150.4932383720623L154.973671875,150.72977575998428L155.43773437500002,151.99695477015618L155.90179687499997,152.45990752512375L156.36585937499999,152.1689205122068L156.829921875,152.95254642654135L157.29398437499998,152.93334852178697L157.758046875,151.26825893509206L158.222109375,154.28983528662766L158.68617187499999,155.1926843766783L159.150234375,156.4485974125041L159.614296875,158.68316710221538L160.078359375,160.17678892935314L160.542421875,158.97754373960194L161.006484375,153.98866444479657L161.470546875,155.34459683106454L161.934609375,155.68348338847858L162.39867187500002,156.56157255869064L162.862734375,155.883333690473L163.326796875,155.96536237791943L163.79085937500003,155.72169231411013L164.254921875,156.4167649492877L164.718984375,153.92550739275728L165.183046875,154.34978115046604L165.64710937499999,153.39594373957436L166.111171875,151.89730066051592L166.57523437499998,152.20354078522783L167.039296875,153.26178567211142L167.503359375,153.21622672736922L167.96742187499999,152.95743077868474L168.431484375,152.39971792704688L168.895546875,151.79024174338724L169.359609375,152.21782056682835L169.823671875,151.55976478749693L170.287734375,151.8998182829694L170.751796875,153.65865370897737L171.215859375,153.88474790514965L171.67992187500002,152.61336772198783L172.143984375,154.25723441262815L172.608046875,154.48243461209336L173.07210937500003,154.99368887207922L173.53617187499998,155.11217106457366L174.000234375,154.7579607296808L174.464296875,153.68566950638504L174.92835937499999,152.0407129878945L175.392421875,152.06577192859174L175.856484375,151.65232421084932L176.320546875,152.18831969432256L176.784609375,152.42336508571108L177.24867187499999,151.66519537930787L177.712734375,151.32146670369892L178.176796875,151.66995576693347L178.640859375,153.49552486962438L179.104921875,153.65948726021966L179.568984375,153.40677678063858L180.033046875,153.65495696313994L180.497109375,154.22879086239175L180.96117187500002,155.78499528559774L181.425234375,154.26630198591408L181.88929687499999,155.6080273965012L182.353359375,156.81142355731228L182.81742187499998,156.4343078064719L183.281484375,155.9053056664287L183.745546875,154.6435330427008L184.20960937499999,155.23844901886437L184.673671875,156.92461178571153L185.137734375,156.2337731361702L185.601796875,156.28245115759808L186.065859375,155.46133187964114L186.529921875,154.1475241573562L186.993984375,155.96582065867568L187.458046875,153.89204693717232L187.92210937500002,153.5684559316856L188.386171875,154.32172896725734L188.850234375,155.65194036718725L189.314296875,157.79446008464564L189.778359375,157.16584556812825L190.24242187500002,157.1909517673979L190.70648437499997,157.0839543916282L191.17054687499999,154.65454749383005L191.634609375,152.95599343404893L192.09867187499998,152.57423867725484L192.562734375,153.63237226077752L193.026796875,154.18474114717995L193.49085937499999,154.23439923151093L193.954921875,154.05697309992095L194.418984375,154.07200849790615L194.883046875,154.56938898747478L195.347109375,154.20379703925832L195.811171875,154.8886513038288L196.275234375,154.4497278038094L196.739296875,153.08150986284878L197.20335937500002,153.53201582656084L197.667421875,153.5805762537638L198.131484375,153.5557951696205L198.59554687500003,154.64373080558963L199.059609375,155.37099813306978L199.523671875,154.5918381960808L199.987734375,154.3403311459677L200.45179687499999,155.37411867694166L200.915859375,157.2530606023917L201.37992187499998,156.57149275950633L201.843984375,155.35069582711498L202.308046875,156.11333129987872L202.77210937499999,156.30386449383877L203.236171875,154.83668328184348L203.700234375,154.92654187373935L204.164296875,155.2713286849196L204.628359375,155.0861409591736L205.092421875,155.64291339818556L205.556484375,156.43356801721976L206.020546875,155.22379066157512L206.48460937500002,158.08169101841608L206.948671875,158.25900258392716L207.412734375,158.37481974277455L207.87679687500003,156.64930506509742L208.34085937499998,154.88332987513124L208.804921875,154.28471709030254L209.268984375,153.61637438718125L209.73304687499999,154.52611266538779L210.197109375,155.49758341102552L210.661171875,155.1238359480091L211.125234375,155.45353008648644L211.589296875,156.1077616525372L212.05335937499999,157.9201774531019L212.517421875,155.78030604840032L212.981484375,155.94144298601785L213.445546875,155.43257937522506L213.909609375,156.1190896257023L214.373671875,157.63924476840435L214.837734375,157.044085062787L215.301796875,157.6061025547192L215.76585937500002,156.22687726919696L216.229921875,156.19387733791632L216.69398437499999,157.1052077232691L217.158046875,157.54548294832344L217.62210937499998,158.04984551927478L218.086171875,155.9435364222023L218.550234375,155.65605085749863L219.01429687499999,155.15919105821345L219.478359375,153.8410988457217L219.942421875,155.75940427367811L220.406484375,154.62327132211558L220.870546875,153.8968538616875L221.334609375,153.739544605146L221.798671875,153.39156036638929L222.262734375,154.31335310814126L222.72679687500002,153.2023515475751L223.190859375,154.48545558926114L223.654921875,154.53019172379356L224.118984375,154.95522761847658L224.583046875,154.31121991252377L225.04710937500002,154.14194026269445L225.51117187499997,154.3424340678268L225.97523437499999,152.71922033485885L226.439296875,152.91582085124057L226.90335937499998,154.68491614667838L227.367421875,155.5060711289191L227.831484375,156.67602450830432L228.29554687499999,157.67444069370057L228.759609375,158.47445695386315L229.223671875,158.4833913050829L229.687734375,158.34016248727485L230.151796875,158.6904473478613L230.615859375,159.366644596012L231.079921875,159.15596190954884L231.543984375,160.01632965206184L232.00804687500002,159.10487258493075L232.472109375,160.6139181929156L232.936171875,157.45890220022125L233.40023437500003,158.01356378331116L233.864296875,158.6475040906757L234.328359375,158.21996904081908L234.792421875,158.70476427793628L235.25648437499999,160.21497905182946L235.720546875,161.0039594774971L236.18460937499998,160.3993367867645L236.648671875,160.5251854118982L237.112734375,160.11907861864083L237.57679687499999,159.521664885004L238.040859375,159.47670141636098L238.504921875,158.34427183787906L238.968984375,159.41967254329523L239.433046875,159.99978997333764L239.897109375,159.95576564810204L240.361171875,158.77869136161976L240.825234375,159.76626265490685L241.28929687500002,157.9468456975636L241.753359375,157.20793692040598L242.217421875,156.2684127202763L242.68148437500003,155.4023352138222L243.14554687499998,154.9071111874599L243.609609375,155.25384458394217L244.073671875,155.45746096335085L244.53773437499999,157.63876505341142L245.001796875,157.02656931679851L245.465859375,157.8172605675585L245.929921875,156.2885292281622L246.393984375,156.90998538642353L246.85804687499999,157.43287197747136L247.322109375,156.94325964568532L247.786171875,156.838470259772L248.250234375,157.45498689484563L248.714296875,156.76694496815173L249.178359375,157.41896731684895L249.642421875,158.3097388431158L250.106484375,158.0121947614604L250.57054687500002,159.0163403721083L251.034609375,158.50247374040742L251.49867187499999,158.14925683435374L251.962734375,157.6905346485666L252.42679687499998,158.9221095966719L252.890859375,159.15452530450426L253.354921875,159.39499784052492L253.81898437499999,161.05487363344537L254.283046875,161.20048836117485L254.747109375,157.9195730273023L255.211171875,159.43821785426985" style="fill: none;" fill="none"></path></g></g></g></g><g opacity="0.2"><g><g><g><path stroke="rgb(255, 112, 67)" stroke-width="2px" d="M23.4815625,270.760960367322L23.643984375,57.05878467559813L24.108046875,-39.16198878288273L24.572109375,-71.18805794715885L25.036171875,3.3327970027923284L25.500234375,-54.92463617324834L26.428359375,-61.15906624794011L26.892421874999997,27.782895278930653L27.356484375,-63.982814836502115L28.748671875,-22.603693890571606L29.212734375,39.10570652484893L29.676796875,-65.62169044017794L30.140859374999998,-5.31519680023197L30.604921875,20.567840647697437L31.068984375000003,4.574851107597321L31.533046875,-10.500849175453222L31.997109375,1.313346934318519L32.461171875,37.098529648780804L32.925234374999995,27.642579984664906L33.389296875,-1.9351103782654044L33.853359375000004,17.857434463500965L34.317421875,9.232650709152205L34.781484375,-15.777864742279089L35.245546874999995,2.5907436132430792L35.709609375,29.377601456642132L36.173671875000004,76.62752838134766L36.637734375,5.89828104972837L37.101796875000005,1.546185922622657L37.565859374999995,47.73133428096771L38.029921875,9.372966003417952L38.493984375000004,17.357293081283547L38.958046875,77.2235167145729L39.422109375,30.671421003341653L39.886171874999995,20.76280505657195L40.350234375,-9.838202285766638L40.814296875000004,42.563476276397694L41.278359375,34.53888328075407L41.742421875,80.39550395011902L42.206484374999995,30.901305985450723L42.670546875,57.751358461379986L43.134609375000004,89.45716412067412L43.598671875,84.25250412225724L44.062734375,68.00471396446227L44.526796875,93.18086476325989L44.990859375,29.33905870914457L45.454921875000004,78.79889876842498L45.918984374999994,64.88273383378981L46.383046875,51.5249464035034L46.847109375,43.07666451930997L47.311171875,83.27064872980118L47.775234375000004,66.81588472127913L48.239296874999994,38.482270550727826L48.703359375,68.38463784456253L49.167421875,76.01151258945465L49.631484375,52.035725724697095L50.095546875000004,88.41443510055542L50.559609375,50.16689480543135L51.023671875,72.84835220575333L51.487734375,47.82079846858978L51.951796875,98.64074738025664L52.415859375000004,69.04928923845291L52.879921875,97.75899411439896L53.343984375,70.38849146366118L53.808046875,68.87647987604142L54.272109375,90.1336842894554L54.736171875,109.99775828123093L55.200234375,99.31273103952407L55.664296875,132.2531002879143L56.128359375,117.4573272585869L56.592421875,109.64672387838364L57.056484375,93.26271535158156L57.520546875,102.0254406452179L57.984609375,90.33024878501892L58.448671875,92.05333114862442L58.91273437500001,107.17568011283875L59.376796875,114.10407305955886L59.840859375,84.06102122068405L60.304921875,91.19818152189254L60.768984375,104.14891393184661L61.233046875,99.8617893576622L61.697109375,122.73416699171067L62.161171875,103.12375069856644L62.625234375,74.78892327547074L63.089296875,145.7593441128731L63.553359375,89.42581297159195L64.017421875,145.3010687351227L64.481484375,116.41276956796648L64.945546875,93.08016480207444L65.409609375,136.18361653089525L65.873671875,122.85586149692536L66.337734375,162.09229053258895L66.801796875,92.7465379357338L67.265859375,132.67571659088134L67.729921875,115.60458512306215L68.193984375,128.8536194086075L68.658046875,118.8641727089882L69.122109375,156.23845250606536L69.586171875,102.45020211935042L70.050234375,116.24182404279708L70.514296875,128.63205136060714L70.97835937500001,143.35566223859786L71.442421875,141.86865420341493L71.90648437499999,146.43167943954467L72.370546875,125.2948156118393L72.834609375,136.33812160491945L73.298671875,138.93683822154998L73.76273437500001,134.59759653806688L74.226796875,134.7998228788376L74.690859375,127.19795168638231L75.15492187500001,152.2521442294121L75.618984375,147.8093716621399L76.083046875,168.93406779766084L76.54710937499999,149.59978075027468L77.011171875,141.18149609565737L77.475234375,139.3550586819649L77.939296875,133.85039122104646L78.40335937500001,134.71405119895937L78.867421875,142.55839706659316L79.331484375,137.22544879913332L79.795546875,135.0491550683975L80.259609375,141.49507791996004L80.723671875,147.59429187774657L81.187734375,125.87494374513626L81.651796875,142.46344686746596L82.115859375,159.75913555622103L82.579921875,136.3048011183739L83.04398437500001,154.22687978744506L83.508046875,145.2988356471062L83.97210937499999,137.77844579219817L84.436171875,146.73801691532137L84.900234375,135.37166924476622L85.364296875,133.96608979701995L85.828359375,149.71468807458876L86.292421875,154.08438415527345L86.756484375,166.47471697330477L87.220546875,149.100289952755L87.68460937500001,148.13656301498412L88.148671875,107.98335464000702L88.61273437499999,144.809578371048L89.076796875,138.36056084632875L89.540859375,143.64028425216677L90.004921875,143.34855855703356L90.468984375,153.27245445251467L90.933046875,143.58145029544832L91.397109375,144.09411103725432L91.86117187500001,124.25184042453766L92.32523437500001,144.90892441272737L92.78929687499999,136.37302459478377L93.25335937499999,139.23943043947222L93.717421875,151.7544821023941L94.181484375,158.9565953731537L94.645546875,157.16412903070452L95.109609375,147.34313101768495L95.573671875,157.52272428274156L96.037734375,134.52304304838182L96.50179687500001,156.32656277418138L96.96585937500001,146.63364202976229L97.42992187499999,137.9964092493057L97.893984375,149.78145213127138L98.358046875,127.55070925951004L98.822109375,137.3518028974533L99.286171875,146.82153792381288L99.750234375,154.4398319840431L100.214296875,137.03908265829088L100.678359375,140.1899522662163L101.14242187500001,137.8426954269409L101.606484375,146.8799147129059L102.07054687499999,150.5584436774254L102.534609375,148.62427295446398L102.998671875,145.87397010326387L103.462734375,166.04155064821245L103.92679687500001,165.24750323295595L104.390859375,156.88977570533754L104.854921875,143.08920384645464L105.318984375,159.25482691526415L105.78304687500001,150.28855652809142L106.247109375,116.27458186149596L106.71117187499999,158.4806487083435L107.175234375,177.33441741466524L107.639296875,167.92349876165392L108.103359375,156.5782511353493L108.56742187500001,166.50963754653932L109.031484375,131.753978741169L109.495546875,167.04999209642412L109.95960937500001,142.30480970144274L110.423671875,152.5922066092491L110.887734375,142.6825532436371L111.35179687499999,130.59001238346102L111.815859375,144.16041792631148L112.279921875,139.34899241924288L112.743984375,154.7427055358887L113.20804687500001,148.37174059152605L113.672109375,122.47919054031374L114.136171875,135.06726593971254L114.600234375,165.87658346891402L115.064296875,148.42514128685L115.528359375,146.07661844491957L115.992421875,126.5805116415024L116.456484375,141.108771276474L116.920546875,142.93724836111068L117.384609375,144.4837233543396L117.84867187500001,164.93423790931703L118.312734375,138.40532810688018L118.77679687499999,153.11576904058458L119.240859375,160.2071598291397L119.704921875,147.26098151206972L120.168984375,155.7398057103157L120.633046875,159.3132916212082L121.097109375,138.9491289973259L121.561171875,149.3316519379616L122.025234375,142.33373434543608L122.48929687500001,149.27185089588164L122.953359375,149.51664657592775L123.41742187499999,160.13095350265505L123.881484375,161.66842581033708L124.345546875,122.67895520925524L124.809609375,144.8359534263611L125.273671875,148.47178996801375L125.737734375,160.4428824901581L126.201796875,153.8817006468773L126.66585937500001,138.0759739995003L127.12992187500001,176.53356523513796L127.59398437499999,130.37097634077074L128.058046875,155.35316498279573L128.522109375,145.4356694340706L128.986171875,159.42846269607543L129.450234375,153.940218102932L129.914296875,143.95935208797457L130.378359375,155.59099764823912L130.84242187499999,139.90000249147414L131.306484375,133.58048648834227L131.770546875,136.71312214136125L132.234609375,150.14424980878832L132.698671875,164.88576055765154L133.162734375,130.3998834013939L133.626796875,158.23748828172685L134.09085937499998,145.39658160209657L134.554921875,165.1196545481682L135.018984375,154.40144748687746L135.48304687499999,151.33168996572493L135.947109375,155.59653640985488L136.411171875,130.88567675352098L136.875234375,154.32599724531173L137.339296875,153.98118735551836L137.803359375,167.56163300275804L138.267421875,164.8102927327156L138.731484375,152.68219829797744L139.195546875,142.5383168578148L139.659609375,164.9599975466728L140.12367187499999,160.00931174755098L140.587734375,162.67927618026735L141.051796875,150.31716467142107L141.515859375,152.15045959949495L141.979921875,176.260055911541L142.44398437499999,135.71491421461104L142.908046875,172.1630779027939L143.372109375,156.24808819293978L143.836171875,150.60247243642806L144.300234375,153.3262419819832L144.764296875,172.18857378959657L145.228359375,142.6694536328316L145.692421875,153.49338949918746L146.15648437500002,136.6239568710327L146.620546875,162.41397829055788L147.08460937499999,161.1174684882164L147.548671875,157.2480017066002L148.01273437499998,167.76521326303484L148.476796875,152.19907761812212L148.940859375,139.61856306791307L149.40492187499999,154.68067140579225L149.868984375,137.91860283613204L150.333046875,149.97731329202654L150.797109375,132.3601478457451L151.261171875,158.12896372079848L151.725234375,127.5323170542717L152.189296875,170.70944310426714L152.653359375,159.24802215099336L153.11742187500002,125.89055777788163L153.581484375,163.83670152425768L154.045546875,153.01575483083727L154.509609375,146.17211372852327L154.973671875,152.85861225128176L155.43773437500002,163.40156586170198L155.90179687499997,156.62648231983184L156.36585937499999,149.55003739595415L156.829921875,160.0051796555519L157.29398437499998,152.76056737899782L157.758046875,136.28245265483855L158.222109375,181.48402245044707L158.68617187499999,163.3183261871338L159.150234375,167.75181473493578L159.614296875,178.79429430961608L160.078359375,173.6193853735924L160.542421875,148.1843370318413L161.006484375,109.08875079154967L161.470546875,167.54798830747606L161.934609375,158.7334624052048L162.39867187500002,164.46437509059908L162.862734375,149.77918387651445L163.326796875,156.7036205649376L163.79085937500003,153.52866173982622L164.254921875,162.67241866588594L164.718984375,131.5041893839836L165.183046875,158.16824496984484L165.64710937499999,144.81140704154967L166.111171875,138.40951294898989L166.57523437499998,154.95970190763475L167.039296875,162.7859896540642L167.503359375,152.8061962246895L167.96742187499999,150.62826724052428L168.431484375,147.38030226230623L168.895546875,146.3049560904503L169.359609375,156.06602997779848L169.823671875,145.63726277351378L170.287734375,154.96029974222185L170.751796875,169.48817254304888L171.215859375,155.9195956707001L171.67992187500002,141.17094607353212L172.143984375,169.05203462839128L172.608046875,156.50923640727999L173.07210937500003,159.59497721195223L173.53617187499998,156.1785107970238L174.000234375,151.57006771564483L174.464296875,144.0350484967232L174.92835937499999,137.23610432147981L175.392421875,152.29130239486696L175.856484375,147.93129475116731L176.320546875,157.01227904558183L176.784609375,154.53877360820772L177.24867187499999,144.84166802167894L177.712734375,148.22790862321855L178.176796875,154.80635733604433L178.640859375,169.92564679384233L179.104921875,155.13514877557756L179.568984375,151.1323824644089L180.033046875,155.88857860565187L180.497109375,159.39329595565798L180.96117187500002,169.79083509445192L181.425234375,140.59806228876116L181.88929687499999,167.68355609178545L182.353359375,167.641989004612L182.81742187499998,153.04026604890822L183.281484375,151.1442864060402L183.745546875,143.28757942914964L184.20960937499999,160.59269280433656L184.673671875,172.10007668733599L185.137734375,150.01622529029848L185.601796875,156.72055335044863L186.065859375,148.07125837802886L186.529921875,142.3232546567917L186.993984375,172.33048917055132L187.458046875,135.22808344364165L187.92210937500002,150.65613688230516L188.386171875,161.10118628740312L188.850234375,167.62384296655657L189.314296875,177.07713754177095L189.778359375,151.50831491947176L190.24242187500002,157.41690756082536L190.70648437499997,156.12097800970076L191.17054687499999,132.78988541364672L191.634609375,137.669006896019L192.09867187499998,149.13844586610793L192.562734375,163.15557451248168L193.026796875,159.15606112480162L193.49085937499999,154.68132199048995L193.954921875,152.46013791561128L194.418984375,154.20732707977297L194.883046875,159.04581339359282L195.347109375,150.91346950531008L195.811171875,161.05233968496324L196.275234375,150.49941630363466L196.739296875,140.7675483942032L197.20335937500002,157.5865694999695L197.667421875,154.01762009859084L198.131484375,153.33276541233062L198.59554687500003,164.43515152931215L199.059609375,161.91640408039095L199.523671875,147.5793987631798L199.987734375,152.07676769495012L200.45179687499999,164.67820645570754L200.915859375,174.16353793144228L201.37992187499998,150.43738217353823L201.843984375,144.36352343559267L202.308046875,162.97705055475237L202.77210937499999,158.01866323947905L203.236171875,141.6320523738861L203.700234375,155.73526920080184L204.164296875,158.3744099855423L204.628359375,153.41945142745973L205.092421875,160.65386534929277L205.556484375,163.54945958852767L206.020546875,144.33579446077349L206.48460937500002,183.8027942299843L206.948671875,159.85480667352678L207.412734375,159.41717417240142L207.87679687500003,141.11967296600344L208.34085937499998,138.9895531654358L208.804921875,148.89720202684404L209.268984375,147.60129005908968L209.73304687499999,162.7137571692467L210.197109375,164.24082012176515L210.661171875,151.76010878086092L211.125234375,158.42077733278273L211.589296875,161.99584574699404L212.05335937499999,174.23191965818407L212.517421875,136.52146340608596L212.981484375,157.3916754245758L213.445546875,150.85280687808992L213.909609375,162.29768187999727L214.373671875,171.32064105272295L214.837734375,151.68764771223067L215.301796875,162.66425998210906L215.76585937500002,143.8138496994972L216.229921875,155.8968779563904L216.69398437499999,165.3071811914444L217.158046875,161.50795997381212L217.62210937499998,162.58910865783693L218.086171875,136.98675454854967L218.550234375,153.06868077516557L219.01429687499999,150.6874528646469L219.478359375,141.97826893329622L219.942421875,173.02415312528612L220.406484375,144.39807475805284L220.870546875,147.3590967178345L221.334609375,152.32376129627227L221.798671875,150.25970221757888L222.262734375,162.60948778390886L222.72679687500002,143.20333750247957L223.190859375,166.0333919644356L223.654921875,154.9328169345856L224.118984375,158.7805506706238L224.583046875,148.5151505589485L225.04710937500002,152.61842341423034L225.51117187499997,156.14687831401824L225.97523437499999,138.11029673814772L226.439296875,154.6852254986763L226.90335937499998,170.6067738056183L227.367421875,162.89646596908568L227.831484375,167.20560492277147L228.29554687499999,166.66018636226656L228.759609375,165.67460329532622L229.223671875,158.56380046606066L229.687734375,157.05110312700273L230.151796875,161.84301109313967L230.615859375,165.45241982936858L231.079921875,157.25981773138048L231.543984375,167.75963933467867L232.00804687500002,150.90175898075105L232.472109375,174.19532866477968L232.936171875,129.06375826597213L233.40023437500003,163.00551803112032L233.864296875,164.3529668569565L234.328359375,154.37215359210967L234.792421875,163.06792141199114L235.25648437499999,173.8069120168686L235.720546875,168.10478330850603L236.18460937499998,154.95773257017134L236.648671875,161.6578230381012L237.112734375,156.46411747932433L237.57679687499999,154.14494128227236L238.040859375,159.07203019857405L238.504921875,148.15240563154222L238.968984375,169.09827889204027L239.433046875,165.22084684371947L239.897109375,159.5595467209816L240.361171875,148.18502278327944L240.825234375,168.65440429449083L241.28929687500002,141.57209308147432L241.753359375,150.55775792598726L242.217421875,147.81269491910936L242.68148437500003,147.607637655735L243.14554687499998,150.45009495019914L243.609609375,158.37444515228273L244.073671875,157.2900083780289L244.53773437499999,177.27050186395644L245.001796875,151.51680768728258L245.465859375,164.93348182439806L245.929921875,142.52994717359545L246.393984375,162.50309081077577L246.85804687499999,162.13885129690172L247.322109375,152.53674865961077L247.786171875,155.89536578655242L248.250234375,163.00363661050798L248.714296875,150.5745676279068L249.178359375,163.28716845512392L249.642421875,166.32668257951738L250.106484375,155.33429802656175L250.57054687500002,168.053650867939L251.034609375,153.87767405509948L251.49867187499999,154.97030467987062L251.962734375,153.5620349764824L252.42679687499998,170.00628412961962L252.890859375,161.24626667499544L253.354921875,161.559250664711L253.81898437499999,175.99375576972963L254.283046875,162.5110209107399L254.747109375,128.3913350224495L255.211171875,173.106021296978" style="fill: none;" fill="none"></path></g></g></g></g></g></g><g transform="translate(51, 177)" clip-path="url(#clip_1)"><clipPath id="clip_1"><rect width="278" height="23"></rect></clipPath><g><g><line x1="0" y1="0" x2="0" y2="5" style="visibility: inherit;" fill="rgb(0, 0, 0)" stroke="rgb(204, 204, 204)" stroke-width="1px"></line><line x1="23.203125" y1="0" x2="23.203125" y2="5" style="visibility: inherit;" fill="rgb(0, 0, 0)" stroke="rgb(204, 204, 204)" stroke-width="1px"></line><line x1="46.40625" y1="0" x2="46.40625" y2="5" style="visibility: inherit;" fill="rgb(0, 0, 0)" stroke="rgb(204, 204, 204)" stroke-width="1px"></line><line x1="69.609375" y1="0" x2="69.609375" y2="5" style="visibility: inherit;" fill="rgb(0, 0, 0)" stroke="rgb(204, 204, 204)" stroke-width="1px"></line><line x1="92.8125" y1="0" x2="92.8125" y2="5" style="visibility: inherit;" fill="rgb(0, 0, 0)" stroke="rgb(204, 204, 204)" stroke-width="1px"></line><line x1="116.015625" y1="0" x2="116.015625" y2="5" style="visibility: inherit;" fill="rgb(0, 0, 0)" stroke="rgb(204, 204, 204)" stroke-width="1px"></line><line x1="139.21875" y1="0" x2="139.21875" y2="5" style="visibility: inherit;" fill="rgb(0, 0, 0)" stroke="rgb(204, 204, 204)" stroke-width="1px"></line><line x1="162.421875" y1="0" x2="162.421875" y2="5" style="visibility: inherit;" fill="rgb(0, 0, 0)" stroke="rgb(204, 204, 204)" stroke-width="1px"></line><line x1="185.625" y1="0" x2="185.625" y2="5" style="visibility: inherit;" fill="rgb(0, 0, 0)" stroke="rgb(204, 204, 204)" stroke-width="1px"></line><line x1="208.828125" y1="0" x2="208.828125" y2="5" style="visibility: inherit;" fill="rgb(0, 0, 0)" stroke="rgb(204, 204, 204)" stroke-width="1px"></line><line x1="232.03125" y1="0" x2="232.03125" y2="5" style="visibility: inherit;" fill="rgb(0, 0, 0)" stroke="rgb(204, 204, 204)" stroke-width="1px"></line><line x1="255.234375" y1="0" x2="255.234375" y2="5" style="visibility: inherit;" fill="rgb(0, 0, 0)" stroke="rgb(204, 204, 204)" stroke-width="1px"></line><line x1="278.4375" y1="0" x2="278.4375" y2="5" style="visibility: inherit;" fill="rgb(0, 0, 0)" stroke="rgb(204, 204, 204)" stroke-width="1px"></line></g><g transform="translate(0, 8)"><text x="0" y="0" dx="0em" dy="0.95em" style="text-anchor: middle; visibility: hidden; font-family: Roboto, sans-serif; font-size: 12px; font-weight: 200;" fill="rgb(33, 33, 33)" stroke="none" stroke-width="1px">-1k</text><text x="23.203125" y="0" dx="0em" dy="0.95em" style="text-anchor: middle; visibility: inherit; font-family: Roboto, sans-serif; font-size: 12px; font-weight: 200;" fill="rgb(33, 33, 33)" stroke="none" stroke-width="1px">0</text><text x="46.40625" y="0" dx="0em" dy="0.95em" style="text-anchor: middle; visibility: inherit; font-family: Roboto, sans-serif; font-size: 12px; font-weight: 200;" fill="rgb(33, 33, 33)" stroke="none" stroke-width="1px">1k</text><text x="69.609375" y="0" dx="0em" dy="0.95em" style="text-anchor: middle; visibility: inherit; font-family: Roboto, sans-serif; font-size: 12px; font-weight: 200;" fill="rgb(33, 33, 33)" stroke="none" stroke-width="1px">2k</text><text x="92.8125" y="0" dx="0em" dy="0.95em" style="text-anchor: middle; visibility: inherit; font-family: Roboto, sans-serif; font-size: 12px; font-weight: 200;" fill="rgb(33, 33, 33)" stroke="none" stroke-width="1px">3k</text><text x="116.015625" y="0" dx="0em" dy="0.95em" style="text-anchor: middle; visibility: inherit; font-family: Roboto, sans-serif; font-size: 12px; font-weight: 200;" fill="rgb(33, 33, 33)" stroke="none" stroke-width="1px">4k</text><text x="139.21875" y="0" dx="0em" dy="0.95em" style="text-anchor: middle; visibility: inherit; font-family: Roboto, sans-serif; font-size: 12px; font-weight: 200;" fill="rgb(33, 33, 33)" stroke="none" stroke-width="1px">5k</text><text x="162.421875" y="0" dx="0em" dy="0.95em" style="text-anchor: middle; visibility: inherit; font-family: Roboto, sans-serif; font-size: 12px; font-weight: 200;" fill="rgb(33, 33, 33)" stroke="none" stroke-width="1px">6k</text><text x="185.625" y="0" dx="0em" dy="0.95em" style="text-anchor: middle; visibility: inherit; font-family: Roboto, sans-serif; font-size: 12px; font-weight: 200;" fill="rgb(33, 33, 33)" stroke="none" stroke-width="1px">7k</text><text x="208.828125" y="0" dx="0em" dy="0.95em" style="text-anchor: middle; visibility: inherit; font-family: Roboto, sans-serif; font-size: 12px; font-weight: 200;" fill="rgb(33, 33, 33)" stroke="none" stroke-width="1px">8k</text><text x="232.03125" y="0" dx="0em" dy="0.95em" style="text-anchor: middle; visibility: inherit; font-family: Roboto, sans-serif; font-size: 12px; font-weight: 200;" fill="rgb(33, 33, 33)" stroke="none" stroke-width="1px">9k</text><text x="255.234375" y="0" dx="0em" dy="0.95em" style="text-anchor: middle; visibility: inherit; font-family: Roboto, sans-serif; font-size: 12px; font-weight: 200;" fill="rgb(33, 33, 33)" stroke="none" stroke-width="1px">10k</text><text x="278.4375" y="0" dx="0em" dy="0.95em" style="text-anchor: middle; visibility: hidden; font-family: Roboto, sans-serif; font-size: 12px; font-weight: 200;" fill="rgb(33, 33, 33)" stroke="none" stroke-width="1px">11k</text></g><line x1="0" y1="0" x2="278.4375" y2="0" fill="rgb(0, 0, 0)" stroke="rgb(204, 204, 204)" stroke-width="1px"></line></g></g></g></g></svg>