<svg viewBox="0 0 330 200.00001525878906" xmlns="http://www.w3.org/2000/svg"><g><g><g><g><g><line x1="61.953125" y1="177" x2="56.953125" y2="177" style="visibility: inherit;" fill="rgb(0, 0, 0)" stroke="rgb(204, 204, 204)" stroke-width="1px"></line><line x1="61.953125" y1="162.25" x2="56.953125" y2="162.25" style="visibility: inherit;" fill="rgb(0, 0, 0)" stroke="rgb(204, 204, 204)" stroke-width="1px"></line><line x1="61.953125" y1="147.49999999999997" x2="56.953125" y2="147.49999999999997" style="visibility: inherit;" fill="rgb(0, 0, 0)" stroke="rgb(204, 204, 204)" stroke-width="1px"></line><line x1="61.953125" y1="132.74999999999997" x2="56.953125" y2="132.74999999999997" style="visibility: inherit;" fill="rgb(0, 0, 0)" stroke="rgb(204, 204, 204)" stroke-width="1px"></line><line x1="61.953125" y1="117.99999999999993" x2="56.953125" y2="117.99999999999993" style="visibility: inherit;" fill="rgb(0, 0, 0)" stroke="rgb(204, 204, 204)" stroke-width="1px"></line><line x1="61.953125" y1="103.24999999999993" x2="56.953125" y2="103.24999999999993" style="visibility: inherit;" fill="rgb(0, 0, 0)" stroke="rgb(204, 204, 204)" stroke-width="1px"></line><line x1="61.953125" y1="88.49999999999991" x2="56.953125" y2="88.49999999999991" style="visibility: inherit;" fill="rgb(0, 0, 0)" stroke="rgb(204, 204, 204)" stroke-width="1px"></line><line x1="61.953125" y1="73.75000000000007" x2="56.953125" y2="73.75000000000007" style="visibility: inherit;" fill="rgb(0, 0, 0)" stroke="rgb(204, 204, 204)" stroke-width="1px"></line><line x1="61.953125" y1="59.00000000000004" x2="56.953125" y2="59.00000000000004" style="visibility: inherit;" fill="rgb(0, 0, 0)" stroke="rgb(204, 204, 204)" stroke-width="1px"></line><line x1="61.953125" y1="44.25000000000004" x2="56.953125" y2="44.25000000000004" style="visibility: inherit;" fill="rgb(0, 0, 0)" stroke="rgb(204, 204, 204)" stroke-width="1px"></line><line x1="61.953125" y1="29.500000000000032" x2="56.953125" y2="29.500000000000032" style="visibility: inherit;" fill="rgb(0, 0, 0)" stroke="rgb(204, 204, 204)" stroke-width="1px"></line><line x1="61.953125" y1="14.750000000000007" x2="56.953125" y2="14.750000000000007" style="visibility: inherit;" fill="rgb(0, 0, 0)" stroke="rgb(204, 204, 204)" stroke-width="1px"></line><line x1="61.953125" y1="0" x2="56.953125" y2="0" style="visibility: inherit;" fill="rgb(0, 0, 0)" stroke="rgb(204, 204, 204)" stroke-width="1px"></line></g><g transform="translate(51.953125, 0)"><text x="0" y="177" dx="0em" dy="0.3em" style="text-anchor: end; visibility: hidden; font-family: Roboto, sans-serif; font-size: 12px; font-weight: 200;" fill="rgb(33, 33, 33)" stroke="none" stroke-width="1px">0.25</text><text x="0" y="162.25" dx="0em" dy="0.3em" style="text-anchor: end; visibility: inherit; font-family: Roboto, sans-serif; font-size: 12px; font-weight: 200;" fill="rgb(33, 33, 33)" stroke="none" stroke-width="1px">0.255</text><text x="0" y="147.49999999999997" dx="0em" dy="0.3em" style="text-anchor: end; visibility: hidden; font-family: Roboto, sans-serif; font-size: 12px; font-weight: 200;" fill="rgb(33, 33, 33)" stroke="none" stroke-width="1px">0.26</text><text x="0" y="132.74999999999997" dx="0em" dy="0.3em" style="text-anchor: end; visibility: inherit; font-family: Roboto, sans-serif; font-size: 12px; font-weight: 200;" fill="rgb(33, 33, 33)" stroke="none" stroke-width="1px">0.265</text><text x="0" y="117.99999999999993" dx="0em" dy="0.3em" style="text-anchor: end; visibility: hidden; font-family: Roboto, sans-serif; font-size: 12px; font-weight: 200;" fill="rgb(33, 33, 33)" stroke="none" stroke-width="1px">0.27</text><text x="0" y="103.24999999999993" dx="0em" dy="0.3em" style="text-anchor: end; visibility: inherit; font-family: Roboto, sans-serif; font-size: 12px; font-weight: 200;" fill="rgb(33, 33, 33)" stroke="none" stroke-width="1px">0.275</text><text x="0" y="88.49999999999991" dx="0em" dy="0.3em" style="text-anchor: end; visibility: hidden; font-family: Roboto, sans-serif; font-size: 12px; font-weight: 200;" fill="rgb(33, 33, 33)" stroke="none" stroke-width="1px">0.28</text><text x="0" y="73.75000000000007" dx="0em" dy="0.3em" style="text-anchor: end; visibility: inherit; font-family: Roboto, sans-serif; font-size: 12px; font-weight: 200;" fill="rgb(33, 33, 33)" stroke="none" stroke-width="1px">0.285</text><text x="0" y="59.00000000000004" dx="0em" dy="0.3em" style="text-anchor: end; visibility: hidden; font-family: Roboto, sans-serif; font-size: 12px; font-weight: 200;" fill="rgb(33, 33, 33)" stroke="none" stroke-width="1px">0.29</text><text x="0" y="44.25000000000004" dx="0em" dy="0.3em" style="text-anchor: end; visibility: inherit; font-family: Roboto, sans-serif; font-size: 12px; font-weight: 200;" fill="rgb(33, 33, 33)" stroke="none" stroke-width="1px">0.295</text><text x="0" y="29.500000000000032" dx="0em" dy="0.3em" style="text-anchor: end; visibility: hidden; font-family: Roboto, sans-serif; font-size: 12px; font-weight: 200;" fill="rgb(33, 33, 33)" stroke="none" stroke-width="1px">0.3</text><text x="0" y="14.750000000000007" dx="0em" dy="0.3em" style="text-anchor: end; visibility: inherit; font-family: Roboto, sans-serif; font-size: 12px; font-weight: 200;" fill="rgb(33, 33, 33)" stroke="none" stroke-width="1px">0.305</text><text x="0" y="0" dx="0em" dy="0.3em" style="text-anchor: end; visibility: hidden; font-family: Roboto, sans-serif; font-size: 12px; font-weight: 200;" fill="rgb(33, 33, 33)" stroke="none" stroke-width="1px">0.31</text></g><line x1="61.953125" y1="0" x2="61.953125" y2="177" fill="rgb(0, 0, 0)" stroke="rgb(204, 204, 204)" stroke-width="1px"></line></g></g><g transform="translate(61, 0)" clip-path="url(#clip_0)"><clipPath id="clip_0"><rect width="268" height="177"></rect></clipPath><g><g><g><line x1="0" y1="0" x2="0" y2="177" fill="rgb(0, 0, 0)" stroke="rgb(66, 66, 66)" stroke-width="1px" opacity="0.25"></line><line x1="22.337239583333332" y1="0" x2="22.337239583333332" y2="177" fill="rgb(0, 0, 0)" stroke="rgb(66, 66, 66)" stroke-width="1px" opacity="0.25"></line><line x1="44.674479166666664" y1="0" x2="44.674479166666664" y2="177" fill="rgb(0, 0, 0)" stroke="rgb(66, 66, 66)" stroke-width="1px" opacity="0.25"></line><line x1="67.01171875" y1="0" x2="67.01171875" y2="177" fill="rgb(0, 0, 0)" stroke="rgb(66, 66, 66)" stroke-width="1px" opacity="0.25"></line><line x1="89.34895833333333" y1="0" x2="89.34895833333333" y2="177" fill="rgb(0, 0, 0)" stroke="rgb(66, 66, 66)" stroke-width="1px" opacity="0.25"></line><line x1="111.68619791666667" y1="0" x2="111.68619791666667" y2="177" fill="rgb(0, 0, 0)" stroke="rgb(66, 66, 66)" stroke-width="1px" opacity="0.25"></line><line x1="134.0234375" y1="0" x2="134.0234375" y2="177" fill="rgb(0, 0, 0)" stroke="rgb(66, 66, 66)" stroke-width="1px" opacity="0.25"></line><line x1="156.36067708333334" y1="0" x2="156.36067708333334" y2="177" fill="rgb(0, 0, 0)" stroke="rgb(66, 66, 66)" stroke-width="1px" opacity="0.25"></line><line x1="178.69791666666666" y1="0" x2="178.69791666666666" y2="177" fill="rgb(0, 0, 0)" stroke="rgb(66, 66, 66)" stroke-width="1px" opacity="0.25"></line><line x1="201.03515625" y1="0" x2="201.03515625" y2="177" fill="rgb(0, 0, 0)" stroke="rgb(66, 66, 66)" stroke-width="1px" opacity="0.25"></line><line x1="223.37239583333334" y1="0" x2="223.37239583333334" y2="177" fill="rgb(0, 0, 0)" stroke="rgb(66, 66, 66)" stroke-width="1px" opacity="0.25"></line><line x1="245.70963541666666" y1="0" x2="245.70963541666666" y2="177" fill="rgb(0, 0, 0)" stroke="rgb(66, 66, 66)" stroke-width="1px" opacity="0.25"></line><line x1="268.046875" y1="0" x2="268.046875" y2="177" fill="rgb(0, 0, 0)" stroke="rgb(66, 66, 66)" stroke-width="1px" opacity="0.25"></line></g><g><line x1="0" y1="177" x2="268.046875" y2="177" fill="rgb(0, 0, 0)" stroke="rgb(66, 66, 66)" stroke-width="1px" opacity="0.25"></line><line x1="0" y1="162.25" x2="268.046875" y2="162.25" fill="rgb(0, 0, 0)" stroke="rgb(66, 66, 66)" stroke-width="1px" opacity="0.25"></line><line x1="0" y1="147.49999999999997" x2="268.046875" y2="147.49999999999997" fill="rgb(0, 0, 0)" stroke="rgb(66, 66, 66)" stroke-width="1px" opacity="0.25"></line><line x1="0" y1="132.74999999999997" x2="268.046875" y2="132.74999999999997" fill="rgb(0, 0, 0)" stroke="rgb(66, 66, 66)" stroke-width="1px" opacity="0.25"></line><line x1="0" y1="117.99999999999993" x2="268.046875" y2="117.99999999999993" fill="rgb(0, 0, 0)" stroke="rgb(66, 66, 66)" stroke-width="1px" opacity="0.25"></line><line x1="0" y1="103.24999999999993" x2="268.046875" y2="103.24999999999993" fill="rgb(0, 0, 0)" stroke="rgb(66, 66, 66)" stroke-width="1px" opacity="0.25"></line><line x1="0" y1="88.49999999999991" x2="268.046875" y2="88.49999999999991" fill="rgb(0, 0, 0)" stroke="rgb(66, 66, 66)" stroke-width="1px" opacity="0.25"></line><line x1="0" y1="73.75000000000007" x2="268.046875" y2="73.75000000000007" fill="rgb(0, 0, 0)" stroke="rgb(66, 66, 66)" stroke-width="1px" opacity="0.25"></line><line x1="0" y1="59.00000000000004" x2="268.046875" y2="59.00000000000004" fill="rgb(0, 0, 0)" stroke="rgb(66, 66, 66)" stroke-width="1px" opacity="0.25"></line><line x1="0" y1="44.25000000000004" x2="268.046875" y2="44.25000000000004" fill="rgb(0, 0, 0)" stroke="rgb(66, 66, 66)" stroke-width="1px" opacity="0.25"></line><line x1="0" y1="29.500000000000032" x2="268.046875" y2="29.500000000000032" fill="rgb(0, 0, 0)" stroke="rgb(66, 66, 66)" stroke-width="1px" opacity="0.25"></line><line x1="0" y1="14.750000000000007" x2="268.046875" y2="14.750000000000007" fill="rgb(0, 0, 0)" stroke="rgb(66, 66, 66)" stroke-width="1px" opacity="0.25"></line><line x1="0" y1="0" x2="268.046875" y2="0" fill="rgb(0, 0, 0)" stroke="rgb(66, 66, 66)" stroke-width="1px" opacity="0.25"></line></g></g></g><g><g><line x1="0" y1="914.5" x2="268.046875" y2="914.5" fill="rgb(0, 0, 0)" stroke="rgb(153, 153, 153)" stroke-width="1.5px"></line></g></g><g><g><line x1="22.337239583333332" y1="0" x2="22.337239583333332" y2="177" fill="rgb(0, 0, 0)" stroke="rgb(153, 153, 153)" stroke-width="1.5px"></line></g></g><g><g><g><g><g><path stroke="rgb(255, 112, 67)" stroke-width="2px" d="M22.761647135416666,4.488411962985992L23.208391927083333,20.32029341082817L23.655136718749997,-6.251614373768492L24.101881510416668,140.4857688971159L24.548626302083335,145.27427299970182L24.99537109375,167.18690614702768L25.442115885416666,191.44893783384148L25.888860677083333,156.89906798368028L26.33560546875,178.73546399242315L26.782350260416667,182.81728230316645L27.229095052083334,156.99184020895163L27.675839843749998,148.79212292597128L28.12258463541667,163.3237073347383L28.569329427083336,157.43341387023068L29.01607421875,170.23940876372077L29.462819010416666,171.80657674664266L29.909563802083333,180.7886167719648L31.24979817708333,197.4293925448158L31.69654296875,166.95113380525416L32.14328776041667,165.0493564276513L32.590032552083336,151.87072428694285L33.036777343749996,139.99118543576634L33.48352213541666,150.1904269382275L33.93026692708333,141.11203176685774L34.37701171875,135.10709849563324L34.82375651041667,119.34096037821695L35.27050130208333,114.0601484923853L35.71724609375,112.46130886042171L36.163990885416666,133.75452874095808L36.61073567708333,165.85394868483144L37.05748046875,182.60587800365445L37.50422526041667,177.80831084300496L37.950970052083335,151.13449355463274L38.397714843749995,154.18238002688554L38.84445963541667,181.00818568197255L39.291204427083336,171.82198691912689L39.737949218749996,171.4281100252066L40.18469401041667,185.6635398007139L41.07818359375,178.23726663050067L41.52492838541667,169.8610039525106L41.97167317708333,171.82828597589872L42.41841796875,153.19523303409017L42.86516276041667,147.03932495079923L43.31190755208333,159.03770211524966L43.75865234375,153.93458484773745L44.20539713541666,156.95415648140795L44.652141927083335,160.65827813027798L45.09888671875,142.7811534420803L45.54563151041666,118.40951127489849L45.992376302083336,115.83274333769766L46.439121093749996,118.58036135885972L46.88586588541666,121.07264666959455L47.33261067708334,130.78418091826268L47.77935546875,134.0265769944686L48.226100260416665,121.43356443989192L48.67284505208334,124.58165519713657L49.11958984375,110.79741728586167L49.566334635416666,99.56089221041886L50.01307942708333,117.48907558496735L50.45982421875,120.45952845489946L50.90656901041667,124.35940582336592L51.353313802083335,136.08804487184847L51.80005859375,137.98460733821355L52.24680338541666,129.1133994076177L52.693548177083336,123.45871970769208L53.14029296875,123.94157051368938L53.58703776041666,117.49244143133214L54.03378255208334,104.23227041131307L54.48052734375,89.92216749145689L54.927272135416665,90.54646607878406L55.37401692708333,89.02427804683185L55.82076171875,90.44379547307612L56.267506510416666,91.67933741136251L56.71425130208333,95.46939902747923L57.16099609375,84.81365189183622L57.60774088541667,83.02683474933225L58.05448567708333,77.24279485719273L58.50123046875,77.6313646687151L58.94797526041667,65.73760894459592L59.39472005208333,62.43609663541597L59.84146484375,58.8213501410039L60.28820963541666,70.1922181913931L60.73495442708333,62.132531041667555L61.181699218750005,64.99804654062072L61.628444010416665,65.05272011260682L62.07518880208333,67.4197943571662L62.521933593750006,58.72153796507906L62.968678385416666,59.876137818657675L63.41542317708333,46.15768443530325L63.86216796875,48.88840779937849L64.30891276041666,46.2512488167928L64.75565755208333,41.41259292385477L65.20240234375,39.91917856388636L65.64914713541667,40.973637756851694L66.09589192708333,49.28106829164151L66.54263671875,63.80537514187218L66.98938151041666,54.80110617311582L67.43612630208334,44.83583672445956L67.88287109375,41.755796192711955L68.32961588541667,44.97721525995278L68.77636067708333,41.60084000087218L69.22310546874999,48.079086005714395L69.66985026041667,46.262513124475646L70.11659505208334,43.19247345325365L70.56333984375,49.284742647078666L71.01008463541667,42.44908742099313L71.45682942708333,36.4678351062336L71.90357421875,23.752040383886456L72.35031901041667,25.900753998633867L72.79706380208333,25.652543755937714L73.24380859375,26.306746195626946L73.69055338541666,19.76491331139765L74.13729817708334,19.365392659385897L74.58404296875,23.088850553859043L75.03078776041666,30.795896401097387L75.47753255208333,34.16523017149279L75.92427734375,20.096039927719815L76.37102213541667,16.41964413462818L76.81776692708334,19.92533410814124L77.26451171875,6.80420135004444L77.71125651041666,10.999148040721105L78.15800130208333,5.117661165505502L78.60474609375001,11.515545607765915L79.05149088541667,25.188146466984893L79.49823567708333,16.59802761006514L79.94498046875,15.747031735610134L80.39172526041666,22.447377132303632L80.83847005208332,20.070787405859612L81.28521484375001,14.907321258194091L81.73195963541667,12.709146099416007L82.17870442708333,11.577525408950876L82.62544921875,5.446760200938206L83.07219401041667,18.038662062015284L83.51893880208333,3.9285032450584634L83.96568359374999,10.967346172782177L84.41242838541667,12.50532129851743L84.85917317708333,23.606319143573465L85.30591796875,32.1631425701677L85.75266276041667,25.91107433844733L86.19940755208333,27.06692118176518L86.64615234374999,31.259504325856625L87.09289713541668,25.65543961039426L87.53964192708334,20.562592124899002L87.98638671875,25.986808832166805L88.43313151041667,27.743519551522486L88.87987630208333,25.7588621222956L89.32662109374999,20.85136689514743L89.77336588541667,22.694073300032667L90.22011067708334,20.79991176029079L90.66685546875,25.823637113335444L91.11360026041666,24.36687201174092L91.56034505208333,16.70894237169445L92.00708984375,24.2929933505026L92.45383463541665,16.48524756303209L92.90057942708334,21.795015884044428L93.34732421875,14.723239373968187L93.79406901041666,5.794826837018764L94.24081380208334,4.137430034877391L94.68755859375,12.910496475256725L95.13430338541666,12.216085018156274L95.58104817708333,24.10269405048012L96.02779296875,23.61888434358608L96.47453776041667,33.3752432007964L96.92128255208333,35.78353282400829L97.36802734375,30.535180561491245L97.81477213541666,28.165021857970753L98.26151692708333,29.56409683292856L98.70826171875001,29.42166747057853L99.15500651041667,33.63400637289033L99.60175130208333,37.87223890064494L100.04849609375,39.23381195337657L100.49524088541666,41.96405649368853L100.94198567708334,39.273604233771735L101.38873046875,41.27234880105165L101.83547526041667,40.423673253913L102.28222005208333,36.97600115847193L102.72896484374999,39.66379245450606L103.17570963541667,43.59435904586199L103.62245442708334,42.721221203549256L104.06919921875,38.31121836371175L104.51594401041667,43.77573792273394L104.96268880208333,33.00179047589351L105.40943359375,31.123023991794533L105.85617838541667,36.14200978928099L106.30292317708333,35.815863168497195L106.74966796875,30.230044474196585L107.19641276041666,36.712160895462496L107.64315755208334,36.44235036043475L108.08990234375,35.481486371982264L108.53664713541666,30.43066220596009L108.98339192708333,24.995553591616776L109.43013671875,21.707928455806908L109.87688151041667,13.300559651993673L110.32362630208334,26.05749916370361L110.77037109375,27.025656456619053L111.21711588541666,28.060716780224716L111.66386067708333,31.515836365454685L112.11060546875001,32.53204705848256L112.55735026041667,43.61444909491216L113.00409505208333,44.630736593990264L113.45083984375,46.51110041042785L113.89758463541666,52.966921086920074L114.34432942708332,49.22955671034333L114.79107421875001,58.96351749404785L115.23781901041667,51.26512455144238L115.68456380208333,62.251053561579546L116.13130859375,67.11021395726357L116.57805338541667,64.73755437264977L117.02479817708333,60.46549114020091L117.47154296874999,59.09237254027024L117.91828776041667,59.60619026159744L118.36503255208333,57.74329583381337L118.81177734375,53.95522700380665L119.25852213541667,46.731710057285426L119.70526692708333,53.35598558331557L120.15201171874999,57.64481983951382L120.59875651041668,65.69674283667428L121.04550130208334,59.617485627694734L121.49224609375,62.365307127276544L121.93899088541667,55.700295353865656L122.38573567708333,59.1925934539638L122.83248046874999,56.11213335853711L123.27922526041667,63.031778432403605L123.72597005208334,65.62969751142907L124.17271484375,61.38189424543896L124.61945963541666,59.25558740611149L125.06620442708333,54.94794418842372L125.51294921875,71.4016612632301L125.95969401041665,69.76814881528486L126.40643880208334,62.54587817383503L126.85318359375,51.73513951452649L127.29992838541666,54.23239648840132L127.74667317708334,45.800896452244864L128.19341796875,52.451568406656094L128.64016276041667,51.61215285225748L129.08690755208332,46.55745692036318L129.53365234375,54.8533572702833L129.98039713541667,55.37924761318694L130.42714192708334,49.565966571015466L130.87388671875001,52.760843805673204L131.32063151041666,57.91791297695812L131.76737630208333,57.9641955110593L132.21412109375,55.46918488857219L132.66086588541665,48.94923715573621L133.10761067708333,47.37375411493717L133.55435546875,52.34778765832243L134.00110026041668,56.61507903334448L134.44784505208335,59.083646060208984L134.89458984375,49.78700927002703L135.34133463541667,40.380094102925305L135.78807942708335,46.26188295953436L136.23482421875,50.75784971601402L136.68156901041667,49.322155758318324L137.1283138020833,43.810646555930205L137.57505859375,45.770214827757954L138.02180338541666,48.90402797929048L138.4685481770833,46.80100186530934L138.91529296875,42.241874562474536L139.36203776041668,36.12146059283506L139.80878255208333,47.19753817567243L140.25552734375,44.06906986697378L140.70227213541668,54.53568886933997L141.14901692708332,56.91029723779962L141.59576171875,58.11207101610335L142.04250651041667,60.89175501943099L142.48925130208332,64.52465278638002L142.93599609375,59.13865337430524L143.38274088541667,58.29997218542454L143.8294856770833,51.24070326888152L144.27623046875001,48.95147593382119L144.7229752604167,58.13546403852192L145.16972005208333,46.32847573703582L145.61646484375,55.029888340946506L146.06320963541668,58.85964179258116L146.50995442708333,57.67970769602545L146.95669921875,68.75463554559968L147.40344401041668,73.6909321007036L147.85018880208332,80.78829227598723L148.29693359375,86.87863439362306L148.74367838541664,80.64841548837114L149.19042317708332,78.25857080432965L149.63716796875002,73.12492920827688L150.08391276041667,87.81767612879236L150.53065755208334,91.80975151823279L150.97740234375001,87.80685839742077L151.42414713541666,86.76648571213754L151.87089192708333,86.62070741165282L152.31763671875,84.14583710946373L152.76438151041665,74.01844781146357L153.21112630208333,70.31336524640813L153.65787109375,76.98308679361914L154.10461588541665,82.54705197423527L154.55136067708332,86.23094452747576L154.99810546875,83.9591824829177L155.44485026041667,87.88323649343238L155.89159505208335,91.112618177322L156.33833984375002,82.59783632384597L156.78508463541667,82.6624941959397L157.23182942708334,79.13371392498159L157.67857421875001,69.63832205304264L158.12531901041666,70.76827270181863L158.57206380208333,68.66066339962387L159.01880859375,67.56481666582246L159.46555338541665,70.11190647379246L159.91229817708333,77.9831917509051L160.35904296874997,76.62873746972784L160.80578776041665,82.18504074235108L161.25253255208335,80.16784776168478L161.69927734375,83.84053075537754L162.14602213541667,83.80680190526562L162.59276692708335,83.66717408600255L163.03951171875,80.31529469939595L163.48625651041667,86.17294777917154L163.93300130208334,91.59712512034726L164.37974609375,87.81360647146595L164.82649088541666,93.73424603698864L165.27323567708333,96.99027859113997L165.71998046874998,90.26004383810516L166.16672526041665,79.5705288456214L166.61347005208336,80.46002926883119L167.06021484375,76.76055562904791L167.50695963541668,75.34061852465238L167.95370442708335,75.39480884108103L168.40044921875,81.64561284094871L168.84719401041667,83.70597404697396L169.29393880208335,90.89264077358429L169.74068359375,99.8623455948797L170.18742838541667,103.86233620528894L170.6341731770833,99.08073080198028L171.08091796875,95.20381454184104L171.52766276041666,96.39264555175107L171.9744075520833,97.62444838344167L172.42115234375,88.68327810578747L172.86789713541668,84.50393330049401L173.31464192708333,84.6662872045507L173.76138671875,77.60743514978317L174.20813151041668,83.06391690030786L174.65487630208332,90.19508175720354L175.10162109375,97.462591534879L175.54836588541667,93.99461467804862L175.99511067708332,90.07279432781654L176.44185546875,93.01534841926191L176.88860026041667,96.91792164866307L177.3353450520833,106.99270298443001L177.78208984375001,102.40855889047762L178.2288346354167,106.76028190129017L178.67557942708333,108.64952277606436L179.12232421875,115.85987434803582L179.56906901041668,110.44869986789641L180.01581380208333,113.30270965949192L180.46255859375,108.2813951795294L180.90930338541668,109.30328597649874L181.35604817708332,97.97656596921341L181.80279296875,93.57077880998656L182.24953776041664,88.3562807050366L182.69628255208332,90.05136751595299L183.14302734375002,95.88564501520841L183.58977213541667,88.73921651527449L184.03651692708334,84.68627622918937L184.48326171875001,83.80967240807388L184.93000651041666,85.64110829779774L185.37675130208333,92.33814885332534L185.82349609375,99.27241800529667L186.27024088541665,96.71747821244224L186.71698567708333,93.12363260095677L187.16373046875,94.42264793311388L187.61047526041665,98.57662674183992L188.05722005208332,102.62648607249861L188.50396484375,98.87304216285771L188.95070963541667,99.41832883054225L189.39745442708335,101.9679763993104L189.84419921875002,102.70049106006145L190.29094401041667,96.7621132933288L190.73768880208334,103.64377415208716L191.18443359375001,97.85254929091363L191.63117838541666,91.79873977565012L192.07792317708333,93.17468973216322L192.52466796875,92.0334344525656L192.97141276041665,92.40279354627627L193.41815755208333,97.53774505235877L193.86490234374997,95.55781518856998L194.31164713541665,101.95367521143235L194.75839192708335,95.04877097096687L195.20513671875,102.73426626342516L195.65188151041667,102.1653822858749L196.09862630208335,104.82289468642642L196.54537109375,108.83516562041561L196.99211588541667,113.57995000532496L197.43886067708334,123.43223309562701L197.88560546875,115.5644955102751L198.33235026041666,116.93096956588168L198.77909505208333,119.22037010470638L199.22583984374998,117.0409173644747L199.67258463541665,118.23155430053167L200.11932942708336,120.19328565980028L200.56607421875,114.41464614497157L201.01281901041668,107.95999166035529L201.45956380208335,109.36042399403944L201.90630859375,114.47721543190615L202.35305338541667,113.61939439425828L202.79979817708335,110.44857934638824L203.24654296875,108.51331314615881L203.69328776041667,102.4842291996403L204.1400325520833,99.71723068286687L204.58677734375,100.75200211879348L205.03352213541666,93.74008804449505L205.4802669270833,91.16135657926563L205.92701171875,103.79683823079007L206.37375651041668,106.56572540423396L206.82050130208333,101.02733714420604L207.26724609375,98.95005730723456L207.71399088541668,98.05269878448644L208.16073567708332,102.17429261811013L208.60748046875,102.62073710031L209.05422526041667,107.9634905380013L209.50097005208332,109.58863133090749L209.94771484375,115.70090775398621L210.39445963541667,113.53314545191718L210.8412044270833,108.86571330819179L211.28794921875001,107.25710327321562L211.7346940104167,106.85849240029708L212.18143880208333,106.64455046002428L212.62818359375,115.10715734432057L213.07492838541668,110.72107305648842L213.52167317708333,114.22430415621025L213.96841796875,111.37804756466119L214.41516276041668,109.11646805319391L214.86190755208332,110.9525441537487L215.30865234375,107.10198043675912L215.75539713541664,112.90476423703151L216.20214192708332,113.70860389056075L216.64888671875002,119.7899938152635L217.09563151041667,110.36618271408122L217.54237630208334,109.48261490706479L217.98912109375001,95.33130445400361L218.43586588541666,90.46643501209755L218.88261067708333,102.92675820309698L219.32935546875,104.14959787117347L219.77610026041665,99.38976574051604L220.22284505208333,107.95421291388465L220.66958984375,106.98627719578805L221.11633463541665,113.24552575317924L221.56307942708332,114.22922612042343L222.00982421875,119.58868895898263L222.45656901041667,124.27700698015094L222.90331380208335,119.67047656449975L223.35005859375002,115.50414093917577L223.79680338541667,125.34570708798744L224.24354817708334,127.67049896354112L224.69029296875001,130.97196727068388L225.13703776041666,127.71899548534596L225.58378255208333,128.76738684204847L226.03052734375,124.2427395119753L226.47727213541665,129.57234100709738L226.92401692708333,133.28770179340577L227.37076171874997,137.71543577423103L227.81750651041665,139.09123521843918L228.26425130208335,131.68895143091103L228.71099609375,135.79807298618033L229.15774088541667,139.80619807753683L229.60448567708335,136.81585211497895L230.05123046875,141.7673636103483L230.49797526041667,144.01651866061795L230.94472005208334,141.24869198939172L231.39146484375,142.17917841083684L231.83820963541666,145.7574767715354L232.28495442708333,139.3318138998705L232.73169921874998,133.37566178577762L233.17844401041665,123.17324497882387L233.62518880208336,126.84150671884893L234.07193359375,128.19588295154696L234.51867838541668,125.28746828019251L234.96542317708335,126.20068856399918L235.41216796875,121.96515237976607L235.85891276041667,125.5087507398978L236.30565755208335,125.48990336943166L236.75240234375,120.29152595301116L237.19914713541667,114.2127697584001L237.6458919270833,108.92566177698679L238.09263671875,117.42305968510553L238.53938151041666,114.42582460320685L238.9861263020833,120.6462906903925L239.43287109375,118.10406692983827L239.87961588541668,126.1313013240289L240.32636067708333,122.40166716020616L240.77310546875,119.66647184110855L241.21985026041668,124.51030833319294L241.66659505208332,120.07339889522315L242.11333984375,120.62782018824736L242.56008463541667,125.13411975602186L243.00682942708332,124.6037123325455L243.45357421875,132.57823652234566L243.90031901041667,135.77255625313717L244.3470638020833,130.49957400667242L244.79380859375001,132.35357061720708L245.2405533854167,130.3535468312813L245.68729817708333,135.01615247720898" style="fill: none;" fill="none"></path></g></g></g></g><g opacity="0.2"><g><g><g><path stroke="rgb(255, 112, 67)" stroke-width="2px" d="M22.761647135416666,4.488411962985992L23.208391927083333,34.56898671388625L23.655136718749997,-51.689576685428634L24.101881510416668,498.3782466948033L24.548626302083335,160.09517204761505L24.99537109375,247.94788774847984L26.782350260416667,205.32122668623924L27.229095052083334,5.605835139751428L27.675839843749998,98.15309089422226L28.12258463541667,257.1706291735172L28.569329427083336,117.89587479829788L29.01607421875,259.12695494294167L30.35630859375,316.82436656951904L30.803053385416668,170.14714521169662L31.24979817708333,226.3534430861473L31.69654296875,-74.00419223308565L32.14328776041667,149.80617505311966L32.590032552083336,44.94317513704299L33.036777343749996,42.551221370697014L33.48352213541666,234.66158550977707L33.93026692708333,65.27210068702698L34.37701171875,84.55455195903778L34.82375651041667,-14.30311161279681L35.27050130208333,69.02017188072205L35.71724609375,98.74951881170271L36.163990885416666,317.2697093784809L37.05748046875,328.19636729359627L37.50422526041667,135.96454602479935L37.950970052083335,-82.25299078226091L38.84445963541667,417.0013543665409L39.291204427083336,90.8224959373474L39.737949218749996,167.94790518283844L40.18469401041667,311.67828556895256L40.63143880208333,131.29387539625168L41.07818359375,161.22261774539948L41.52492838541667,95.37720423936842L41.97167317708333,189.3430423438549L42.41841796875,-12.875957369804409L42.86516276041667,92.11970907449722L43.31190755208333,266.1748532652855L43.75865234375,108.33122473955154L44.20539713541666,183.95738792419434L45.54563151041666,-99.91785991191867L45.992376302083336,92.73864370584486L46.439121093749996,143.21601581573486L46.88586588541666,143.42736792564392L47.33261067708334,217.92199727892876L47.77935546875,163.1282154917717L48.226100260416665,8.375831365585327L48.67284505208334,152.85161477327347L49.11958984375,-13.013019740581512L50.01307942708333,278.58176720142365L50.45982421875,147.15469074249268L50.90656901041667,159.41232186555862L51.353313802083335,241.52134177088737L51.80005859375,155.03555727005005L52.24680338541666,49.348776459693894L52.693548177083336,72.61034440994263L53.14029296875,128.28386616706848L53.58703776041666,59.49068856239319L54.03378255208334,-15.03449189662936L54.48052734375,-38.79613089561464L54.927272135416665,96.16230171918869L55.37401692708333,75.3308434486389L55.82076171875,103.214200258255L56.267506510416666,102.79510062932968L56.71425130208333,129.5685951113701L57.16099609375,-11.059331476688397L57.60774088541667,66.94981795549393L58.05448567708333,25.199072480201714L58.50123046875,81.1277289390564L58.94797526041667,-41.28514486551286L59.39472005208333,32.72774410247801L59.84146484375,26.293813109397874L60.28820963541666,172.5153614282608L60.73495442708333,-10.39529550075531L61.181699218750005,90.78469169139862L61.628444010416665,65.5447308421135L62.07518880208333,88.72145903110503L62.521933593750006,-19.55614346265793L62.968678385416666,70.26674491167068L63.41542317708333,-77.29993122816089L63.86216796875,73.46340161561966L64.30891276041666,22.518136024475098L64.75565755208333,-2.1331335902214312L65.20240234375,26.47905391454696L65.64914713541667,50.46338629722594L66.09589192708333,124.04521894454956L66.54263671875,194.51985028386116L67.43612630208334,-44.849206089973464L67.88287109375,14.036094069480889L68.32961588541667,73.96936309337615L68.77636067708333,11.214051067829132L69.22310546874999,106.38228398561478L69.66985026041667,29.91361361742019L70.11659505208334,15.562506437301636L70.56333984375,104.11446881294249L71.01008463541667,-19.07110619544983L71.90357421875,-90.68905222415925L72.35031901041667,45.23901534080504L72.79706380208333,23.418668329715715L73.24380859375,32.19452840089797L73.69055338541666,-39.11122488975528L74.13729817708334,15.769726455211632L74.58404296875,56.59980666637419L75.03078776041666,100.15900176763533L75.47753255208333,64.48911321163176L75.92427734375,-106.5262179374695L76.37102213541667,-16.667811155319214L76.81776692708334,51.47645217180251L77.26451171875,-111.28568458557129L77.71125651041666,48.753579378128045L78.15800130208333,-47.815608561038985L78.60474609375001,69.09639579057693L79.05149088541667,148.24134302139282L79.49823567708333,-60.71292269229892L79.94498046875,8.088079512119293L80.39172526041666,82.75041025876997L80.83847005208332,-1.318496048450483L81.73195963541667,-7.074412286281586L82.17870442708333,1.3929475545883112L82.62544921875,-49.730085909366636L83.07219401041667,131.36570346355438L83.51893880208333,-123.06285011768342L83.96568359374999,74.31689840555191L84.41242838541667,26.347090721130357L84.85917317708333,123.51525616645813L85.30591796875,109.17452317476271L85.75266276041667,-30.35751986503601L86.19940755208333,37.46953946352004L86.64615234374999,68.99274182319641L87.09289713541668,-24.781129837036158L87.53964192708334,-25.273024618625666L87.98638671875,74.80474901199341L88.43313151041667,43.55391305685042L88.87987630208333,7.8969482779502735L89.32662109374999,-23.31608343124391L89.77336588541667,39.2784286737442L90.22011067708334,3.7524600028991633L90.66685546875,71.03716027736664L91.11360026041666,11.255987405776978L91.56034505208333,-52.21241819858551L92.00708984375,92.54944664239883L92.45383463541665,-53.78445941209796L92.90057942708334,69.58292764425276L93.34732421875,-48.92274546623233L94.24081380208334,-10.779140472412136L94.68755859375,91.86809104681015L95.13430338541666,5.966382145881647L95.58104817708333,131.08217161893845L96.02779296875,19.264597117900834L96.47453776041667,121.18247044086456L96.92128255208333,57.458138883113854L97.36802734375,-16.69998872280121L97.81477213541666,6.833593964576715L98.26151692708333,42.15577137470244L98.70826171875001,28.139803230762467L99.15500651041667,71.5450559258461L99.60175130208333,76.01633113622664L100.04849609375,51.487969279289246L100.49524088541666,66.53625708818436L100.94198567708334,15.059534132480621L101.38873046875,59.26104974746703L101.83547526041667,32.785593390464776L102.28222005208333,5.946952521800995L102.72896484374999,63.853913962841034L103.17570963541667,78.96945816278458L103.62245442708334,34.8629806637764L104.06919921875,-1.3788070082664752L104.51594401041667,92.95641374588013L104.96268880208333,-63.9637361764908L105.40943359375,14.214125692844384L105.85617838541667,81.31288182735443L106.30292317708333,32.88054358959197L106.74966796875,-20.04232364892962L107.19641276041666,95.05120855569838L107.64315755208334,34.014055550098405L108.08990234375,26.833710491657243L108.53664713541666,-15.026755213737488L109.87688151041667,-62.36575949192047L110.32362630208334,140.8699546456337L110.77037109375,35.73907208442687L111.21711588541666,37.37625968456268L111.66386067708333,62.61191260814667L112.11060546875001,41.67794328927993L112.55735026041667,143.35606735944748L113.00409505208333,53.777324080467224L113.45083984375,63.43437474966048L113.89758463541666,111.06930714845656L114.34432942708332,15.593277335166924L114.79107421875001,146.56916451454163L115.23781901041667,-18.02041190862658L115.68456380208333,161.12441462278366L116.13130859375,110.84265750646591L116.57805338541667,43.38361811637878L117.02479817708333,22.01692205667495L117.47154296874999,46.734305143356316L117.91828776041667,64.23054975271225L118.36503255208333,40.97724598646164L118.81177734375,19.862607538700097L119.25852213541667,-18.279942452907587L119.70526692708333,112.97446531057358L120.15201171874999,96.24432814121246L120.59875651041668,138.16404980421066L121.04550130208334,4.904170751571642L121.49224609375,87.0957006216049L121.93899088541667,-4.284810602664974L122.38573567708333,90.62327635288239L122.83248046874999,28.387992501258836L123.27922526041667,125.30858409404755L123.72597005208334,89.01096922159195L124.17271484375,23.15166485309601L124.61945963541666,40.11882585287093L125.06620442708333,16.179155230522156L125.51294921875,219.48511493206024L125.95969401041665,55.06653678417206L126.40643880208334,-2.4545575976371765L126.85318359375,-45.561508417129545L127.29992838541666,76.70770925283432L127.74667317708334,-30.08260387182237L128.19341796875,112.30761599540709L128.64016276041667,44.057412862777696L129.08690755208332,1.0651935338974L129.53365234375,129.51646041870117L129.98039713541667,60.11226069927215L130.42714192708334,-2.7535628080368175L130.87388671875001,81.51473891735075L131.32063151041666,104.33153551816939L131.76737630208333,58.380738317966454L132.21412109375,33.01408928632736L132.66086588541665,-9.730292439460767L133.10761067708333,33.194406747817986L133.55435546875,97.1140895485878L134.00110026041668,95.02070140838623L134.44784505208335,81.3007493019104L134.89458984375,-33.88272184133531L135.34133463541667,-44.28214240074159L135.78807942708335,99.19798266887665L136.23482421875,91.22155052423476L136.68156901041667,36.40091013908386L137.1283138020833,-5.792936265468624L137.57505859375,63.40632927417755L138.02180338541666,77.10834634304047L138.4685481770833,27.873766839504235L138.91529296875,1.2097288370132446L139.36203776041668,-18.962265133857752L139.80878255208333,146.88223642110825L140.25552734375,15.912855088710772L140.70227213541668,148.73525989055634L141.14901692708332,78.28177255392075L141.59576171875,68.92803502082823L142.04250651041667,85.908911049366L142.48925130208332,97.22073268890381L142.93599609375,10.664658665657043L143.38274088541667,50.751841485500336L143.8294856770833,-12.292716979980469L144.27623046875001,28.34842991828917L144.7229752604167,140.79135698080063L145.16972005208333,-59.93441897630693L145.61646484375,133.34260177612305L146.06320963541668,93.32742285728455L146.50995442708333,47.06030082702636L146.95669921875,168.42898619174957L147.40344401041668,118.1176010966301L147.85018880208332,144.66453385353088L148.29693359375,141.69171345233917L148.74367838541664,24.57644534111023L149.19042317708332,56.74996864795684L149.63716796875002,26.922154843807213L150.08391276041667,220.05239841341972L150.53065755208334,127.73843002319336L150.97740234375001,51.7808203101158L151.42414713541666,77.40313154458998L151.87089192708333,85.30870270729065L152.31763671875,61.87200438976287L152.76438151041665,-17.12805587053299L153.21112630208333,36.96762216091155L153.65787109375,137.0105807185173L154.10461588541665,132.62273859977722L154.55136067708332,119.38597750663757L154.99810546875,63.51332408189773L155.44485026041667,123.19972258806227L155.89159505208335,120.1770533323288L156.33833984375002,5.96479964256286L156.78508463541667,83.24441504478453L157.23182942708334,47.374691486358635L157.67857421875001,-15.820204794406918L158.12531901041666,80.937828540802L158.57206380208333,49.69217967987059L159.01880859375,57.702196061611176L159.46555338541665,93.03571474552155L159.91229817708333,148.82475924491882L160.35904296874997,64.43864893913269L160.80578776041665,132.191770195961L161.25253255208335,62.01311093568801L161.69927734375,116.89467769861221L162.14602213541667,83.5032422542572L162.59276692708335,82.41052371263504L163.03951171875,50.14838021993637L163.48625651041667,138.89182549715042L163.93300130208334,140.4147211909294L164.37974609375,53.76193863153457L164.82649088541666,147.02000212669373L165.27323567708333,126.29457157850264L165.71998046874998,29.687931060791016L166.16672526041665,-16.635106086730957L166.61347005208336,88.46553307771683L167.06021484375,43.46529287099837L167.50695963541668,62.561184585094445L167.95370442708335,75.88252168893814L168.40044921875,137.90284883975983L168.84719401041667,102.24922490119933L169.29393880208335,155.57264131307602L169.74068359375,180.58968898653984L170.18742838541667,139.8622516989708L170.6341731770833,56.04628217220306L171.08091796875,60.31156820058821L171.52766276041666,107.09212464094162L171.9744075520833,108.71067386865616L172.42115234375,8.212745606899254L172.86789713541668,46.889830052852616L173.31464192708333,86.12747234106062L173.76138671875,14.077766656875603L174.20813151041668,132.1722526550293L174.65487630208332,154.37556546926498L175.10162109375,162.87017953395844L175.54836588541667,62.78282296657562L175.99511067708332,54.776411175727844L176.44185546875,119.49833524227142L176.88860026041667,132.0410807132721L177.3353450520833,197.6657350063324L177.78208984375001,61.151262044906616L178.2288346354167,145.92578899860382L178.67557942708333,125.65269064903259L179.12232421875,180.75303849577904L179.56906901041668,61.7481295466423L180.01581380208333,138.98879778385162L180.46255859375,63.089564859867096L180.90930338541668,118.50030314922333L181.35604817708332,-3.9639140963554516L181.80279296875,53.918694376945496L182.24953776041664,41.425797760486596L182.69628255208332,105.30714881420134L183.14302734375002,148.39414250850677L183.58977213541667,24.42136001586914L184.03651692708334,48.20981365442276L184.48326171875001,75.92023801803589L184.93000651041666,102.12403130531311L185.37675130208333,152.61151385307312L185.82349609375,161.68084037303925L186.27024088541665,73.7230200767517L186.71698567708333,60.77902209758758L187.16373046875,106.11378592252731L187.61047526041665,135.9624360203743L188.05722005208332,139.07522004842758L188.50396484375,65.09204697608946L188.95070963541667,104.3259088397026L189.39745442708335,124.91480451822281L189.84419921875002,109.29312300682068L190.29094401041667,43.31671339273453L190.73768880208334,165.57872188091278L191.18443359375001,45.73152554035186L191.63117838541666,37.314454138278954L192.07792317708333,105.55823934078215L192.52466796875,81.76213693618773L192.97141276041665,95.72702538967133L193.41815755208333,143.75230860710144L193.86490234374997,77.73844641447067L194.31164713541665,159.51641541719437L194.75839192708335,32.904632806777954L195.20513671875,171.90372389554977L195.65188151041667,97.04542648792265L196.09862630208335,128.74050629138947L196.54537109375,144.9456040263176L196.99211588541667,156.28300946950912L197.43886067708334,212.10278090834618L197.88560546875,44.754857242107384L198.33235026041666,129.2292360663414L198.77909505208333,139.82497495412827L199.22583984374998,97.42584270238876L199.67258463541665,128.94728672504425L200.11932942708336,137.848867893219L200.56607421875,62.40689051151275L201.01281901041668,49.86810129880904L201.45956380208335,121.96431499719618L201.90630859375,160.52833837270737L202.35305338541667,105.89900505542754L202.79979817708335,81.91124391555786L203.24654296875,91.09591734409332L203.69328776041667,48.22247368097305L204.1400325520833,74.81424403190613L204.58677734375,110.06494504213332L205.03352213541666,30.63286137580871L205.4802669270833,67.95277339220047L205.92701171875,217.51617309451103L206.37375651041668,131.48570996522903L206.82050130208333,51.181842803955064L207.26724609375,80.25453877449034L207.71399088541668,89.97647207975388L208.16073567708332,139.26863712072372L208.60748046875,106.63873744010925L209.05422526041667,156.04827147722244L209.50097005208332,124.21489846706389L209.94771484375,170.7113955616951L210.39445963541667,94.02328473329544L210.8412044270833,66.8588240146637L211.28794921875001,92.77961295843124L211.7346940104167,103.27099454402922L212.18143880208333,104.71907299757004L212.62818359375,191.27061930298805L213.07492838541668,71.2463144659996L213.52167317708333,145.75338405370712L213.96841796875,85.76173824071884L214.41516276041668,88.76225244998932L214.86190755208332,127.47722905874251L215.30865234375,72.44690698385239L215.75539713541664,165.12981843948364L216.20214192708332,120.94316077232361L216.64888671875002,174.5225031375885L217.09563151041667,25.55188280344008L217.54237630208334,101.53050464391707L217.98912109375001,-32.0304896235466L218.43586588541666,46.68261003494262L218.88261067708333,215.06966692209244L219.32935546875,115.15515488386154L219.77610026041665,56.55127656459807L220.22284505208333,185.0342374742031L220.66958984375,98.27485573291779L221.11633463541665,169.5787627696991L221.56307942708332,123.08252942562103L222.00982421875,167.82385450601578L222.45656901041667,166.47186917066574L222.90331380208335,78.21170282363892L223.35005859375002,78.00712031126021L223.79680338541667,213.91980242729187L224.24354817708334,148.59362584352493L224.69029296875001,160.68518203496933L225.13703776041666,98.44224941730498L225.58378255208333,138.20290905237198L226.03052734375,83.52091354131699L226.47727213541665,177.5387544631958L226.92401692708333,166.72594887018204L227.37076171874997,177.56504160165787L227.81750651041665,151.4734302163124L228.26425130208335,65.06839734315872L228.71099609375,172.78016698360443L229.15774088541667,175.87932389974594L229.60448567708335,109.90273845195769L230.05123046875,186.33096706867218L230.49797526041667,164.25891411304474L230.94472005208334,116.33825194835661L231.39146484375,150.55355620384216L231.83820963541666,177.96216201782227L232.28495442708333,81.50084805488586L232.73169921874998,79.77029275894164L233.17844401041665,31.351493716239915L233.62518880208336,159.8558623790741L234.07193359375,140.38526904582977L234.51867838541668,99.11173623800278L234.96542317708335,134.41967111825943L235.41216796875,83.84532672166824L235.85891276041667,157.40113598108292L236.30565755208335,125.32027703523634L236.75240234375,73.5061292052269L237.19914713541667,59.50396400690077L237.6458919270833,61.34168994426727L238.09263671875,193.89964085817337L238.53938151041666,87.45070886611937L238.9861263020833,176.63048547506332L239.43287109375,95.22405308485031L239.87961588541668,198.37641087174416L240.32636067708333,88.83495968580246L240.77310546875,95.04971396923065L241.21985026041668,168.10483676195145L241.66659505208332,80.14121395349503L242.11333984375,125.61761182546616L242.56008463541667,165.6908158659935L243.00682942708332,119.8300455212593L243.45357421875,204.34895423054695L243.90031901041667,164.52143383026123L244.3470638020833,83.0427337884903L244.79380859375001,149.03954011201859L245.2405533854167,112.35333275794983L245.68729817708333,176.97960329055786" style="fill: none;" fill="none"></path></g></g></g></g></g></g><g transform="translate(61, 177)" clip-path="url(#clip_1)"><clipPath id="clip_1"><rect width="268" height="23"></rect></clipPath><g><g><line x1="0" y1="0" x2="0" y2="5" style="visibility: inherit;" fill="rgb(0, 0, 0)" stroke="rgb(204, 204, 204)" stroke-width="1px"></line><line x1="22.337239583333332" y1="0" x2="22.337239583333332" y2="5" style="visibility: inherit;" fill="rgb(0, 0, 0)" stroke="rgb(204, 204, 204)" stroke-width="1px"></line><line x1="44.674479166666664" y1="0" x2="44.674479166666664" y2="5" style="visibility: inherit;" fill="rgb(0, 0, 0)" stroke="rgb(204, 204, 204)" stroke-width="1px"></line><line x1="67.01171875" y1="0" x2="67.01171875" y2="5" style="visibility: inherit;" fill="rgb(0, 0, 0)" stroke="rgb(204, 204, 204)" stroke-width="1px"></line><line x1="89.34895833333333" y1="0" x2="89.34895833333333" y2="5" style="visibility: inherit;" fill="rgb(0, 0, 0)" stroke="rgb(204, 204, 204)" stroke-width="1px"></line><line x1="111.68619791666667" y1="0" x2="111.68619791666667" y2="5" style="visibility: inherit;" fill="rgb(0, 0, 0)" stroke="rgb(204, 204, 204)" stroke-width="1px"></line><line x1="134.0234375" y1="0" x2="134.0234375" y2="5" style="visibility: inherit;" fill="rgb(0, 0, 0)" stroke="rgb(204, 204, 204)" stroke-width="1px"></line><line x1="156.36067708333334" y1="0" x2="156.36067708333334" y2="5" style="visibility: inherit;" fill="rgb(0, 0, 0)" stroke="rgb(204, 204, 204)" stroke-width="1px"></line><line x1="178.69791666666666" y1="0" x2="178.69791666666666" y2="5" style="visibility: inherit;" fill="rgb(0, 0, 0)" stroke="rgb(204, 204, 204)" stroke-width="1px"></line><line x1="201.03515625" y1="0" x2="201.03515625" y2="5" style="visibility: inherit;" fill="rgb(0, 0, 0)" stroke="rgb(204, 204, 204)" stroke-width="1px"></line><line x1="223.37239583333334" y1="0" x2="223.37239583333334" y2="5" style="visibility: inherit;" fill="rgb(0, 0, 0)" stroke="rgb(204, 204, 204)" stroke-width="1px"></line><line x1="245.70963541666666" y1="0" x2="245.70963541666666" y2="5" style="visibility: inherit;" fill="rgb(0, 0, 0)" stroke="rgb(204, 204, 204)" stroke-width="1px"></line><line x1="268.046875" y1="0" x2="268.046875" y2="5" style="visibility: inherit;" fill="rgb(0, 0, 0)" stroke="rgb(204, 204, 204)" stroke-width="1px"></line></g><g transform="translate(0, 8)"><text x="0" y="0" dx="0em" dy="0.95em" style="text-anchor: middle; visibility: hidden; font-family: Roboto, sans-serif; font-size: 12px; font-weight: 200;" fill="rgb(33, 33, 33)" stroke="none" stroke-width="1px">-1k</text><text x="22.337239583333332" y="0" dx="0em" dy="0.95em" style="text-anchor: middle; visibility: inherit; font-family: Roboto, sans-serif; font-size: 12px; font-weight: 200;" fill="rgb(33, 33, 33)" stroke="none" stroke-width="1px">0</text><text x="44.674479166666664" y="0" dx="0em" dy="0.95em" style="text-anchor: middle; visibility: inherit; font-family: Roboto, sans-serif; font-size: 12px; font-weight: 200;" fill="rgb(33, 33, 33)" stroke="none" stroke-width="1px">1k</text><text x="67.01171875" y="0" dx="0em" dy="0.95em" style="text-anchor: middle; visibility: inherit; font-family: Roboto, sans-serif; font-size: 12px; font-weight: 200;" fill="rgb(33, 33, 33)" stroke="none" stroke-width="1px">2k</text><text x="89.34895833333333" y="0" dx="0em" dy="0.95em" style="text-anchor: middle; visibility: inherit; font-family: Roboto, sans-serif; font-size: 12px; font-weight: 200;" fill="rgb(33, 33, 33)" stroke="none" stroke-width="1px">3k</text><text x="111.68619791666667" y="0" dx="0em" dy="0.95em" style="text-anchor: middle; visibility: inherit; font-family: Roboto, sans-serif; font-size: 12px; font-weight: 200;" fill="rgb(33, 33, 33)" stroke="none" stroke-width="1px">4k</text><text x="134.0234375" y="0" dx="0em" dy="0.95em" style="text-anchor: middle; visibility: inherit; font-family: Roboto, sans-serif; font-size: 12px; font-weight: 200;" fill="rgb(33, 33, 33)" stroke="none" stroke-width="1px">5k</text><text x="156.36067708333334" y="0" dx="0em" dy="0.95em" style="text-anchor: middle; visibility: inherit; font-family: Roboto, sans-serif; font-size: 12px; font-weight: 200;" fill="rgb(33, 33, 33)" stroke="none" stroke-width="1px">6k</text><text x="178.69791666666666" y="0" dx="0em" dy="0.95em" style="text-anchor: middle; visibility: inherit; font-family: Roboto, sans-serif; font-size: 12px; font-weight: 200;" fill="rgb(33, 33, 33)" stroke="none" stroke-width="1px">7k</text><text x="201.03515625" y="0" dx="0em" dy="0.95em" style="text-anchor: middle; visibility: inherit; font-family: Roboto, sans-serif; font-size: 12px; font-weight: 200;" fill="rgb(33, 33, 33)" stroke="none" stroke-width="1px">8k</text><text x="223.37239583333334" y="0" dx="0em" dy="0.95em" style="text-anchor: middle; visibility: inherit; font-family: Roboto, sans-serif; font-size: 12px; font-weight: 200;" fill="rgb(33, 33, 33)" stroke="none" stroke-width="1px">9k</text><text x="245.70963541666666" y="0" dx="0em" dy="0.95em" style="text-anchor: middle; visibility: inherit; font-family: Roboto, sans-serif; font-size: 12px; font-weight: 200;" fill="rgb(33, 33, 33)" stroke="none" stroke-width="1px">10k</text><text x="268.046875" y="0" dx="0em" dy="0.95em" style="text-anchor: middle; visibility: hidden; font-family: Roboto, sans-serif; font-size: 12px; font-weight: 200;" fill="rgb(33, 33, 33)" stroke="none" stroke-width="1px">11k</text></g><line x1="0" y1="0" x2="268.046875" y2="0" fill="rgb(0, 0, 0)" stroke="rgb(204, 204, 204)" stroke-width="1px"></line></g></g></g></g></svg>