<svg viewBox="0 0 330 200.00001525878906" xmlns="http://www.w3.org/2000/svg"><g><g><g><g><g><line x1="51.5625" y1="165.2" x2="46.5625" y2="165.2" style="visibility: inherit;" fill="rgb(0, 0, 0)" stroke="rgb(204, 204, 204)" stroke-width="1px"></line><line x1="51.5625" y1="141.59999999999997" x2="46.5625" y2="141.59999999999997" style="visibility: inherit;" fill="rgb(0, 0, 0)" stroke="rgb(204, 204, 204)" stroke-width="1px"></line><line x1="51.5625" y1="117.99999999999996" x2="46.5625" y2="117.99999999999996" style="visibility: inherit;" fill="rgb(0, 0, 0)" stroke="rgb(204, 204, 204)" stroke-width="1px"></line><line x1="51.5625" y1="94.39999999999993" x2="46.5625" y2="94.39999999999993" style="visibility: inherit;" fill="rgb(0, 0, 0)" stroke="rgb(204, 204, 204)" stroke-width="1px"></line><line x1="51.5625" y1="70.79999999999993" x2="46.5625" y2="70.79999999999993" style="visibility: inherit;" fill="rgb(0, 0, 0)" stroke="rgb(204, 204, 204)" stroke-width="1px"></line><line x1="51.5625" y1="47.19999999999991" x2="46.5625" y2="47.19999999999991" style="visibility: inherit;" fill="rgb(0, 0, 0)" stroke="rgb(204, 204, 204)" stroke-width="1px"></line><line x1="51.5625" y1="23.600000000000016" x2="46.5625" y2="23.600000000000016" style="visibility: inherit;" fill="rgb(0, 0, 0)" stroke="rgb(204, 204, 204)" stroke-width="1px"></line><line x1="51.5625" y1="0" x2="46.5625" y2="0" style="visibility: inherit;" fill="rgb(0, 0, 0)" stroke="rgb(204, 204, 204)" stroke-width="1px"></line></g><g transform="translate(41.5625, 0)"><text x="0" y="165.2" dx="0em" dy="0.3em" style="text-anchor: end; visibility: inherit; font-family: Roboto, sans-serif; font-size: 12px; font-weight: 200;" fill="rgb(33, 33, 33)" stroke="none" stroke-width="1px">0.58</text><text x="0" y="141.59999999999997" dx="0em" dy="0.3em" style="text-anchor: end; visibility: inherit; font-family: Roboto, sans-serif; font-size: 12px; font-weight: 200;" fill="rgb(33, 33, 33)" stroke="none" stroke-width="1px">0.6</text><text x="0" y="117.99999999999996" dx="0em" dy="0.3em" style="text-anchor: end; visibility: inherit; font-family: Roboto, sans-serif; font-size: 12px; font-weight: 200;" fill="rgb(33, 33, 33)" stroke="none" stroke-width="1px">0.62</text><text x="0" y="94.39999999999993" dx="0em" dy="0.3em" style="text-anchor: end; visibility: inherit; font-family: Roboto, sans-serif; font-size: 12px; font-weight: 200;" fill="rgb(33, 33, 33)" stroke="none" stroke-width="1px">0.64</text><text x="0" y="70.79999999999993" dx="0em" dy="0.3em" style="text-anchor: end; visibility: inherit; font-family: Roboto, sans-serif; font-size: 12px; font-weight: 200;" fill="rgb(33, 33, 33)" stroke="none" stroke-width="1px">0.66</text><text x="0" y="47.19999999999991" dx="0em" dy="0.3em" style="text-anchor: end; visibility: inherit; font-family: Roboto, sans-serif; font-size: 12px; font-weight: 200;" fill="rgb(33, 33, 33)" stroke="none" stroke-width="1px">0.68</text><text x="0" y="23.600000000000016" dx="0em" dy="0.3em" style="text-anchor: end; visibility: inherit; font-family: Roboto, sans-serif; font-size: 12px; font-weight: 200;" fill="rgb(33, 33, 33)" stroke="none" stroke-width="1px">0.7</text><text x="0" y="0" dx="0em" dy="0.3em" style="text-anchor: end; visibility: hidden; font-family: Roboto, sans-serif; font-size: 12px; font-weight: 200;" fill="rgb(33, 33, 33)" stroke="none" stroke-width="1px">0.72</text></g><line x1="51.5625" y1="0" x2="51.5625" y2="177" fill="rgb(0, 0, 0)" stroke="rgb(204, 204, 204)" stroke-width="1px"></line></g></g><g transform="translate(51, 0)" clip-path="url(#clip_0)"><clipPath id="clip_0"><rect width="278" height="177"></rect></clipPath><g><g><g><line x1="0" y1="0" x2="0" y2="177" fill="rgb(0, 0, 0)" stroke="rgb(66, 66, 66)" stroke-width="1px" opacity="0.25"></line><line x1="23.203125" y1="0" x2="23.203125" y2="177" fill="rgb(0, 0, 0)" stroke="rgb(66, 66, 66)" stroke-width="1px" opacity="0.25"></line><line x1="46.40625" y1="0" x2="46.40625" y2="177" fill="rgb(0, 0, 0)" stroke="rgb(66, 66, 66)" stroke-width="1px" opacity="0.25"></line><line x1="69.609375" y1="0" x2="69.609375" y2="177" fill="rgb(0, 0, 0)" stroke="rgb(66, 66, 66)" stroke-width="1px" opacity="0.25"></line><line x1="92.8125" y1="0" x2="92.8125" y2="177" fill="rgb(0, 0, 0)" stroke="rgb(66, 66, 66)" stroke-width="1px" opacity="0.25"></line><line x1="116.015625" y1="0" x2="116.015625" y2="177" fill="rgb(0, 0, 0)" stroke="rgb(66, 66, 66)" stroke-width="1px" opacity="0.25"></line><line x1="139.21875" y1="0" x2="139.21875" y2="177" fill="rgb(0, 0, 0)" stroke="rgb(66, 66, 66)" stroke-width="1px" opacity="0.25"></line><line x1="162.421875" y1="0" x2="162.421875" y2="177" fill="rgb(0, 0, 0)" stroke="rgb(66, 66, 66)" stroke-width="1px" opacity="0.25"></line><line x1="185.625" y1="0" x2="185.625" y2="177" fill="rgb(0, 0, 0)" stroke="rgb(66, 66, 66)" stroke-width="1px" opacity="0.25"></line><line x1="208.828125" y1="0" x2="208.828125" y2="177" fill="rgb(0, 0, 0)" stroke="rgb(66, 66, 66)" stroke-width="1px" opacity="0.25"></line><line x1="232.03125" y1="0" x2="232.03125" y2="177" fill="rgb(0, 0, 0)" stroke="rgb(66, 66, 66)" stroke-width="1px" opacity="0.25"></line><line x1="255.234375" y1="0" x2="255.234375" y2="177" fill="rgb(0, 0, 0)" stroke="rgb(66, 66, 66)" stroke-width="1px" opacity="0.25"></line><line x1="278.4375" y1="0" x2="278.4375" y2="177" fill="rgb(0, 0, 0)" stroke="rgb(66, 66, 66)" stroke-width="1px" opacity="0.25"></line></g><g><line x1="0" y1="165.2" x2="278.4375" y2="165.2" fill="rgb(0, 0, 0)" stroke="rgb(66, 66, 66)" stroke-width="1px" opacity="0.25"></line><line x1="0" y1="141.59999999999997" x2="278.4375" y2="141.59999999999997" fill="rgb(0, 0, 0)" stroke="rgb(66, 66, 66)" stroke-width="1px" opacity="0.25"></line><line x1="0" y1="117.99999999999996" x2="278.4375" y2="117.99999999999996" fill="rgb(0, 0, 0)" stroke="rgb(66, 66, 66)" stroke-width="1px" opacity="0.25"></line><line x1="0" y1="94.39999999999993" x2="278.4375" y2="94.39999999999993" fill="rgb(0, 0, 0)" stroke="rgb(66, 66, 66)" stroke-width="1px" opacity="0.25"></line><line x1="0" y1="70.79999999999993" x2="278.4375" y2="70.79999999999993" fill="rgb(0, 0, 0)" stroke="rgb(66, 66, 66)" stroke-width="1px" opacity="0.25"></line><line x1="0" y1="47.19999999999991" x2="278.4375" y2="47.19999999999991" fill="rgb(0, 0, 0)" stroke="rgb(66, 66, 66)" stroke-width="1px" opacity="0.25"></line><line x1="0" y1="23.600000000000016" x2="278.4375" y2="23.600000000000016" fill="rgb(0, 0, 0)" stroke="rgb(66, 66, 66)" stroke-width="1px" opacity="0.25"></line><line x1="0" y1="0" x2="278.4375" y2="0" fill="rgb(0, 0, 0)" stroke="rgb(66, 66, 66)" stroke-width="1px" opacity="0.25"></line></g></g></g><g><g><line x1="0" y1="849.5999999999998" x2="278.4375" y2="849.5999999999998" fill="rgb(0, 0, 0)" stroke="rgb(153, 153, 153)" stroke-width="1.5px"></line></g></g><g><g><line x1="23.203125" y1="0" x2="23.203125" y2="177" fill="rgb(0, 0, 0)" stroke="rgb(153, 153, 153)" stroke-width="1.5px"></line></g></g><g><g><g><g><g><path stroke="rgb(255, 112, 67)" stroke-width="2px" d="M26.892421874999997,183.61133320418708L27.356484375,175.16922279102116L27.820546875,175.93955109590274L28.284609375,174.4688551063503L28.748671875,174.33354272562795L29.212734375,170.85192600094712L29.676796875,171.22403693729228L30.140859374999998,166.8401484438128L30.604921875,163.405528951831L31.068984375000003,160.78782283692317L31.533046875,160.8864622536866L31.997109375,160.4956873182691L32.461171875,158.0299982675014L32.925234374999995,157.78189268049346L33.389296875,155.80843746794662L33.853359375000004,156.47288668004606L34.317421875,153.74657543926523L34.781484375,152.10913753777493L35.245546874999995,150.35930613552446L35.709609375,148.763340795082L36.173671875000004,146.66151468886832L36.637734375,143.77840706008462L37.101796875000005,144.91966340106418L37.565859374999995,144.3837333015169L38.029921875,142.63808641179529L38.493984375000004,142.20987966552698L38.958046875,140.8698966154294L39.422109375,140.61964700553762L39.886171874999995,140.98993378018713L40.350234375,140.06646471134923L40.814296875000004,135.6420759673376L41.278359375,137.68537215790525L41.742421875,135.60371213359377L42.206484374999995,136.2454522475993L42.670546875,134.97977988239745L43.134609375000004,133.7223533143434L43.598671875,133.07769740835937L44.062734375,129.98378501373938L44.526796875,127.68390903383221L44.990859375,125.6311344586263L45.454921875000004,125.5620041520283L45.918984374999994,123.26451830764442L46.383046875,123.0514004119057L46.847109375,121.85640028710111L47.311171875,122.02423930871407L47.775234375000004,121.9594534500184L48.239296874999994,119.9194217956735L48.703359375,116.2793307282494L49.167421875,113.8187502008861L49.631484375,113.53064929313786L50.095546875000004,111.3086399838626L50.559609375,108.50191030935882L51.023671875,107.17296638256282L51.487734375,105.24623281947311L51.951796875,103.99330110277292L52.415859375000004,103.40942157532989L52.879921875,103.72483446688081L53.343984375,101.34788159333003L53.808046875,100.306263613059L54.272109375,99.5567655109639L54.736171875,98.13911356154972L55.200234375,95.01274205007066L55.664296875,94.77736625344586L56.128359375,94.35904601893351L56.592421875,91.89232089191307L57.056484375,91.13962947570815L57.520546875,88.53628461092975L57.984609375,87.38688053222941L58.448671875,84.88255189715031L58.91273437500001,82.95931925909596L59.376796875,84.3926844699819L59.840859375,83.58039615997376L60.304921875,83.69178756598751L60.768984375,82.53975454862811L61.233046875,79.25070928757229L61.697109375,77.68158350148342L62.161171875,76.10449729826952L62.625234375,74.7061177198546L63.089296875,73.35205828483997L63.553359375,73.06901696011413L64.017421875,71.2288477590752L64.481484375,69.9177784582593L64.945546875,68.91605469012583L65.409609375,69.98448969004893L65.873671875,69.99708345884176L66.337734375,68.56373701232098L66.801796875,69.40906603632892L67.265859375,68.90375232330678L67.729921875,68.67363556673114L68.193984375,68.73469545557825L68.658046875,65.34668401137144L69.122109375,64.10365564672682L69.586171875,63.63997722804365L70.050234375,63.79206026351182L70.514296875,63.37641072521305L70.97835937500001,62.42874719726873L71.442421875,60.83761339519863L71.90648437499999,61.20553761392647L72.370546875,60.586562110314176L72.834609375,60.61525158732313L73.298671875,60.859326367237436L73.76273437500001,59.86833750848964L74.226796875,59.81893280924759L74.690859375,59.64289472756668L75.15492187500001,58.14592718441995L75.618984375,58.429337225344455L76.083046875,58.694653549043956L76.54710937499999,58.586593509862645L77.011171875,58.628080094040705L77.475234375,57.45533914965747L77.939296875,56.34146813141363L78.40335937500001,55.67996299726366L78.867421875,53.77953874282023L79.331484375,52.37081222249975L79.795546875,52.040563150909065L80.259609375,52.48075226637882L80.723671875,52.45984384839301L81.187734375,50.51271769299184L81.651796875,50.154710709230585L82.115859375,50.10774097624529L82.579921875,50.67331211671679L83.04398437500001,50.76833557428818L83.508046875,50.36403265140977L83.97210937499999,49.49482056876539L84.436171875,49.83764151410571L84.900234375,48.55024198188389L85.364296875,48.26233283971047L85.828359375,49.620442685692325L86.292421875,48.8077604567654L86.756484375,49.29449495382742L87.220546875,49.18982035010776L87.68460937500001,47.86450949752472L88.148671875,47.64959770804944L88.61273437499999,47.63144117637363L89.076796875,47.709881727998514L89.540859375,47.820294014617495L90.004921875,46.981388057153346L90.468984375,48.45061331675247L90.933046875,48.15858642999158L91.397109375,47.58739207220495L91.86117187500001,46.84883376185722L92.32523437500001,47.10727948267493L92.78929687499999,46.91798518139958L93.25335937499999,47.67325827044079L93.717421875,47.87402594195362L94.181484375,46.8902896838754L94.645546875,48.96016436666361L95.109609375,48.6391123892142L95.573671875,47.87410638142759L96.037734375,48.661598410392834L96.50179687500001,47.776092122634275L96.96585937500001,46.84879445996973L97.42992187499999,47.25605566985594L97.893984375,45.220983615301286L98.358046875,41.43873368313302L98.822109375,42.02682321637109L99.286171875,43.14748881782189L99.750234375,43.644967399478055L100.214296875,42.43936894437851L100.678359375,41.97259681799371L101.14242187500001,41.589778651880636L101.606484375,42.008824786026466L102.07054687499999,41.64231633334469L102.534609375,42.84617173319416L102.998671875,42.022823531662766L103.462734375,42.21798396040535L103.92679687500001,42.78325473385967L104.390859375,44.56599097976781L104.854921875,44.958157577970546L105.318984375,43.53162823631582L105.78304687500001,43.30984366598581L106.247109375,43.36571689042281L106.71117187499999,41.66455140908386L107.175234375,40.598709222470575L107.639296875,39.806366673078266L108.103359375,41.068827397471296L108.56742187500001,39.503863606614956L109.031484375,40.22135226176347L109.495546875,39.43334403968769L109.95960937500001,39.19409792717677L110.423671875,38.98234233353032L110.887734375,38.695904798103534L111.35179687499999,39.7705014466272L111.815859375,38.00690586475485L112.279921875,37.13046000016291L112.743984375,36.91529859283933L113.20804687500001,39.25547324353605L113.672109375,39.849812256219174L114.136171875,40.80666198617783L114.600234375,40.35046657893536L115.064296875,39.35895022699435L115.528359375,39.93400918900604L115.992421875,39.8233436034702L116.456484375,38.23012167649868L116.920546875,35.66407093411737L117.384609375,35.04977468881638L117.84867187500001,35.93946182739469L118.312734375,35.78783678774242L118.77679687499999,35.27558949717335L119.240859375,35.02258523868532L119.704921875,34.13380998614564L120.168984375,32.84622693601648L120.633046875,33.93207413232269L121.097109375,34.229190749078676L121.561171875,34.39895876603205L122.025234375,33.671737468918714L122.48929687500001,34.137615484683025L122.953359375,33.345805358791104L123.41742187499999,32.77185980303861L123.881484375,33.04413395727292L124.345546875,32.7236432433202L124.809609375,31.708938077598262L125.273671875,31.97767867404385L125.737734375,32.31942578698198L126.201796875,31.61754393821551L126.66585937500001,33.498914778161655L127.12992187500001,32.492264238475485L127.59398437499999,32.15333540868111L128.058046875,30.98633452080554L128.522109375,31.747718687889193L128.986171875,31.98632573489577L129.450234375,30.946280578974118L129.914296875,29.947868207844923L130.378359375,30.30569920876362L130.84242187499999,31.550065210540055L131.306484375,32.598641295824436L131.770546875,33.678384724513734L132.234609375,32.71529381922212L132.698671875,32.705286334615856L133.162734375,33.89805371881816L133.626796875,33.58591852534563L134.09085937499998,33.41422474695928L134.554921875,34.75921719117699L135.018984375,33.9110634736077L135.48304687499999,33.0423866735495L135.947109375,31.022335523345323L136.411171875,31.88094263492639L136.875234375,30.23516679660213L137.339296875,29.84006518651966L137.803359375,30.34848538276724L138.267421875,30.308615949486065L138.731484375,29.865347871839166L139.195546875,30.23527814775166L139.659609375,30.913362886575182L140.12367187499999,30.43268949693354L140.587734375,31.901190399882385L141.051796875,32.234698006890525L141.515859375,32.54700847868587L141.979921875,33.111855365078895L142.44398437499999,33.4679948102611L142.908046875,32.93849799494466L143.372109375,33.524809323495155L143.836171875,34.26949644095892L144.300234375,33.91323989397718L144.764296875,33.96822495609306L145.228359375,32.137669435884874L145.692421875,32.10226911522126L146.15648437500002,31.926998859201174L146.620546875,31.52407311459233L147.08460937499999,31.375668693720023L147.548671875,30.548018759314616L148.01273437499998,30.68879410906829L148.476796875,31.084074387111244L148.940859375,31.225070386968234L149.40492187499999,31.718896556355826L149.868984375,31.301318900994644L150.333046875,30.717220474373153L150.797109375,29.831973069689194L151.261171875,29.224454502267804L151.725234375,27.567431596519988L152.189296875,27.01070930803025L152.653359375,24.357229667700622L153.11742187500002,24.464136023936266L153.581484375,23.9508417996325L154.045546875,24.74533539943923L154.509609375,26.01484660207984L154.973671875,26.42083930641173L155.43773437500002,26.363556653884817L155.90179687499997,25.228803361619278L156.36585937499999,23.588808801023383L156.829921875,24.77950058899664L157.29398437499998,26.884075864455458L157.758046875,27.75073399093872L158.222109375,28.107733717684095L158.68617187499999,26.798682285956406L159.150234375,26.75992432023156L159.614296875,26.394277857408476L160.078359375,26.30309903979202L160.542421875,26.922952175974174L161.006484375,27.053846536432893L161.470546875,25.622809745987L161.934609375,23.784453846919117L162.39867187500002,23.40830785206642L162.862734375,23.76069740568122L163.326796875,23.612247394154963L163.79085937500003,24.639454284874077L164.254921875,25.40024634322585L164.718984375,26.133932398447893L165.183046875,25.4578504121507L165.64710937499999,24.510643547434046L166.111171875,23.45543517737842L166.57523437499998,24.685220448397974L167.039296875,24.641519146165148L167.503359375,24.53455529898481L167.96742187499999,24.33340654990126L168.431484375,23.873957591841197L168.895546875,24.645439048042576L169.359609375,23.166552201000304L169.823671875,22.07068589844174L170.287734375,21.18684694097511L170.751796875,20.892222529584778L171.215859375,21.779981043876298L171.67992187500002,22.133696506268773L172.143984375,22.253812540036833L172.608046875,21.956599187072246L173.07210937500003,22.71951376368054L173.53617187499998,23.89676917823665L174.000234375,24.746205910734954L174.464296875,23.842269237660684L174.92835937499999,23.133966219267258L175.392421875,22.924275799847557L175.856484375,20.716716255179108L176.320546875,20.66055968054928L176.784609375,21.111974749405483L177.24867187499999,21.495987764691595L177.712734375,22.15357769938872L178.176796875,22.21915947031288L178.640859375,20.581387839001266L179.104921875,20.724979029847816L179.568984375,20.592387685853634L180.033046875,21.66009473235459L180.497109375,22.262323288599063L180.96117187500002,21.128535341453205L181.425234375,21.938442494182283L181.88929687499999,22.12707119856041L182.353359375,19.965500176612387L182.81742187499998,20.608372418281895L183.281484375,18.971094088730904L183.745546875,17.067313689867564L184.20960937499999,15.92354219217291L184.673671875,16.01435622685414L185.137734375,16.275425167500266L185.601796875,17.28352800216011L186.065859375,16.236541488221782L186.529921875,16.66007355670773L186.993984375,16.99215261537403L187.458046875,17.807763851868145L187.92210937500002,18.924399967062822L188.386171875,19.99125890052482L188.850234375,20.53225142821224L189.314296875,20.129053403120125L189.778359375,19.346776634318473L190.24242187500002,18.490033555504212L190.70648437499997,17.71530041021992L191.17054687499999,17.326361459400264L191.634609375,17.441839646613005L192.09867187499998,17.79786631046113L192.562734375,19.439807179376782L193.026796875,18.848167121534296L193.49085937499999,18.80442436110203L193.954921875,19.686923843364916L194.418984375,21.178543906576333L194.883046875,20.70734765991589L195.347109375,21.137119495257846L195.811171875,21.54490165774681L196.275234375,19.684148865324204L196.739296875,19.031965429826208L197.20335937500002,19.607683109560796L197.667421875,19.809504191266715L198.131484375,20.788745937514797L198.59554687500003,19.90651477733415L199.059609375,20.686598167650224L199.523671875,21.873235735147173L199.987734375,21.772921195789166L200.45179687499999,21.728024305549866L200.915859375,21.667016427797954L201.37992187499998,21.429861222281573L201.843984375,19.01638322345116L202.308046875,20.1237063020918L202.77210937499999,18.721784709434484L203.236171875,18.20694760907352L203.700234375,17.352955032843198L204.164296875,16.67921344649004L204.628359375,15.887974464397496L205.092421875,14.749532986432987L205.556484375,14.908908372596496L206.020546875,14.900017967351225L206.48460937500002,15.956478668327273L206.948671875,17.488683918483627L207.412734375,19.208364024788875L207.87679687500003,19.966406964389147L208.34085937499998,20.147786826307495L208.804921875,19.247488004936105L209.268984375,17.440438908612684L209.73304687499999,17.639283716329274L210.197109375,17.16206783382443L210.661171875,15.785842687443076L211.125234375,15.326964057584334L211.589296875,14.017720777779525L212.05335937499999,16.546384200146587L212.517421875,15.847159441135071L212.981484375,17.110946094830425L213.445546875,15.412100201701652L213.909609375,15.0838228492637L214.373671875,15.087403059187501L214.837734375,15.849847040339911L215.301796875,16.577726244119823L215.76585937500002,15.937338110674615L216.229921875,16.165498311104574L216.69398437499999,15.50402454028909L217.158046875,14.097732012483986L217.62210937499998,13.751137431574103L218.086171875,13.811983823876584L218.550234375,14.456083879561055L219.01429687499999,15.497696098408762L219.478359375,14.327421475101897L219.942421875,14.44887707768325L220.406484375,14.673576228664265L220.870546875,12.292238679688444L221.334609375,12.504904059613857L221.798671875,12.82465447072247L222.262734375,13.461551172888806L222.72679687500002,14.568765158077943L223.190859375,14.305303769070697L223.654921875,14.554242104970298L224.118984375,14.17210343600767L224.583046875,14.664359320892066L225.04710937500002,14.395952391946121L225.51117187499997,14.73559390812258L225.97523437499999,14.594098034880938L226.439296875,16.416719371720326L226.90335937499998,16.783979271630255L227.367421875,17.060637735229516L227.831484375,16.38244517466582L228.29554687499999,16.850220831225776L228.759609375,16.062573220721344L229.223671875,15.802136645070995L229.687734375,15.660401054637749L230.151796875,15.569088899270003L230.615859375,15.126498103596532L231.079921875,13.613373682908321L231.543984375,14.124598565708425L232.00804687500002,13.105721491883017L232.472109375,12.719883539357701L232.936171875,11.809996702145632L233.40023437500003,9.458236600641408L233.864296875,9.297879811838873L234.328359375,9.820833534642144L234.792421875,10.803210158327799L235.25648437499999,11.068808355789951L235.720546875,10.086097904618017L236.18460937499998,11.321938645162058L236.648671875,11.842135103331032L237.112734375,11.215008618640235L237.57679687499999,9.997843813485517L238.040859375,9.779404761421558L238.504921875,10.859699892426589L238.968984375,9.50389212795352L239.433046875,7.938194115414485L239.897109375,9.14593559216334L240.361171875,9.383569873370607L240.825234375,9.12902677744433L241.28929687500002,9.621158603636701L241.753359375,10.120843399591733L242.217421875,10.39048490496943L242.68148437500003,10.627634048215796L243.14554687499998,11.359447130935525L243.609609375,10.719631415644697L244.073671875,12.258190506135966L244.53773437499999,11.85971488127306L245.001796875,12.124642359934983L245.465859375,11.036095307817584L245.929921875,11.474558035031375L246.393984375,11.817064413573178L246.85804687499999,11.69356401545924L247.322109375,11.01932380959205L247.786171875,9.989972204847454L248.250234375,9.734171433642464L248.714296875,8.501199269945865L249.178359375,9.46464587031781L249.642421875,9.554935614874758L250.106484375,10.029768477032343L250.57054687500002,9.740201849475167L251.034609375,9.592315354408012L251.49867187499999,9.305440386350059L251.962734375,8.725146672918031L252.42679687499998,8.975882451945818L252.890859375,8.898449550760686L253.354921875,9.989860208057927L253.81898437499999,7.833835818073456L254.283046875,6.679334248633381L254.747109375,7.620465722260887L255.211171875,7.93389909617127" style="fill: none;" fill="none"></path></g></g></g></g><g opacity="0.2"><g><g><g><path stroke="rgb(255, 112, 67)" stroke-width="2px" d="M24.572109375,202.8077538967132L25.036171875,170.2462359428405L25.500234375,164.67927060127252L25.964296875,167.2251316070556L26.428359375,189.1047521591186L26.892421874999997,164.34680423736566L27.356484375,131.8966945171356L27.820546875,180.18653712272638L28.284609375,165.84779105186456L28.748671875,173.49789342880243L29.212734375,148.36717805862423L29.676796875,173.7217648983001L30.140859374999998,136.4111896514892L30.604921875,138.85837278366083L31.068984375000003,141.5940638542175L31.533046875,161.6261645317077L31.997109375,157.50659189224237L32.461171875,138.83649907112118L32.925234374999995,155.82041702270502L33.389296875,139.9907418251037L33.853359375000004,161.86403236389157L34.317421875,131.38445577621454L34.781484375,138.5477097988128L35.245546874999995,135.74140391349786L35.709609375,135.32770237922662L36.173671875000004,128.84506545066827L36.637734375,119.18841919898982L37.101796875000005,154.70717868804925L37.565859374999995,139.7648306846618L38.029921875,127.52666435241694L38.493984375000004,138.48834834098813L38.958046875,129.18273649215692L39.422109375,138.4300418853759L39.886171874999995,144.23909506797784L40.350234375,131.94248161315915L40.814296875000004,96.6299398899078L41.278359375,155.73946318626398L41.742421875,117.17645964622493L42.206484374999995,141.9357439041137L42.670546875,123.74026141166682L43.134609375000004,122.5410052299499L43.598671875,127.33831129074092L44.062734375,102.40860900878901L44.526796875,107.16568431854242L44.990859375,107.30128726959224L45.454921875000004,124.94422993659968L45.918984374999994,102.71870932579036L46.383046875,121.14432296752925L46.847109375,111.15682802200313L47.311171875,123.5277839660644L47.775234375000004,121.37881479263301L48.239296874999994,101.62811837196345L48.703359375,83.6292882919311L49.167421875,91.74091897010797L49.631484375,110.94484291076655L50.095546875000004,91.35985217094415L50.559609375,83.29738459587092L51.023671875,95.23635230064386L51.487734375,87.93679199218747L51.951796875,92.73515305519098L52.415859375000004,98.16215476989741L52.879921875,106.55983171463008L53.343984375,79.980527973175L53.808046875,90.94164929389947L54.272109375,92.81772456169124L54.736171875,85.39121232032771L55.200234375,66.8971642017364L55.664296875,92.66045889854425L56.128359375,90.59652290344233L56.592421875,69.70431408882136L57.056484375,84.36884484291072L57.520546875,65.11688313484188L57.984609375,77.04649648666377L58.448671875,62.35193333625789L58.91273437500001,65.65598926544186L59.376796875,97.28910527229306L59.840859375,76.27177319526668L60.304921875,84.69406685829158L60.768984375,72.17372260093684L61.233046875,49.65512237548825L61.697109375,63.56195054054257L62.161171875,61.91298208236691L62.625234375,62.12250552177426L63.089296875,61.16709551811215L63.553359375,70.52194080352778L64.017421875,54.669055557250935L64.481484375,58.119264459609944L64.945546875,59.90130386352536L65.409609375,79.59967217445369L65.873671875,70.11041960716244L66.337734375,55.66441497802731L66.801796875,77.01660475730891L67.265859375,64.35615620613095L67.729921875,66.60267791748042L68.193984375,69.28421220779414L68.658046875,34.85569200515743L69.122109375,52.916767215728726L69.586171875,59.466994619369466L70.050234375,65.1607712268829L70.514296875,59.63565430641171L70.97835937500001,53.89995894432064L71.442421875,46.5176864624023L71.90648437499999,64.516797876358L72.370546875,55.01586995124813L72.834609375,60.87345323562618L73.298671875,63.05597147941586L73.76273437500001,50.94953975677486L74.226796875,59.37429509162899L74.690859375,58.05856666564937L75.15492187500001,44.67333159446712L75.618984375,60.980008459091145L76.083046875,61.08248434066769L76.54710937499999,57.61405906677243L77.011171875,59.00145730972286L77.475234375,46.90072259902951L77.939296875,46.31667337417599L78.40335937500001,49.7264405250549L78.867421875,36.67578182220455L79.331484375,39.692314481735195L79.795546875,49.06833014488217L80.259609375,56.44244394302364L80.723671875,52.27166852951046L81.187734375,32.98861942291256L81.651796875,46.93265399932857L82.115859375,49.6850141048431L82.579921875,55.76344451904293L83.04398437500001,51.6235455036163L83.508046875,46.72531089782711L83.97210937499999,41.671920633316006L84.436171875,52.92302689552303L84.900234375,36.96365675926205L85.364296875,45.67115268707271L85.828359375,61.843422269821126L86.292421875,41.49362525939938L86.756484375,53.675102806091274L87.220546875,48.24774942398068L87.68460937500001,35.936717605590786L88.148671875,45.7153924465179L88.61273437499999,47.468032455444295L89.076796875,48.41584644317623L89.540859375,48.81400427818294L90.004921875,39.43123660087581L90.468984375,61.67363724708553L90.933046875,45.53034505844112L91.397109375,42.446643924713094L91.86117187500001,40.201810216903645L92.32523437500001,49.43329057693477L92.78929687499999,45.21433672904964L93.25335937499999,54.470715141296346L93.717421875,49.68093476295467L94.181484375,38.03666434288021L94.645546875,67.58903465270991L95.109609375,45.74964485168453L95.573671875,40.98905286788936L96.037734375,55.74902615547177L96.50179687500001,39.806536054611165L96.96585937500001,38.503115987777676L97.42992187499999,50.92140636444088L97.893984375,26.90533599853512L98.358046875,7.398485755920379L98.822109375,47.31962881088253L99.286171875,53.233478879928555L99.750234375,48.1222744941711L100.214296875,31.58898315429683L100.678359375,37.771647787094075L101.14242187500001,38.144415235519375L101.606484375,45.78023991584774L102.07054687499999,38.34374032020565L102.534609375,53.680870151519734L102.998671875,34.61268982887265L103.462734375,43.974427795410115L103.92679687500001,47.87069163322445L104.390859375,60.61061701774593L104.854921875,48.48765692710873L105.318984375,30.692864274978593L105.78304687500001,41.31378254890438L106.247109375,43.8685759067535L106.71117187499999,26.354062175750688L107.175234375,31.006129598617516L107.639296875,32.67528376579281L108.103359375,52.43097386360164L108.56742187500001,25.4191895484924L109.031484375,46.67875013351437L109.495546875,32.34127006530758L109.95960937500001,37.04088292121884L110.423671875,37.07654199600216L110.887734375,36.11796698570248L111.35179687499999,49.44187126159664L111.815859375,22.13454566001889L112.279921875,29.24244723320003L112.743984375,34.978845930099446L113.20804687500001,60.3170450687408L113.672109375,45.19886336326595L114.136171875,49.41830954551693L114.600234375,36.24470791816707L115.064296875,30.43530306816098L115.528359375,45.10953984260556L115.992421875,38.82735333442684L116.456484375,23.89112434387204L116.920546875,12.569614267349218L117.384609375,29.52110848426815L117.84867187500001,43.946646070480305L118.312734375,34.42321143150326L118.77679687499999,30.66536388397213L119.240859375,32.74554691314694L119.704921875,26.134832715988114L120.168984375,21.25797948837278L120.633046875,43.70469889640805L121.097109375,36.90324029922481L121.561171875,35.926870918273885L122.025234375,27.12674579620357L122.48929687500001,38.33051762580868L122.953359375,26.21951422691342L123.41742187499999,27.606349802017167L123.881484375,35.494601345062215L124.345546875,29.839226818084686L124.809609375,22.57659158706662L125.273671875,34.3963440418243L125.737734375,35.39514980316158L126.201796875,25.300607299804657L126.66585937500001,50.431252336502034L127.12992187500001,23.432409381866425L127.59398437499999,29.1029759407043L128.058046875,20.483326530456505L128.522109375,38.60017619132992L128.986171875,34.13378915786739L129.450234375,21.585874176025367L129.914296875,20.962156867980934L130.378359375,33.52617821693416L130.84242187499999,42.749359226226765L131.306484375,42.03582606315609L131.770546875,43.39607558250423L132.234609375,24.047475671768158L132.698671875,32.61521897315975L133.162734375,44.632960176467854L133.626796875,30.77670178413388L134.09085937499998,31.86898074150081L134.554921875,46.86414918899532L135.018984375,26.27768001556392L135.48304687499999,25.224295473098717L135.947109375,12.841875171661346L136.411171875,39.60840663909908L136.875234375,15.423184251785253L137.339296875,26.284150695800744L137.803359375,34.924267148971516L138.267421875,29.949791049957245L138.731484375,25.875935173034623L139.195546875,33.564650630950894L139.659609375,37.016125535964925L140.12367187499999,26.10662899017331L140.587734375,45.117698526382405L141.051796875,35.2362664699554L141.515859375,35.357802724838216L141.979921875,38.19547734260556L142.44398437499999,36.67324981689449L142.908046875,28.173026657104455L143.372109375,38.80161128044124L143.836171875,40.97168049812313L144.300234375,30.706930971145592L144.764296875,34.463090515136685L145.228359375,15.662669754028295L145.692421875,31.78366622924801L146.15648437500002,30.34956655502315L146.620546875,27.89774141311641L147.08460937499999,30.040028905868486L147.548671875,23.099169349670365L148.01273437499998,31.955772256851166L148.476796875,34.641596889495816L148.940859375,32.49403438568112L149.40492187499999,36.16333208084103L149.868984375,27.54312000274655L150.333046875,25.460334634780853L150.797109375,21.864746427535973L151.261171875,23.756787395477257L151.725234375,12.654225444793676L152.189296875,22.000208711624108L152.653359375,0.475912904739355L153.11742187500002,25.426293230056718L153.581484375,19.331193780899017L154.045546875,31.89577779769893L154.509609375,37.440447425842244L154.973671875,30.074773645400963L155.43773437500002,25.84801278114315L155.90179687499997,15.016023731231659L156.36585937499999,8.82885775566098L156.829921875,35.49572668075558L157.29398437499998,45.82525334358212L157.758046875,35.55065712928768L158.222109375,31.320731258392296L158.68617187499999,15.017219400405859L159.150234375,26.411102628707855L159.614296875,23.103459692001312L160.078359375,25.482489681243866L160.542421875,32.501630401611294L161.006484375,28.231895780563317L161.470546875,12.743478631973241L161.934609375,7.239250755310021L162.39867187500002,20.0229938983917L162.862734375,26.932203388214067L163.326796875,22.276197290420495L163.79085937500003,33.88431630134579L164.254921875,32.24737486839291L164.718984375,32.73710689544674L165.183046875,19.37311253547666L165.64710937499999,15.9857817649841L166.111171875,13.958559846878014L166.57523437499998,35.7532878875732L167.039296875,24.24820742607113L167.503359375,23.571880674362152L167.96742187499999,22.523067808151207L168.431484375,19.73891696929928L168.895546875,31.588772153854325L169.359609375,9.856570577621435L169.823671875,12.207889175415001L170.287734375,13.232296323776207L170.751796875,18.240602827072106L171.215859375,29.76980767250058L171.67992187500002,25.317135667800866L172.143984375,23.33485684394832L172.608046875,19.281679010391198L173.07210937500003,29.585744953155473L173.53617187499998,34.49206790924068L174.000234375,32.39113650321956L174.464296875,15.706839179992645L174.92835937499999,16.759239053726173L175.392421875,21.037062025070167L175.856484375,0.8486803531646349L176.320546875,20.155150508880585L176.784609375,25.17471036911007L177.24867187499999,24.95210490226742L177.712734375,28.071887111663788L178.176796875,22.809395408630333L178.640859375,5.84144315719602L179.104921875,22.017299747467003L179.568984375,19.39906558990476L180.033046875,31.26945815086361L180.497109375,27.682380294799774L180.96117187500002,10.924443817138647L181.425234375,29.22760686874386L181.88929687499999,23.82472953796383L182.353359375,0.5113609790801753L182.81742187499998,26.394222593307465L183.281484375,4.235589122772185L183.745546875,-0.06670989990237519L184.20960937499999,5.629598712921117L184.673671875,16.831682538986176L185.137734375,18.625045633316002L185.601796875,26.35645351409909L186.065859375,6.813662862777672L186.529921875,20.471862173080414L186.993984375,19.98086414337155L187.458046875,25.14826498031613L187.92210937500002,28.974125003814667L188.386171875,29.592989301681488L188.850234375,25.401184177398637L189.314296875,16.500271177291832L189.778359375,12.306285715103124L190.24242187500002,10.779345846176117L190.70648437499997,10.742702102661095L191.17054687499999,13.82591090202329L191.634609375,18.481143331527672L192.09867187499998,21.002106285095184L192.562734375,34.217274999618496L193.026796875,13.523406600952118L193.49085937499999,18.41073951721189L193.954921875,27.62941918373105L194.418984375,34.603124475479085L194.883046875,16.4665814399719L195.347109375,25.005066013336144L195.811171875,25.214941120147675L196.275234375,2.9373737335204697L196.739296875,13.162314510345434L197.20335937500002,24.78914222717282L197.667421875,21.625893926620446L198.131484375,29.60192165374752L198.59554687500003,11.966434335708588L199.059609375,27.707348680496178L199.523671875,32.55297384262081L199.987734375,20.870090341567956L200.45179687499999,21.32395229339596L200.915859375,21.117945528030365L201.37992187499998,19.295464372634864L201.843984375,-2.7049187660217733L202.308046875,30.089614009857133L202.77210937499999,6.104490375518761L203.236171875,13.573413705825775L203.700234375,9.667021846771203L204.164296875,10.615539169311498L204.628359375,8.766823625564545L205.092421875,4.5035596847533865L205.556484375,16.3432868480682L206.020546875,14.820004320144623L206.48460937500002,25.46462497711178L206.948671875,31.27853116989132L207.412734375,34.68548498153683L207.87679687500003,26.788793420791595L208.34085937499998,21.780205583572364L208.804921875,11.144798612594574L209.268984375,1.1769970417022324L209.73304687499999,19.428886985778778L210.197109375,12.867124891281103L210.661171875,3.3998163700103445L211.125234375,11.197056388854955L211.589296875,2.234531259536705L212.05335937499999,39.304355001449544L212.517421875,9.55413661003109L212.981484375,28.48502597808835L213.445546875,0.12248716354367628L213.909609375,12.129326677322357L214.373671875,15.119624948501556L214.837734375,22.71184287071225L215.301796875,23.12863907814022L215.76585937500002,10.173844909667931L216.229921875,18.218940114974952L216.69398437499999,9.550760602951012L217.158046875,1.4410992622375174L217.62210937499998,10.631786203384374L218.086171875,14.359601354598968L218.550234375,20.252984380722022L219.01429687499999,24.872206068038896L219.478359375,3.7949498653411617L219.942421875,15.541977500915502L220.406484375,16.69586858749386L220.870546875,-9.139799261093184L221.334609375,14.41889247894284L221.798671875,15.702408170700043L222.262734375,19.193621492385834L222.72679687500002,24.533691024780236L223.190859375,11.93415126800534L223.654921875,16.794687128066993L224.118984375,10.732855415344213L224.583046875,19.094662284851044L225.04710937500002,11.98029003143308L225.51117187499997,17.792367553710907L225.97523437499999,13.320635175704926L226.439296875,32.820311403274495L226.90335937499998,20.08931837081906L227.367421875,19.550563907623268L227.831484375,10.278712129592858L228.29554687499999,21.060201740264855L228.759609375,8.973744726181005L229.223671875,13.458207464218109L229.687734375,14.384780740737877L230.151796875,14.747279500961266L230.615859375,11.143180942535363L231.079921875,-0.004746103286787706L231.543984375,18.725622510910004L232.00804687500002,3.935827827453575L232.472109375,9.24734196662899L232.936171875,3.62101516723629L233.40023437500003,-11.707604312896759L233.864296875,7.854668712615935L234.328359375,14.527417039871178L234.792421875,19.644599771499596L235.25648437499999,13.459192132949804L235.720546875,1.2417038440704031L236.18460937499998,22.444505310058563L236.648671875,16.52390322685238L237.112734375,5.5708702564239125L237.57679687499999,-0.9566394329071228L238.040859375,7.8134532928466545L238.504921875,20.582356071472145L238.968984375,-2.698377752304122L239.433046875,-6.153087997436568L239.897109375,20.01560888290403L240.361171875,11.52227840423581L240.825234375,6.838138914108239L241.28929687500002,14.050345039367638L241.753359375,14.61800656318662L242.217421875,12.817258453369103L242.68148437500003,12.761976337432824L243.14554687499998,17.945764875411957L243.609609375,4.961289978027306L244.073671875,26.105222320556603L244.53773437499999,8.273434257507299L245.001796875,14.508989667892426L245.465859375,1.2391718387603445L245.929921875,15.420722579956024L246.393984375,14.899621820449791L246.85804687499999,10.582060432434051L247.322109375,4.951161956787072L247.786171875,0.7258077621459647L248.250234375,7.431964492797826L248.714296875,-2.5955502033233957L249.178359375,18.13566527366635L249.642421875,10.367543315887414L250.106484375,14.303264236450165L250.57054687500002,7.1341022014617606L251.034609375,8.261336898803673L251.49867187499999,6.723565673828087L251.962734375,3.502503252029394L252.42679687499998,11.232504463195776L252.890859375,8.201553440093964L253.354921875,19.812556123733483L253.81898437499999,-11.570383691787738L254.283046875,-3.7111798763275594L254.747109375,16.090648984909027L255.211171875,10.75479946136472" style="fill: none;" fill="none"></path></g></g></g></g></g></g><g transform="translate(51, 177)" clip-path="url(#clip_1)"><clipPath id="clip_1"><rect width="278" height="23"></rect></clipPath><g><g><line x1="0" y1="0" x2="0" y2="5" style="visibility: inherit;" fill="rgb(0, 0, 0)" stroke="rgb(204, 204, 204)" stroke-width="1px"></line><line x1="23.203125" y1="0" x2="23.203125" y2="5" style="visibility: inherit;" fill="rgb(0, 0, 0)" stroke="rgb(204, 204, 204)" stroke-width="1px"></line><line x1="46.40625" y1="0" x2="46.40625" y2="5" style="visibility: inherit;" fill="rgb(0, 0, 0)" stroke="rgb(204, 204, 204)" stroke-width="1px"></line><line x1="69.609375" y1="0" x2="69.609375" y2="5" style="visibility: inherit;" fill="rgb(0, 0, 0)" stroke="rgb(204, 204, 204)" stroke-width="1px"></line><line x1="92.8125" y1="0" x2="92.8125" y2="5" style="visibility: inherit;" fill="rgb(0, 0, 0)" stroke="rgb(204, 204, 204)" stroke-width="1px"></line><line x1="116.015625" y1="0" x2="116.015625" y2="5" style="visibility: inherit;" fill="rgb(0, 0, 0)" stroke="rgb(204, 204, 204)" stroke-width="1px"></line><line x1="139.21875" y1="0" x2="139.21875" y2="5" style="visibility: inherit;" fill="rgb(0, 0, 0)" stroke="rgb(204, 204, 204)" stroke-width="1px"></line><line x1="162.421875" y1="0" x2="162.421875" y2="5" style="visibility: inherit;" fill="rgb(0, 0, 0)" stroke="rgb(204, 204, 204)" stroke-width="1px"></line><line x1="185.625" y1="0" x2="185.625" y2="5" style="visibility: inherit;" fill="rgb(0, 0, 0)" stroke="rgb(204, 204, 204)" stroke-width="1px"></line><line x1="208.828125" y1="0" x2="208.828125" y2="5" style="visibility: inherit;" fill="rgb(0, 0, 0)" stroke="rgb(204, 204, 204)" stroke-width="1px"></line><line x1="232.03125" y1="0" x2="232.03125" y2="5" style="visibility: inherit;" fill="rgb(0, 0, 0)" stroke="rgb(204, 204, 204)" stroke-width="1px"></line><line x1="255.234375" y1="0" x2="255.234375" y2="5" style="visibility: inherit;" fill="rgb(0, 0, 0)" stroke="rgb(204, 204, 204)" stroke-width="1px"></line><line x1="278.4375" y1="0" x2="278.4375" y2="5" style="visibility: inherit;" fill="rgb(0, 0, 0)" stroke="rgb(204, 204, 204)" stroke-width="1px"></line></g><g transform="translate(0, 8)"><text x="0" y="0" dx="0em" dy="0.95em" style="text-anchor: middle; visibility: hidden; font-family: Roboto, sans-serif; font-size: 12px; font-weight: 200;" fill="rgb(33, 33, 33)" stroke="none" stroke-width="1px">-1k</text><text x="23.203125" y="0" dx="0em" dy="0.95em" style="text-anchor: middle; visibility: inherit; font-family: Roboto, sans-serif; font-size: 12px; font-weight: 200;" fill="rgb(33, 33, 33)" stroke="none" stroke-width="1px">0</text><text x="46.40625" y="0" dx="0em" dy="0.95em" style="text-anchor: middle; visibility: inherit; font-family: Roboto, sans-serif; font-size: 12px; font-weight: 200;" fill="rgb(33, 33, 33)" stroke="none" stroke-width="1px">1k</text><text x="69.609375" y="0" dx="0em" dy="0.95em" style="text-anchor: middle; visibility: inherit; font-family: Roboto, sans-serif; font-size: 12px; font-weight: 200;" fill="rgb(33, 33, 33)" stroke="none" stroke-width="1px">2k</text><text x="92.8125" y="0" dx="0em" dy="0.95em" style="text-anchor: middle; visibility: inherit; font-family: Roboto, sans-serif; font-size: 12px; font-weight: 200;" fill="rgb(33, 33, 33)" stroke="none" stroke-width="1px">3k</text><text x="116.015625" y="0" dx="0em" dy="0.95em" style="text-anchor: middle; visibility: inherit; font-family: Roboto, sans-serif; font-size: 12px; font-weight: 200;" fill="rgb(33, 33, 33)" stroke="none" stroke-width="1px">4k</text><text x="139.21875" y="0" dx="0em" dy="0.95em" style="text-anchor: middle; visibility: inherit; font-family: Roboto, sans-serif; font-size: 12px; font-weight: 200;" fill="rgb(33, 33, 33)" stroke="none" stroke-width="1px">5k</text><text x="162.421875" y="0" dx="0em" dy="0.95em" style="text-anchor: middle; visibility: inherit; font-family: Roboto, sans-serif; font-size: 12px; font-weight: 200;" fill="rgb(33, 33, 33)" stroke="none" stroke-width="1px">6k</text><text x="185.625" y="0" dx="0em" dy="0.95em" style="text-anchor: middle; visibility: inherit; font-family: Roboto, sans-serif; font-size: 12px; font-weight: 200;" fill="rgb(33, 33, 33)" stroke="none" stroke-width="1px">7k</text><text x="208.828125" y="0" dx="0em" dy="0.95em" style="text-anchor: middle; visibility: inherit; font-family: Roboto, sans-serif; font-size: 12px; font-weight: 200;" fill="rgb(33, 33, 33)" stroke="none" stroke-width="1px">8k</text><text x="232.03125" y="0" dx="0em" dy="0.95em" style="text-anchor: middle; visibility: inherit; font-family: Roboto, sans-serif; font-size: 12px; font-weight: 200;" fill="rgb(33, 33, 33)" stroke="none" stroke-width="1px">9k</text><text x="255.234375" y="0" dx="0em" dy="0.95em" style="text-anchor: middle; visibility: inherit; font-family: Roboto, sans-serif; font-size: 12px; font-weight: 200;" fill="rgb(33, 33, 33)" stroke="none" stroke-width="1px">10k</text><text x="278.4375" y="0" dx="0em" dy="0.95em" style="text-anchor: middle; visibility: hidden; font-family: Roboto, sans-serif; font-size: 12px; font-weight: 200;" fill="rgb(33, 33, 33)" stroke="none" stroke-width="1px">11k</text></g><line x1="0" y1="0" x2="278.4375" y2="0" fill="rgb(0, 0, 0)" stroke="rgb(204, 204, 204)" stroke-width="1px"></line></g></g></g></g></svg>