<svg viewBox="0 0 330 200.00001525878906" xmlns="http://www.w3.org/2000/svg"><g><g><g><g><g><line x1="61.953125" y1="177" x2="56.953125" y2="177" style="visibility: inherit;" fill="rgb(0, 0, 0)" stroke="rgb(204, 204, 204)" stroke-width="1px"></line><line x1="61.953125" y1="162.25" x2="56.953125" y2="162.25" style="visibility: inherit;" fill="rgb(0, 0, 0)" stroke="rgb(204, 204, 204)" stroke-width="1px"></line><line x1="61.953125" y1="147.49999999999997" x2="56.953125" y2="147.49999999999997" style="visibility: inherit;" fill="rgb(0, 0, 0)" stroke="rgb(204, 204, 204)" stroke-width="1px"></line><line x1="61.953125" y1="132.74999999999997" x2="56.953125" y2="132.74999999999997" style="visibility: inherit;" fill="rgb(0, 0, 0)" stroke="rgb(204, 204, 204)" stroke-width="1px"></line><line x1="61.953125" y1="117.99999999999993" x2="56.953125" y2="117.99999999999993" style="visibility: inherit;" fill="rgb(0, 0, 0)" stroke="rgb(204, 204, 204)" stroke-width="1px"></line><line x1="61.953125" y1="103.24999999999993" x2="56.953125" y2="103.24999999999993" style="visibility: inherit;" fill="rgb(0, 0, 0)" stroke="rgb(204, 204, 204)" stroke-width="1px"></line><line x1="61.953125" y1="88.49999999999991" x2="56.953125" y2="88.49999999999991" style="visibility: inherit;" fill="rgb(0, 0, 0)" stroke="rgb(204, 204, 204)" stroke-width="1px"></line><line x1="61.953125" y1="73.75000000000007" x2="56.953125" y2="73.75000000000007" style="visibility: inherit;" fill="rgb(0, 0, 0)" stroke="rgb(204, 204, 204)" stroke-width="1px"></line><line x1="61.953125" y1="59.00000000000004" x2="56.953125" y2="59.00000000000004" style="visibility: inherit;" fill="rgb(0, 0, 0)" stroke="rgb(204, 204, 204)" stroke-width="1px"></line><line x1="61.953125" y1="44.25000000000004" x2="56.953125" y2="44.25000000000004" style="visibility: inherit;" fill="rgb(0, 0, 0)" stroke="rgb(204, 204, 204)" stroke-width="1px"></line><line x1="61.953125" y1="29.500000000000032" x2="56.953125" y2="29.500000000000032" style="visibility: inherit;" fill="rgb(0, 0, 0)" stroke="rgb(204, 204, 204)" stroke-width="1px"></line><line x1="61.953125" y1="14.750000000000007" x2="56.953125" y2="14.750000000000007" style="visibility: inherit;" fill="rgb(0, 0, 0)" stroke="rgb(204, 204, 204)" stroke-width="1px"></line><line x1="61.953125" y1="0" x2="56.953125" y2="0" style="visibility: inherit;" fill="rgb(0, 0, 0)" stroke="rgb(204, 204, 204)" stroke-width="1px"></line></g><g transform="translate(51.953125, 0)"><text x="0" y="177" dx="0em" dy="0.3em" style="text-anchor: end; visibility: hidden; font-family: Roboto, sans-serif; font-size: 12px; font-weight: 200;" fill="rgb(33, 33, 33)" stroke="none" stroke-width="1px">0.25</text><text x="0" y="162.25" dx="0em" dy="0.3em" style="text-anchor: end; visibility: inherit; font-family: Roboto, sans-serif; font-size: 12px; font-weight: 200;" fill="rgb(33, 33, 33)" stroke="none" stroke-width="1px">0.255</text><text x="0" y="147.49999999999997" dx="0em" dy="0.3em" style="text-anchor: end; visibility: hidden; font-family: Roboto, sans-serif; font-size: 12px; font-weight: 200;" fill="rgb(33, 33, 33)" stroke="none" stroke-width="1px">0.26</text><text x="0" y="132.74999999999997" dx="0em" dy="0.3em" style="text-anchor: end; visibility: inherit; font-family: Roboto, sans-serif; font-size: 12px; font-weight: 200;" fill="rgb(33, 33, 33)" stroke="none" stroke-width="1px">0.265</text><text x="0" y="117.99999999999993" dx="0em" dy="0.3em" style="text-anchor: end; visibility: hidden; font-family: Roboto, sans-serif; font-size: 12px; font-weight: 200;" fill="rgb(33, 33, 33)" stroke="none" stroke-width="1px">0.27</text><text x="0" y="103.24999999999993" dx="0em" dy="0.3em" style="text-anchor: end; visibility: inherit; font-family: Roboto, sans-serif; font-size: 12px; font-weight: 200;" fill="rgb(33, 33, 33)" stroke="none" stroke-width="1px">0.275</text><text x="0" y="88.49999999999991" dx="0em" dy="0.3em" style="text-anchor: end; visibility: hidden; font-family: Roboto, sans-serif; font-size: 12px; font-weight: 200;" fill="rgb(33, 33, 33)" stroke="none" stroke-width="1px">0.28</text><text x="0" y="73.75000000000007" dx="0em" dy="0.3em" style="text-anchor: end; visibility: inherit; font-family: Roboto, sans-serif; font-size: 12px; font-weight: 200;" fill="rgb(33, 33, 33)" stroke="none" stroke-width="1px">0.285</text><text x="0" y="59.00000000000004" dx="0em" dy="0.3em" style="text-anchor: end; visibility: hidden; font-family: Roboto, sans-serif; font-size: 12px; font-weight: 200;" fill="rgb(33, 33, 33)" stroke="none" stroke-width="1px">0.29</text><text x="0" y="44.25000000000004" dx="0em" dy="0.3em" style="text-anchor: end; visibility: inherit; font-family: Roboto, sans-serif; font-size: 12px; font-weight: 200;" fill="rgb(33, 33, 33)" stroke="none" stroke-width="1px">0.295</text><text x="0" y="29.500000000000032" dx="0em" dy="0.3em" style="text-anchor: end; visibility: hidden; font-family: Roboto, sans-serif; font-size: 12px; font-weight: 200;" fill="rgb(33, 33, 33)" stroke="none" stroke-width="1px">0.3</text><text x="0" y="14.750000000000007" dx="0em" dy="0.3em" style="text-anchor: end; visibility: inherit; font-family: Roboto, sans-serif; font-size: 12px; font-weight: 200;" fill="rgb(33, 33, 33)" stroke="none" stroke-width="1px">0.305</text><text x="0" y="0" dx="0em" dy="0.3em" style="text-anchor: end; visibility: hidden; font-family: Roboto, sans-serif; font-size: 12px; font-weight: 200;" fill="rgb(33, 33, 33)" stroke="none" stroke-width="1px">0.31</text></g><line x1="61.953125" y1="0" x2="61.953125" y2="177" fill="rgb(0, 0, 0)" stroke="rgb(204, 204, 204)" stroke-width="1px"></line></g></g><g transform="translate(61, 0)" clip-path="url(#clip_0)"><clipPath id="clip_0"><rect width="268" height="177"></rect></clipPath><g><g><g><line x1="0" y1="0" x2="0" y2="177" fill="rgb(0, 0, 0)" stroke="rgb(66, 66, 66)" stroke-width="1px" opacity="0.25"></line><line x1="22.337239583333332" y1="0" x2="22.337239583333332" y2="177" fill="rgb(0, 0, 0)" stroke="rgb(66, 66, 66)" stroke-width="1px" opacity="0.25"></line><line x1="44.674479166666664" y1="0" x2="44.674479166666664" y2="177" fill="rgb(0, 0, 0)" stroke="rgb(66, 66, 66)" stroke-width="1px" opacity="0.25"></line><line x1="67.01171875" y1="0" x2="67.01171875" y2="177" fill="rgb(0, 0, 0)" stroke="rgb(66, 66, 66)" stroke-width="1px" opacity="0.25"></line><line x1="89.34895833333333" y1="0" x2="89.34895833333333" y2="177" fill="rgb(0, 0, 0)" stroke="rgb(66, 66, 66)" stroke-width="1px" opacity="0.25"></line><line x1="111.68619791666667" y1="0" x2="111.68619791666667" y2="177" fill="rgb(0, 0, 0)" stroke="rgb(66, 66, 66)" stroke-width="1px" opacity="0.25"></line><line x1="134.0234375" y1="0" x2="134.0234375" y2="177" fill="rgb(0, 0, 0)" stroke="rgb(66, 66, 66)" stroke-width="1px" opacity="0.25"></line><line x1="156.36067708333334" y1="0" x2="156.36067708333334" y2="177" fill="rgb(0, 0, 0)" stroke="rgb(66, 66, 66)" stroke-width="1px" opacity="0.25"></line><line x1="178.69791666666666" y1="0" x2="178.69791666666666" y2="177" fill="rgb(0, 0, 0)" stroke="rgb(66, 66, 66)" stroke-width="1px" opacity="0.25"></line><line x1="201.03515625" y1="0" x2="201.03515625" y2="177" fill="rgb(0, 0, 0)" stroke="rgb(66, 66, 66)" stroke-width="1px" opacity="0.25"></line><line x1="223.37239583333334" y1="0" x2="223.37239583333334" y2="177" fill="rgb(0, 0, 0)" stroke="rgb(66, 66, 66)" stroke-width="1px" opacity="0.25"></line><line x1="245.70963541666666" y1="0" x2="245.70963541666666" y2="177" fill="rgb(0, 0, 0)" stroke="rgb(66, 66, 66)" stroke-width="1px" opacity="0.25"></line><line x1="268.046875" y1="0" x2="268.046875" y2="177" fill="rgb(0, 0, 0)" stroke="rgb(66, 66, 66)" stroke-width="1px" opacity="0.25"></line></g><g><line x1="0" y1="177" x2="268.046875" y2="177" fill="rgb(0, 0, 0)" stroke="rgb(66, 66, 66)" stroke-width="1px" opacity="0.25"></line><line x1="0" y1="162.25" x2="268.046875" y2="162.25" fill="rgb(0, 0, 0)" stroke="rgb(66, 66, 66)" stroke-width="1px" opacity="0.25"></line><line x1="0" y1="147.49999999999997" x2="268.046875" y2="147.49999999999997" fill="rgb(0, 0, 0)" stroke="rgb(66, 66, 66)" stroke-width="1px" opacity="0.25"></line><line x1="0" y1="132.74999999999997" x2="268.046875" y2="132.74999999999997" fill="rgb(0, 0, 0)" stroke="rgb(66, 66, 66)" stroke-width="1px" opacity="0.25"></line><line x1="0" y1="117.99999999999993" x2="268.046875" y2="117.99999999999993" fill="rgb(0, 0, 0)" stroke="rgb(66, 66, 66)" stroke-width="1px" opacity="0.25"></line><line x1="0" y1="103.24999999999993" x2="268.046875" y2="103.24999999999993" fill="rgb(0, 0, 0)" stroke="rgb(66, 66, 66)" stroke-width="1px" opacity="0.25"></line><line x1="0" y1="88.49999999999991" x2="268.046875" y2="88.49999999999991" fill="rgb(0, 0, 0)" stroke="rgb(66, 66, 66)" stroke-width="1px" opacity="0.25"></line><line x1="0" y1="73.75000000000007" x2="268.046875" y2="73.75000000000007" fill="rgb(0, 0, 0)" stroke="rgb(66, 66, 66)" stroke-width="1px" opacity="0.25"></line><line x1="0" y1="59.00000000000004" x2="268.046875" y2="59.00000000000004" fill="rgb(0, 0, 0)" stroke="rgb(66, 66, 66)" stroke-width="1px" opacity="0.25"></line><line x1="0" y1="44.25000000000004" x2="268.046875" y2="44.25000000000004" fill="rgb(0, 0, 0)" stroke="rgb(66, 66, 66)" stroke-width="1px" opacity="0.25"></line><line x1="0" y1="29.500000000000032" x2="268.046875" y2="29.500000000000032" fill="rgb(0, 0, 0)" stroke="rgb(66, 66, 66)" stroke-width="1px" opacity="0.25"></line><line x1="0" y1="14.750000000000007" x2="268.046875" y2="14.750000000000007" fill="rgb(0, 0, 0)" stroke="rgb(66, 66, 66)" stroke-width="1px" opacity="0.25"></line><line x1="0" y1="0" x2="268.046875" y2="0" fill="rgb(0, 0, 0)" stroke="rgb(66, 66, 66)" stroke-width="1px" opacity="0.25"></line></g></g></g><g><g><line x1="0" y1="914.5" x2="268.046875" y2="914.5" fill="rgb(0, 0, 0)" stroke="rgb(153, 153, 153)" stroke-width="1.5px"></line></g></g><g><g><line x1="22.337239583333332" y1="0" x2="22.337239583333332" y2="177" fill="rgb(0, 0, 0)" stroke="rgb(153, 153, 153)" stroke-width="1.5px"></line></g></g><g><g><g><g><g><path stroke="rgb(255, 112, 67)" stroke-width="2px" d="M22.761647135416666,177.78973736462763L23.208391927083333,119.03142708036891L23.655136718749997,142.48957754750612L24.101881510416668,139.15874191050582L24.548626302083335,174.09607059675733L24.99537109375,163.40262266953883L25.442115885416666,192.29288230697713L25.888860677083333,165.4169155233288L26.33560546875,192.07710585709552L31.24979817708333,189.20900756138565L31.69654296875,173.1844348586106L32.14328776041667,189.12298861481807L33.93026692708333,186.5431328854651L34.37701171875,169.40286430260554L34.82375651041667,147.04172576727987L35.27050130208333,148.128894474091L35.71724609375,158.04819122265835L36.163990885416666,161.77267310050905L36.61073567708333,168.59271221399314L37.05748046875,170.18535467840445L37.50422526041667,159.34317309881243L37.950970052083335,149.8119528450704L38.397714843749995,140.43117703014994L38.84445963541667,156.82590528477658L39.291204427083336,156.14371422978274L39.737949218749996,161.40643431160214L40.18469401041667,147.7216512733867L40.63143880208333,149.71884051485372L41.07818359375,139.35862612976234L41.52492838541667,130.75972379878448L41.97167317708333,120.01511164005258L42.41841796875,123.3788443191667L42.86516276041667,117.36898171142957L43.31190755208333,131.18644251231913L43.75865234375,129.67129040532112L44.20539713541666,132.95312415653171L44.652141927083335,131.74721677147986L45.09888671875,145.44494090860755L45.54563151041666,134.15603476439003L45.992376302083336,124.67526547855854L46.439121093749996,129.33352069779826L46.88586588541666,129.9899419810041L47.33261067708334,123.46243457772457L47.77935546875,134.9855892907942L48.226100260416665,121.71638529313047L48.67284505208334,129.50247189896436L49.11958984375,132.19245035553342L49.566334635416666,143.4542987834195L50.01307942708333,145.12854513602372L50.45982421875,142.94030391672143L50.90656901041667,134.5220686214302L51.353313802083335,136.1576226273051L51.80005859375,139.9815865635021L52.24680338541666,132.5921091135801L52.693548177083336,112.87315975299089L53.14029296875,102.74378955980012L53.58703776041666,86.34918880927637L54.03378255208334,76.30933486650929L54.48052734375,68.78850182043689L54.927272135416665,66.81336169142715L55.37401692708333,61.838794964319796L55.82076171875,59.27231966212068L56.267506510416666,66.30611262773469L56.71425130208333,62.636317532123456L57.16099609375,58.250483614450395L57.60774088541667,68.39908215902072L58.05448567708333,72.20783512562144L58.50123046875,70.16087774620385L58.94797526041667,76.02213363984981L59.39472005208333,74.58980973243614L59.84146484375,76.54006535017903L60.28820963541666,91.50554183148552L60.73495442708333,72.46302507898112L61.181699218750005,74.48118361655015L61.628444010416665,60.87204575830094L62.07518880208333,64.29987669410372L62.521933593750006,65.06824220342602L62.968678385416666,54.76594065883689L63.41542317708333,54.30613097114144L63.86216796875,38.88669562738033L64.30891276041666,50.041683172118084L64.75565755208333,49.29676831776743L65.20240234375,48.5805790922913L65.64914713541667,52.55607462412776L66.09589192708333,61.040126287327396L66.54263671875,51.0594885277358L66.98938151041666,60.84596734002951L67.43612630208334,69.42198737459644L67.88287109375,67.08274819633502L68.32961588541667,63.923160434956294L68.77636067708333,57.583873565316985L69.22310546874999,44.49023165278664L69.66985026041667,42.02148904342531L70.11659505208334,34.87453492323252L70.56333984375,31.200135472219703L71.01008463541667,39.504079686663886L71.45682942708333,32.73787210132676L71.90357421875,30.28426150893862L72.35031901041667,25.322178864645466L72.79706380208333,18.05863125493063L73.24380859375,5.468982762664732L73.69055338541666,5.342202685864091L74.13729817708334,10.15892818039373L74.58404296875,16.129315899153127L75.03078776041666,17.40797296582851L75.47753255208333,19.061719724508645L75.92427734375,11.328679268238728L76.37102213541667,24.33347752703956L76.81776692708334,27.140867301441055L77.26451171875,22.269124011710122L77.71125651041666,8.491390038449824L78.15800130208333,8.850606461893546L78.60474609375001,12.581123436101775L79.05149088541667,2.5621451899438057L79.49823567708333,5.305849431622548L79.94498046875,0.7387679417456421L80.39172526041666,-0.7903282521976602L80.83847005208332,3.2730021857593252L81.28521484375001,14.835734199589632L81.73195963541667,18.04160308403752L82.17870442708333,20.13484129005566L82.62544921875,14.125356507685542L83.07219401041667,17.371122454386466L83.51893880208333,9.83539755765651L83.96568359374999,13.481753323152397L84.41242838541667,14.327806354796135L84.85917317708333,23.59637257270883L85.30591796875,27.568542527870186L85.75266276041667,29.471307542244453L86.19940755208333,27.951628892668634L86.64615234374999,33.2372558497132L87.09289713541668,26.87826941851497L87.53964192708334,24.022783855805905L87.98638671875,27.158528358046766L88.43313151041667,22.15963176332801L88.87987630208333,21.765093988235552L89.32662109374999,26.63303640762774L89.77336588541667,32.20970431737806L90.22011067708334,28.051926010895603L90.66685546875,17.823964896204682L91.11360026041666,21.82753421202587L91.56034505208333,21.70692257093224L92.00708984375,16.52192094176664L92.45383463541665,20.268754915671327L92.90057942708334,13.072165327141057L93.34732421875,13.899147269073971L93.79406901041666,24.166479183077566L94.24081380208334,23.590211567651323L94.68755859375,31.752340194521327L95.13430338541666,36.149216934036076L95.58104817708333,30.61376836920466L96.02779296875,22.418152041115416L96.47453776041667,38.1981919612172L96.92128255208333,43.03584339078542L97.36802734375,42.09283600539753L97.81477213541666,49.71552471275243L98.26151692708333,37.785493284170364L98.70826171875001,35.368493911837746L99.15500651041667,29.570264094830254L99.60175130208333,21.39458933224871L100.04849609375,13.063207344788617L100.49524088541666,21.594183772086335L100.94198567708334,27.766671084230524L101.38873046875,31.03150863028486L101.83547526041667,26.092864185912784L102.28222005208333,39.342247308259715L102.72896484374999,38.697580311515765L103.17570963541667,18.866640269744476L103.62245442708334,19.084801662788127L104.06919921875,12.732027242610812L104.51594401041667,14.676703652803031L104.96268880208333,25.805380990158195L105.40943359375,15.021074622797885L105.85617838541667,22.30510402462834L106.30292317708333,25.296704418232952L106.74966796875,33.90135959771001L107.19641276041666,38.27845693936124L107.64315755208334,40.50378244826765L108.08990234375,41.43036764723487L108.53664713541666,44.57116216673384L108.98339192708333,42.7486055615669L109.43013671875,55.587093454190686L109.87688151041667,65.85775969469026L110.32362630208334,59.73574440634291L110.77037109375,62.87587621096221L111.21711588541666,63.41092565347061L111.66386067708333,71.27849668734213L112.11060546875001,82.32097580231576L112.55735026041667,88.35630544283823L113.00409505208333,75.92757402968157L113.45083984375,74.23447621203137L113.89758463541666,78.84908667663491L114.34432942708332,74.59820275886675L114.79107421875001,63.3633728597196L115.23781901041667,53.78015126710517L115.68456380208333,51.28110459920901L116.13130859375,56.924952861096784L116.57805338541667,58.83701832009256L117.02479817708333,55.350799520462324L117.47154296874999,54.59728780942598L117.91828776041667,60.654577895814086L118.36503255208333,55.82446545140003L118.81177734375,52.77384767895847L119.25852213541667,52.177401524420574L119.70526692708333,60.20041318750896L120.15201171874999,60.10796263828034L120.59875651041668,60.49738055184952L121.04550130208334,57.8945713969821L121.49224609375,58.18467809554368L121.93899088541667,58.43522410212024L122.38573567708333,43.58146338351677L122.83248046874999,53.54167449534368L123.27922526041667,54.95262890517343L123.72597005208334,51.087528354930356L124.17271484375,48.49435725830867L124.61945963541666,45.279031339405684L125.06620442708333,48.827063938869415L125.51294921875,55.91270635819377L125.95969401041665,59.50016526851478L126.40643880208334,68.84850653849729L126.85318359375,77.75549096636647L127.29992838541666,72.34183616129152L127.74667317708334,68.80087171211096L128.19341796875,74.56550406415799L128.64016276041667,77.43890161814903L129.08690755208332,78.14044413122555L129.53365234375,68.41775055358272L129.98039713541667,64.93913722300374L130.42714192708334,68.24321297049268L130.87388671875001,71.22276278056314L131.32063151041666,69.61753195270828L131.76737630208333,73.19542599094157L132.21412109375,79.29486903883789L132.66086588541665,75.41740755441216L133.10761067708333,65.49590639649396L133.55435546875,63.872278634112895L134.00110026041668,70.55766160794238L134.44784505208335,66.46542233383879L134.89458984375,57.278337360803185L135.34133463541667,54.08725574139617L135.78807942708335,49.80212440362237L136.23482421875,50.619139626063216L136.68156901041667,47.9883896420293L137.1283138020833,60.09097554475819L137.57505859375,58.516077961241095L138.02180338541666,54.82605470333419L138.4685481770833,51.13468403619673L138.91529296875,53.33566835226747L139.36203776041668,54.877365607341694L139.80878255208333,56.39622332899733L140.25552734375,57.84460628255372L140.70227213541668,61.551261355499065L141.14901692708332,58.30248977841516L141.59576171875,59.634465492680704L142.04250651041667,63.96002402626014L142.48925130208332,49.146131891505796L142.93599609375,49.64754769071674L143.38274088541667,61.480071486817224L143.8294856770833,61.03333075802299L144.27623046875001,67.91350479091084L144.7229752604167,75.42604064790952L145.16972005208333,85.57933965786214L145.61646484375,82.99098554966318L146.06320963541668,90.82653625355009L146.50995442708333,79.77801717709596L146.95669921875,77.08702426008334L147.40344401041668,84.98707886503963L147.85018880208332,81.81060147851838L148.29693359375,84.2471180609179L148.74367838541664,82.24362376791021L149.19042317708332,82.01154424066945L149.63716796875002,81.80012307747256L150.08391276041667,76.734634848094L150.53065755208334,79.03141631930121L150.97740234375001,78.76608558519834L151.42414713541666,81.15639739654215L151.87089192708333,88.44080008347433L152.31763671875,72.60594062757082L152.76438151041665,72.94354212956061L153.21112630208333,74.13969556101945L153.65787109375,75.83246923335321L154.10461588541665,71.72154159707931L154.55136067708332,68.51090245869574L154.99810546875,79.26134533965737L155.44485026041667,85.09135757640752L155.89159505208335,83.95775037487512L156.33833984375002,82.93137608897833L156.78508463541667,79.0240138494861L157.23182942708334,81.70549945746883L157.67857421875001,82.53774864716857L158.12531901041666,78.7824409715252L158.57206380208333,84.69726872252673L159.01880859375,86.8795556110794L159.46555338541665,84.25038034462821L159.91229817708333,90.6782430059661L160.35904296874997,92.97746900739811L160.80578776041665,92.16433053036819L161.25253255208335,94.11929761904747L161.69927734375,89.55169114653711L162.14602213541667,87.6969323860208L162.59276692708335,92.15688706397438L163.03951171875,92.51885061525765L163.48625651041667,91.48648708817481L163.93300130208334,92.37307147166521L164.37974609375,88.79090956432866L164.82649088541666,85.70423721894568L165.27323567708333,76.12574938796394L165.71998046874998,79.46843980427788L166.16672526041665,74.7877852619548L166.61347005208336,72.54863056250133L167.06021484375,75.27491415179718L167.50695963541668,81.76833110425129L167.95370442708335,85.38389002120442L168.40044921875,86.031976039731L168.84719401041667,93.14146197634037L169.29393880208335,94.82281188485408L169.74068359375,96.09894143030684L170.18742838541667,96.49932957725798L170.6341731770833,98.59295962784053L171.08091796875,93.70298713326487L171.52766276041666,89.1174568344357L171.9744075520833,87.06736571275019L172.42115234375,91.36075253501079L172.86789713541668,86.52867239607451L173.31464192708333,86.02367445730935L173.76138671875,85.50466292712483L174.20813151041668,83.07014046561773L174.65487630208332,89.33078968333051L175.10162109375,86.92669670409133L175.54836588541667,82.035559761162L175.99511067708332,88.89932488885704L176.44185546875,92.6317722513126L176.88860026041667,93.66120469991986L177.3353450520833,97.55495795987208L177.78208984375001,94.74840936704416L178.2288346354167,103.68578284064489L178.67557942708333,98.85595667731373L179.12232421875,100.15775322650325L179.56906901041668,106.45925683737791L180.01581380208333,102.96604324246348L180.46255859375,111.75827899752476L180.90930338541668,117.31877691011199L181.35604817708332,118.33255607897559L181.80279296875,114.7045706839667L182.24953776041664,109.37918429952622L182.69628255208332,105.43150761766816L183.14302734375002,105.08989346364373L183.58977213541667,101.32015204732923L184.03651692708334,106.90919885908346L184.48326171875001,108.22004498131382L184.93000651041666,113.41952317137093L185.37675130208333,108.81652865867527L185.82349609375,105.94737072641291L186.27024088541665,100.24748275746092L186.71698567708333,106.36075095596176L187.16373046875,98.26759973998894L187.61047526041665,93.20803360196373L188.05722005208332,99.33637422966142L188.50396484375,105.67778927666416L188.95070963541667,104.62818685694751L189.39745442708335,110.64424706868134L189.84419921875002,111.39385951791832L190.29094401041667,111.6301397195575L190.73768880208334,114.21492920915344L191.18443359375001,102.21721095979262L191.63117838541666,100.9511743587856L192.07792317708333,101.6841945114081L192.52466796875,103.82010691127282L192.97141276041665,98.02952668751277L193.41815755208333,92.64416649656006L193.86490234374997,98.04781415507064L194.31164713541665,111.24752671818312L194.75839192708335,111.27310051888554L195.20513671875,113.39504384133524L195.65188151041667,112.84441338002661L196.09862630208335,116.31244531887741L196.54537109375,115.3753443028149L196.99211588541667,117.12281903019097L197.43886067708334,118.16161845675603L197.88560546875,113.9066743482783L198.33235026041666,118.22694970038245L198.77909505208333,109.19112149655865L199.22583984374998,109.78127394717963L199.67258463541665,105.63088279308701L200.11932942708336,111.85199984319645L200.56607421875,118.74420931703719L201.01281901041668,115.29847290009437L201.45956380208335,118.797606175156L201.90630859375,115.36143197865331L202.35305338541667,116.21504943595271L202.79979817708335,121.13240026556794L203.24654296875,118.53959621003277L203.69328776041667,114.26110564778152L204.1400325520833,119.94644451537646L204.58677734375,124.13301887868869L205.03352213541666,132.54959645055845L205.4802669270833,135.84835052653955L205.92701171875,126.48938767461304L206.37375651041668,122.49793702675399L206.82050130208333,125.79039125722794L207.26724609375,122.41036409511105L207.71399088541668,122.11203115320743L208.16073567708332,125.89013315859329L208.60748046875,113.83633055349794L209.05422526041667,107.58910694176495L209.50097005208332,108.29393750239491L209.94771484375,112.51605740614902L210.39445963541667,118.16964816535861L210.8412044270833,124.7773116184951L211.28794921875001,129.0482410031868L211.7346940104167,112.72073406323614L212.18143880208333,114.18419828723218L212.62818359375,115.96754794159831L213.07492838541668,120.01975455438456L213.52167317708333,121.91943704982424L213.96841796875,116.45788804799162L214.41516276041668,119.0349174509332L214.86190755208332,115.89810655443824L215.30865234375,114.43461964066886L215.75539713541664,114.79288647356098L216.20214192708332,118.34592802330067L216.64888671875002,117.46034089628648L217.09563151041667,117.29331584486778L217.54237630208334,125.27523608249508L217.98912109375001,134.13436935164412L218.43586588541666,127.1750923736502L218.88261067708333,131.45940904709187L219.32935546875,124.80820172630979L219.77610026041665,127.18714855554609L220.22284505208333,124.6461184660457L220.66958984375,126.48179715632165L221.11633463541665,125.48514908932529L221.56307942708332,123.68343988999311L222.00982421875,119.25412751386688L222.45656901041667,121.03230483964207L222.90331380208335,128.0454455968897L223.35005859375002,125.04592385505077L223.79680338541667,120.24282054258383L224.24354817708334,125.15714339154663L224.69029296875001,117.67876499656778L225.13703776041666,114.30525027302454L225.58378255208333,120.02209750343152L226.03052734375,111.9795125621151L226.47727213541665,110.60288390793724L226.92401692708333,105.55314462731761L227.37076171874997,113.64787284449179L227.81750651041665,116.97555558605887L228.26425130208335,119.54547999552388L228.71099609375,123.92932855711724L229.15774088541667,123.02458663248738L229.60448567708335,123.7874153327679L230.05123046875,115.37449674651637L230.49797526041667,117.28379686038743L230.94472005208334,117.04809186483372L231.39146484375,127.87180801294707L231.83820963541666,126.59877119716214L232.28495442708333,127.78959542145917L232.73169921874998,127.33419514564204L233.17844401041665,130.99506972611712L233.62518880208336,140.02631269139738L234.07193359375,135.24883985736392L234.51867838541668,134.70966969327708L234.96542317708335,137.91693308111942L235.41216796875,130.67465763828375L235.85891276041667,135.72937738485237L236.30565755208335,135.00723626840505L236.75240234375,141.49362556304092L237.19914713541667,144.67889815716936L237.6458919270833,138.11754588617978L238.09263671875,142.18436800540175L238.53938151041666,138.70544860751045L238.9861263020833,139.8989279686566L239.43287109375,140.65096721820444L239.87961588541668,137.94355765377654L240.32636067708333,140.0479790275857L240.77310546875,134.30012007107425L241.21985026041668,126.8486818154164L241.66659505208332,128.69505294676188L242.11333984375,136.32388387485355L242.56008463541667,136.46867196885356L243.00682942708332,139.3855146389688L243.45357421875,135.8141702969209L243.90031901041667,137.46739772194638L244.3470638020833,132.02215315610772L244.79380859375001,133.0011010442133L245.2405533854167,144.88105773096885L245.68729817708333,144.2490426048541" style="fill: none;" fill="none"></path></g></g></g></g><g opacity="0.2"><g><g><g><path stroke="rgb(255, 112, 67)" stroke-width="2px" d="M23.655136718749997,215.09489905834198L24.101881510416668,126.88264739513397L24.548626302083335,321.4278687238693L24.99537109375,113.1933782696724L25.442115885416666,340.37843388319016L25.888860677083333,17.24391621351242L26.33560546875,348.35631665587425L27.229095052083334,489.6199699938297L27.675839843749998,104.03631073236465L28.12258463541667,14.764924764633179L28.569329427083336,380.17997485399246L29.01607421875,283.95115700364113L29.462819010416666,18.548162698745728L29.909563802083333,194.56165474653244L31.24979817708333,-5.981166243553162L31.69654296875,43.165760159492486L32.14328776041667,319.85635501146317L32.590032552083336,146.05054301023483L33.036777343749996,276.88422468304634L33.48352213541666,148.56795412302017L33.93026692708333,161.48733538389206L34.37701171875,23.213734149932847L34.82375651041667,-44.72937542200091L35.27050130208333,157.49863576889038L35.71724609375,243.91588908433914L37.05748046875,184.1204736828804L37.50422526041667,64.20610886812209L37.950970052083335,65.96347880363463L38.397714843749995,57.71599900722502L38.84445963541667,301.6859200298786L39.291204427083336,150.1048285961151L39.737949218749996,208.070826202631L40.18469401041667,26.19701665639876L40.63143880208333,167.47834128141403L41.07818359375,47.121403038501725L41.52492838541667,54.12011188268661L41.97167317708333,24.157609462738037L42.41841796875,153.41463428735733L42.86516276041667,63.66260689496993L43.31190755208333,254.75234431028366L43.75865234375,116.11300897598265L44.20539713541666,162.3374034166336L44.652141927083335,120.9443916082382L45.09888671875,268.2098206579685L45.54563151041666,32.93760162591934L45.992376302083336,39.63686567544937L46.439121093749996,171.1302314400673L46.88586588541666,135.8815525174141L47.33261067708334,64.85968273878096L47.77935546875,238.4639014005661L48.226100260416665,2.531998276710497L48.67284505208334,199.45132625102997L49.11958984375,156.36310172080994L49.566334635416666,244.6634021103382L50.01307942708333,160.17702263593674L50.45982421875,123.26935273408888L50.90656901041667,58.83834552764892L51.353313802083335,150.86355102062225L51.80005859375,174.36768156290054L52.24680338541666,66.13825750350952L52.693548177083336,-64.47382974624635L53.14029296875,11.63657945394516L53.58703776041666,-61.119010627269745L54.03378255208334,-14.003490984439876L54.48052734375,1.131922423839569L54.927272135416665,49.0444083213806L55.37401692708333,17.084259212017052L55.82076171875,36.181733429431915L56.267506510416666,129.59127765893936L56.71425130208333,29.61707007884978L57.16099609375,18.78756028413772L57.60774088541667,159.71651417016983L58.05448567708333,106.47987169027328L58.50123046875,51.741521477699266L58.94797526041667,128.76503509283066L59.39472005208333,61.700742363929734L59.84146484375,94.09010154008864L60.28820963541666,226.1791918873787L60.73495442708333,-98.90171694755556L61.181699218750005,92.64290225505827L61.628444010416665,-61.59982788562775L62.07518880208333,95.1480050086975L62.521933593750006,71.9830576777458L62.968678385416666,-37.94905203580856L63.41542317708333,50.16807359457015L63.86216796875,-99.88128650188447L64.30891276041666,150.43205511569977L64.75565755208333,42.59280604124068L65.20240234375,42.135110914707184L65.64914713541667,88.33436113595963L66.09589192708333,137.39433777332306L66.54263671875,-38.763865411281614L66.98938151041666,148.92217111587524L67.43612630208334,146.6045070886612L67.88287109375,46.03000324964522L68.32961588541667,35.48736613988875L68.77636067708333,0.5311865806579459L69.22310546874999,-73.3508821129799L69.66985026041667,19.803087830543518L70.11659505208334,-29.447316706180573L70.56333984375,-1.8691192865371966L71.01008463541667,114.23888546228409L71.45682942708333,-28.157488584518447L71.90357421875,8.20193183422088L72.35031901041667,-19.336263418197657L73.24380859375,-107.83723402023318L73.69055338541666,4.201187610626221L74.13729817708334,53.50926560163497L74.58404296875,69.86259114742279L75.03078776041666,28.915845274925225L75.47753255208333,33.94539248943329L75.92427734375,-58.26848256587985L76.37102213541667,141.37635570764542L76.81776692708334,52.40731579065322L77.26451171875,-21.57647269964218L77.71125651041666,-115.5079792737961L78.15800130208333,12.08354872465133L78.60474609375001,46.155724346637726L79.05149088541667,-87.608533680439L79.49823567708333,29.999156713485718L79.94498046875,-40.36491918563844L80.39172526041666,-14.552180051803601L80.83847005208332,39.84294277429579L81.28521484375001,118.90023690462112L81.73195963541667,46.894401729106896L82.17870442708333,38.97397261857986L82.62544921875,-39.95997416973117L83.07219401041667,46.58300024271011L83.51893880208333,-57.98609364032747L83.96568359374999,46.298940896987915L84.41242838541667,21.942280650138848L84.85917317708333,107.01343905925751L85.30591796875,63.31806075572966L85.75266276041667,46.59618777036667L86.19940755208333,14.274524569511406L86.64615234374999,80.8078874349594L87.09289713541668,-30.35259652137759L87.53964192708334,-1.676581382751491L87.98638671875,55.38022410869597L88.43313151041667,-22.830430746078516L88.87987630208333,18.21425449848175L89.32662109374999,70.44451278448105L89.77336588541667,82.39970993995667L90.22011067708334,-9.368075013160732L90.66685546875,-74.22767686843872L91.11360026041666,57.859655141830444L91.56034505208333,20.62141788005828L92.00708984375,-30.143090665340424L92.45383463541665,53.990258693695054L92.90057942708334,-51.697137534618406L93.34732421875,21.341984391212456L93.79406901041666,116.57246243953703L94.24081380208334,18.403803229331963L94.68755859375,105.21149528026581L95.13430338541666,75.7211063504219L95.58104817708333,-19.20526731014253L96.47453776041667,180.21854799985886L96.92128255208333,86.57470536231995L97.36802734375,33.60576969385146L97.81477213541666,118.31972193717957L98.26151692708333,-69.58478796482088L98.70826171875001,13.61549985408783L99.15500651041667,-22.61380362510681L100.04849609375,-61.91922980546951L100.49524088541666,98.37297093868256L100.94198567708334,83.31905645132063L101.38873046875,60.415046334266655L101.83547526041667,-18.354935526847854L102.28222005208333,158.58669471740723L102.72896484374999,32.895577371120446L103.17570963541667,-159.61181926727295L103.62245442708334,21.048254191875458L104.06919921875,-44.442942321300535L104.51594401041667,32.17879128456116L104.96268880208333,125.96347671747208L105.40943359375,-82.0376824140549L105.85617838541667,87.8613684773445L106.30292317708333,52.22110790014266L106.74966796875,111.34325605630875L107.19641276041666,77.67233294248581L107.64315755208334,60.531711995601654L108.08990234375,49.769634425640106L108.53664713541666,72.83831280469894L108.98339192708333,26.34559613466262L109.43013671875,171.1334843635559L109.87688151041667,158.29375576972961L110.32362630208334,4.637606859207147L110.77037109375,91.13706243038177L111.21711588541666,68.22637063264847L111.66386067708333,142.08663594722748L112.11060546875001,181.70328778028488L112.55735026041667,142.67427217960358L113.00409505208333,-35.93100863695146L113.45083984375,58.99659585952758L113.89758463541666,120.38058084249496L114.34432942708332,36.34024751186371L114.79107421875001,-37.75009620189668L115.23781901041667,-32.468843042850494L115.68456380208333,28.789684593677507L116.13130859375,107.71958720684052L116.57805338541667,76.04560744762419L117.02479817708333,23.974830329418182L117.47154296874999,47.81568241119384L117.91828776041667,115.17018866539001L118.36503255208333,12.3534534573555L118.81177734375,25.318287730216973L119.25852213541667,46.80938613414763L119.70526692708333,132.40751814842224L120.15201171874999,59.27590769529342L120.59875651041668,64.00214177370071L121.04550130208334,34.46928900480269L121.49224609375,60.79563838243484L121.93899088541667,60.6901381611824L122.38573567708333,-90.10238307714465L122.83248046874999,143.18357449769974L123.27922526041667,67.65121859312056L123.72597005208334,16.301623404026017L124.17271484375,25.155817389488213L124.61945963541666,16.341098070144653L125.06620442708333,80.75935733318327L125.51294921875,119.68348813056946L125.95969401041665,91.78729546070097L126.40643880208334,152.98357796669006L126.85318359375,157.918350815773L127.29992838541666,23.618942916393273L127.74667317708334,36.932191669940934L128.19341796875,126.44719523191452L128.64016276041667,103.29947960376738L129.08690755208332,84.45432674884796L129.53365234375,-19.0864916443825L129.98039713541667,33.631617248058305L130.42714192708334,97.97989469766615L130.87388671875001,98.03871107101439L131.32063151041666,55.17045450210571L131.76737630208333,105.39647233486176L132.21412109375,134.1898564696312L132.66086588541665,40.52025419473647L133.10761067708333,-23.797604024410273L133.55435546875,49.25962877273558L134.00110026041668,130.72610837221146L134.44784505208335,29.635268867015824L134.89458984375,-25.40542739629748L135.34133463541667,25.36752116680144L135.78807942708335,11.235942363739014L136.23482421875,57.972276628017426L136.68156901041667,24.3116397857666L137.1283138020833,169.0142486691475L137.57505859375,44.341999709606156L138.02180338541666,21.615845382213593L138.4685481770833,17.912348031997666L138.91529296875,73.14452719688416L139.36203776041668,68.75264090299605L139.80878255208333,70.06594282388687L140.25552734375,70.88005286455153L140.70227213541668,94.91115701198576L141.14901692708332,29.063545584678643L141.59576171875,71.62224692106246L142.04250651041667,102.89005082845688L142.48925130208332,-84.17889732122423L142.93599609375,54.160289883613586L143.38274088541667,167.9727856516838L143.8294856770833,57.01266419887542L144.27623046875001,129.83507108688354L144.7229752604167,143.0388633608818L145.16972005208333,176.95903074741364L145.61646484375,59.695798575878136L146.06320963541668,161.34649258852005L146.50995442708333,-19.6586545109749L146.95669921875,52.86808800697326L147.40344401041668,156.08757030963898L147.85018880208332,53.22230499982833L148.29693359375,106.17576730251312L148.74367838541664,64.2121751308441L149.19042317708332,79.92282849550247L149.63716796875002,79.8973326086998L150.08391276041667,31.145240783691392L150.53065755208334,99.70244956016539L150.97740234375001,76.37810897827148L151.42414713541666,102.6692036986351L151.87089192708333,154.0004242658615L152.31763671875,-69.90779447555545L152.76438151041665,75.98195564746857L153.21112630208333,84.90507644414902L153.65787109375,91.06743228435516L154.10461588541665,34.72319287061691L154.55136067708332,39.61515021324157L154.99810546875,176.01533126831055L155.44485026041667,137.56146770715714L155.89159505208335,73.75528556108475L156.33833984375002,73.69400751590727L156.78508463541667,43.85775369405745L157.23182942708334,105.83886992931365L157.67857421875001,90.02799135446548L158.12531901041666,44.984671890735626L158.57206380208333,137.93071848154068L159.01880859375,106.52013760805129L159.46555338541665,60.58780294656753L159.91229817708333,148.5290069580078L160.35904296874997,113.67050302028656L160.80578776041665,84.8460842370987L161.25253255208335,111.71400141716003L161.69927734375,48.44323289394379L162.14602213541667,71.0041035413742L162.59276692708335,132.29647916555405L163.03951171875,95.77652257680892L163.48625651041667,82.195215344429L163.93300130208334,100.35233092308043L164.37974609375,56.55145239830017L164.82649088541666,57.924186110496514L165.27323567708333,-10.080641090869904L165.71998046874998,109.55265355110168L166.16672526041665,32.66189438104629L166.61347005208336,52.396238267421715L167.06021484375,99.8114664554596L167.50695963541668,140.2090836763382L167.95370442708335,117.92392027378081L168.40044921875,91.86475020647049L168.84719401041667,157.12683540582657L169.29393880208335,109.95496106147765L169.74068359375,107.58410733938216L170.18742838541667,100.1028228998184L170.6341731770833,117.4356300830841L171.08091796875,49.693234682083116L171.52766276041666,47.847684144973755L171.9744075520833,68.6165456175804L172.42115234375,130.00123393535614L172.86789713541668,43.03995114564895L173.31464192708333,81.47869300842285L173.76138671875,80.83355915546417L174.20813151041668,61.15943831205368L174.65487630208332,145.67663264274597L175.10162109375,65.28985989093779L175.54836588541667,38.01532727479935L175.99511067708332,150.67321103811264L176.44185546875,126.22379851341248L176.88860026041667,102.9260967373848L177.3353450520833,132.5987372994423L177.78208984375001,69.48947203159332L178.2288346354167,184.12214410305023L178.67557942708333,55.38752120733261L179.12232421875,111.87392216920853L179.56906901041668,163.17278933525085L180.01581380208333,71.52712088823318L180.46255859375,190.88840079307556L180.90930338541668,167.36325812339783L181.35604817708332,127.45656859874725L181.80279296875,82.05270212888718L182.24953776041664,61.45070683956145L182.69628255208332,69.90241748094559L183.14302734375002,102.0153660774231L183.58977213541667,67.39247930049895L184.03651692708334,157.21062016487122L184.48326171875001,120.01766008138657L184.93000651041666,160.21482688188553L185.37675130208333,67.3895780444145L185.82349609375,80.12494933605194L186.27024088541665,48.94849103689193L186.71698567708333,161.3801647424698L187.16373046875,25.429238796234117L187.61047526041665,47.67193835973739L188.05722005208332,154.49143987894058L188.50396484375,162.75052469968796L188.95070963541667,95.18176507949828L189.39745442708335,164.78878897428513L189.84419921875002,118.14037156105042L190.29094401041667,113.75666153430937L190.73768880208334,137.47803461551666L191.18443359375001,-5.762253284454346L191.63117838541666,89.55684494972229L192.07792317708333,108.28137588500977L192.52466796875,123.04331851005553L192.97141276041665,45.914304673671715L193.41815755208333,44.17592477798461L193.86490234374997,146.68064308166504L194.31164713541665,230.04493978619578L194.75839192708335,111.50326472520828L195.20513671875,132.4925337433815L195.65188151041667,107.88873922824858L196.09862630208335,147.5247327685356L196.54537109375,106.94143515825272L196.99211588541667,132.85009157657623L197.43886067708334,127.51081329584122L197.88560546875,75.61217737197876L198.33235026041666,157.10942786931992L198.77909505208333,27.868667662143693L199.22583984374998,115.09264600276947L199.67258463541665,68.2773624062538L200.11932942708336,167.84205329418182L200.56607421875,180.774094581604L201.01281901041668,84.28684514760971L201.45956380208335,150.28980565071106L201.90630859375,84.43586421012878L202.35305338541667,123.89760655164717L202.79979817708335,165.38855773210526L203.24654296875,95.20435971021652L203.69328776041667,75.75469058752059L204.1400325520833,171.11449432373047L204.58677734375,161.81218814849854L205.03352213541666,208.2987945973873L205.4802669270833,165.5371372103691L205.92701171875,42.25872200727462L206.37375651041668,86.57488119602203L206.82050130208333,155.42247933149338L207.26724609375,91.9901196360588L207.71399088541668,119.42703467607497L208.16073567708332,159.89305120706558L208.60748046875,5.3521071076393065L209.05422526041667,51.364094436168656L209.50097005208332,114.63741254806519L209.94771484375,150.51513653993607L210.39445963541667,169.05196499824524L210.8412044270833,184.24628269672394L211.28794921875001,167.48660546541214L211.7346940104167,-34.22682839632037L212.18143880208333,127.35537630319594L212.62818359375,132.01769483089447L213.07492838541668,156.48961406946182L213.52167317708333,139.01657950878143L213.96841796875,67.30394703149796L214.41516276041668,142.22818207740784L214.86190755208332,87.6668084859848L215.30865234375,101.26323741674423L215.75539713541664,118.01728796958922L216.20214192708332,150.3233019709587L216.64888671875002,109.49005675315857L217.09563151041667,115.79009038209915L217.54237630208334,197.1125182211399L217.98912109375001,213.8665687739849L218.43586588541666,64.54159957170485L218.88261067708333,170.01825910806656L219.32935546875,64.94733583927155L219.77610026041665,148.59767001867294L220.22284505208333,101.77684766054152L220.66958984375,143.00290536880493L221.11633463541665,116.51531648635864L221.56307942708332,107.46805709600447L222.00982421875,79.39031612873077L222.45656901041667,137.0359007716179L222.90331380208335,191.1637124121189L223.35005859375002,98.05022817850113L223.79680338541667,77.014890730381L224.24354817708334,169.3860490322113L224.69029296875001,50.3733594417572L225.13703776041666,83.94361776113509L225.58378255208333,171.47372257709503L226.03052734375,39.59624809026718L226.47727213541665,98.21322602033615L226.92401692708333,60.10549110174179L227.37076171874997,186.5004267990589L227.81750651041665,146.92470026016235L228.26425130208335,142.67479968070984L228.71099609375,163.38396561145782L229.15774088541667,114.88190931081772L229.60448567708335,130.65287363529205L230.05123046875,39.65822947025299L230.49797526041667,134.4674978852272L230.94472005208334,114.92674690485L231.39146484375,225.28525334596634L231.83820963541666,115.14143985509872L232.28495442708333,138.50701344013214L232.73169921874998,123.2355926632881L233.17844401041665,163.94294095039368L233.62518880208336,221.3074993789196L234.07193359375,92.25158435106277L234.51867838541668,129.8571382164955L234.96542317708335,166.78230357170105L235.41216796875,65.49417865276337L235.85891276041667,181.22185510396957L236.30565755208335,128.50796622037888L236.75240234375,199.87112921476364L237.19914713541667,173.34635150432587L237.6458919270833,79.06537544727325L238.09263671875,178.78576707839966L238.53938151041666,107.39517402648926L238.9861263020833,150.64024221897125L239.43287109375,147.41932046413422L239.87961588541668,113.57687157392502L240.32636067708333,158.9877713918686L240.77310546875,82.56938946247101L241.21985026041668,59.78573751449584L241.66659505208332,145.31239312887192L242.11333984375,204.9833622276783L242.56008463541667,137.77176481485367L243.00682942708332,165.6370986700058L243.45357421875,103.6720712184906L243.90031901041667,152.34644454717636L244.3470638020833,83.01495206356047L244.79380859375001,141.81163203716278L245.2405533854167,251.800667911768L245.68729817708333,138.56090646982193" style="fill: none;" fill="none"></path></g></g></g></g></g></g><g transform="translate(61, 177)" clip-path="url(#clip_1)"><clipPath id="clip_1"><rect width="268" height="23"></rect></clipPath><g><g><line x1="0" y1="0" x2="0" y2="5" style="visibility: inherit;" fill="rgb(0, 0, 0)" stroke="rgb(204, 204, 204)" stroke-width="1px"></line><line x1="22.337239583333332" y1="0" x2="22.337239583333332" y2="5" style="visibility: inherit;" fill="rgb(0, 0, 0)" stroke="rgb(204, 204, 204)" stroke-width="1px"></line><line x1="44.674479166666664" y1="0" x2="44.674479166666664" y2="5" style="visibility: inherit;" fill="rgb(0, 0, 0)" stroke="rgb(204, 204, 204)" stroke-width="1px"></line><line x1="67.01171875" y1="0" x2="67.01171875" y2="5" style="visibility: inherit;" fill="rgb(0, 0, 0)" stroke="rgb(204, 204, 204)" stroke-width="1px"></line><line x1="89.34895833333333" y1="0" x2="89.34895833333333" y2="5" style="visibility: inherit;" fill="rgb(0, 0, 0)" stroke="rgb(204, 204, 204)" stroke-width="1px"></line><line x1="111.68619791666667" y1="0" x2="111.68619791666667" y2="5" style="visibility: inherit;" fill="rgb(0, 0, 0)" stroke="rgb(204, 204, 204)" stroke-width="1px"></line><line x1="134.0234375" y1="0" x2="134.0234375" y2="5" style="visibility: inherit;" fill="rgb(0, 0, 0)" stroke="rgb(204, 204, 204)" stroke-width="1px"></line><line x1="156.36067708333334" y1="0" x2="156.36067708333334" y2="5" style="visibility: inherit;" fill="rgb(0, 0, 0)" stroke="rgb(204, 204, 204)" stroke-width="1px"></line><line x1="178.69791666666666" y1="0" x2="178.69791666666666" y2="5" style="visibility: inherit;" fill="rgb(0, 0, 0)" stroke="rgb(204, 204, 204)" stroke-width="1px"></line><line x1="201.03515625" y1="0" x2="201.03515625" y2="5" style="visibility: inherit;" fill="rgb(0, 0, 0)" stroke="rgb(204, 204, 204)" stroke-width="1px"></line><line x1="223.37239583333334" y1="0" x2="223.37239583333334" y2="5" style="visibility: inherit;" fill="rgb(0, 0, 0)" stroke="rgb(204, 204, 204)" stroke-width="1px"></line><line x1="245.70963541666666" y1="0" x2="245.70963541666666" y2="5" style="visibility: inherit;" fill="rgb(0, 0, 0)" stroke="rgb(204, 204, 204)" stroke-width="1px"></line><line x1="268.046875" y1="0" x2="268.046875" y2="5" style="visibility: inherit;" fill="rgb(0, 0, 0)" stroke="rgb(204, 204, 204)" stroke-width="1px"></line></g><g transform="translate(0, 8)"><text x="0" y="0" dx="0em" dy="0.95em" style="text-anchor: middle; visibility: hidden; font-family: Roboto, sans-serif; font-size: 12px; font-weight: 200;" fill="rgb(33, 33, 33)" stroke="none" stroke-width="1px">-1k</text><text x="22.337239583333332" y="0" dx="0em" dy="0.95em" style="text-anchor: middle; visibility: inherit; font-family: Roboto, sans-serif; font-size: 12px; font-weight: 200;" fill="rgb(33, 33, 33)" stroke="none" stroke-width="1px">0</text><text x="44.674479166666664" y="0" dx="0em" dy="0.95em" style="text-anchor: middle; visibility: inherit; font-family: Roboto, sans-serif; font-size: 12px; font-weight: 200;" fill="rgb(33, 33, 33)" stroke="none" stroke-width="1px">1k</text><text x="67.01171875" y="0" dx="0em" dy="0.95em" style="text-anchor: middle; visibility: inherit; font-family: Roboto, sans-serif; font-size: 12px; font-weight: 200;" fill="rgb(33, 33, 33)" stroke="none" stroke-width="1px">2k</text><text x="89.34895833333333" y="0" dx="0em" dy="0.95em" style="text-anchor: middle; visibility: inherit; font-family: Roboto, sans-serif; font-size: 12px; font-weight: 200;" fill="rgb(33, 33, 33)" stroke="none" stroke-width="1px">3k</text><text x="111.68619791666667" y="0" dx="0em" dy="0.95em" style="text-anchor: middle; visibility: inherit; font-family: Roboto, sans-serif; font-size: 12px; font-weight: 200;" fill="rgb(33, 33, 33)" stroke="none" stroke-width="1px">4k</text><text x="134.0234375" y="0" dx="0em" dy="0.95em" style="text-anchor: middle; visibility: inherit; font-family: Roboto, sans-serif; font-size: 12px; font-weight: 200;" fill="rgb(33, 33, 33)" stroke="none" stroke-width="1px">5k</text><text x="156.36067708333334" y="0" dx="0em" dy="0.95em" style="text-anchor: middle; visibility: inherit; font-family: Roboto, sans-serif; font-size: 12px; font-weight: 200;" fill="rgb(33, 33, 33)" stroke="none" stroke-width="1px">6k</text><text x="178.69791666666666" y="0" dx="0em" dy="0.95em" style="text-anchor: middle; visibility: inherit; font-family: Roboto, sans-serif; font-size: 12px; font-weight: 200;" fill="rgb(33, 33, 33)" stroke="none" stroke-width="1px">7k</text><text x="201.03515625" y="0" dx="0em" dy="0.95em" style="text-anchor: middle; visibility: inherit; font-family: Roboto, sans-serif; font-size: 12px; font-weight: 200;" fill="rgb(33, 33, 33)" stroke="none" stroke-width="1px">8k</text><text x="223.37239583333334" y="0" dx="0em" dy="0.95em" style="text-anchor: middle; visibility: inherit; font-family: Roboto, sans-serif; font-size: 12px; font-weight: 200;" fill="rgb(33, 33, 33)" stroke="none" stroke-width="1px">9k</text><text x="245.70963541666666" y="0" dx="0em" dy="0.95em" style="text-anchor: middle; visibility: inherit; font-family: Roboto, sans-serif; font-size: 12px; font-weight: 200;" fill="rgb(33, 33, 33)" stroke="none" stroke-width="1px">10k</text><text x="268.046875" y="0" dx="0em" dy="0.95em" style="text-anchor: middle; visibility: hidden; font-family: Roboto, sans-serif; font-size: 12px; font-weight: 200;" fill="rgb(33, 33, 33)" stroke="none" stroke-width="1px">11k</text></g><line x1="0" y1="0" x2="268.046875" y2="0" fill="rgb(0, 0, 0)" stroke="rgb(204, 204, 204)" stroke-width="1px"></line></g></g></g></g></svg>