<svg viewBox="0 0 330 200.00001525878906" xmlns="http://www.w3.org/2000/svg"><g><g><g><g><g><line x1="41.171875" y1="177" x2="36.171875" y2="177" style="visibility: inherit;" fill="rgb(0, 0, 0)" stroke="rgb(204, 204, 204)" stroke-width="1px"></line><line x1="41.171875" y1="157.33333333333337" x2="36.171875" y2="157.33333333333337" style="visibility: inherit;" fill="rgb(0, 0, 0)" stroke="rgb(204, 204, 204)" stroke-width="1px"></line><line x1="41.171875" y1="137.66666666666666" x2="36.171875" y2="137.66666666666666" style="visibility: inherit;" fill="rgb(0, 0, 0)" stroke="rgb(204, 204, 204)" stroke-width="1px"></line><line x1="41.171875" y1="118.00000000000003" x2="36.171875" y2="118.00000000000003" style="visibility: inherit;" fill="rgb(0, 0, 0)" stroke="rgb(204, 204, 204)" stroke-width="1px"></line><line x1="41.171875" y1="98.33333333333334" x2="36.171875" y2="98.33333333333334" style="visibility: inherit;" fill="rgb(0, 0, 0)" stroke="rgb(204, 204, 204)" stroke-width="1px"></line><line x1="41.171875" y1="78.66666666666666" x2="36.171875" y2="78.66666666666666" style="visibility: inherit;" fill="rgb(0, 0, 0)" stroke="rgb(204, 204, 204)" stroke-width="1px"></line><line x1="41.171875" y1="59.00000000000001" x2="36.171875" y2="59.00000000000001" style="visibility: inherit;" fill="rgb(0, 0, 0)" stroke="rgb(204, 204, 204)" stroke-width="1px"></line><line x1="41.171875" y1="39.33333333333333" x2="36.171875" y2="39.33333333333333" style="visibility: inherit;" fill="rgb(0, 0, 0)" stroke="rgb(204, 204, 204)" stroke-width="1px"></line><line x1="41.171875" y1="19.666666666666696" x2="36.171875" y2="19.666666666666696" style="visibility: inherit;" fill="rgb(0, 0, 0)" stroke="rgb(204, 204, 204)" stroke-width="1px"></line><line x1="41.171875" y1="0" x2="36.171875" y2="0" style="visibility: inherit;" fill="rgb(0, 0, 0)" stroke="rgb(204, 204, 204)" stroke-width="1px"></line></g><g transform="translate(31.171875, 0)"><text x="0" y="177" dx="0em" dy="0.3em" style="text-anchor: end; visibility: hidden; font-family: Roboto, sans-serif; font-size: 12px; font-weight: 200;" fill="rgb(33, 33, 33)" stroke="none" stroke-width="1px">2.2</text><text x="0" y="157.33333333333337" dx="0em" dy="0.3em" style="text-anchor: end; visibility: inherit; font-family: Roboto, sans-serif; font-size: 12px; font-weight: 200;" fill="rgb(33, 33, 33)" stroke="none" stroke-width="1px">2.4</text><text x="0" y="137.66666666666666" dx="0em" dy="0.3em" style="text-anchor: end; visibility: hidden; font-family: Roboto, sans-serif; font-size: 12px; font-weight: 200;" fill="rgb(33, 33, 33)" stroke="none" stroke-width="1px">2.6</text><text x="0" y="118.00000000000003" dx="0em" dy="0.3em" style="text-anchor: end; visibility: inherit; font-family: Roboto, sans-serif; font-size: 12px; font-weight: 200;" fill="rgb(33, 33, 33)" stroke="none" stroke-width="1px">2.8</text><text x="0" y="98.33333333333334" dx="0em" dy="0.3em" style="text-anchor: end; visibility: hidden; font-family: Roboto, sans-serif; font-size: 12px; font-weight: 200;" fill="rgb(33, 33, 33)" stroke="none" stroke-width="1px">3</text><text x="0" y="78.66666666666666" dx="0em" dy="0.3em" style="text-anchor: end; visibility: inherit; font-family: Roboto, sans-serif; font-size: 12px; font-weight: 200;" fill="rgb(33, 33, 33)" stroke="none" stroke-width="1px">3.2</text><text x="0" y="59.00000000000001" dx="0em" dy="0.3em" style="text-anchor: end; visibility: hidden; font-family: Roboto, sans-serif; font-size: 12px; font-weight: 200;" fill="rgb(33, 33, 33)" stroke="none" stroke-width="1px">3.4</text><text x="0" y="39.33333333333333" dx="0em" dy="0.3em" style="text-anchor: end; visibility: inherit; font-family: Roboto, sans-serif; font-size: 12px; font-weight: 200;" fill="rgb(33, 33, 33)" stroke="none" stroke-width="1px">3.6</text><text x="0" y="19.666666666666696" dx="0em" dy="0.3em" style="text-anchor: end; visibility: hidden; font-family: Roboto, sans-serif; font-size: 12px; font-weight: 200;" fill="rgb(33, 33, 33)" stroke="none" stroke-width="1px">3.8</text><text x="0" y="0" dx="0em" dy="0.3em" style="text-anchor: end; visibility: hidden; font-family: Roboto, sans-serif; font-size: 12px; font-weight: 200;" fill="rgb(33, 33, 33)" stroke="none" stroke-width="1px">4</text></g><line x1="41.171875" y1="0" x2="41.171875" y2="177" fill="rgb(0, 0, 0)" stroke="rgb(204, 204, 204)" stroke-width="1px"></line></g></g><g transform="translate(41, 0)" clip-path="url(#clip_0)"><clipPath id="clip_0"><rect width="288" height="177"></rect></clipPath><g><g><g><line x1="0" y1="0" x2="0" y2="177" fill="rgb(0, 0, 0)" stroke="rgb(66, 66, 66)" stroke-width="1px" opacity="0.25"></line><line x1="24.069010416666664" y1="0" x2="24.069010416666664" y2="177" fill="rgb(0, 0, 0)" stroke="rgb(66, 66, 66)" stroke-width="1px" opacity="0.25"></line><line x1="48.13802083333333" y1="0" x2="48.13802083333333" y2="177" fill="rgb(0, 0, 0)" stroke="rgb(66, 66, 66)" stroke-width="1px" opacity="0.25"></line><line x1="72.20703125" y1="0" x2="72.20703125" y2="177" fill="rgb(0, 0, 0)" stroke="rgb(66, 66, 66)" stroke-width="1px" opacity="0.25"></line><line x1="96.27604166666666" y1="0" x2="96.27604166666666" y2="177" fill="rgb(0, 0, 0)" stroke="rgb(66, 66, 66)" stroke-width="1px" opacity="0.25"></line><line x1="120.34505208333334" y1="0" x2="120.34505208333334" y2="177" fill="rgb(0, 0, 0)" stroke="rgb(66, 66, 66)" stroke-width="1px" opacity="0.25"></line><line x1="144.4140625" y1="0" x2="144.4140625" y2="177" fill="rgb(0, 0, 0)" stroke="rgb(66, 66, 66)" stroke-width="1px" opacity="0.25"></line><line x1="168.48307291666669" y1="0" x2="168.48307291666669" y2="177" fill="rgb(0, 0, 0)" stroke="rgb(66, 66, 66)" stroke-width="1px" opacity="0.25"></line><line x1="192.55208333333331" y1="0" x2="192.55208333333331" y2="177" fill="rgb(0, 0, 0)" stroke="rgb(66, 66, 66)" stroke-width="1px" opacity="0.25"></line><line x1="216.62109375" y1="0" x2="216.62109375" y2="177" fill="rgb(0, 0, 0)" stroke="rgb(66, 66, 66)" stroke-width="1px" opacity="0.25"></line><line x1="240.69010416666669" y1="0" x2="240.69010416666669" y2="177" fill="rgb(0, 0, 0)" stroke="rgb(66, 66, 66)" stroke-width="1px" opacity="0.25"></line><line x1="264.7591145833333" y1="0" x2="264.7591145833333" y2="177" fill="rgb(0, 0, 0)" stroke="rgb(66, 66, 66)" stroke-width="1px" opacity="0.25"></line><line x1="288.828125" y1="0" x2="288.828125" y2="177" fill="rgb(0, 0, 0)" stroke="rgb(66, 66, 66)" stroke-width="1px" opacity="0.25"></line></g><g><line x1="0" y1="177" x2="288.828125" y2="177" fill="rgb(0, 0, 0)" stroke="rgb(66, 66, 66)" stroke-width="1px" opacity="0.25"></line><line x1="0" y1="157.33333333333337" x2="288.828125" y2="157.33333333333337" fill="rgb(0, 0, 0)" stroke="rgb(66, 66, 66)" stroke-width="1px" opacity="0.25"></line><line x1="0" y1="137.66666666666666" x2="288.828125" y2="137.66666666666666" fill="rgb(0, 0, 0)" stroke="rgb(66, 66, 66)" stroke-width="1px" opacity="0.25"></line><line x1="0" y1="118.00000000000003" x2="288.828125" y2="118.00000000000003" fill="rgb(0, 0, 0)" stroke="rgb(66, 66, 66)" stroke-width="1px" opacity="0.25"></line><line x1="0" y1="98.33333333333334" x2="288.828125" y2="98.33333333333334" fill="rgb(0, 0, 0)" stroke="rgb(66, 66, 66)" stroke-width="1px" opacity="0.25"></line><line x1="0" y1="78.66666666666666" x2="288.828125" y2="78.66666666666666" fill="rgb(0, 0, 0)" stroke="rgb(66, 66, 66)" stroke-width="1px" opacity="0.25"></line><line x1="0" y1="59.00000000000001" x2="288.828125" y2="59.00000000000001" fill="rgb(0, 0, 0)" stroke="rgb(66, 66, 66)" stroke-width="1px" opacity="0.25"></line><line x1="0" y1="39.33333333333333" x2="288.828125" y2="39.33333333333333" fill="rgb(0, 0, 0)" stroke="rgb(66, 66, 66)" stroke-width="1px" opacity="0.25"></line><line x1="0" y1="19.666666666666696" x2="288.828125" y2="19.666666666666696" fill="rgb(0, 0, 0)" stroke="rgb(66, 66, 66)" stroke-width="1px" opacity="0.25"></line><line x1="0" y1="0" x2="288.828125" y2="0" fill="rgb(0, 0, 0)" stroke="rgb(66, 66, 66)" stroke-width="1px" opacity="0.25"></line></g></g></g><g><g><line x1="0" y1="393.33333333333337" x2="288.828125" y2="393.33333333333337" fill="rgb(0, 0, 0)" stroke="rgb(153, 153, 153)" stroke-width="1.5px"></line></g></g><g><g><line x1="24.069010416666664" y1="0" x2="24.069010416666664" y2="177" fill="rgb(0, 0, 0)" stroke="rgb(153, 153, 153)" stroke-width="1.5px"></line></g></g><g><g><g><g><g><path stroke="rgb(255, 112, 67)" stroke-width="2px" d="M36.56082682291667,-0.970656803134206L37.04220703125,10.302664546176677L37.523587239583335,22.339941540626498L38.00496744791666,30.762533595425896L38.486347656250004,38.073478480374035L38.96772786458333,46.84009330762195L39.449108072916665,53.34702341008747L39.93048828125001,58.95022548596611L40.411868489583334,62.63723088921278L40.89324869791667,69.88569018680603L41.374628906249995,74.53037709537047L41.85600911458333,78.79139477611136L42.33738932291667,83.75822962258428L42.81876953125,86.55353205550148L43.30014973958333,89.83374766306535L43.78152994791666,91.8333641463298L44.26291015625,96.4720803647954L44.744290364583335,99.86608351843739L45.22567057291666,101.6419435494491L45.707050781250004,103.70059178761637L46.18843098958334,105.09458377181006L46.669811197916665,107.21341592471829L47.15119140625,107.84655397782551L47.63257161458333,110.0040244402961L48.11395182291667,109.95911437033556L48.59533203125,114.1709794897705L49.07671223958333,116.29304294795533L49.55809244791667,118.14125148283499L50.03947265625,119.7629935809968L50.52085286458333,120.19152176150364L51.00223307291667,120.84021687718307L51.48361328125,122.91440108455521L51.964993489583335,124.12185614583396L52.44637369791667,124.28646339392452L52.92775390625,125.12547308757554L53.40913411458334,124.65155176946989L53.890514322916665,124.56174095740434L54.37189453125,125.60528213393108L54.853274739583334,125.60062855266669L55.33465494791667,124.70481923111618L55.81603515625,123.01111495091556L56.29741536458333,123.28024209447723L56.778795572916664,122.72878703103662L57.260175781250005,122.55697518457289L57.74155598958333,125.17645735512404L58.22293619791667,126.37230943671477L58.704316406249994,128.32967719159677L59.185696614583335,128.0237628926648L59.66707682291667,127.9967510676028L60.14845703125,128.17178006996338L60.62983723958333,127.71506532166865L61.11121744791667,129.09019220138987L61.59259765625,128.12677834124594L62.073977864583334,126.8596853871183L62.55535807291666,127.73705323337715L63.03673828125,127.84527507303815L63.51811848958334,128.22485231541376L63.999498697916664,127.81821835245502L64.48087890625,128.1964934918307L64.96225911458333,128.8470021893542L65.44363932291667,128.70893825133194L65.92501953125,129.34894926564306L66.40639973958334,129.67396583961767L66.88777994791667,130.2246363813126L67.36916015625,131.49711158281843L67.85054036458334,131.97096571016095L68.33192057291667,130.57774802779764L68.81330078124999,131.4526226532743L69.29468098958333,131.50468057253488L69.77606119791668,133.00069862830296L70.25744140625,133.53142743017844L70.73882161458333,133.21421088611706L71.22020182291666,133.2774474693475L71.70158203125,133.13638066050993L72.18296223958333,133.16168705746534L72.66434244791667,132.4517025970659L73.14572265624999,134.443553726069L73.62710286458334,134.1414687104741L74.10848307291667,132.42862728989812L74.58986328124999,133.07044348883392L75.07124348958334,131.6024296279572L75.55262369791667,132.97933420990552L76.03400390624999,133.71178587437177L76.51538411458334,135.2087987683066L76.99676432291666,136.05584330003265L77.47814453125,135.67906280263375L77.95952473958334,136.2489797126731L78.44090494791666,135.73898260105017L78.92228515625,136.41138270517195L79.40366536458333,135.86042811317475L79.88504557291667,136.78732062216974L80.36642578125,137.0801363002597L80.84780598958332,138.34177586057643L81.32918619791667,138.18005371137022L81.81056640625,137.82910143168866L82.29194661458332,140.1505218492354L82.77332682291667,139.64966714478797L83.25470703125,138.92367798820118L83.73608723958333,138.2658616823086L84.21746744791668,136.91248956003918L84.69884765625001,135.42847924185722L85.18022786458333,136.4191461030611L85.66160807291666,136.1899831080589L86.14298828125,137.85977143040662L86.62436848958333,136.35108107012297L87.10574869791667,137.64127318977344L87.58712890625,138.45900725561143L88.06850911458334,139.18431461510647L88.54988932291666,139.2963740561583L89.03126953125,139.19237178931076L89.51264973958334,140.43963602172775L89.99402994791666,140.1767020060899L90.47541015624999,140.14229838399982L90.95679036458334,138.93835746339644L91.43817057291666,138.04647185635392L91.91955078125,136.68429530822965L92.40093098958334,137.3560093131115L92.88231119791666,137.34956245052422L93.36369140625,139.50579082639723L93.84507161458333,140.54938165178945L94.32645182291667,139.98739418871457L94.80783203125,139.9047106750067L95.28921223958334,140.55065112438132L95.77059244791667,141.8188978149735L96.25197265625,143.2091362451085L96.73335286458332,143.16219623982488L97.21473307291667,142.0376069577752L97.69611328124999,141.710020725175L98.17749348958333,142.54745440000997L98.65887369791668,142.511215254112L99.14025390625,141.77792143474207L99.62163411458333,142.8075759607764L100.10301432291668,143.5951805588421L100.58439453125,143.8243456411593L101.06577473958333,142.5815298628531L101.54715494791668,140.34427363086846L102.02853515625,140.27007395361156L102.50991536458334,140.05199520073464L102.99129557291666,140.39725931818822L103.47267578125,140.65823139450674L103.95405598958334,142.37608070258867L104.43543619791666,143.58977716997637L104.91681640625,144.11986282010767L105.39819661458333,143.4296244824446L105.87957682291666,142.33322291088922L106.36095703125001,142.9895876096007L106.84233723958333,142.97451480428654L107.32371744791666,144.00905882123791L107.80509765625001,142.81276927648207L108.28647786458333,143.04865336240738L108.76785807291667,143.34557897302912L109.24923828124999,144.25401658214813L109.73061848958334,144.96894699112121L110.21199869791667,143.8684703808967L110.69337890624999,143.26477007897543L111.17475911458334,141.38352116294246L111.65613932291667,141.05670472172432L112.13751953124999,141.75627885669556L112.61889973958334,141.84320947126616L113.10027994791666,142.2415018742059L113.58166015625,142.98109044799153L114.06304036458334,142.82651220875047L114.54442057291666,143.19767057578719L115.02580078125,144.28975564155036L115.50718098958333,143.63046029819023L115.98856119791667,143.14596368451654L116.46994140625,142.87342800880808L116.95132161458332,143.01662350479788L117.43270182291667,144.23324190017894L117.91408203125,143.83758348380564L118.39546223958332,143.93385710267202L118.87684244791667,144.7733904502732L119.35822265625,144.58969730361736L119.83960286458333,144.2225187259766L120.32098307291668,144.8776293514009L120.80236328125001,145.7456580649362L121.28374348958333,145.84394111891083L121.76512369791666,144.54997957884552L122.24650390625,144.5016979676836L122.72788411458333,144.50726695379979L123.20926432291667,144.79213596163132L123.69064453125,145.91704512368733L124.17202473958334,145.33920695626412L124.65340494791666,146.96264045690984L125.13478515625,147.70577581271377L125.61616536458334,147.16254779081098L126.09754557291666,146.68094787532758L126.57892578124999,144.66672076932346L127.06030598958334,145.12052298329817L127.54168619791666,146.44134605610307L128.02306640625,148.42094226913298L128.50444661458334,147.99975768535276L128.98582682291666,148.42470405729333L129.46720703124998,148.5666715543434L129.94858723958333,148.01543818875976L130.42996744791668,147.39445575341017L130.91134765625,146.9101766291782L131.39272786458335,145.8726998556299L131.87410807291667,147.15888765954665L132.35548828125,147.1381129895969L132.83686848958334,147.9266214239681L133.31824869791666,147.48331633022704L133.79962890625,149.3300217999588L134.28100911458333,147.90930509088722L134.76238932291668,147.19249796434949L135.24376953125,146.99287788478335L135.72514973958332,147.66046864557606L136.20652994791666,148.00813496601708L136.68791015625,147.11185441853084L137.16929036458333,148.10574841299413L137.65067057291668,149.11958548049327L138.13205078125,148.11624625679858L138.61343098958332,148.72320935549286L139.09481119791667,147.83682768423273L139.57619140625,148.96737736852947L140.05757161458334,149.6149976864783L140.53895182291666,150.29600165623845L141.02033203125,151.7077224265084L141.50171223958333,150.82302585536658L141.98309244791668,150.99082479640904L142.46447265625,151.3212317306668L142.94585286458334,150.32403757879567L143.42723307291666,149.03089246787644L143.90861328125,148.7238854316286L144.38999348958333,149.402154478698L144.87137369791668,150.2223099608663L145.35275390625,148.96308219487156L145.83413411458335,148.06186596998594L146.31551432291667,147.96113717957434L146.79689453125,148.26466760599354L147.27827473958334,148.00092623042391L147.75965494791666,147.6096857474897L148.24103515625,148.29060872375933L148.72241536458333,149.27913741252902L149.20379557291665,151.06069334729565L149.68517578125,150.0537790809627L150.16655598958334,149.35041910003568L150.64793619791666,149.91696311068424L151.12931640624998,149.2602312736576L151.61069661458333,148.8899025276876L152.09207682291665,149.99925419291105L152.57345703125,150.2264922076487L153.05483723958335,148.47668046679232L153.53621744791667,147.34249384635166L154.01759765625,149.52590592990526L154.49897786458334,148.9829341119644L154.98035807291666,150.05230080997032L155.46173828125,150.42622950398507L155.94311848958336,150.42017797679924L156.42449869791665,149.22970388378778L156.90587890625,149.3306753699131L157.38725911458334,148.52525968330417L157.86863932291666,148.7836452829797L158.35001953125,148.47251686028264L158.83139973958336,148.45178331250412L159.31277994791665,147.55716416024177L159.79416015625,147.7005054901511L160.27554036458332,148.18386214131357L160.75692057291667,148.23911515314197L161.23830078125002,148.77118753090437L161.7196809895833,148.4284075699791L162.20106119791666,150.22786567035223L162.68244140625,151.27292456706988L163.16382161458333,151.82220069798396L163.64520182291668,151.97020605613102L164.12658203125,151.5476427462536L164.60796223958332,153.26282101751912L165.08934244791666,154.2395209281981L165.57072265625,153.7110114403969L166.05210286458333,153.77451295431112L166.53348307291668,153.60338059363852L167.01486328125,153.56668943731268L167.49624348958332,154.52291952680997L167.97762369791667,154.47253219684274L168.45900390625002,154.24173765540397L168.94038411458334,153.51415733341622L169.42176432291666,151.88736619412725L169.90314453125,152.24606354707325L170.38452473958333,152.1451249093459L170.86590494791668,152.50757238602452L171.34728515625002,152.8103142102781L171.82866536458332,152.12679042500267L172.31004557291666,150.66357541753652L172.79142578124998,152.39648934013073L173.27280598958333,154.3827125651219L173.75418619791668,154.82597807052937L174.23556640624997,154.39749754570806L174.71694661458332,154.3585223892589L175.19832682291667,153.91346151087026L175.67970703125,152.36892796564106L176.16108723958334,153.21743352519675L176.6424674479167,153.21538667854153L177.12384765624998,154.38047543047696L177.60522786458333,153.50279241195273L178.08660807291668,153.94946219972624L178.56798828125,154.37601842688193L179.04936848958334,153.21704159563782L179.5307486979167,153.8489707047483L180.01212890624998,155.0411475659675L180.49350911458333,154.83617083878718L180.97488932291668,153.87806335077943L181.45626953125,153.10765261538458L181.93764973958335,153.30624746857953L182.41902994791667,152.8567477744915L182.90041015625,152.7165159596888L183.38179036458334,151.6029096556206L183.86317057291666,151.5658761284003L184.34455078125,153.0957614877944L184.82593098958333,153.24337676656364L185.30731119791665,152.40073796056615L185.78869140625,152.50953030932558L186.27007161458334,153.37962064259997L186.75145182291666,152.97975609503567L187.23283203124998,153.86575590394077L187.71421223958333,154.56675666312302L188.19559244791665,154.6263033148242L188.67697265625,153.5870302316481L189.15835286458335,153.83437710376984L189.63973307291667,154.1484743916508L190.12111328125,155.16133835982927L190.60249348958334,153.918315390393L191.08387369791666,154.33927198020652L191.56525390625,154.559875545812L192.04663411458336,155.02989895753177L192.52801432291665,154.56787163864473L193.00939453125,154.32755487527265L193.49077473958334,154.94530999292166L193.97215494791666,155.73758899436697L194.45353515625,154.19763363738537L194.93491536458336,154.56675908571194L195.41629557291665,155.7886295660847L195.89767578125,155.12888580859322L196.37905598958332,156.59937830041406L196.86043619791667,156.6696148926368L197.34181640625002,156.25452264476968L197.8231966145833,156.3230160265787L198.30457682291666,156.2224569967053L198.78595703125,155.25365749454448L199.26733723958333,155.9969791522657L199.74871744791668,156.00092807173053L200.23009765625,154.38502322518212L200.71147786458332,152.60114727214025L201.19285807291666,153.9533224504743L201.67423828125,154.49310466859725L202.15561848958333,154.5760502089321L202.63699869791668,155.61944642686177L203.11837890625,156.22193387270963L203.59975911458332,154.85896986731785L204.08113932291667,155.28689739910772L204.56251953125002,155.7663587533157L205.04389973958334,155.2769531629929L205.52527994791666,154.28614036641562L206.00666015625,153.60690036179463L206.48804036458333,153.88925094292216L206.96942057291668,153.8452955186078L207.45080078125002,153.54028301335754L207.93218098958332,154.0009324670597L208.41356119791666,154.41650867747143L208.89494140624998,154.6957364902714L209.37632161458333,154.98433702222871L209.85770182291668,155.9260520312104L210.33908203124997,157.0899578805389L210.82046223958332,156.58012342334385L211.30184244791667,155.4677313635005L211.78322265625,155.87550114217677L212.26460286458334,155.83691358130127L212.7459830729167,154.14585005844486L213.22736328124998,154.17350123767423L213.70874348958333,154.87036275267533L214.19012369791668,154.99726778924406L214.67150390625,155.60496781263694L215.15288411458334,154.8749301889991L215.6342643229167,155.5021669321765L216.11564453124998,156.2472494908331L216.59702473958333,157.5379728497408L217.07840494791668,157.3711416422534L217.55978515625,157.72791274083528L218.04116536458335,158.1116269719957L218.52254557291667,156.6264260632915L219.00392578125,156.28036653407517L219.48530598958334,155.23907414940285L219.96668619791666,157.06804005981053L220.44806640625,157.10686977518108L220.92944661458333,157.69910150996103L221.41082682291665,157.45997739640998L221.89220703125,158.099078352524L222.37358723958334,159.21612538272723L222.85496744791666,159.350964284312L223.33634765624998,159.74036488009907L223.81772786458333,159.45576097335487L224.29910807291665,158.60858411778474L224.78048828125,159.92804052502433L225.26186848958335,159.3564288801299L225.74324869791667,159.75495855884867L226.22462890625,159.3856134095729L226.70600911458334,159.91017638355956L227.18738932291666,160.638343819374L227.66876953125,158.93711262499764L228.15014973958336,157.72894541621136L228.63152994791665,159.33447400907608L229.11291015625,159.53633360228875L229.59429036458334,159.87601374532525L230.07567057291666,160.8731883908428L230.55705078125,160.637992851993L231.03843098958336,159.71169119055523L231.51981119791665,160.88314283368894L232.00119140625,159.88903122772888L232.48257161458332,159.32917441792392L232.96395182291667,159.37515168667224L233.44533203125002,158.9349086518322L233.9267122395833,159.355287421913L234.40809244791666,160.2221107505301L234.88947265625,159.0669041097448L235.37085286458333,159.1737945376095L235.85223307291668,159.76651747509152L236.33361328125,159.87301106786606L236.81499348958332,160.9414876300324L237.29637369791666,159.72772541825037L237.77775390625,159.57358806198494L238.25913411458333,159.54429161527838L238.74051432291668,157.79932386459095L239.22189453125,158.74234408242563L239.70327473958332,158.45876122606546L240.18465494791667,158.63213482085345L240.66603515625002,159.4139866463853L241.14741536458334,158.85313701522963L241.62879557291666,158.5603996585146L242.11017578125,156.81950625015313L242.59155598958333,157.3305360735428L243.07293619791668,157.65314617106063L243.55431640625002,156.79863499118753L244.03569661458332,157.28903422616406L244.51707682291666,158.99878987546995L244.99845703124998,159.44473536797972L245.47983723958333,158.42279923746733L245.96121744791668,158.9036354572651L246.44259765624997,157.80319085081112L246.92397786458332,156.96182969534127L247.40535807291667,157.71401038757318L247.88673828125,157.75935256374103L248.36811848958334,158.25796583794553L248.8494986979167,158.6327269628912L249.33087890624998,158.36916008191736L249.81225911458333,159.14029287037937L250.29363932291668,158.09233258231401L250.77501953125,157.78225873964553L251.25639973958334,158.09564401260786L251.7377799479167,158.3693046629091L252.21916015624998,159.30890215771333L252.70054036458333,159.1792841355328L253.18192057291668,160.6239678899737L253.66330078125,162.09977549277372L254.14468098958335,161.5415622568763L254.62606119791667,164.06066854784615L255.10744140625,163.8784210283632L255.58882161458334,164.55650102686562L256.07020182291666,163.3585766000798L256.55158203125,163.59094726432616L257.03296223958336,163.82900433391663L257.51434244791665,163.06083529179594L257.99572265625,163.1169733215051L258.47710286458334,162.80919066347772L258.95848307291664,165.2673193628617L259.43986328125,163.78831139539932L259.92124348958333,163.46620599629213L260.4026236979167,163.08927579901174L260.88400390625,163.21489135189253L261.3653841145833,162.68718623903453L261.84676432291667,163.1393008372024L262.32814453125,161.05129957663536L262.80952473958337,162.69605668803817L263.29090494791666,162.78853894450955L263.77228515625,163.2971615896704L264.25366536458336,162.9532117223217L264.73504557291665,162.817502450737" style="fill: none;" fill="none"></path></g></g></g></g><g opacity="0.2"><g><g><g><path stroke="rgb(255, 112, 67)" stroke-width="2px" d="M25.48908203125,-183.2995541890462L25.970462239583334,31.380173365275066L26.45184244791667,57.54157900810243L26.93322265625,51.630003054936736L27.414602864583333,51.48884375890097L27.895983072916664,67.19939748446147L28.377363281250002,61.946119467417404L28.858743489583333,87.98643430074057L29.340123697916667,71.09106620152792L29.821503906249998,92.45507200558981L30.302884114583335,96.86713814735413L30.784264322916666,72.08340128262839L31.26564453125,83.97125999132794L31.74702473958333,75.34436623255412L32.228404947916665,92.95268138249718L32.70978515625,76.57098213831584L33.191165364583334,98.18443735440574L33.67254557291667,107.98093001047772L34.153925781249995,87.88154363632204L34.63530598958334,87.77749697367352L35.116686197916664,104.65924382209779L35.59806640625,105.29365181922913L36.07944661458333,99.96729731559753L36.56082682291667,101.38257106145225L37.04220703125,106.45267724990845L37.523587239583335,125.57269334793091L38.00496744791666,103.35247119267784L38.486347656250004,101.36163512865704L38.96772786458333,123.03046623865764L39.449108072916665,110.09963234265648L39.93048828125001,107.9764755566915L40.411868489583334,94.98965620994568L40.89324869791667,133.65215818087262L41.374628906249995,115.4849966367086L41.85600911458333,116.44075830777487L42.33738932291667,127.72560119628908L42.81876953125,111.33940060933432L43.30014973958333,118.9629638195038L43.78152994791666,109.61444854736328L44.26291015625,137.77067581812543L44.744290364583335,130.11588454246524L45.22567057291666,117.48518705368045L45.707050781250004,122.08288669586184L46.18843098958334,117.55181630452475L46.669811197916665,126.16157213846844L47.15119140625,113.51216594378155L47.63257161458333,129.321186542511L48.11395182291667,109.55679853757223L48.59533203125,151.91952149073285L49.07671223958333,135.319858789444L49.55809244791667,134.71888264020285L50.03947265625,134.31425412495932L50.52085286458333,124.03771201769513L51.00223307291667,126.66408141454062L51.48361328125,141.54064416885376L51.964993489583335,134.96725360552472L52.44637369791667,125.76526641845706L52.92775390625,132.6643478870392L53.40913411458334,120.39246837298077L53.890514322916665,123.75450253486633L54.37189453125,134.98607953389487L54.853274739583334,125.55879076321922L55.33465494791667,116.65023485819499L55.81603515625,107.78087814648947L56.29741536458333,125.70051272710165L56.778795572916664,117.76914676030478L57.260175781250005,121.01163744926455L57.74155598958333,148.73850226402283L58.22293619791667,137.12951580683392L58.704316406249994,145.93794027964276L59.185696614583335,125.27166604995729L59.66707682291667,127.75373458862308L60.14845703125,129.74651654561362L60.62983723958333,123.60586444536845L61.11121744791667,141.46299600601196L61.59259765625,119.45815841356915L62.073977864583334,115.45834024747214L62.55535807291666,135.63181122144064L63.03673828125,128.81909926732382L63.51811848958334,131.64050340652466L63.999498697916664,124.15903727213544L64.48087890625,131.6005305449168L64.96225911458333,134.70090071360272L65.44363932291667,127.46649265289308L65.92501953125,135.1085066795349L66.40639973958334,132.59886741638184L66.88777994791667,135.18029371897381L67.36916015625,142.94860323270163L67.85054036458334,136.23538970947268L68.33192057291667,118.03948521614078L68.81330078124999,139.3261007467906L69.29468098958333,131.97318077087402L69.77606119791668,146.4643160502116L70.25744140625,138.30781261126202L70.73882161458333,130.35935560862225L71.22020182291666,133.84655992190045L71.70158203125,131.86681310335797L72.18296223958333,133.38943918546042L72.66434244791667,126.06197992960614L73.14572265624999,152.3698667685191L73.62710286458334,131.42275094985962L74.10848307291667,117.01329628626507L74.58986328124999,138.8467077414195L75.07124348958334,118.39047273000084L75.55262369791667,145.37133375803631L76.03400390624999,140.30378301938376L76.51538411458334,148.68179003397626L76.99676432291666,143.679180542628L77.47814453125,132.28806376457214L77.95952473958334,141.37819727261862L78.44090494791666,131.14903648694357L78.92228515625,142.46295054753622L79.40366536458333,130.90186119079593L79.88504557291667,145.1293162504832L80.36642578125,139.71546689669293L80.84780598958332,149.69649116198224L81.32918619791667,136.7245590686798L81.81056640625,134.6705400943756L82.29194661458332,161.04325095812482L82.77332682291667,135.14198541641238L83.25470703125,132.38978942235312L83.73608723958333,132.34552621841434L84.21746744791668,124.73216136296591L84.69884765625001,122.07240700721741L85.18022786458333,145.33513545989993L85.66160807291666,134.1275187333425L86.14298828125,152.88784941037497L86.62436848958333,122.7728815873464L87.10574869791667,149.2529916763306L87.58712890625,145.81860780715945L88.06850911458334,145.71207602818808L88.54988932291666,140.30490835507712L89.03126953125,138.25635194778445L89.51264973958334,151.66500806808475L89.99402994791666,137.81029701232913L90.47541015624999,139.83266592025757L90.95679036458334,128.1028934319814L91.43817057291666,130.01950422922772L91.91955078125,124.42471027374269L92.40093098958334,143.40143362681073L92.88231119791666,137.29154070218405L93.36369140625,158.91184171040854L93.84507161458333,149.94169712066653L94.32645182291667,134.92950797080996L94.80783203125,139.16055917739868L95.28921223958334,146.36411428451538L95.77059244791667,153.2331164677938L96.25197265625,155.7212805747986L96.73335286458332,142.73973623911542L97.21473307291667,131.91630442937216L97.69611328124999,138.76174489657086L98.17749348958333,150.08435686429343L98.65887369791668,142.1850629647573L99.14025390625,135.17827749252322L99.62163411458333,152.07446614901227L100.10301432291668,150.6836215655009L100.58439453125,145.88683128356934L101.06577473958333,131.39618833859763L101.54715494791668,120.20896832148235L102.02853515625,139.60227688153586L102.50991536458334,138.0892864863078L102.99129557291666,143.5046362876892L103.47267578125,143.00698002179465L103.95405598958334,157.83672412236535L104.43543619791666,154.5130451520284L104.91681640625,148.89063358306885L105.39819661458333,137.21747954686484L105.87957682291666,132.4656089146932L106.36095703125001,148.89686981836957L106.84233723958333,142.8388595581055L107.32371744791666,153.31995487213135L107.80509765625001,132.04616347948712L108.28647786458333,145.17161011695865L108.76785807291667,146.0179094473521L109.24923828124999,152.42995500564575L109.73061848958334,151.40332063039145L110.21199869791667,133.96418094635013L110.69337890624999,137.83146739006042L111.17475911458334,124.45228099822998L111.65613932291667,138.11535676320395L112.13751953124999,148.05244604746503L112.61889973958334,142.62558499972027L113.10027994791666,145.8261334896088L113.58166015625,149.63738759358725L114.06304036458334,141.4353080590566L114.54442057291666,146.53809587160748L115.02580078125,154.11852121353152L115.50718098958333,137.6968022187551L115.98856119791667,138.78549416859946L116.46994140625,140.42060693105063L116.95132161458332,144.30538296699524L117.43270182291667,155.18280744552615L117.91408203125,140.27665774027508L118.39546223958332,144.8003196716309L118.87684244791667,152.32919057210287L119.35822265625,142.9364589850108L119.83960286458333,140.91791152954104L120.32098307291668,150.77362497647604L120.80236328125001,153.55791648228964L121.28374348958333,146.72848860422772L121.76512369791666,132.9043257236481L122.24650390625,144.06716346740723L122.72788411458333,144.55738782882693L123.20926432291667,147.35595703125003L123.69064453125,156.04122757911682L124.17202473958334,140.1386634508769L124.65340494791666,161.57354195912683L125.13478515625,154.39399401346844L125.61616536458334,142.27349559466046L126.09754557291666,142.34654863675436L126.57892578124999,126.5386768182119L127.06030598958334,149.2047429084778L127.54168619791666,158.32875370979312L128.02306640625,166.23730818430585L128.50444661458334,144.2090964317322L128.98582682291666,152.24922140439352L129.46720703124998,149.84437902768454L129.94858723958333,143.0543378988902L130.42996744791668,141.80561383565268L130.91134765625,142.55166451136273L131.39272786458335,136.535408894221L131.87410807291667,158.73457789421084L132.35548828125,146.9511409600576L132.83686848958334,155.023197333018L133.31824869791666,143.49357048670453L133.79962890625,165.95037102699283L134.28100911458333,135.12285470962524L134.76238932291668,140.7412338256836L135.24376953125,145.19629716873172L135.72514973958332,153.66878549257916L136.20652994791666,151.13713184992474L136.68791015625,139.04532949129742L137.16929036458333,157.05079436302188L137.65067057291668,158.24411908785504L138.13205078125,139.08619324366254L138.61343098958332,154.1858772436778L139.09481119791667,139.85939264297485L139.57619140625,159.1423245271047L140.05757161458334,155.44358054796857L140.53895182291666,156.4250373840332L141.02033203125,164.41320935885113L141.50171223958333,142.86075671513876L141.98309244791668,152.50101526578268L142.46447265625,154.29489413897198L142.94585286458334,141.34929021199545L143.42723307291666,137.39258646965027L143.90861328125,145.96082210540774L144.38999348958333,155.50657590230307L144.87137369791668,157.6037093003591L145.35275390625,137.6300323009491L145.83413411458335,139.95091994603476L146.31551432291667,147.05457806587222L146.79689453125,150.9964414437612L147.27827473958334,145.62725385030112L147.75965494791666,144.08852140108746L148.24103515625,154.41891551017764L148.72241536458333,158.17589561144513L149.20379557291665,167.0946967601776L149.68517578125,140.99155068397525L150.16655598958334,143.020179271698L150.64793619791666,155.01585920651755L151.12931640624998,143.34964474042258L151.61069661458333,145.55694381395978L152.09207682291665,159.9834191799164L152.57345703125,152.27163434028628L153.05483723958335,132.72837479909262L153.53621744791667,137.13481426239014L154.01759765625,169.1766146818797L154.49897786458334,144.09618775049847L154.98035807291666,159.6766010920207L155.46173828125,153.791587750117L155.94311848958336,150.3657142321269L156.42449869791665,138.51543704668683L156.90587890625,150.23941874504092L157.38725911458334,141.2765185038249L157.86863932291666,151.1091156800588L158.35001953125,145.67236105600995L158.83139973958336,148.26518138249716L159.31277994791665,139.5055917898814L159.79416015625,148.99057745933536L160.27554036458332,152.53407200177512L160.75692057291667,148.73639225959778L161.23830078125002,153.5598389307658L161.7196809895833,145.3433879216512L162.20106119791666,166.42298857371014L162.68244140625,160.6784546375275L163.16382161458333,156.76568587621057L163.64520182291668,153.30225427945456L164.12658203125,147.74457295735678L164.60796223958332,168.6994254589081L165.08934244791666,163.0298201243083L165.57072265625,148.95442605018619L166.05210286458333,154.346026579539L166.53348307291668,152.06318934758505L167.01486328125,153.23646903038028L167.49624348958332,163.12899033228558L167.97762369791667,154.01904622713727L168.45900390625002,152.16458678245547L168.94038411458334,146.96593443552655L169.42176432291666,137.24624594052634L169.90314453125,155.47433972358706L170.38452473958333,151.23667716979983L170.86590494791668,155.76959967613223L171.34728515625002,155.5349906285604L171.82866536458332,145.97507635752362L172.31004557291666,137.49464035034183L172.79142578124998,167.9927146434784L173.27280598958333,172.25872159004211L173.75418619791668,158.8153676191966L174.23556640624997,150.5411728223165L174.71694661458332,154.00774598121646L175.19832682291667,149.90791360537213L175.67970703125,138.4681260585785L176.16108723958334,160.85398356119794L176.6424674479167,153.19696505864462L177.12384765624998,164.86627419789633L177.60522786458333,145.6036452452342L178.08660807291668,157.96949028968814L178.56798828125,158.215024471283L179.04936848958334,142.78625011444095L179.5307486979167,159.53633268674218L180.01212890624998,165.77073931694034L180.49350911458333,152.99138029416403L180.97488932291668,145.25509595870972L181.45626953125,146.17395599683127L181.93764973958335,155.0936011473338L182.41902994791667,148.8112505276998L182.90041015625,151.45442962646487L183.38179036458334,141.58045291900638L183.86317057291666,151.23257438341778L184.34455078125,166.8647297223409L184.82593098958333,154.57191427548727L185.30731119791665,144.81698870658877L185.78869140625,153.48866144816083L186.27007161458334,161.21043364206952L186.75145182291666,149.3809751669566L187.23283203124998,161.83975418408713L187.71421223958333,160.87576349576318L188.19559244791665,155.1622231801351L188.67697265625,144.23357248306277L189.15835286458335,156.06049895286563L189.63973307291667,156.97534998257956L190.12111328125,164.27711407343548L190.60249348958334,142.7311086654663L191.08387369791666,158.12788128852847L191.56525390625,156.545307636261L192.04663411458336,159.26010966300967L192.52801432291665,150.4096257686615L193.00939453125,152.16470400492352L193.49077473958334,160.5051060517629L193.97215494791666,162.8681000073751L194.45353515625,140.33803542455038L194.93491536458336,157.88888812065127L195.41629557291665,166.78546388943994L195.89767578125,149.19119199117026L196.37905598958332,169.83381072680157L196.86043619791667,157.301744222641L197.34181640625002,152.51869241396588L197.8231966145833,156.9394564628601L198.30457682291666,155.31742572784427L198.78595703125,146.53446197509768L199.26733723958333,162.68687407175702L199.74871744791668,156.03646834691367L200.23009765625,139.84187960624695L200.71147786458332,136.54626369476318L201.19285807291666,166.12289905548099L201.67423828125,159.3511446317037L202.15561848958333,155.3225600719452L202.63699869791668,165.01001238822937L203.11837890625,161.6443208853404L203.59975911458332,142.59229381879172L204.08113932291667,159.13824518521628L204.56251953125002,160.08151094118756L205.04389973958334,150.8723028500875L205.52527994791666,145.36882519721985L206.00666015625,147.49374032020572L206.48804036458333,156.4304061730703L206.96942057291668,153.44969669977826L207.45080078125002,150.79517046610516L207.93218098958332,158.14677755037945L208.41356119791666,158.15669457117718L208.89494140624998,157.20878680547082L209.37632161458333,157.58174180984497L209.85770182291668,164.4014871120453L210.33908203124997,167.56511052449548L210.82046223958332,151.99161330858868L211.30184244791667,145.4562028249105L211.78322265625,159.5454291502635L212.26460286458334,155.48962553342184L212.7459830729167,138.92627835273746L213.22736328124998,154.42236185073855L213.70874348958333,161.14211638768515L214.19012369791668,156.13941311836246L214.67150390625,161.07426802317303L215.15288411458334,148.30459157625836L215.6342643229167,161.14729762077334L216.11564453124998,162.9529925187429L216.59702473958333,169.15448307991028L217.07840494791668,155.86966077486676L217.55978515625,160.93885262807214L218.04116536458335,161.5650550524394L218.52254557291667,143.25961788495383L219.00392578125,153.16583077112836L219.48530598958334,145.8674426873525L219.96668619791666,173.528733253479L220.44806640625,157.45633721351626L220.92944661458333,163.02918712298077L221.41082682291665,155.3078603744507L221.89220703125,163.85098695755005L222.37358723958334,169.2695486545563L222.85496744791666,160.56451439857486L223.33634765624998,163.24497024218243L223.81772786458333,156.89432581265768L224.29910807291665,150.9839924176534L224.78048828125,171.80314819018048L225.26186848958335,154.21192407608035L225.74324869791667,163.34172566731775L226.22462890625,156.0615070660909L226.70600911458334,164.6312431494395L227.18738932291666,167.19185074170434L227.66876953125,143.62603187561038L228.15014973958336,146.85544053713483L228.63152994791665,173.78423134485882L229.11291015625,161.35306994120282L229.59429036458334,162.9331350326538L230.07567057291666,169.84776020050052L230.55705078125,158.5212330023448L231.03843098958336,151.37497623761496L231.51981119791665,171.42620762189233L232.00119140625,150.94202677408856L232.48257161458332,154.29046312967938L232.96395182291667,159.78894710540774L233.44533203125002,154.9727213382721L233.9267122395833,163.1386963526408L234.40809244791666,168.0235207080841L234.88947265625,148.67004434267682L235.37085286458333,160.13580838839215L235.85223307291668,165.10102391242984L236.33361328125,160.83145340283716L236.81499348958332,170.55777668952945L237.29637369791666,148.80386551221213L237.77775390625,158.18635185559594L238.25913411458333,159.28062359491986L238.74051432291668,142.09461410840353L239.22189453125,167.22952604293823L239.70327473958332,155.90651551882428L240.18465494791667,160.19249717394513L240.66603515625002,166.4506530761719L241.14741536458334,153.8054903348287L241.62879557291666,155.92576344807944L242.11017578125,141.15146557490033L242.59155598958333,161.9298044840495L243.07293619791668,160.5566370487213L243.55431640625002,149.10803437232974L244.03569661458332,161.70262734095257L244.51707682291666,174.38659071922305L244.99845703124998,163.45824480056766L245.47983723958333,149.22537406285605L245.96121744791668,163.2311614354452L246.44259765624997,147.89918939272565L246.92397786458332,149.3895792961121L247.40535807291667,164.48363661766055L247.88673828125,158.1674321492513L248.36811848958334,162.74548530578616L248.8494986979167,162.00557708740234L249.33087890624998,155.9970581531525L249.81225911458333,166.0804879665375L250.29363932291668,148.66068998972577L250.77501953125,154.99159415562949L251.25639973958334,160.91611146926883L251.7377799479167,160.83225051561993L252.21916015624998,167.76527961095175L252.70054036458333,158.01272193590802L253.18192057291668,173.62612167994183L253.66330078125,175.38204391797387L254.14468098958335,156.51764313379925L254.62606119791667,186.73262516657513L255.10744140625,162.2381933530172L255.58882161458334,170.65922101338708L256.07020182291666,152.57725675900778L256.55158203125,165.68228324254355L257.03296223958336,165.97151796023053L257.51434244791665,156.14731391270956L257.99572265625,163.62221558888754L258.47710286458334,160.03914674123132L258.95848307291664,187.39047765731814L259.43986328125,150.47723968823752L259.92124348958333,160.56725740432742L260.4026236979167,159.6969040234884L260.88400390625,164.34543132781985L261.3653841145833,157.9378402233124L261.84676432291667,167.20833222071332L262.32814453125,142.2592882315318L262.80952473958337,177.49887069066367L263.29090494791666,163.6208792527517L263.77228515625,167.87476539611816L264.25366536458336,159.8576629161835L264.73504557291665,161.59611900647485" style="fill: none;" fill="none"></path></g></g></g></g></g></g><g transform="translate(41, 177)" clip-path="url(#clip_1)"><clipPath id="clip_1"><rect width="288" height="23"></rect></clipPath><g><g><line x1="0" y1="0" x2="0" y2="5" style="visibility: inherit;" fill="rgb(0, 0, 0)" stroke="rgb(204, 204, 204)" stroke-width="1px"></line><line x1="24.069010416666664" y1="0" x2="24.069010416666664" y2="5" style="visibility: inherit;" fill="rgb(0, 0, 0)" stroke="rgb(204, 204, 204)" stroke-width="1px"></line><line x1="48.13802083333333" y1="0" x2="48.13802083333333" y2="5" style="visibility: inherit;" fill="rgb(0, 0, 0)" stroke="rgb(204, 204, 204)" stroke-width="1px"></line><line x1="72.20703125" y1="0" x2="72.20703125" y2="5" style="visibility: inherit;" fill="rgb(0, 0, 0)" stroke="rgb(204, 204, 204)" stroke-width="1px"></line><line x1="96.27604166666666" y1="0" x2="96.27604166666666" y2="5" style="visibility: inherit;" fill="rgb(0, 0, 0)" stroke="rgb(204, 204, 204)" stroke-width="1px"></line><line x1="120.34505208333334" y1="0" x2="120.34505208333334" y2="5" style="visibility: inherit;" fill="rgb(0, 0, 0)" stroke="rgb(204, 204, 204)" stroke-width="1px"></line><line x1="144.4140625" y1="0" x2="144.4140625" y2="5" style="visibility: inherit;" fill="rgb(0, 0, 0)" stroke="rgb(204, 204, 204)" stroke-width="1px"></line><line x1="168.48307291666669" y1="0" x2="168.48307291666669" y2="5" style="visibility: inherit;" fill="rgb(0, 0, 0)" stroke="rgb(204, 204, 204)" stroke-width="1px"></line><line x1="192.55208333333331" y1="0" x2="192.55208333333331" y2="5" style="visibility: inherit;" fill="rgb(0, 0, 0)" stroke="rgb(204, 204, 204)" stroke-width="1px"></line><line x1="216.62109375" y1="0" x2="216.62109375" y2="5" style="visibility: inherit;" fill="rgb(0, 0, 0)" stroke="rgb(204, 204, 204)" stroke-width="1px"></line><line x1="240.69010416666669" y1="0" x2="240.69010416666669" y2="5" style="visibility: inherit;" fill="rgb(0, 0, 0)" stroke="rgb(204, 204, 204)" stroke-width="1px"></line><line x1="264.7591145833333" y1="0" x2="264.7591145833333" y2="5" style="visibility: inherit;" fill="rgb(0, 0, 0)" stroke="rgb(204, 204, 204)" stroke-width="1px"></line><line x1="288.828125" y1="0" x2="288.828125" y2="5" style="visibility: inherit;" fill="rgb(0, 0, 0)" stroke="rgb(204, 204, 204)" stroke-width="1px"></line></g><g transform="translate(0, 8)"><text x="0" y="0" dx="0em" dy="0.95em" style="text-anchor: middle; visibility: hidden; font-family: Roboto, sans-serif; font-size: 12px; font-weight: 200;" fill="rgb(33, 33, 33)" stroke="none" stroke-width="1px">-1k</text><text x="24.069010416666664" y="0" dx="0em" dy="0.95em" style="text-anchor: middle; visibility: inherit; font-family: Roboto, sans-serif; font-size: 12px; font-weight: 200;" fill="rgb(33, 33, 33)" stroke="none" stroke-width="1px">0</text><text x="48.13802083333333" y="0" dx="0em" dy="0.95em" style="text-anchor: middle; visibility: inherit; font-family: Roboto, sans-serif; font-size: 12px; font-weight: 200;" fill="rgb(33, 33, 33)" stroke="none" stroke-width="1px">1k</text><text x="72.20703125" y="0" dx="0em" dy="0.95em" style="text-anchor: middle; visibility: inherit; font-family: Roboto, sans-serif; font-size: 12px; font-weight: 200;" fill="rgb(33, 33, 33)" stroke="none" stroke-width="1px">2k</text><text x="96.27604166666666" y="0" dx="0em" dy="0.95em" style="text-anchor: middle; visibility: inherit; font-family: Roboto, sans-serif; font-size: 12px; font-weight: 200;" fill="rgb(33, 33, 33)" stroke="none" stroke-width="1px">3k</text><text x="120.34505208333334" y="0" dx="0em" dy="0.95em" style="text-anchor: middle; visibility: inherit; font-family: Roboto, sans-serif; font-size: 12px; font-weight: 200;" fill="rgb(33, 33, 33)" stroke="none" stroke-width="1px">4k</text><text x="144.4140625" y="0" dx="0em" dy="0.95em" style="text-anchor: middle; visibility: inherit; font-family: Roboto, sans-serif; font-size: 12px; font-weight: 200;" fill="rgb(33, 33, 33)" stroke="none" stroke-width="1px">5k</text><text x="168.48307291666669" y="0" dx="0em" dy="0.95em" style="text-anchor: middle; visibility: inherit; font-family: Roboto, sans-serif; font-size: 12px; font-weight: 200;" fill="rgb(33, 33, 33)" stroke="none" stroke-width="1px">6k</text><text x="192.55208333333331" y="0" dx="0em" dy="0.95em" style="text-anchor: middle; visibility: inherit; font-family: Roboto, sans-serif; font-size: 12px; font-weight: 200;" fill="rgb(33, 33, 33)" stroke="none" stroke-width="1px">7k</text><text x="216.62109375" y="0" dx="0em" dy="0.95em" style="text-anchor: middle; visibility: inherit; font-family: Roboto, sans-serif; font-size: 12px; font-weight: 200;" fill="rgb(33, 33, 33)" stroke="none" stroke-width="1px">8k</text><text x="240.69010416666669" y="0" dx="0em" dy="0.95em" style="text-anchor: middle; visibility: inherit; font-family: Roboto, sans-serif; font-size: 12px; font-weight: 200;" fill="rgb(33, 33, 33)" stroke="none" stroke-width="1px">9k</text><text x="264.7591145833333" y="0" dx="0em" dy="0.95em" style="text-anchor: middle; visibility: inherit; font-family: Roboto, sans-serif; font-size: 12px; font-weight: 200;" fill="rgb(33, 33, 33)" stroke="none" stroke-width="1px">10k</text><text x="288.828125" y="0" dx="0em" dy="0.95em" style="text-anchor: middle; visibility: hidden; font-family: Roboto, sans-serif; font-size: 12px; font-weight: 200;" fill="rgb(33, 33, 33)" stroke="none" stroke-width="1px">11k</text></g><line x1="0" y1="0" x2="288.828125" y2="0" fill="rgb(0, 0, 0)" stroke="rgb(204, 204, 204)" stroke-width="1px"></line></g></g></g></g></svg>