<svg viewBox="0 0 330 200.00001525878906" xmlns="http://www.w3.org/2000/svg"><g><g><g><g><g><line x1="41.171875" y1="177" x2="36.171875" y2="177" style="visibility: inherit;" fill="rgb(0, 0, 0)" stroke="rgb(204, 204, 204)" stroke-width="1px"></line><line x1="41.171875" y1="159.3" x2="36.171875" y2="159.3" style="visibility: inherit;" fill="rgb(0, 0, 0)" stroke="rgb(204, 204, 204)" stroke-width="1px"></line><line x1="41.171875" y1="141.6" x2="36.171875" y2="141.6" style="visibility: inherit;" fill="rgb(0, 0, 0)" stroke="rgb(204, 204, 204)" stroke-width="1px"></line><line x1="41.171875" y1="123.90000000000003" x2="36.171875" y2="123.90000000000003" style="visibility: inherit;" fill="rgb(0, 0, 0)" stroke="rgb(204, 204, 204)" stroke-width="1px"></line><line x1="41.171875" y1="106.20000000000002" x2="36.171875" y2="106.20000000000002" style="visibility: inherit;" fill="rgb(0, 0, 0)" stroke="rgb(204, 204, 204)" stroke-width="1px"></line><line x1="41.171875" y1="88.5" x2="36.171875" y2="88.5" style="visibility: inherit;" fill="rgb(0, 0, 0)" stroke="rgb(204, 204, 204)" stroke-width="1px"></line><line x1="41.171875" y1="70.80000000000003" x2="36.171875" y2="70.80000000000003" style="visibility: inherit;" fill="rgb(0, 0, 0)" stroke="rgb(204, 204, 204)" stroke-width="1px"></line><line x1="41.171875" y1="53.10000000000001" x2="36.171875" y2="53.10000000000001" style="visibility: inherit;" fill="rgb(0, 0, 0)" stroke="rgb(204, 204, 204)" stroke-width="1px"></line><line x1="41.171875" y1="35.400000000000034" x2="36.171875" y2="35.400000000000034" style="visibility: inherit;" fill="rgb(0, 0, 0)" stroke="rgb(204, 204, 204)" stroke-width="1px"></line><line x1="41.171875" y1="17.700000000000017" x2="36.171875" y2="17.700000000000017" style="visibility: inherit;" fill="rgb(0, 0, 0)" stroke="rgb(204, 204, 204)" stroke-width="1px"></line><line x1="41.171875" y1="0" x2="36.171875" y2="0" style="visibility: inherit;" fill="rgb(0, 0, 0)" stroke="rgb(204, 204, 204)" stroke-width="1px"></line></g><g transform="translate(31.171875, 0)"><text x="0" y="177" dx="0em" dy="0.3em" style="text-anchor: end; visibility: hidden; font-family: Roboto, sans-serif; font-size: 12px; font-weight: 200;" fill="rgb(33, 33, 33)" stroke="none" stroke-width="1px">2.2</text><text x="0" y="159.3" dx="0em" dy="0.3em" style="text-anchor: end; visibility: inherit; font-family: Roboto, sans-serif; font-size: 12px; font-weight: 200;" fill="rgb(33, 33, 33)" stroke="none" stroke-width="1px">2.4</text><text x="0" y="141.6" dx="0em" dy="0.3em" style="text-anchor: end; visibility: hidden; font-family: Roboto, sans-serif; font-size: 12px; font-weight: 200;" fill="rgb(33, 33, 33)" stroke="none" stroke-width="1px">2.6</text><text x="0" y="123.90000000000003" dx="0em" dy="0.3em" style="text-anchor: end; visibility: inherit; font-family: Roboto, sans-serif; font-size: 12px; font-weight: 200;" fill="rgb(33, 33, 33)" stroke="none" stroke-width="1px">2.8</text><text x="0" y="106.20000000000002" dx="0em" dy="0.3em" style="text-anchor: end; visibility: hidden; font-family: Roboto, sans-serif; font-size: 12px; font-weight: 200;" fill="rgb(33, 33, 33)" stroke="none" stroke-width="1px">3</text><text x="0" y="88.5" dx="0em" dy="0.3em" style="text-anchor: end; visibility: inherit; font-family: Roboto, sans-serif; font-size: 12px; font-weight: 200;" fill="rgb(33, 33, 33)" stroke="none" stroke-width="1px">3.2</text><text x="0" y="70.80000000000003" dx="0em" dy="0.3em" style="text-anchor: end; visibility: hidden; font-family: Roboto, sans-serif; font-size: 12px; font-weight: 200;" fill="rgb(33, 33, 33)" stroke="none" stroke-width="1px">3.4</text><text x="0" y="53.10000000000001" dx="0em" dy="0.3em" style="text-anchor: end; visibility: inherit; font-family: Roboto, sans-serif; font-size: 12px; font-weight: 200;" fill="rgb(33, 33, 33)" stroke="none" stroke-width="1px">3.6</text><text x="0" y="35.400000000000034" dx="0em" dy="0.3em" style="text-anchor: end; visibility: hidden; font-family: Roboto, sans-serif; font-size: 12px; font-weight: 200;" fill="rgb(33, 33, 33)" stroke="none" stroke-width="1px">3.8</text><text x="0" y="17.700000000000017" dx="0em" dy="0.3em" style="text-anchor: end; visibility: inherit; font-family: Roboto, sans-serif; font-size: 12px; font-weight: 200;" fill="rgb(33, 33, 33)" stroke="none" stroke-width="1px">4</text><text x="0" y="0" dx="0em" dy="0.3em" style="text-anchor: end; visibility: hidden; font-family: Roboto, sans-serif; font-size: 12px; font-weight: 200;" fill="rgb(33, 33, 33)" stroke="none" stroke-width="1px">4.2</text></g><line x1="41.171875" y1="0" x2="41.171875" y2="177" fill="rgb(0, 0, 0)" stroke="rgb(204, 204, 204)" stroke-width="1px"></line></g></g><g transform="translate(41, 0)" clip-path="url(#clip_0)"><clipPath id="clip_0"><rect width="288" height="177"></rect></clipPath><g><g><g><line x1="0" y1="0" x2="0" y2="177" fill="rgb(0, 0, 0)" stroke="rgb(66, 66, 66)" stroke-width="1px" opacity="0.25"></line><line x1="24.069010416666664" y1="0" x2="24.069010416666664" y2="177" fill="rgb(0, 0, 0)" stroke="rgb(66, 66, 66)" stroke-width="1px" opacity="0.25"></line><line x1="48.13802083333333" y1="0" x2="48.13802083333333" y2="177" fill="rgb(0, 0, 0)" stroke="rgb(66, 66, 66)" stroke-width="1px" opacity="0.25"></line><line x1="72.20703125" y1="0" x2="72.20703125" y2="177" fill="rgb(0, 0, 0)" stroke="rgb(66, 66, 66)" stroke-width="1px" opacity="0.25"></line><line x1="96.27604166666666" y1="0" x2="96.27604166666666" y2="177" fill="rgb(0, 0, 0)" stroke="rgb(66, 66, 66)" stroke-width="1px" opacity="0.25"></line><line x1="120.34505208333334" y1="0" x2="120.34505208333334" y2="177" fill="rgb(0, 0, 0)" stroke="rgb(66, 66, 66)" stroke-width="1px" opacity="0.25"></line><line x1="144.4140625" y1="0" x2="144.4140625" y2="177" fill="rgb(0, 0, 0)" stroke="rgb(66, 66, 66)" stroke-width="1px" opacity="0.25"></line><line x1="168.48307291666669" y1="0" x2="168.48307291666669" y2="177" fill="rgb(0, 0, 0)" stroke="rgb(66, 66, 66)" stroke-width="1px" opacity="0.25"></line><line x1="192.55208333333331" y1="0" x2="192.55208333333331" y2="177" fill="rgb(0, 0, 0)" stroke="rgb(66, 66, 66)" stroke-width="1px" opacity="0.25"></line><line x1="216.62109375" y1="0" x2="216.62109375" y2="177" fill="rgb(0, 0, 0)" stroke="rgb(66, 66, 66)" stroke-width="1px" opacity="0.25"></line><line x1="240.69010416666669" y1="0" x2="240.69010416666669" y2="177" fill="rgb(0, 0, 0)" stroke="rgb(66, 66, 66)" stroke-width="1px" opacity="0.25"></line><line x1="264.7591145833333" y1="0" x2="264.7591145833333" y2="177" fill="rgb(0, 0, 0)" stroke="rgb(66, 66, 66)" stroke-width="1px" opacity="0.25"></line><line x1="288.828125" y1="0" x2="288.828125" y2="177" fill="rgb(0, 0, 0)" stroke="rgb(66, 66, 66)" stroke-width="1px" opacity="0.25"></line></g><g><line x1="0" y1="177" x2="288.828125" y2="177" fill="rgb(0, 0, 0)" stroke="rgb(66, 66, 66)" stroke-width="1px" opacity="0.25"></line><line x1="0" y1="159.3" x2="288.828125" y2="159.3" fill="rgb(0, 0, 0)" stroke="rgb(66, 66, 66)" stroke-width="1px" opacity="0.25"></line><line x1="0" y1="141.6" x2="288.828125" y2="141.6" fill="rgb(0, 0, 0)" stroke="rgb(66, 66, 66)" stroke-width="1px" opacity="0.25"></line><line x1="0" y1="123.90000000000003" x2="288.828125" y2="123.90000000000003" fill="rgb(0, 0, 0)" stroke="rgb(66, 66, 66)" stroke-width="1px" opacity="0.25"></line><line x1="0" y1="106.20000000000002" x2="288.828125" y2="106.20000000000002" fill="rgb(0, 0, 0)" stroke="rgb(66, 66, 66)" stroke-width="1px" opacity="0.25"></line><line x1="0" y1="88.5" x2="288.828125" y2="88.5" fill="rgb(0, 0, 0)" stroke="rgb(66, 66, 66)" stroke-width="1px" opacity="0.25"></line><line x1="0" y1="70.80000000000003" x2="288.828125" y2="70.80000000000003" fill="rgb(0, 0, 0)" stroke="rgb(66, 66, 66)" stroke-width="1px" opacity="0.25"></line><line x1="0" y1="53.10000000000001" x2="288.828125" y2="53.10000000000001" fill="rgb(0, 0, 0)" stroke="rgb(66, 66, 66)" stroke-width="1px" opacity="0.25"></line><line x1="0" y1="35.400000000000034" x2="288.828125" y2="35.400000000000034" fill="rgb(0, 0, 0)" stroke="rgb(66, 66, 66)" stroke-width="1px" opacity="0.25"></line><line x1="0" y1="17.700000000000017" x2="288.828125" y2="17.700000000000017" fill="rgb(0, 0, 0)" stroke="rgb(66, 66, 66)" stroke-width="1px" opacity="0.25"></line><line x1="0" y1="0" x2="288.828125" y2="0" fill="rgb(0, 0, 0)" stroke="rgb(66, 66, 66)" stroke-width="1px" opacity="0.25"></line></g></g></g><g><g><line x1="0" y1="371.7" x2="288.828125" y2="371.7" fill="rgb(0, 0, 0)" stroke="rgb(153, 153, 153)" stroke-width="1.5px"></line></g></g><g><g><line x1="24.069010416666664" y1="0" x2="24.069010416666664" y2="177" fill="rgb(0, 0, 0)" stroke="rgb(153, 153, 153)" stroke-width="1.5px"></line></g></g><g><g><g><g><g><path stroke="rgb(255, 112, 67)" stroke-width="2px" d="M36.07944661458333,-2.0882943892660797L36.56082682291667,10.5204359567894L37.04220703125,22.21888100541272L37.523587239583335,32.92890217051273L38.00496744791666,42.64710675084034L38.486347656250004,50.748889586703456L38.96772786458333,57.31119650844394L39.449108072916665,63.298466966982474L39.93048828125001,68.77721056719277L40.411868489583334,74.29165732491062L40.89324869791667,79.93986438542358L41.374628906249995,84.00723481359513L41.85600911458333,88.63062141809179L42.33738932291667,92.46237569689178L42.81876953125,94.41494785323647L43.30014973958333,99.23196558440362L43.78152994791666,102.09222166255235L44.26291015625,106.3522256441842L44.744290364583335,108.03269918342902L45.22567057291666,109.68610407961845L45.707050781250004,109.87476066273068L46.18843098958334,110.5289815427634L46.669811197916665,112.22058944550689L47.15119140625,113.09320066264101L47.63257161458333,113.86217841262885L48.11395182291667,114.42308591972144L48.59533203125,115.54272472952702L49.07671223958333,116.84161934936509L49.55809244791667,117.426676457826L50.03947265625,119.57767664688998L50.52085286458333,121.48709384902816L51.00223307291667,121.97095962532538L51.48361328125,123.17563309232716L51.964993489583335,124.73611652977554L52.44637369791667,125.30804402629695L52.92775390625,125.89445607705271L53.40913411458334,128.00457404109355L53.890514322916665,129.55121778979162L54.37189453125,129.04878901367016L54.853274739583334,127.66684389052261L55.33465494791667,127.99828940014143L55.81603515625,129.10944685054292L56.29741536458333,128.54134100009767L56.778795572916664,128.34001721875538L57.260175781250005,128.2442540091235L57.74155598958333,128.13266997122585L58.22293619791667,128.04592339374233L58.704316406249994,128.5117499126325L59.185696614583335,129.71988538022282L59.66707682291667,130.54747568060014L60.14845703125,129.06877050478806L60.62983723958333,130.2909740437245L61.11121744791667,130.90268743893594L61.59259765625,131.44834877631934L62.073977864583334,130.84082872478632L62.55535807291666,132.2326399134094L63.03673828125,131.73754857513035L63.51811848958334,132.4875329363503L63.999498697916664,133.81978030343737L64.48087890625,133.72589996167673L64.96225911458333,133.93306310807134L65.44363932291667,136.89114023767027L65.92501953125,137.0137224467332L66.40639973958334,136.69508406936006L66.88777994791667,135.16705069846165L67.36916015625,134.11069541797622L67.85054036458334,133.55842930827L68.33192057291667,133.90582856930007L68.81330078124999,133.98061404268023L69.29468098958333,133.9181948438871L69.77606119791668,134.8094422115625L70.25744140625,134.66432312101222L70.73882161458333,134.39293243101955L71.22020182291666,133.76625083620215L71.70158203125,135.24874435499962L72.18296223958333,135.81752412191545L72.66434244791667,136.6592140669826L73.14572265624999,136.75183761512957L73.62710286458334,136.48673078157486L74.10848307291667,136.8973720724656L74.58986328124999,137.28697424066084L75.07124348958334,138.05406615290966L75.55262369791667,139.56968847128107L76.03400390624999,138.31414867369915L76.51538411458334,138.41038617337875L76.99676432291666,138.16949869499226L77.47814453125,137.61504200573947L77.95952473958334,137.98049239136552L78.44090494791666,137.6195603733713L78.92228515625,137.94525088731675L79.40366536458333,137.5585986807405L79.88504557291667,138.5875887716422L80.36642578125,139.1651468163623L80.84780598958332,138.5273891980473L81.32918619791667,138.4142196744688L81.81056640625,138.74678262427602L82.29194661458332,138.76156259143022L82.77332682291667,138.52502038622708L83.25470703125,138.75844170575343L83.73608723958333,138.14449268491876L84.21746744791668,138.00813375976415L84.69884765625001,137.39921006248633L85.18022786458333,137.9668644864914L85.66160807291666,138.62019567824373L86.14298828125,137.36876326939543L86.62436848958333,136.38145632686172L87.10574869791667,136.77759998597804L87.58712890625,136.99678677961708L88.06850911458334,138.46398738157876L88.54988932291666,137.84955422725994L89.03126953125,137.5251181958923L89.51264973958334,137.28983854151858L89.99402994791666,137.03608299862154L90.47541015624999,136.88314839076926L90.95679036458334,137.79274511085595L91.43817057291666,138.78418729379055L91.91955078125,139.3154717398069L92.40093098958334,139.5191666826808L92.88231119791666,139.8396551058714L93.36369140625,139.10532673094198L93.84507161458333,139.59938461933268L94.32645182291667,139.0724891769098L94.80783203125,139.78300247664617L95.28921223958334,139.72220869415594L95.77059244791667,139.3538505263953L96.25197265625,140.11711468188165L96.73335286458332,140.08352378212197L97.21473307291667,138.99738867162992L97.69611328124999,139.63634164641348L98.17749348958333,139.87764933169595L98.65887369791668,139.04715832250318L99.14025390625,139.8036411803881L99.62163411458333,139.96787488480135L100.10301432291668,140.75386242270557L100.58439453125,141.0846238281915L101.06577473958333,142.4201443558551L101.54715494791668,142.6033414483344L102.02853515625,144.70077828770297L102.50991536458334,145.4985296140029L102.99129557291666,143.90171904539488L103.47267578125,143.94031823960336L103.95405598958334,144.52660424486507L104.43543619791666,144.56111984131192L104.91681640625,144.5445800671528L105.39819661458333,145.5548125092831L105.87957682291666,146.18266737891912L106.36095703125001,146.19941201146005L106.84233723958333,146.9665215279955L107.32371744791666,147.55315218203407L107.80509765625001,147.81108562005895L108.28647786458333,148.4204923986481L108.76785807291667,148.051167755355L109.24923828124999,147.6172379432614L109.73061848958334,148.69658295616358L110.21199869791667,149.26327140492373L110.69337890624999,149.48930973090728L111.17475911458334,150.3697897874623L111.65613932291667,150.95207172577875L112.13751953124999,149.7768692689172L112.61889973958334,149.51585299246756L113.10027994791666,148.97189021466463L113.58166015625,149.48083900213695L114.06304036458334,149.44279077877385L114.54442057291666,148.75345852229458L115.02580078125,147.84694289111061L115.50718098958333,146.76417381314565L115.98856119791667,146.2580013463947L116.46994140625,145.55061287794283L116.95132161458332,143.82198532487675L117.43270182291667,143.03717183544506L117.91408203125,143.39413211633544L118.39546223958332,143.209847748288L118.87684244791667,142.13186011330038L119.35822265625,142.82169401481403L119.83960286458333,143.11714386338494L120.32098307291668,142.25570079201339L120.80236328125001,142.15241311764603L121.28374348958333,143.09127380522398L121.76512369791666,143.42665703497767L122.24650390625,143.8887715479108L122.72788411458333,144.54714576811557L123.20926432291667,143.83526306016245L123.69064453125,144.18494773038805L124.17202473958334,143.40792021365928L124.65340494791666,144.0445173206755L125.13478515625,144.25589279860944L125.61616536458334,144.4532393336497L126.09754557291666,144.67409575587757L126.57892578124999,144.95750514339147L127.06030598958334,144.39298457319038L127.54168619791666,144.6343917419173L128.02306640625,144.46440486157616L128.50444661458334,143.55043091326343L128.98582682291666,144.4861780175013L129.46720703124998,145.6251162036946L129.94858723958333,145.1872227630857L130.42996744791668,146.34812862779313L130.91134765625,146.93598868766585L131.39272786458335,145.5535738626971L131.87410807291667,146.56414913897132L132.35548828125,146.32977229860208L132.83686848958334,145.74863708588913L133.31824869791666,146.80268334190495L133.79962890625,146.20916071806545L134.28100911458333,146.16069016522778L134.76238932291668,145.61799787102458L135.24376953125,145.73567146735192L135.72514973958332,144.04667711978163L136.20652994791666,144.5874404090016L136.68791015625,145.5772304944026L137.16929036458333,145.5858888112154L137.65067057291668,146.24250343705083L138.13205078125,146.80070511161472L138.61343098958332,146.62408297472237L139.09481119791667,146.63565149914967L139.57619140625,147.74589875769357L140.05757161458334,147.33102586476184L140.53895182291666,147.44516944356224L141.02033203125,149.7601074838885L141.50171223958333,148.61938266850956L141.98309244791668,149.91844051210595L142.46447265625,149.8488807135385L142.94585286458334,150.2743462383973L143.42723307291666,151.52474500003066L143.90861328125,150.6782477801641L144.38999348958333,149.45572934617556L144.87137369791668,150.29475938263772L145.35275390625,150.05883843704905L145.83413411458335,150.61211625163267L146.31551432291667,150.16901486120574L146.79689453125,149.28565687359938L147.27827473958334,147.8891315032953L147.75965494791666,147.76854036300583L148.24103515625,147.38531530066555L148.72241536458333,147.23908021120013L149.20379557291665,147.92683820904386L149.68517578125,150.448263696862L150.16655598958334,151.40684564712686L150.64793619791666,150.26345104518165L151.12931640624998,151.47014604219265L151.61069661458333,152.72117599554576L152.09207682291665,152.63255064643357L152.57345703125,151.67190107485834L153.05483723958335,152.41465031130224L153.53621744791667,151.4497512086307L154.01759765625,151.76849591589655L154.49897786458334,150.8393790422974L154.98035807291666,150.74178301505128L155.46173828125,149.78517547856427L155.94311848958336,149.7727015651226L156.42449869791665,150.78850070687793L156.90587890625,151.12038614320164L157.38725911458334,150.74158804506718L157.86863932291666,151.24929665646556L158.35001953125,152.66959068705106L158.83139973958336,152.13325361904018L159.31277994791665,152.73065730300414L159.79416015625,153.19247650951334L160.27554036458332,152.48818674668829L160.75692057291667,149.78734030531461L161.23830078125002,151.55275907820433L161.7196809895833,150.3881434992489L162.20106119791666,150.19397789915237L162.68244140625,149.18545639049847L163.16382161458333,148.5880990534887L163.64520182291668,148.32957406549443L164.12658203125,148.13900038458812L164.60796223958332,148.99477559618273L165.08934244791666,150.3065375723731L165.57072265625,149.50066390499094L166.05210286458333,150.79779152570333L166.53348307291668,151.47202028004676L167.01486328125,151.62090666861846L167.49624348958332,153.93853533778957L167.97762369791667,153.4406121013853L168.45900390625002,153.59154309495923L168.94038411458334,153.14450914679145L169.42176432291666,153.3315977795557L169.90314453125,151.83594576927746L170.38452473958333,150.5216588367169L170.86590494791668,148.96608941577176L171.34728515625002,148.9177415515986L171.82866536458332,149.95286484593217L172.31004557291666,150.13400209695752L172.79142578124998,150.0320892472624L173.27280598958333,150.46253891762132L173.75418619791668,151.32552595832382L174.23556640624997,151.52391272215633L174.71694661458332,152.74796589221287L175.19832682291667,151.99972222571728L175.67970703125,154.47188486270753L176.16108723958334,154.73024592172484L176.6424674479167,154.07259376798314L177.12384765624998,153.89377606589414L177.60522786458333,153.94207661281956L178.08660807291668,154.42752551195858L178.56798828125,154.80759444199063L179.04936848958334,153.5355811640208L179.5307486979167,152.8750975195692L180.01212890624998,153.0562682161444L180.49350911458333,152.19042671528877L180.97488932291668,152.4212052727409L181.45626953125,151.75647611480963L181.93764973958335,152.63288297529826L182.41902994791667,153.40046048530172L182.90041015625,154.13221855015962L183.38179036458334,154.9406786428518L183.86317057291666,156.13281020044923L184.34455078125,155.5188138245312L184.82593098958333,155.73659236181686L185.30731119791665,157.11567885651212L185.78869140625,156.86032340324542L186.27007161458334,156.82831219014483L186.75145182291666,156.11356286981962L187.23283203124998,156.308504619413L187.71421223958333,155.87806020338536L188.19559244791665,156.52326474451306L188.67697265625,156.71761124131038L189.15835286458335,156.13577633139744L189.63973307291667,154.62873414013316L190.12111328125,154.8770017831343L190.60249348958334,154.70644786555926L191.08387369791666,154.08698651253601L191.56525390625,153.79635520451745L192.04663411458336,153.2742394608869L192.52801432291665,154.29433179640293L193.00939453125,155.0075988788323L193.49077473958334,155.17309814383836L193.97215494791666,155.4991886838399L194.45353515625,155.45528046227597L194.93491536458336,154.43554151717217L195.41629557291665,154.81876932498866L195.89767578125,152.79436937317595L196.37905598958332,155.52803557049046L196.86043619791667,155.32321598885187L197.34181640625002,155.3729854663407L197.8231966145833,154.54141719819862L198.30457682291666,154.60619935228013L198.78595703125,155.27265720635873L199.26733723958333,155.88925436023075L199.74871744791668,155.44718727782248L200.23009765625,154.88450601799676L200.71147786458332,154.8782631030982L201.19285807291666,155.58826092046246L201.67423828125,154.52297462190757L202.15561848958333,152.91498125164722L202.63699869791668,152.89339693816615L203.11837890625,154.3062821498404L203.59975911458332,153.7524612621269L204.08113932291667,153.96224122844347L204.56251953125002,154.50019829036776L205.04389973958334,154.63712043787822L205.52527994791666,153.78778392099545L206.00666015625,153.92952667614705L206.48804036458333,156.1991104579647L206.96942057291668,155.9904455402505L207.45080078125002,156.72310700467332L207.93218098958332,156.9604676775733L208.41356119791666,157.449521710807L208.89494140624998,158.1310864970093L209.37632161458333,158.97121056005406L209.85770182291668,160.04400856094105L210.33908203124997,160.20936455365907L210.82046223958332,159.71658746156297L211.30184244791667,159.8644590188849L211.78322265625,159.68556449620024L212.26460286458334,158.59174545950978L212.7459830729167,158.44965585303862L213.22736328124998,157.85451050727866L213.70874348958333,157.46406277056906L214.19012369791668,156.98189439329244L214.67150390625,155.66809210854237L215.15288411458334,154.83572189638733L215.6342643229167,155.03848344173775L216.11564453124998,156.57395431000066L216.59702473958333,156.44921466170015L217.07840494791668,156.93460140161156L217.55978515625,157.53378476797735L218.04116536458335,157.9208024284172L218.52254557291667,159.14449585863304L219.00392578125,157.81390269567086L219.48530598958334,156.6965321371214L219.96668619791666,157.1986022963455L220.44806640625,156.0091773975787L220.92944661458333,155.65164438386836L221.41082682291665,155.70061354905437L221.89220703125,155.3686260390586L222.37358723958334,155.89976954057568L222.85496744791666,154.53229387159425L223.33634765624998,155.32196885665007L223.81772786458333,155.73139303135648L224.29910807291665,156.3063851416806L224.78048828125,156.56847255534228L225.26186848958335,157.10119720017576L225.74324869791667,157.0913224743217L226.22462890625,157.1341282194623L226.70600911458334,158.23313528410515L227.18738932291666,158.08800454358985L227.66876953125,158.9606644411748L228.15014973958336,158.15001302181471L228.63152994791665,158.39634177105535L229.11291015625,159.6351631684623L229.59429036458334,159.76377452762623L230.07567057291666,159.34194415347304L230.55705078125,159.59886194172378L231.03843098958336,159.4713428887982L231.51981119791665,159.19055637299348L232.00119140625,159.48871580403443L232.48257161458332,160.73999641336255L232.96395182291667,160.97147332546638L233.44533203125002,161.48282450184996L233.9267122395833,161.51049809347785L234.40809244791666,161.39093865297315L234.88947265625,161.080654461462L235.37085286458333,161.35697762424826L235.85223307291668,161.20574667204988L236.33361328125,161.90147218957165L236.81499348958332,161.72799044836717L237.29637369791666,160.81673482765996L237.77775390625,159.97280391910886L238.25913411458333,159.5738109975387L238.74051432291668,158.8980289139744L239.22189453125,158.16751230225532L239.70327473958332,158.39703624187916L240.18465494791667,157.55295218413184L240.66603515625002,157.94933529661694L241.14741536458334,157.82080651014982L241.62879557291666,157.6648822679216L242.11017578125,158.18887057311184L242.59155598958333,158.51953918224734L243.07293619791668,159.34530246811653L243.55431640625002,159.0336138131399L244.03569661458332,159.42886514087135L244.51707682291666,159.77234276014224L244.99845703124998,160.03172293315222L245.47983723958333,159.51142508813643L245.96121744791668,159.56363814916224L246.44259765624997,158.8768632052482L246.92397786458332,160.05898777110644L247.40535807291667,159.97292214867417L247.88673828125,160.81112693879257L248.36811848958334,160.88161450564783L248.8494986979167,161.13281205958057L249.33087890624998,161.12007533728413L249.81225911458333,160.8264181854069L250.29363932291668,161.09676599994955L250.77501953125,160.69088975157436L251.25639973958334,160.6430576237985L251.7377799479167,160.71871333774465L252.21916015624998,160.36932222476486L252.70054036458333,160.15362054017976L253.18192057291668,159.67804819382243L253.66330078125,159.05580084476188L254.14468098958335,159.19135806936006L254.62606119791667,159.04256793360096L255.10744140625,157.6975817915813L255.58882161458334,158.8514744922831L256.07020182291666,158.15026028442213L256.55158203125,158.82399423379744L257.03296223958336,160.24520895712715L257.51434244791665,159.36889259785244L257.99572265625,160.74533616515842L258.47710286458334,161.05581993889376L258.95848307291664,161.35109091846553L259.43986328125,161.70883732302553L259.92124348958333,161.22853687462424L260.4026236979167,161.38375500312938L260.88400390625,161.7885164046719L261.3653841145833,161.1611059163005L261.84676432291667,162.517038464605L262.32814453125,161.5489908886485L262.80952473958337,162.31395522170058L263.29090494791666,163.97240059566016L263.77228515625,164.0936082761721L264.25366536458336,162.48123963843906L264.73504557291665,161.3676874724429" style="fill: none;" fill="none"></path></g></g></g></g><g opacity="0.2"><g><g><g><path stroke="rgb(255, 112, 67)" stroke-width="2px" d="M25.48908203125,-60.80592184066771L25.970462239583334,26.302699041366594L26.45184244791667,39.776469898223894L26.93322265625,103.11914033889772L27.414602864583333,68.06926603317262L27.895983072916664,103.22187645435335L28.377363281250002,79.66266424655916L28.858743489583333,67.77314801216127L29.340123697916667,81.79416961669924L29.821503906249998,78.21593971252443L30.302884114583335,87.67770595550539L30.784264322916666,79.99617154598238L31.26564453125,93.98151297569277L31.74702473958333,122.20875127315523L32.228404947916665,106.01598651409151L32.70978515625,106.90870828628542L33.191165364583334,118.1456845521927L33.67254557291667,86.30521137714388L34.153925781249995,96.5565834760666L34.63530598958334,124.10326094627382L35.116686197916664,120.49751658439638L35.59806640625,103.72433180809023L36.07944661458333,111.62539107799532L36.56082682291667,115.85240514278414L37.04220703125,120.70227141380312L37.523587239583335,123.71402842998506L38.00496744791666,125.53354854583742L38.486347656250004,120.23049552440645L38.96772786458333,113.86830468177797L39.449108072916665,115.12806172370912L39.93048828125001,116.39279837608339L40.411868489583334,122.38795394897463L40.89324869791667,129.35989387035372L41.374628906249995,119.69725520610811L41.85600911458333,129.30368335247042L42.33738932291667,126.24894554615022L42.81876953125,111.66742236614229L43.30014973958333,141.87312741279604L43.78152994791666,127.45403237342836L44.26291015625,144.18223185539247L44.744290364583335,122.97588558197023L45.22567057291666,124.40640528202059L45.707050781250004,111.55620403289797L46.18843098958334,116.36557931900026L46.669811197916665,127.32546980381014L47.15119140625,120.89118010997774L47.63257161458333,120.73894329071047L48.11395182291667,119.44234557151796L48.59533203125,125.56754071712496L49.07671223958333,128.4774478197098L49.55809244791667,122.67020924091341L50.03947265625,138.86394460201265L50.52085286458333,138.61374027729036L51.00223307291667,126.3124988794327L51.48361328125,133.98799867630007L51.964993489583335,138.74584765434267L52.44637369791667,130.4439719438553L52.92775390625,131.1616266489029L53.40913411458334,146.96150858402254L53.890514322916665,143.448498916626L54.37189453125,124.53351194858553L54.853274739583334,115.24563117027284L55.33465494791667,130.9777819633484L55.81603515625,139.0992522954941L56.29741536458333,123.43327124118807L56.778795572916664,126.52966053485872L57.260175781250005,127.38305182456972L57.74155598958333,127.12911279201509L58.22293619791667,127.2656933784485L58.704316406249994,132.7018243789673L59.185696614583335,140.5875861167908L59.66707682291667,137.99238617420198L60.14845703125,115.76589496135713L60.62983723958333,141.28673608303072L61.11121744791667,136.40627474784853L61.59259765625,136.3578290462494L62.073977864583334,125.37462301254274L62.55535807291666,144.75589985847475L63.03673828125,127.2827000141144L63.51811848958334,139.23606498241426L63.999498697916664,145.80788476467134L64.48087890625,132.8811114549637L64.96225911458333,135.79726417064668L65.44363932291667,163.510399889946L65.92501953125,138.11683423519136L66.40639973958334,133.82763833999635L66.88777994791667,121.41604371070864L67.36916015625,124.60430259704592L67.85054036458334,128.5884129524231L68.33192057291667,137.03220756053926L68.81330078124999,134.65364177227022L69.29468098958333,133.3564532518387L69.77606119791668,142.8302676200867L70.25744140625,133.35831005573274L70.73882161458333,131.95051510334017L71.22020182291666,128.12632198333742L71.70158203125,148.590748500824L72.18296223958333,140.9363909482956L72.66434244791667,144.23422236442568L73.14572265624999,137.58542962074281L73.62710286458334,134.10082061290743L74.10848307291667,140.59307212829592L74.58986328124999,140.7933326482773L75.07124348958334,144.95778508186342L75.55262369791667,153.2100967884064L76.03400390624999,127.01443405151369L76.51538411458334,139.27651376724245L76.99676432291666,136.00153369903566L77.47814453125,132.62497801780702L77.95952473958334,141.26951844692232L78.44090494791666,134.37119657993318L78.92228515625,140.87644572257997L79.40366536458333,134.07874996662142L79.88504557291667,147.8484489440918L80.36642578125,144.36314363479616L80.84780598958332,132.78759605884554L81.32918619791667,137.39569802284242L81.81056640625,141.7398384332657L82.29194661458332,138.89458186626436L82.77332682291667,136.3961467266083L83.25470703125,140.85922808647157L83.73608723958333,132.61896450519563L84.21746744791668,136.78090603351595L84.69884765625001,131.91890723705293L85.18022786458333,143.07574553489687L85.66160807291666,144.50016732215883L86.14298828125,126.10588724613191L86.62436848958333,127.49570496082308L87.10574869791667,140.34288890361788L87.58712890625,138.96946592330934L88.06850911458334,151.66878075599672L88.54988932291666,132.31966037750246L89.03126953125,134.6051960706711L89.51264973958334,135.17232306003572L89.99402994791666,134.75228447914125L90.47541015624999,135.5067376613617L90.95679036458334,145.97911162376406L91.43817057291666,147.70716304779054L91.91955078125,144.097029876709L92.40093098958334,141.3524205207825L92.88231119791666,142.72404999732973L93.36369140625,132.4963732481003L93.84507161458333,144.04590446949007L94.32645182291667,134.33043129444124L94.80783203125,146.17762084007265L95.28921223958334,139.1750647544861L95.77059244791667,136.03862757682802L96.25197265625,146.98649103641512L96.73335286458332,139.78120572566988L97.21473307291667,129.22217388153078L97.69611328124999,145.38691778182985L98.17749348958333,142.04941828250887L98.65887369791668,131.57273991107942L99.14025390625,146.6119863510132L99.62163411458333,141.44597811698915L100.10301432291668,147.82774980068208L100.58439453125,144.06147630214693L101.06577473958333,154.4398284673691L101.54715494791668,144.2521152019501L102.02853515625,163.57770903110506L102.50991536458334,152.67829127311708L102.99129557291666,129.53042442798616L103.47267578125,144.28771097660066L103.95405598958334,149.8031781435013L104.43543619791666,144.87176020145418L104.91681640625,144.3957221031189L105.39819661458333,154.6469043016434L105.87957682291666,151.83336110115053L106.36095703125001,146.3501137018204L106.84233723958333,153.87050707340242L107.32371744791666,152.83282799720766L107.80509765625001,150.13248653411867L108.28647786458333,153.90515334606172L108.76785807291667,144.72724599838259L109.24923828124999,143.7118696689606L109.73061848958334,158.410687994957L110.21199869791667,154.36346740722658L110.69337890624999,151.52365465164186L111.17475911458334,158.29411025047304L111.65613932291667,156.19260914325716L112.13751953124999,139.20004720687868L112.61889973958334,147.16670651435854L113.10027994791666,144.07622523307802L113.58166015625,154.06137807369234L114.06304036458334,149.10035676956178L114.54442057291666,142.5494682312012L115.02580078125,139.68830223083498L115.50718098958333,137.01925213336946L115.98856119791667,141.70244915485384L116.46994140625,139.18411667346956L116.95132161458332,128.26433737277986L117.43270182291667,135.97385044097902L117.91408203125,146.60677464008333L118.39546223958332,141.55128843784334L118.87684244791667,132.429971408844L119.35822265625,149.0301991224289L119.83960286458333,145.7761924982071L120.32098307291668,134.50271315574648L120.80236328125001,141.222824048996L121.28374348958333,151.54101998806001L121.76512369791666,146.4451061010361L122.24650390625,148.04780216217043L122.72788411458333,150.4725137472153L123.20926432291667,137.42831869125368L123.69064453125,147.33210976123812L124.17202473958334,136.41467256546022L124.65340494791666,149.77389128208162L125.13478515625,146.15827209949495L125.61616536458334,146.22935814857485L126.09754557291666,146.6618035554886L126.57892578124999,147.50818963050844L127.06030598958334,139.31229944229128L127.54168619791666,146.80705626010896L128.02306640625,142.93452293872835L128.50444661458334,135.32466537952425L128.98582682291666,152.9079019546509L129.46720703124998,155.87555987834932L129.94858723958333,141.24618179798128L130.42996744791668,156.79628140926363L130.91134765625,152.22672922611238L131.39272786458335,133.1118404388428L131.87410807291667,155.65932662487032L132.35548828125,144.22038073539736L132.83686848958334,140.5184201717377L133.31824869791666,156.28909964561464L133.79962890625,140.86745710372927L134.28100911458333,145.7244551897049L134.76238932291668,140.73376722335817L135.24376953125,146.79473383426668L135.72514973958332,128.84572799205782L136.20652994791666,149.45431001186373L136.68791015625,154.4853412628174L137.16929036458333,145.663813662529L137.65067057291668,152.15203506946565L138.13205078125,151.82452018260958L138.61343098958332,145.03448374271395L139.09481119791667,146.73976821899416L139.57619140625,157.73812408447267L140.05757161458334,143.59716982841493L140.53895182291666,148.47246165275575L141.02033203125,170.5945498466492L141.50171223958333,138.35285933017732L141.98309244791668,161.60996110439302L142.46447265625,149.22284252643587L142.94585286458334,154.10353596210481L143.42723307291666,162.7783338546753L143.90861328125,143.05977280139925L144.38999348958333,138.4530634403229L144.87137369791668,157.84602971076967L145.35275390625,147.93554992675783L145.83413411458335,155.5916165828705L146.31551432291667,146.18110234737398L146.79689453125,141.33543498516084L147.27827473958334,135.32040317058565L147.75965494791666,146.68322010040285L148.24103515625,143.93628973960878L148.72241536458333,145.9229644060135L149.20379557291665,154.11666018962862L149.68517578125,173.14109308719637L150.16655598958334,160.03408319950105L150.64793619791666,139.97289962768556L151.12931640624998,162.3304010152817L151.61069661458333,163.98044557571413L152.09207682291665,151.83492250442507L152.57345703125,143.02605493068697L153.05483723958335,159.09939343929292L153.53621744791667,142.7656592845917L154.01759765625,154.63719828128816L154.49897786458334,142.47732717990877L154.98035807291666,149.86341876983644L155.46173828125,141.17570765018465L155.94311848958336,149.66043634414675L156.42449869791665,159.93069298267366L156.90587890625,154.10735507011415L157.38725911458334,147.33240516185762L157.86863932291666,155.81867415905L158.35001953125,165.45223696231844L158.83139973958336,147.30622000694277L159.31277994791665,158.10729045867922L159.79416015625,157.34884936809542L160.27554036458332,146.14957888126375L160.75692057291667,125.47972233295442L161.23830078125002,167.44152803421022L161.7196809895833,139.90660328865053L162.20106119791666,148.4464874982834L162.68244140625,140.10876281261446L163.16382161458333,143.21188302040102L163.64520182291668,146.00284917354585L164.12658203125,146.4238372564316L164.60796223958332,156.69675250053407L165.08934244791666,162.11239535808565L165.57072265625,142.24780089855196L166.05210286458333,162.47194011211397L166.53348307291668,157.5400790691376L167.01486328125,152.96088416576387L167.49624348958332,174.7971933603287L167.97762369791667,148.95930297374727L168.45900390625002,154.94992203712465L168.94038411458334,149.12120361328127L169.42176432291666,155.01539547443392L169.90314453125,138.3750776767731L170.38452473958333,138.6930764436722L170.86590494791668,134.96596462726595L171.34728515625002,148.48261077404024L171.82866536458332,159.2689744949341L172.31004557291666,151.76423735618593L172.79142578124998,149.11487360000612L173.27280598958333,154.33658595085146L173.75418619791668,159.092409324646L174.23556640624997,153.3093935966492L174.71694661458332,163.76444442272188L175.19832682291667,145.2655292272568L175.67970703125,176.72134859561922L176.16108723958334,157.05549545288088L176.6424674479167,148.15372438430788L177.12384765624998,152.28441674709322L177.60522786458333,154.37678153514864L178.08660807291668,158.79656560420992L178.56798828125,158.22821481227876L179.04936848958334,142.0874616622925L179.5307486979167,146.93074471950533L180.01212890624998,154.68680448532106L180.49350911458333,144.3978532075882L180.97488932291668,154.4982122898102L181.45626953125,145.77391369342806L181.93764973958335,160.52054471969606L182.41902994791667,160.30865807533266L182.90041015625,160.71804113388063L183.38179036458334,162.21681947708132L183.86317057291666,166.8619942188263L184.34455078125,149.99284644126894L184.82593098958333,157.6965991973877L185.30731119791665,169.52745730876924L185.78869140625,154.56212432384493L186.27007161458334,156.5402112722397L186.75145182291666,149.68081898689272L187.23283203124998,158.0629803657532L187.71421223958333,152.00406045913698L188.19559244791665,162.3301056146622L188.67697265625,158.46672971248628L189.15835286458335,150.8992621421814L189.63973307291667,141.0653544187546L190.12111328125,157.11141057014467L190.60249348958334,153.17146260738375L191.08387369791666,148.51183433532717L191.56525390625,151.18067343235018L192.04663411458336,148.57519776821138L192.52801432291665,163.47516281604769L193.00939453125,161.42700262069704L193.49077473958334,156.66259152889253L193.97215494791666,158.43400354385378L194.45353515625,155.0601064682007L194.93491536458336,145.25789101123812L195.41629557291665,158.26781959533693L195.89767578125,134.5747698068619L196.37905598958332,180.13103134632112L196.86043619791667,153.47983975410463L197.34181640625002,155.82091076374056L197.8231966145833,147.05730278491976L198.30457682291666,155.1892387390137L198.78595703125,161.27077789306642L199.26733723958333,161.43862874507906L199.74871744791668,151.4685835361481L200.23009765625,149.82037467956545L200.71147786458332,154.82207686901094L201.19285807291666,161.97824127674104L201.67423828125,144.93539793491365L202.15561848958333,138.4430409193039L202.63699869791668,152.69913811683656L203.11837890625,167.02224905490877L203.59975911458332,148.7680732727051L204.08113932291667,155.850260925293L204.56251953125002,159.34181184768678L205.04389973958334,155.86941976547243L205.52527994791666,146.14375526905062L206.00666015625,155.2052114725113L206.48804036458333,176.62536449432375L206.96942057291668,154.11246128082277L207.45080078125002,163.31706018447878L207.93218098958332,159.0967137336731L208.41356119791666,161.8510080099106L208.89494140624998,164.26516957283022L209.37632161458333,166.53232712745668L209.85770182291668,169.69919056892397L210.33908203124997,161.69756848812105L210.82046223958332,155.28159363269808L211.30184244791667,161.19530303478243L211.78322265625,158.07551379203798L212.26460286458334,148.74737412929537L212.7459830729167,157.1708493947983L213.22736328124998,152.49820239543917L213.70874348958333,153.9500331401825L214.19012369791668,152.64237899780275L214.67150390625,143.84387154579164L215.15288411458334,147.3443899869919L215.6342643229167,156.86333734989168L216.11564453124998,170.39319212436678L216.59702473958333,155.32655782699587L217.07840494791668,161.30308206081392L217.55978515625,162.9264350652695L218.04116536458335,161.4039613723755L218.52254557291667,170.15773673057558L219.00392578125,145.83856422901155L219.48530598958334,146.6401971101761L219.96668619791666,161.7172337293625L220.44806640625,145.3043533086777L220.92944661458333,152.43384726047518L221.41082682291665,156.14133603572847L221.89220703125,152.3807384490967L222.37358723958334,160.68006105422975L222.85496744791666,142.22501285076143L223.33634765624998,162.42904372215273L223.81772786458333,159.416210603714L224.29910807291665,161.4813141345978L224.78048828125,158.92725927829744L225.26186848958335,161.89571900367739L225.74324869791667,157.00244994163515L226.22462890625,157.51937992572786L226.70600911458334,168.12419886589052L227.18738932291666,156.78182787895204L227.66876953125,166.81460351943971L228.15014973958336,150.85415024757387L228.63152994791665,160.6133005142212L229.11291015625,170.78455574512483L229.59429036458334,160.92127676010134L230.07567057291666,155.54547078609468L230.55705078125,161.91112203598024L231.03843098958336,158.32367141246797L231.51981119791665,156.66347773075105L232.00119140625,162.17215068340303L232.48257161458332,172.001521897316L232.96395182291667,163.05476553440096L233.44533203125002,166.08498508930208L233.9267122395833,161.75956041812898L234.40809244791666,160.3149036884308L234.88947265625,158.28809673786165L235.37085286458333,163.84388608932497L235.85223307291668,159.84466810226442L236.33361328125,168.16300184726717L236.81499348958332,160.16665477752687L237.29637369791666,152.61543424129488L237.77775390625,152.37742574214937L238.25913411458333,155.9828747034073L238.74051432291668,152.81599016189577L239.22189453125,151.59286279678346L239.70327473958332,160.46275169849397L240.18465494791667,149.95619566440584L240.66603515625002,161.51678330898287L241.14741536458334,156.66404743194582L241.62879557291666,156.26156408786775L242.11017578125,162.90476531982424L242.59155598958333,161.49555666446687L243.07293619791668,166.77717204093935L243.55431640625002,156.22841591835024L244.03569661458332,162.98612709045412L244.51707682291666,162.86364133358003L244.99845703124998,162.36614449024202L245.47983723958333,154.8287444829941L245.96121744791668,160.0335556983948L246.44259765624997,152.695888710022L246.92397786458332,170.69810886383058L247.40535807291667,159.19833154678346L247.88673828125,168.3549700498581L248.36811848958334,161.5160026073456L248.8494986979167,163.3935900449753L249.33087890624998,161.00544483661653L249.81225911458333,158.18350381851198L250.29363932291668,163.52989633083345L250.77501953125,157.03800351619722L251.25639973958334,160.21256847381594L251.7377799479167,161.3996147632599L252.21916015624998,157.2248022079468L252.70054036458333,158.2123053789139L253.18192057291668,155.39789707660677L253.66330078125,153.45557470321657L254.14468098958335,160.41137309074404L254.62606119791667,157.70345671176912L255.10744140625,145.59270651340486L255.58882161458334,169.23650879859926L256.07020182291666,151.83933241367342L256.55158203125,164.88759977817537L257.03296223958336,173.03614146709444L257.51434244791665,151.4820453643799L257.99572265625,173.1333282709122L258.47710286458334,163.8501739025116L258.95848307291664,164.00852973461153L259.43986328125,164.92855496406557L259.92124348958333,156.90583283901216L260.4026236979167,162.78071815967562L260.88400390625,165.4313690185547L261.3653841145833,155.51441152095796L261.84676432291667,174.72043139934542L262.32814453125,152.83656270504L262.80952473958337,169.19863421916963L263.29090494791666,178.8984089612961L263.77228515625,165.18447740077974L264.25366536458336,147.96992189884187L264.73504557291665,151.3457179784775" style="fill: none;" fill="none"></path></g></g></g></g></g></g><g transform="translate(41, 177)" clip-path="url(#clip_1)"><clipPath id="clip_1"><rect width="288" height="23"></rect></clipPath><g><g><line x1="0" y1="0" x2="0" y2="5" style="visibility: inherit;" fill="rgb(0, 0, 0)" stroke="rgb(204, 204, 204)" stroke-width="1px"></line><line x1="24.069010416666664" y1="0" x2="24.069010416666664" y2="5" style="visibility: inherit;" fill="rgb(0, 0, 0)" stroke="rgb(204, 204, 204)" stroke-width="1px"></line><line x1="48.13802083333333" y1="0" x2="48.13802083333333" y2="5" style="visibility: inherit;" fill="rgb(0, 0, 0)" stroke="rgb(204, 204, 204)" stroke-width="1px"></line><line x1="72.20703125" y1="0" x2="72.20703125" y2="5" style="visibility: inherit;" fill="rgb(0, 0, 0)" stroke="rgb(204, 204, 204)" stroke-width="1px"></line><line x1="96.27604166666666" y1="0" x2="96.27604166666666" y2="5" style="visibility: inherit;" fill="rgb(0, 0, 0)" stroke="rgb(204, 204, 204)" stroke-width="1px"></line><line x1="120.34505208333334" y1="0" x2="120.34505208333334" y2="5" style="visibility: inherit;" fill="rgb(0, 0, 0)" stroke="rgb(204, 204, 204)" stroke-width="1px"></line><line x1="144.4140625" y1="0" x2="144.4140625" y2="5" style="visibility: inherit;" fill="rgb(0, 0, 0)" stroke="rgb(204, 204, 204)" stroke-width="1px"></line><line x1="168.48307291666669" y1="0" x2="168.48307291666669" y2="5" style="visibility: inherit;" fill="rgb(0, 0, 0)" stroke="rgb(204, 204, 204)" stroke-width="1px"></line><line x1="192.55208333333331" y1="0" x2="192.55208333333331" y2="5" style="visibility: inherit;" fill="rgb(0, 0, 0)" stroke="rgb(204, 204, 204)" stroke-width="1px"></line><line x1="216.62109375" y1="0" x2="216.62109375" y2="5" style="visibility: inherit;" fill="rgb(0, 0, 0)" stroke="rgb(204, 204, 204)" stroke-width="1px"></line><line x1="240.69010416666669" y1="0" x2="240.69010416666669" y2="5" style="visibility: inherit;" fill="rgb(0, 0, 0)" stroke="rgb(204, 204, 204)" stroke-width="1px"></line><line x1="264.7591145833333" y1="0" x2="264.7591145833333" y2="5" style="visibility: inherit;" fill="rgb(0, 0, 0)" stroke="rgb(204, 204, 204)" stroke-width="1px"></line><line x1="288.828125" y1="0" x2="288.828125" y2="5" style="visibility: inherit;" fill="rgb(0, 0, 0)" stroke="rgb(204, 204, 204)" stroke-width="1px"></line></g><g transform="translate(0, 8)"><text x="0" y="0" dx="0em" dy="0.95em" style="text-anchor: middle; visibility: hidden; font-family: Roboto, sans-serif; font-size: 12px; font-weight: 200;" fill="rgb(33, 33, 33)" stroke="none" stroke-width="1px">-1k</text><text x="24.069010416666664" y="0" dx="0em" dy="0.95em" style="text-anchor: middle; visibility: inherit; font-family: Roboto, sans-serif; font-size: 12px; font-weight: 200;" fill="rgb(33, 33, 33)" stroke="none" stroke-width="1px">0</text><text x="48.13802083333333" y="0" dx="0em" dy="0.95em" style="text-anchor: middle; visibility: inherit; font-family: Roboto, sans-serif; font-size: 12px; font-weight: 200;" fill="rgb(33, 33, 33)" stroke="none" stroke-width="1px">1k</text><text x="72.20703125" y="0" dx="0em" dy="0.95em" style="text-anchor: middle; visibility: inherit; font-family: Roboto, sans-serif; font-size: 12px; font-weight: 200;" fill="rgb(33, 33, 33)" stroke="none" stroke-width="1px">2k</text><text x="96.27604166666666" y="0" dx="0em" dy="0.95em" style="text-anchor: middle; visibility: inherit; font-family: Roboto, sans-serif; font-size: 12px; font-weight: 200;" fill="rgb(33, 33, 33)" stroke="none" stroke-width="1px">3k</text><text x="120.34505208333334" y="0" dx="0em" dy="0.95em" style="text-anchor: middle; visibility: inherit; font-family: Roboto, sans-serif; font-size: 12px; font-weight: 200;" fill="rgb(33, 33, 33)" stroke="none" stroke-width="1px">4k</text><text x="144.4140625" y="0" dx="0em" dy="0.95em" style="text-anchor: middle; visibility: inherit; font-family: Roboto, sans-serif; font-size: 12px; font-weight: 200;" fill="rgb(33, 33, 33)" stroke="none" stroke-width="1px">5k</text><text x="168.48307291666669" y="0" dx="0em" dy="0.95em" style="text-anchor: middle; visibility: inherit; font-family: Roboto, sans-serif; font-size: 12px; font-weight: 200;" fill="rgb(33, 33, 33)" stroke="none" stroke-width="1px">6k</text><text x="192.55208333333331" y="0" dx="0em" dy="0.95em" style="text-anchor: middle; visibility: inherit; font-family: Roboto, sans-serif; font-size: 12px; font-weight: 200;" fill="rgb(33, 33, 33)" stroke="none" stroke-width="1px">7k</text><text x="216.62109375" y="0" dx="0em" dy="0.95em" style="text-anchor: middle; visibility: inherit; font-family: Roboto, sans-serif; font-size: 12px; font-weight: 200;" fill="rgb(33, 33, 33)" stroke="none" stroke-width="1px">8k</text><text x="240.69010416666669" y="0" dx="0em" dy="0.95em" style="text-anchor: middle; visibility: inherit; font-family: Roboto, sans-serif; font-size: 12px; font-weight: 200;" fill="rgb(33, 33, 33)" stroke="none" stroke-width="1px">9k</text><text x="264.7591145833333" y="0" dx="0em" dy="0.95em" style="text-anchor: middle; visibility: inherit; font-family: Roboto, sans-serif; font-size: 12px; font-weight: 200;" fill="rgb(33, 33, 33)" stroke="none" stroke-width="1px">10k</text><text x="288.828125" y="0" dx="0em" dy="0.95em" style="text-anchor: middle; visibility: hidden; font-family: Roboto, sans-serif; font-size: 12px; font-weight: 200;" fill="rgb(33, 33, 33)" stroke="none" stroke-width="1px">11k</text></g><line x1="0" y1="0" x2="288.828125" y2="0" fill="rgb(0, 0, 0)" stroke="rgb(204, 204, 204)" stroke-width="1px"></line></g></g></g></g></svg>